<svg width="675" height="360" viewBox="0 0 675 360" fill="none" xmlns="http://www.w3.org/2000/svg">
<path d="M125.834 201.441C128.099 219.872 131.54 236.077 154.334 233.994C168.579 232.692 185.007 213.625 170.575 200.986C162.5 193.915 149.384 196.609 139.642 195.637C123.9 194.068 127.767 173.783 128.592 162.916C131.648 122.694 135.618 82.445 149.187 44.2467C160.808 11.5306 173.002 -21.5741 186.122 -53.7057C195.638 -77.01 204.901 -99.5069 228.645 -111.171C276.743 -134.798 245.698 -62.232 238.78 -45.5276C227.893 -19.2434 217.284 5.15479 212.981 33.558C209.173 58.6976 209.823 84.283 206.067 109.439C202.39 134.072 192.994 155.878 183.536 178.619C177.989 191.956 174.142 199.719 192.299 199.182C271.673 196.833 350.325 186.544 428.987 204.873C451.631 210.149 492.376 219.967 502.773 245.482C509.417 261.789 496.5 282.104 485.131 292.589C448.241 326.61 389.845 316.514 347.363 300.971C299.533 283.472 260.791 243.612 209.867 234.732C148.834 224.089 178.496 332.391 172.458 362.833C163.944 405.764 121.043 404.947 86.3358 395.029C60.7928 387.729 -52.4566 346.445 -12.8455 301.72C12.5699 273.023 51.9991 268.283 85.229 254.157C118.922 239.834 86.43 208.94 70.6818 194.34C15.3403 143.036 -53.21 109.231 -110.139 60.0132C-140.266 33.9671 -219.339 -54.393 -150.071 -87.0433C-80.245 -119.957 -49.8037 -25.3875 -30.4875 20.0468C-9.37696 69.7016 16.4547 115.727 62.9057 145.712C82.6298 158.444 102.859 170.966 122.8 183.371C141.854 195.225 167.402 202.206 188.819 192.519C238.579 170.014 264.06 109.213 317.308 91.249C337.969 84.2788 369.091 99.6198 365.232 123.842C356.925 175.986 300.664 179.333 258.572 180.884C223.565 182.174 193.218 193.816 159.79 203.059" stroke="#232323" stroke-linecap="round"/>
<path d="M232.602 298.613C238.562 314.459 245.086 328.082 264.826 321.371C277.162 317.177 287.62 296.778 272.127 288.661C263.459 284.12 252.422 289.305 243.585 290.524C229.308 292.493 228.38 273.696 226.78 263.892C220.857 227.604 215.738 191.097 219.559 154.359C222.832 122.893 226.529 90.9605 231.255 59.6926C234.682 37.0146 238.059 15.106 256.586 -0.295892C294.113 -31.4946 282.187 39.423 279.644 55.6994C275.641 81.3101 271.48 105.191 273.763 131.273C275.784 154.359 281.848 176.888 283.919 199.977C285.947 222.587 282.305 243.912 278.807 266.078C276.756 279.078 275.014 286.777 290.979 282.426C360.77 263.404 428.218 237.502 501.814 236.951C522.999 236.793 561.19 236.796 575.871 257.182C585.254 270.212 578.173 290.967 570.354 302.683C544.982 340.699 491.1 344.217 450.143 339.513C404.03 334.218 361.168 307.171 314.164 310.173C257.829 313.77 307.334 403.391 308.518 431.651C310.187 471.504 272.019 479.937 239.154 478.556C214.966 477.541 105.815 465.135 131.299 417.056C147.651 386.207 181.553 373.592 207.951 353.984C234.717 334.103 199.314 313.666 182.235 304.093C122.217 270.45 54.2559 255.13 -6.72036 223.675C-38.9891 207.029 -127.973 145.621 -73.6337 101.91C-18.856 57.8461 28.3919 135.135 55.2459 171.266C84.5945 210.753 117.345 246.017 164.916 262.669C185.115 269.74 205.716 276.516 226.038 283.251C245.456 289.686 269.579 290.419 286.468 277.265C325.708 246.706 335.23 187.4 378.533 160.119C395.335 149.535 426.188 156.484 427.967 178.768C431.798 226.738 382.69 241.712 345.746 252.07C315.02 260.685 290.642 277.476 263.021 292.8" stroke="#232323" stroke-linecap="round"/>
<path d="M131.646 206.212C134.109 224.538 137.718 240.636 160.391 238.306C174.56 236.85 190.702 217.68 176.189 205.257C168.07 198.307 155.041 201.136 145.329 200.278C129.638 198.891 133.259 178.65 133.959 167.82C136.548 127.736 140.047 87.6149 153.127 49.428C164.329 16.7216 176.098 -16.3781 188.8 -48.5193C198.012 -71.8306 206.982 -94.335 230.493 -106.215C278.118 -130.281 248.024 -57.6771 241.323 -40.9666C230.779 -14.6728 220.491 9.73994 216.527 38.0698C213.018 63.1446 213.954 88.6132 210.498 113.703C207.114 138.273 198.004 160.091 188.843 182.84C183.47 196.183 179.727 203.955 197.8 203.216C276.806 199.988 355.005 188.862 433.535 206.23C456.141 211.23 496.821 220.549 507.461 245.839C514.261 262.001 501.628 282.374 490.426 292.942C454.077 327.231 395.819 317.832 353.344 302.833C305.523 285.944 266.498 246.689 215.693 238.418C154.802 228.505 185.558 336.011 179.889 366.39C171.894 409.233 129.169 408.901 94.4991 399.413C68.9837 392.431 -44.2442 352.593 -5.3073 307.616C19.6755 278.757 58.8818 273.595 91.8097 259.157C125.196 244.518 92.496 214.12 76.651 199.759C20.9692 149.294 -47.6674 116.403 -104.907 68.0341C-135.198 42.4372 -214.926 -44.6584 -146.324 -77.9455C-77.1687 -111.501 -45.7927 -17.6775 -26.0475 27.3458C-4.46818 76.5515 21.7711 122.09 68.3603 151.426C88.1432 163.882 108.426 176.124 128.421 188.253C147.527 199.842 173.044 206.507 194.26 196.622C243.552 173.655 268.239 112.829 321.056 94.3445C341.549 87.1725 372.71 102.099 369.141 126.261C361.457 178.274 305.476 182.238 263.582 184.254C228.74 185.932 198.654 197.864 165.475 207.442" stroke="#232323"/>
<path d="M137.382 210.96C140.041 229.18 143.816 245.168 166.364 242.594C180.456 240.986 196.312 221.718 181.722 209.511C173.559 202.681 160.618 205.644 150.939 204.899C135.3 203.694 138.677 183.499 139.252 172.708C141.378 132.767 144.41 92.7791 157.003 54.6096C167.789 21.9182 179.133 -11.1712 191.418 -43.3167C200.328 -66.6311 209.006 -89.1394 232.281 -101.232C279.43 -125.728 250.284 -53.099 243.8 -36.3852C233.598 -10.0862 223.629 14.337 220.001 42.5896C216.791 67.5959 218.009 92.9446 214.851 117.966C211.758 142.467 202.934 164.294 194.069 187.048C188.869 200.393 185.23 208.174 203.216 207.237C281.845 203.136 359.581 191.181 437.968 207.595C460.533 212.319 501.142 221.143 512.021 246.204C518.974 262.221 506.625 282.648 495.59 293.296C459.785 327.845 401.672 319.14 359.212 304.681C311.406 288.401 272.108 249.752 221.429 242.086C160.689 232.898 192.523 339.597 187.221 369.91C179.744 412.658 137.199 412.806 102.572 403.748C77.0881 397.082 -36.0999 358.685 2.16206 313.464C26.7118 284.449 65.6908 278.87 98.3138 264.125C131.392 249.174 98.4897 219.273 82.5512 205.152C26.5412 155.528 -42.1699 123.548 -99.7071 76.0283C-130.156 50.881 -210.521 -34.9466 -142.591 -68.8597C-74.1119 -103.046 -41.814 -9.97765 -21.6468 34.6308C0.393872 83.3832 27.033 128.432 73.7517 157.119C93.5895 169.301 113.923 181.262 133.968 193.115C153.122 204.44 178.604 210.79 199.617 200.71C248.438 177.289 272.333 116.448 324.713 97.4506C345.037 90.0797 376.232 104.593 372.95 128.691C365.886 180.567 310.191 185.141 268.501 187.619C233.828 189.679 204.007 201.897 171.078 211.807" stroke="#232323"/>
<path d="M143.049 215.69C145.901 233.801 149.84 249.678 172.262 246.862C186.274 245.103 201.845 225.74 187.18 213.749C178.976 207.041 166.124 210.136 156.479 209.502C140.893 208.478 144.029 188.332 144.479 177.582C146.147 137.789 148.715 97.9398 160.823 59.7939C171.194 27.1226 182.116 -5.95119 193.986 -38.0956C202.594 -61.4093 210.98 -83.9177 234.019 -96.2193C280.687 -121.138 252.486 -48.4956 246.219 -31.7812C236.357 -5.48134 226.707 18.9482 223.413 47.1195C220.498 72.0539 221.996 97.2796 219.134 122.228C216.331 146.659 207.791 168.49 199.22 191.246C194.194 204.591 190.658 212.38 208.555 211.244C286.798 206.28 364.062 193.505 442.294 208.969C464.814 213.421 505.347 221.751 516.461 246.582C523.564 262.452 511.5 282.929 500.632 293.655C465.372 328.456 407.412 320.44 364.973 306.519C317.191 290.846 277.628 252.804 227.082 245.739C166.502 237.272 199.4 343.154 194.463 373.395C187.5 416.042 145.141 416.667 110.562 408.036C85.1135 401.685 -28.0167 364.722 9.56994 319.267C33.6864 290.102 72.4335 284.111 104.749 269.063C137.515 253.806 104.419 224.403 88.3902 210.521C32.0638 161.74 -36.7098 130.667 -94.5331 83.9978C-125.133 59.3004 -206.117 -25.256 -138.863 -59.7842C-71.0667 -94.5911 -37.8601 -2.28597 -17.2776 41.9039C5.21687 90.1989 32.2482 134.755 79.0876 162.795C98.9767 174.701 119.357 186.383 139.449 197.96C158.648 209.022 184.09 215.059 204.899 204.786C253.244 180.919 276.35 120.072 328.289 100.57C348.442 93.0031 379.665 107.104 376.669 131.135C370.22 182.866 314.818 188.045 273.337 190.979C238.837 193.419 209.283 205.919 176.608 216.155" stroke="#232323"/>
<path d="M148.639 220.4C151.683 238.401 155.784 254.165 178.076 251.11C192.008 249.201 207.292 229.748 192.557 217.974C184.313 211.386 171.552 214.612 161.941 214.089C146.412 213.244 149.307 193.15 149.634 182.441C150.846 142.802 152.954 103.097 164.58 64.9807C174.537 32.3347 185.039 -0.718224 196.495 -32.8564C204.803 -56.1656 212.899 -78.6705 235.699 -91.177C281.883 -116.511 254.623 -43.8671 248.571 -27.1549C239.049 -0.858429 229.716 23.5734 226.754 51.6596C224.132 76.5187 225.909 101.618 223.34 126.491C220.824 150.847 212.567 172.679 204.291 195.432C199.436 208.777 196.004 216.571 213.811 215.24C291.656 209.42 368.44 195.834 446.506 210.354C468.978 214.534 509.429 222.373 520.774 246.973C528.025 262.694 516.244 283.218 505.545 294.019C470.83 329.065 413.032 321.733 370.621 308.349C322.871 293.278 283.05 255.845 232.645 249.377C172.233 241.626 206.182 346.68 201.606 376.846C195.154 419.386 152.987 420.483 118.461 412.277C93.0516 406.238 -20.0026 370.704 16.9082 325.025C40.5911 295.716 79.102 289.316 111.107 273.972C143.559 258.413 110.275 229.509 94.1601 215.867C37.5292 167.928 -31.2952 137.761 -89.3928 91.9421C-120.138 67.6947 -201.722 -15.5874 -135.15 -50.7199C-68.0408 -86.136 -33.9386 5.39695 -12.9478 49.1647C9.99298 96.9982 37.4087 141.058 84.3602 168.451C104.297 180.083 124.72 191.486 144.855 202.787C164.095 213.586 189.495 219.312 210.097 208.85C257.963 184.545 280.282 123.703 331.776 103.703C351.756 95.9429 383.002 109.632 380.29 133.593C374.452 185.172 319.349 190.95 278.081 194.336C243.759 197.153 214.474 209.93 182.058 220.487" stroke="#232323"/>
<path d="M154.16 225.094C157.394 242.983 161.654 258.632 183.815 255.341C197.664 253.284 212.663 233.744 197.859 222.186C189.576 215.719 176.908 219.074 167.333 218.661C151.862 217.994 154.518 197.955 154.723 187.289C155.483 147.809 157.135 108.253 168.28 70.1721C177.826 37.5566 187.91 4.52978 198.953 -27.597C206.963 -50.8978 214.77 -73.3955 237.329 -86.1032C283.026 -111.845 256.704 -39.2113 250.867 -22.504C241.682 3.78476 232.665 28.2149 230.033 56.212C227.703 80.9923 229.754 105.963 227.476 130.756C225.246 155.034 217.271 176.864 209.287 199.611C204.605 212.952 201.275 220.75 218.989 219.225C296.429 212.558 372.724 198.171 450.613 211.753C473.033 215.662 513.396 223.014 524.969 247.38C532.365 262.951 520.866 283.517 510.336 294.392C476.167 329.674 418.54 323.023 376.163 310.171C328.451 295.702 288.384 258.878 238.126 253.003C177.891 245.963 212.874 350.179 208.659 380.265C202.714 422.693 160.744 424.257 126.276 416.474C100.91 410.747 -12.0507 376.634 24.1842 330.74C47.4333 301.293 85.7038 294.489 117.396 278.853C149.531 262.999 116.067 234.593 99.8685 221.191C42.9449 174.096 -25.9186 144.831 -84.2784 99.8631C-115.163 76.0658 -197.329 -5.93936 -131.443 -41.6652C-65.0263 -77.6794 -30.0418 13.0729 -8.64959 56.4149C14.7299 103.783 42.5222 147.344 89.5772 174.092C109.558 185.449 130.02 196.574 150.194 207.6C169.472 218.136 194.825 223.552 215.22 212.905C262.602 188.169 284.139 127.342 335.182 106.852C354.987 98.9014 386.251 112.181 383.821 136.068C378.589 187.488 323.792 193.858 282.743 197.692C248.603 200.881 219.59 213.931 187.434 224.806" stroke="#232323"/>
<path d="M159.609 229.771C163.03 247.545 167.448 263.078 189.474 259.553C203.239 257.349 217.952 237.727 203.083 226.385C194.764 220.04 182.188 223.522 172.651 223.218C157.241 222.728 159.659 202.747 159.743 192.124C160.055 152.809 161.254 113.407 171.921 75.3676C181.057 42.7876 190.725 9.79211 201.358 -22.318C209.07 -45.6068 216.589 -68.0937 238.906 -80.9988C284.112 -107.14 258.724 -34.529 253.101 -17.8292C244.253 8.4476 235.551 32.872 233.245 60.7763C231.205 85.4744 233.528 110.313 231.54 135.023C229.593 159.22 221.899 181.044 214.207 203.781C209.695 217.116 206.467 224.918 224.087 223.201C301.112 215.695 376.91 200.516 454.61 213.165C476.976 216.806 517.244 223.674 529.041 247.802C536.58 263.223 525.363 283.828 515.002 294.773C481.381 330.285 423.931 324.308 381.596 311.988C333.931 298.116 293.624 261.902 243.52 256.617C183.47 250.282 219.475 353.651 215.617 383.652C210.176 425.962 168.408 427.99 134.004 420.627C108.684 415.209 -4.16512 382.512 31.3936 336.412C54.2088 306.833 92.2347 299.63 123.612 283.707C155.426 267.562 121.79 239.655 105.511 226.493C48.307 180.242 -20.584 151.877 -79.1944 107.76C-110.211 84.4127 -192.941 3.68692 -127.747 -32.6213C-62.0271 -69.2226 -26.1737 20.741 -4.38702 63.6537C19.4235 110.553 47.5847 153.612 94.7345 179.715C114.755 190.799 135.253 201.646 155.463 212.398C174.775 222.672 200.078 227.78 220.263 216.951C267.159 191.792 287.915 130.989 338.504 110.016C358.132 101.879 389.408 114.75 387.258 138.559C382.629 189.814 328.144 196.77 287.319 201.047C253.364 204.605 224.626 217.923 192.733 229.111" stroke="#232323"/>
<path d="M164.981 234.432C168.587 252.089 173.16 267.505 195.049 263.748C208.729 261.4 223.156 241.698 208.225 230.573C199.871 224.349 187.39 227.957 177.892 227.762C162.544 227.446 164.726 207.525 164.69 196.949C164.558 157.802 165.307 118.56 175.499 80.5679C184.228 48.0285 193.481 15.0694 203.705 -17.019C211.121 -40.292 218.354 -62.7645 240.427 -75.863C285.139 -102.396 260.681 -29.8193 255.271 -13.1299C246.758 13.1308 238.369 37.5456 236.388 65.3533C234.635 89.9659 237.228 114.669 235.527 139.293C233.862 163.406 226.448 185.22 219.045 207.944C214.703 221.271 211.578 229.075 229.1 227.168C305.701 218.831 380.994 202.869 458.494 214.592C480.803 217.966 520.971 224.352 532.987 248.243C540.667 263.511 529.732 284.152 519.539 295.165C486.467 330.897 429.203 325.591 386.916 313.799C339.304 300.523 298.767 264.92 248.825 260.219C188.968 254.585 225.978 357.097 222.475 387.01C217.535 429.194 175.974 431.682 141.639 424.737C116.37 419.626 3.64958 388.338 38.5321 342.042C60.9135 312.337 98.6907 304.739 129.75 288.534C161.243 272.103 127.44 244.696 111.085 231.775C53.6114 186.367 -15.2955 158.9 -74.1446 115.633C-105.288 92.7358 -188.562 13.2915 -124.065 -23.5881C-59.0472 -60.7654 -22.3381 28.4015 -0.163964 70.8817C24.0701 117.308 52.5922 159.862 99.8283 185.323C119.886 196.134 140.415 206.703 160.657 217.181C180 227.194 205.249 231.996 225.223 220.988C271.629 195.414 291.609 134.645 341.738 113.197C361.188 104.875 392.471 117.339 390.599 141.068C386.568 192.15 332.401 199.686 291.804 204.403C258.039 208.325 229.577 221.907 197.952 233.403" stroke="#232323"/>
<path d="M170.284 239.079C174.073 256.618 178.8 271.914 200.55 267.929C214.142 265.438 228.283 245.661 213.293 234.753C204.906 228.65 192.521 232.381 183.062 232.293C167.779 232.151 169.727 212.294 169.572 201.764C168.999 162.792 169.303 123.714 179.022 85.7752C187.345 53.2814 196.186 20.3639 206.004 -11.6976C213.124 -34.9512 220.072 -57.4057 241.9 -70.6939C286.115 -97.6111 262.583 -25.0802 257.385 -8.40365C249.206 17.8367 241.129 42.2379 239.47 69.9452C238.002 94.469 240.862 119.034 239.446 143.569C238.059 167.594 230.924 189.395 223.81 212.102C219.638 225.419 216.614 233.223 234.038 231.128C310.205 221.97 384.985 205.234 462.274 216.036C484.522 219.146 524.584 225.053 536.817 248.704C544.634 263.819 533.981 284.492 523.957 295.57C491.433 331.516 434.363 326.874 392.13 315.609C344.58 302.925 303.821 267.933 254.047 263.813C194.392 258.875 232.393 360.52 229.243 390.34C224.8 432.394 183.451 435.336 149.189 428.807C123.974 424.002 11.4007 394.115 45.6072 347.632C67.5549 317.807 105.079 309.82 135.819 293.338C166.986 276.626 133.024 249.719 116.596 237.038C58.8658 192.475 -10.0456 165.9 -69.1216 123.484C-100.385 101.037 -184.186 22.8761 -120.39 -14.5639C-56.0785 -52.3061 -18.5273 36.0563 4.0273 78.1007C28.6771 124.051 57.5525 166.098 104.866 190.917C124.957 201.455 145.515 211.747 165.785 221.953C185.155 231.704 210.346 236.202 230.108 225.019C276.02 199.037 295.227 138.312 344.892 116.397C364.163 107.894 395.448 119.953 393.851 143.598C390.413 194.499 336.572 202.61 296.207 207.761C262.636 212.044 234.453 225.885 203.097 237.685" stroke="#232323"/>
<path d="M175.514 243.712C179.484 261.131 184.362 276.306 205.97 272.095C219.474 269.462 233.33 249.615 218.283 238.923C209.865 232.941 197.577 236.795 188.159 236.813C172.942 236.842 174.658 217.052 174.385 206.57C173.375 167.777 173.238 128.869 182.486 90.9889C190.406 58.5456 198.837 25.6748 208.25 -6.35488C215.076 -29.5853 221.74 -52.0183 243.321 -65.4923C287.037 -92.786 264.426 -20.3123 259.439 -3.65139C251.592 22.5645 243.826 46.9482 242.487 74.5514C241.302 98.9831 244.426 123.408 243.293 147.849C242.183 171.784 235.325 193.569 228.498 216.254C224.495 229.559 221.573 237.363 238.895 235.082C314.621 225.11 388.879 207.61 465.946 217.499C488.131 220.345 528.081 225.777 540.526 249.186C548.479 264.147 538.105 284.847 528.251 295.989C496.277 332.14 439.409 328.159 397.236 317.416C349.754 305.322 308.782 270.941 259.183 267.397C199.738 263.15 238.715 363.919 235.915 393.642C231.966 435.56 190.833 438.953 156.651 432.837C131.494 428.335 19.0839 399.842 52.6147 353.182C74.1287 323.243 111.396 314.87 141.813 298.117C172.654 281.13 138.54 254.722 122.042 242.282C64.0661 198.563 -4.83824 172.878 -64.1296 131.312C-95.5066 109.315 -179.816 32.4392 -116.725 -5.5501C-53.125 -43.846 -14.7452 43.7043 8.18286 85.3098C33.2408 130.78 62.4615 172.317 109.845 196.496C129.965 206.763 150.547 216.779 170.842 226.712C190.235 236.203 215.366 240.399 234.913 229.044C280.329 202.662 298.766 141.991 347.964 119.616C367.053 110.935 398.335 122.589 397.011 146.148C394.162 196.862 340.652 205.54 300.524 211.121C267.151 215.762 239.249 229.857 208.166 241.956" stroke="#232323"/>
<path d="M180.671 248.331C184.819 265.629 189.847 280.682 211.311 276.247C224.726 273.475 238.295 253.561 223.195 243.085C214.747 237.224 202.558 241.198 193.182 241.322C178.033 241.522 179.519 221.8 179.129 211.368C177.687 172.758 177.111 134.025 185.891 96.2097C193.411 63.8219 201.434 31.0027 210.443 -0.990036C216.978 -24.1937 223.359 -46.6016 244.692 -60.2577C287.905 -87.9199 266.212 -15.5151 261.435 1.12768C253.918 27.3149 246.462 51.6773 245.44 79.1728C244.535 103.509 247.92 127.79 247.067 152.136C246.232 175.976 239.65 197.741 233.11 220.402C229.274 233.693 226.453 241.494 243.672 239.03C318.947 228.254 392.677 209.999 469.512 218.98C491.629 221.565 531.462 226.525 544.115 249.691C552.201 264.496 542.107 285.22 532.422 296.423C500.998 332.772 444.339 329.445 402.234 319.224C354.828 307.715 313.651 273.947 264.234 270.974C205.006 267.412 244.945 367.296 242.492 396.919C239.033 438.694 198.122 442.533 164.023 436.827C138.928 432.628 26.6988 405.521 59.5541 358.692C80.6348 328.646 117.642 319.892 147.734 302.873C178.246 285.616 143.986 259.708 127.422 247.507C69.2124 204.633 0.326319 179.835 -59.1686 139.117C-90.6533 117.57 -175.452 41.9812 -113.071 3.45358C-50.1865 -35.3849 -10.9917 51.3459 12.3027 92.5094C37.761 137.497 67.3193 178.522 114.763 202.062C134.909 212.057 155.512 221.798 175.829 231.46C195.242 240.691 220.308 244.587 239.64 233.063C284.556 206.29 302.227 145.682 350.953 122.855C369.859 113.998 401.133 125.25 400.08 148.719C397.816 199.24 344.642 208.479 304.756 214.484C271.584 219.479 243.966 233.824 213.157 246.218" stroke="#232323"/>
<path d="M185.752 252.94C190.076 270.114 195.251 285.044 216.569 280.388C229.892 277.478 243.177 257.5 228.026 247.24C219.55 241.5 207.46 245.594 198.128 245.822C183.049 246.191 184.306 226.54 183.8 216.159C181.929 177.738 180.92 139.184 189.235 101.439C196.356 69.1119 203.973 36.3493 212.582 4.39848C218.825 -18.7748 224.926 -41.1542 246.009 -54.9884C288.717 -83.0114 267.937 -10.6868 263.368 5.93522C256.18 32.0898 249.032 56.4269 248.324 83.8111C247.697 108.049 251.341 132.183 250.766 156.43C250.204 180.173 243.896 201.915 237.641 224.548C233.972 237.822 231.251 245.621 248.365 242.974C323.182 231.402 396.375 212.403 472.966 220.482C495.013 222.808 534.724 227.3 547.581 250.22C555.798 264.868 545.982 285.613 536.467 296.874C505.594 333.413 449.151 330.737 407.12 321.033C359.797 310.106 318.424 276.951 269.195 274.545C210.192 271.663 251.078 370.653 248.969 400.171C245.996 441.799 205.312 446.079 171.302 440.781C146.272 436.882 34.2408 411.154 66.4212 364.166C87.0689 334.017 123.811 324.888 153.577 307.607C183.757 290.085 149.36 264.677 132.732 252.717C74.3005 210.686 5.444 186.771 -54.2428 146.902C-85.8291 125.804 -171.099 51.5029 -109.432 12.4482C-47.2671 -26.9217 -7.2709 58.9826 16.3828 99.7012C42.2338 144.202 72.1217 184.713 119.618 207.616C139.786 217.341 160.407 226.808 180.741 236.198C200.172 245.171 225.168 248.768 244.284 237.079C288.697 209.922 305.606 149.386 353.856 126.116C372.578 117.086 403.838 127.938 403.055 151.313C401.369 201.634 348.538 211.428 308.899 217.854C275.932 223.198 248.599 237.789 218.068 250.472" stroke="#232323"/>
<path d="M190.764 257.539C195.262 274.587 200.582 289.392 221.751 284.518C234.981 281.472 247.981 261.435 232.783 251.39C224.281 245.771 212.291 249.982 203.004 250.313C187.997 250.85 189.027 231.273 188.406 220.945C186.111 182.717 184.672 144.346 192.524 106.678C199.249 74.4159 206.463 41.7149 214.673 9.81081C220.627 -13.3285 226.448 -35.6759 247.28 -49.6843C289.48 -78.0604 269.608 -5.8272 265.248 10.7714C258.387 36.8893 251.545 61.1974 251.149 88.4667C250.798 112.603 254.697 136.588 254.398 160.733C254.105 184.376 248.071 206.09 242.099 228.692C238.596 241.948 235.975 249.742 252.983 246.915C327.332 234.557 399.982 214.823 476.319 222.007C498.293 224.075 537.875 228.102 550.932 250.775C559.277 265.265 549.74 286.027 540.394 297.345C510.072 334.066 453.853 332.034 411.902 322.844C364.669 312.498 323.109 279.954 274.074 278.112C215.305 275.903 257.121 373.991 255.355 403.401C252.864 444.875 212.412 449.592 178.495 444.699C153.534 441.098 41.7176 416.741 73.2236 369.603C93.4386 339.358 129.912 329.858 159.349 312.321C189.197 294.539 154.668 269.631 137.98 257.91C79.3383 216.723 10.5225 193.687 -49.3447 154.666C-81.0264 134.016 -166.749 61.0043 -105.8 21.4336C-44.3586 -18.4565 -3.57481 66.6142 20.4311 106.885C46.6671 150.897 76.8767 190.891 124.417 213.159C144.604 222.614 165.238 231.807 185.587 240.928C205.031 249.643 229.956 252.943 248.854 241.093C292.76 213.56 308.911 153.106 356.682 129.399C375.218 120.2 406.459 130.652 405.943 153.932C404.832 204.046 352.349 214.388 312.961 221.229C280.203 226.919 253.157 241.751 222.907 254.719" stroke="#232323"/>
<path d="M195.703 262.127C200.373 279.048 205.835 293.727 226.854 288.638C239.99 285.457 252.705 265.365 237.463 255.536C228.936 250.037 217.048 254.363 207.806 254.798C192.873 255.499 193.678 235.999 192.944 225.725C190.228 187.695 188.364 149.513 195.756 111.927C202.087 79.7345 208.899 47.0999 216.713 15.2476C222.38 -7.85424 227.922 -30.1662 248.503 -44.345C290.192 -73.0662 271.224 -0.935683 267.07 15.6371C260.534 41.7141 253.997 65.9894 253.91 93.1403C253.833 117.172 257.985 141.005 257.959 165.044C257.934 188.584 252.172 210.269 246.481 232.835C243.143 246.071 240.622 253.859 257.521 250.854C331.394 237.719 403.493 217.259 479.566 223.556C501.464 225.368 540.912 228.933 554.166 251.358C562.636 265.689 553.376 286.465 544.201 297.836C514.429 334.731 458.441 333.339 416.576 324.661C369.44 314.89 327.702 282.959 278.868 281.674C220.34 280.134 263.072 377.312 261.645 406.609C259.633 447.924 219.417 453.073 185.598 448.582C160.709 445.277 49.1246 422.283 79.957 375.004C99.7399 344.669 135.942 334.803 165.048 317.015C194.56 298.979 159.906 274.569 143.162 263.089C84.3218 222.744 15.5577 200.583 -44.4782 162.409C-76.2493 142.207 -162.407 70.4853 -102.179 30.4097C-41.4651 -9.98927 0.0926163 74.2412 24.4436 114.062C51.0567 157.581 81.5803 197.056 129.157 218.691C149.359 227.878 170.003 236.798 190.363 245.649C209.817 254.107 234.666 257.114 253.345 245.104C296.743 217.203 312.139 156.841 359.427 132.705C377.775 123.34 408.993 133.395 408.742 156.576C408.2 206.477 356.071 217.36 316.938 224.612C284.392 230.643 257.636 245.711 227.669 258.961" stroke="#232323"/>
<path d="M200.569 266.708C205.409 283.5 211.012 298.051 231.878 292.749C244.919 289.436 257.35 269.292 242.066 259.678C233.515 254.3 221.73 258.74 212.535 259.276C197.678 260.142 198.259 240.721 197.413 230.501C194.281 192.673 191.995 154.686 198.93 117.187C204.869 85.0689 211.284 52.5057 218.703 20.7099C224.084 -2.35093 229.35 -24.624 249.677 -38.9693C290.853 -68.0278 272.784 3.98891 268.836 20.5332C262.624 46.5656 256.389 70.8043 256.608 97.8333C256.802 121.757 261.204 145.436 261.449 169.367C261.689 192.8 256.198 214.451 250.787 236.98C247.613 250.192 245.192 257.974 261.979 254.793C335.37 240.889 406.91 219.714 482.708 225.13C504.527 226.688 543.837 229.795 557.283 251.97C565.876 266.142 556.892 286.927 547.886 298.349C518.665 335.411 462.916 334.653 421.144 326.483C374.112 317.285 332.204 285.966 283.577 285.234C225.298 284.357 268.931 380.616 267.84 409.796C266.303 450.948 226.327 456.524 192.611 452.432C167.798 449.421 56.4615 427.782 86.6213 380.371C105.972 349.952 141.899 339.725 170.672 321.691C199.847 303.406 165.076 279.495 148.279 268.254C89.2508 228.752 20.5496 207.461 -39.6436 170.133C-71.4979 150.378 -158.072 79.9466 -98.5694 39.3774C-38.5864 -1.51927 3.73142 81.8643 28.4204 121.232C55.4028 164.256 86.2324 203.21 133.836 224.214C154.05 233.133 174.701 241.781 195.068 250.364C214.529 258.566 239.299 261.28 257.758 249.116C300.644 220.855 315.291 160.593 362.092 136.036C380.251 126.508 411.44 136.168 411.451 159.247C411.474 208.928 359.705 220.346 320.832 228.004C288.501 234.372 262.037 249.672 232.355 263.198" stroke="#232323"/>
<path d="M205.36 271.28C210.367 287.941 216.107 302.363 236.819 296.852C249.762 293.407 261.91 273.216 246.588 263.817C238.015 258.559 226.334 263.111 217.187 263.747C202.408 264.776 202.767 245.437 201.81 235.273C198.266 197.652 195.563 159.863 202.043 122.456C207.594 90.418 213.612 57.9308 220.639 26.1964C225.735 3.18006 230.726 -19.0508 250.799 -33.5588C291.46 -62.9466 274.285 8.9453 270.541 25.4587C264.651 51.4423 258.718 75.6407 259.24 102.544C259.703 126.357 264.351 149.879 264.865 173.698C265.368 197.023 260.145 218.637 255.013 241.124C252.003 254.312 249.68 262.085 266.355 258.731C339.254 244.067 410.23 222.187 485.743 226.728C507.48 228.036 546.644 230.687 560.279 252.611C568.993 266.622 560.284 287.413 551.448 298.885C522.778 336.106 467.275 335.975 425.601 328.311C378.68 319.682 336.61 288.975 288.198 288.791C230.174 288.572 274.692 383.904 273.935 412.964C272.868 453.945 233.138 459.944 199.53 456.249C174.797 453.53 63.724 433.236 93.212 385.704C112.132 355.205 147.779 344.622 176.218 326.348C205.054 307.819 170.172 284.406 153.325 273.405C94.1216 234.743 25.494 214.32 -34.845 177.836C-66.7765 158.528 -153.749 89.3865 -94.9749 48.3348C-35.7264 6.95174 7.33768 89.4821 32.3575 128.394C59.7015 170.92 90.8292 209.352 138.452 229.727C158.674 238.379 179.329 246.756 199.699 255.072C219.164 263.018 243.851 265.443 262.089 253.127C304.461 224.514 318.362 164.361 364.673 139.392C382.642 129.704 413.798 138.97 414.068 161.943C414.651 211.398 363.246 223.345 324.637 231.403C292.526 238.106 266.355 253.632 236.96 267.429" stroke="#232323"/>
<path d="M210.082 275.846C215.253 292.375 221.13 306.667 241.685 300.949C254.53 297.375 266.394 277.139 251.036 267.955C242.444 262.817 230.868 267.479 221.77 268.215C207.07 269.405 207.21 250.15 206.142 240.043C202.191 202.634 199.074 165.047 205.104 127.739C210.268 95.7847 215.892 63.3784 222.53 31.7101C227.344 8.74172 232.061 -13.4436 251.879 -28.1103C292.022 -57.8197 275.735 13.9366 272.195 30.4165C266.624 56.3475 260.991 80.502 261.814 107.277C262.543 130.976 267.435 154.339 268.215 178.043C268.978 201.256 264.023 222.829 259.168 245.271C256.32 258.433 254.095 266.197 270.656 262.671C343.055 247.257 413.459 224.681 488.677 228.356C510.329 229.413 549.345 231.614 563.164 253.285C571.995 267.134 563.56 287.928 554.894 299.446C526.775 336.819 471.525 337.311 429.956 330.149C383.153 322.084 340.93 291.989 292.737 292.349C234.977 292.781 280.365 387.179 279.939 416.115C279.338 456.921 239.858 463.338 206.363 460.036C181.712 457.606 70.9196 438.65 99.737 391.004C118.227 360.433 153.591 349.499 181.694 330.989C210.189 312.221 175.203 289.307 158.309 278.544C98.9417 240.723 30.3987 221.162 -30.0748 185.52C-62.0774 166.659 -149.43 98.8075 -91.3879 57.2845C-32.8771 15.4264 10.9192 97.0974 36.2627 135.551C63.9604 177.577 95.3784 215.485 143.013 235.233C163.24 243.618 183.894 251.726 204.264 259.776C223.729 267.467 248.331 269.604 266.347 257.14C308.202 228.183 321.362 168.149 367.179 142.775C384.956 132.929 416.074 141.804 416.602 164.67C417.739 213.892 366.704 226.361 328.363 234.815C296.475 241.846 270.598 257.596 241.494 271.659" stroke="#232323"/>
<path d="M214.731 280.408C220.065 296.803 226.076 310.964 246.471 305.041C259.217 301.34 270.799 281.064 255.408 272.094C246.798 267.076 235.327 271.846 226.28 272.681C211.661 274.03 211.583 254.862 210.407 244.813C206.053 207.62 202.526 170.24 208.108 133.035C212.888 101.17 218.122 68.8491 224.372 37.2516C228.905 14.3346 233.351 -7.80188 252.912 -22.6234C292.536 -52.6464 277.132 18.9633 273.794 35.4074C268.541 61.2819 263.206 85.3888 264.327 112.032C265.319 135.614 270.452 158.815 271.495 182.402C272.516 205.499 267.827 227.03 263.247 249.423C260.56 262.556 258.433 270.309 274.878 266.614C346.771 250.46 416.596 227.198 491.509 230.013C513.073 230.823 551.934 232.577 565.933 253.993C574.88 267.68 566.719 288.473 558.222 300.035C530.653 337.552 475.663 338.661 434.205 331.997C387.526 324.495 345.159 295.01 297.192 295.909C239.702 296.986 285.945 390.443 285.847 419.25C285.709 459.876 246.482 466.706 213.104 463.795C188.539 461.652 78.0439 444.025 106.192 396.274C124.252 365.636 159.331 354.356 187.096 335.616C215.248 316.615 180.165 294.198 163.228 283.674C103.707 246.691 35.2596 227.988 -25.3369 193.187C-57.4046 174.771 -145.12 108.21 -87.8123 66.2267C-30.0424 23.9049 14.4723 104.711 40.1322 142.704C68.1758 184.227 99.8762 221.608 147.514 240.732C167.742 248.852 188.392 256.692 208.76 264.476C228.222 271.914 252.734 273.766 270.526 261.157C311.863 231.863 324.286 171.958 369.606 146.186C387.191 136.186 418.265 144.672 419.048 167.427C420.735 216.411 370.075 229.394 332.006 238.239C300.344 245.596 274.763 261.563 245.952 275.887" stroke="#232323"/>
<path d="M219.305 284.963C224.799 301.223 230.941 315.251 251.176 309.127C263.821 305.3 275.121 284.988 259.7 276.232C251.073 271.333 239.709 276.21 230.713 277.142C216.177 278.649 215.884 259.57 214.599 249.581C209.846 212.607 205.915 175.44 211.052 138.344C215.451 106.571 220.297 74.3408 226.162 42.8188C230.416 19.9566 234.592 -2.12777 253.895 -17.1002C292.998 -47.429 278.472 24.0235 275.334 40.4292C270.397 66.2435 265.358 90.299 266.774 116.807C268.028 140.269 273.398 163.305 274.702 186.772C275.979 209.752 271.554 231.236 267.247 253.577C264.721 266.68 262.691 274.421 279.018 270.559C350.396 253.673 419.637 229.736 494.235 231.698C515.709 232.263 554.409 233.573 568.585 254.734C577.645 268.257 569.755 289.046 561.428 300.651C534.409 338.303 479.686 340.024 438.344 333.855C391.797 326.91 349.294 298.037 301.559 299.469C244.347 301.185 291.429 393.693 291.656 422.369C291.976 462.809 253.008 470.048 219.751 467.524C195.276 465.666 85.0928 449.359 112.573 401.512C130.204 370.813 164.993 359.191 192.419 340.227C220.227 320.998 185.054 299.077 168.076 288.791C108.415 252.646 40.0727 234.796 -20.6355 200.835C-52.7624 182.862 -140.821 117.591 -84.2521 75.159C-27.2262 32.3846 17.9929 112.319 43.9621 149.85C72.3438 190.867 104.319 227.722 151.951 246.223C172.177 254.08 192.82 261.652 213.181 269.172C232.637 276.358 257.057 277.926 274.625 265.176C315.44 235.553 327.131 175.785 371.952 149.624C389.342 139.473 420.368 147.571 421.404 170.213C423.635 218.952 373.356 232.443 335.562 241.674C304.129 249.352 278.847 265.532 250.33 280.114" stroke="#232323"/>
<path d="M223.806 289.516C229.458 305.639 235.73 319.533 255.801 313.211C268.345 309.259 279.363 288.915 263.916 280.372C255.274 275.593 244.017 280.574 235.073 281.603C220.622 283.266 220.115 264.278 218.724 254.35C213.577 217.601 209.245 180.649 213.94 143.667C217.961 111.993 222.421 79.8569 227.904 48.415C231.881 25.6109 235.789 3.5819 254.834 -11.5376C293.413 -42.1642 279.76 29.1204 276.821 45.4854C272.198 71.2356 267.453 95.2363 269.161 121.606C270.673 144.945 276.278 167.815 277.84 191.158C279.37 214.017 275.207 235.451 271.172 257.738C268.806 270.808 266.872 278.536 283.08 274.509C353.936 256.902 422.585 232.299 496.859 233.417C518.239 233.738 556.775 234.608 571.123 255.512C580.294 268.872 572.675 289.653 564.517 301.297C538.048 339.078 483.598 341.404 442.379 335.727C395.97 329.336 353.339 301.072 305.842 303.032C248.915 305.382 296.82 396.935 297.369 425.475C298.143 465.725 259.438 473.366 226.307 471.227C201.924 469.652 92.0698 454.655 118.883 406.722C136.087 375.967 170.583 364.009 197.668 344.825C225.13 325.373 189.874 303.948 172.859 293.9C113.067 258.591 44.8419 241.589 -15.9668 208.465C-48.1469 190.936 -136.532 126.954 -80.7035 84.0841C-24.4244 40.8686 21.485 119.927 47.7564 156.993C76.4682 197.502 108.71 233.828 156.329 251.71C176.55 259.303 197.183 266.609 217.534 273.866C236.98 280.801 261.304 282.088 278.647 269.2C318.939 239.257 329.902 179.634 374.219 153.092C391.415 142.794 422.388 150.507 423.674 173.031C426.443 221.521 376.55 235.513 339.036 245.124C307.835 253.119 282.853 269.507 254.633 284.341" stroke="#232323"/>
<path d="M228.24 294.065C234.047 310.05 240.446 323.809 260.353 317.291C272.793 313.218 283.531 292.844 268.059 284.514C259.404 279.854 248.256 284.939 239.365 286.063C225 287.879 224.282 268.986 222.786 259.119C217.248 222.599 212.521 185.868 216.777 149.005C220.423 117.432 224.5 85.3959 229.603 54.0387C233.304 31.296 236.945 9.32567 255.732 -5.93696C293.786 -36.8536 280.999 34.2528 278.259 50.5746C273.947 76.2569 269.495 100.199 271.492 126.427C273.26 149.641 279.096 172.342 280.914 195.559C282.694 218.295 278.792 239.676 275.027 261.904C272.819 274.94 270.981 282.654 287.068 278.463C357.395 260.144 425.447 234.887 499.387 235.166C520.671 235.247 559.036 235.681 573.553 256.327C582.831 269.522 575.482 290.292 567.493 301.973C541.573 339.875 487.404 342.8 446.313 337.612C400.049 331.771 357.298 304.116 310.045 306.599C253.411 309.576 302.123 400.166 302.991 428.568C304.215 468.622 265.776 476.661 232.776 474.903C208.489 473.609 98.9784 459.912 125.127 411.902C141.904 381.097 176.105 368.808 202.847 349.41C229.961 329.741 194.628 308.81 177.58 299C117.67 264.524 49.571 248.366 -11.3271 216.078C-43.5544 198.991 -132.248 136.296 -77.1627 93.0004C-21.633 49.3551 24.9527 127.531 51.5189 164.131C80.5531 204.13 113.053 239.925 160.652 257.191C180.864 264.522 201.482 271.563 221.82 278.558C241.254 285.243 265.479 286.251 282.596 273.229C322.362 242.974 332.603 183.505 376.414 156.59C393.414 146.146 424.329 153.476 425.863 175.882C429.165 224.115 379.663 238.601 342.432 248.589C311.467 256.895 286.786 273.488 258.865 288.569" stroke="#232323"/>
</svg>
