<svg width="688" height="400" viewBox="0 0 688 400" fill="none" xmlns="http://www.w3.org/2000/svg">
<path d="M914.433 525.66C896.85 527.726 879.916 531.009 863.027 523.885C834.347 511.787 815.724 487.733 795.958 464.606C764.62 427.939 733.862 392.077 695.707 362.174C674.337 345.425 644.371 320.191 614.964 324.273C608.627 325.152 589.598 330.241 587.064 337.953C585.897 341.507 591.697 349.945 593.118 352.386C596.266 357.796 600.841 366.476 607.932 367.387C618.197 368.708 632.996 361.248 639.132 353.246C649.062 340.297 636.807 315.991 630.659 304.158C620.815 285.211 610.241 271.392 592.042 260.272C581.337 253.731 571.565 249.302 559.984 256.01C544.812 264.799 572.624 258.033 577.165 255.322C585.618 250.276 587.958 243.511 585.98 233.642C580.731 207.459 562.095 181.571 548.865 158.952C530.903 128.245 505.64 100.851 490.952 68.3962C485.532 56.4185 484.481 45.3854 487.792 32.788C489.344 26.8819 491.643 15.249 497.491 11.66C502.416 8.63758 509.317 10.0674 514.537 11.1331C528.999 14.0858 543.026 18.9573 557.272 22.7665C579.964 28.8345 602.91 31.3837 623.555 18.0704C643.102 5.46513 647.311 -19.0393 640.847 -40.1809C634.738 -60.1608 623.235 -78.7204 609.381 -94.2441C603.473 -100.864 603.198 -100.662 597.661 -104.965C595.734 -106.462 596.785 -105.666 599.794 -104.788C623.74 -97.8039 644.447 -91.8646 667.335 -104.389C686.059 -114.635 702.795 -132.044 692.483 -154.789C682.132 -177.621 663.067 -196.513 655.836 -220.848C650.037 -240.363 668.91 -247.333 682.911 -255.926C687.805 -258.929 691.908 -262.095 697.838 -260.159C705.665 -257.603 712.304 -251.67 718.743 -246.783C730.302 -238.011 741.471 -228.746 753.836 -241.255C757.493 -244.954 755.922 -248.994 753.763 -253.178C746.206 -267.82 735.071 -280.965 723.565 -292.61C713.542 -302.753 700.952 -315.615 686.91 -320.099C683.981 -321.035 680.819 -319.412 684.871 -321.899C695.155 -328.21 715.173 -336.275 707.479 -351.183C701.018 -363.702 690.635 -374.648 679.851 -383.509C672.547 -389.511 661.452 -398.493 651.225 -398.17C649.819 -398.125 642.654 -394.552 646.872 -397.141C654.725 -401.96 663.24 -407.072 668.569 -414.837C677.009 -427.137 667.293 -440.362 660.954 -451.231C638.249 -490.162 613.939 -528.219 590.366 -566.628" stroke="url(#paint0_linear_147_3863)" stroke-width="4.50169" stroke-linecap="round"/>
<path d="M734.078 602.925C716.488 600.769 699.243 599.949 684.488 589.036C659.43 570.503 646.966 542.745 633.171 515.615C611.3 472.602 589.805 430.509 559.714 392.449C542.86 371.132 519.638 339.542 490.072 336.545C483.701 335.899 463.994 336.336 459.717 343.224C457.747 346.397 461.407 355.961 462.215 358.668C464.006 364.665 466.418 374.174 473.102 376.737C482.778 380.448 498.927 376.708 506.776 370.392C519.478 360.171 513.267 333.675 510.067 320.732C504.942 300.009 497.902 284.091 482.811 268.989C473.935 260.105 465.469 253.493 452.627 257.264C435.803 262.206 464.448 262.219 469.502 260.662C478.91 257.764 482.777 251.75 483.171 241.701C484.216 215.041 472.17 185.498 464.614 160.409C454.356 126.347 436.216 93.7745 429.553 58.7913C427.094 45.8805 428.664 34.9208 434.845 23.4748C437.743 18.1086 442.712 7.3593 449.244 5.25905C454.745 3.49037 461.123 6.51169 465.95 8.78158C479.326 15.0708 491.826 23.1197 504.789 30.1889C525.439 41.4501 547.161 49.3552 570.373 41.3165C592.349 33.7052 602.202 10.9125 600.881 -11.1417C599.632 -31.984 592.802 -52.7241 582.973 -71.0731C578.781 -78.8976 578.467 -78.7666 574.091 -84.2543C572.568 -86.1639 573.403 -85.142 576.125 -83.5777C597.778 -71.1307 616.526 -60.4643 641.734 -67.2063C662.356 -72.7216 682.727 -85.6624 678.04 -110.184C673.335 -134.799 659.227 -157.651 657.91 -182.987C656.855 -203.304 676.852 -205.604 692.49 -210.632C697.956 -212.39 702.692 -214.492 708.006 -211.209C715.02 -206.876 720.083 -199.545 725.199 -193.277C734.383 -182.026 743.072 -170.387 758.039 -179.605C762.466 -182.331 761.886 -186.624 760.769 -191.197C756.858 -207.2 749.114 -222.596 740.657 -236.624C733.291 -248.844 724.064 -264.31 711.459 -271.986C708.829 -273.587 705.372 -272.76 709.898 -274.215C721.384 -277.908 742.753 -281.001 738.771 -297.295C735.427 -310.977 727.898 -324.06 719.49 -335.215C713.795 -342.77 705.112 -354.115 695.087 -356.222C693.709 -356.512 685.899 -354.738 690.611 -356.253C699.383 -359.074 708.867 -362.02 715.875 -368.298C726.976 -378.241 720.631 -393.379 717.018 -405.432C704.078 -448.599 689.371 -491.299 675.464 -534.164" stroke="url(#paint1_linear_147_3863)" stroke-width="4.50169" stroke-linecap="round"/>
<path d="M906.029 528.837C888.424 530.703 871.453 533.794 854.644 526.478C826.101 514.055 807.75 489.793 788.246 466.444C757.322 429.425 726.97 393.218 689.153 362.885C667.972 345.896 638.292 320.323 608.839 324.071C602.493 324.878 583.406 329.749 580.785 337.433C579.578 340.972 585.282 349.475 586.675 351.933C589.762 357.378 594.24 366.108 601.32 367.1C611.571 368.537 626.454 361.246 632.68 353.315C642.756 340.48 630.776 316.039 624.762 304.137C615.132 285.08 604.714 271.143 586.641 259.817C576.011 253.156 566.288 248.616 554.632 255.191C539.36 263.806 567.249 257.358 571.82 254.699C580.33 249.749 582.747 243.012 580.88 233.121C575.927 206.882 557.584 180.785 544.61 158.019C526.996 127.112 502.042 99.4339 487.721 66.8159C482.436 54.7781 481.51 43.7344 484.964 31.1761C486.583 25.2884 489.013 13.683 494.901 10.1609C499.86 7.19484 506.745 8.70292 511.953 9.82781C526.382 12.9445 540.354 17.9749 554.556 21.9455C577.18 28.2707 600.097 31.0803 620.892 18.0033C640.581 5.62176 645.068 -18.8318 638.843 -40.0444C632.959 -60.0913 621.666 -78.7793 607.988 -94.4586C602.155 -101.145 601.878 -100.946 596.389 -105.311C594.479 -106.83 595.521 -106.022 598.521 -105.11C622.387 -97.8547 643.027 -91.6808 666.056 -103.943C684.896 -113.975 701.829 -131.193 691.774 -154.052C681.681 -176.999 662.83 -196.105 655.874 -220.519C650.296 -240.098 669.248 -246.852 683.345 -255.285C688.273 -258.232 692.412 -261.351 698.32 -259.347C706.118 -256.704 712.69 -250.695 719.073 -245.736C730.533 -236.834 741.598 -227.443 754.104 -239.81C757.803 -243.467 756.277 -247.524 754.165 -251.732C746.774 -266.458 735.788 -279.728 724.414 -291.502C714.506 -301.759 702.061 -314.762 688.07 -319.405C685.151 -320.374 681.971 -318.787 686.051 -321.227C696.406 -327.421 716.515 -335.258 708.99 -350.252C702.671 -362.842 692.411 -373.905 681.728 -382.888C674.492 -388.971 663.498 -398.078 653.268 -397.872C651.861 -397.843 644.655 -394.351 648.903 -396.892C656.811 -401.622 665.384 -406.636 670.8 -414.34C679.379 -426.542 669.813 -439.876 663.596 -450.816C641.332 -490 617.452 -528.329 594.314 -567.001" stroke="url(#paint2_linear_147_3863)" stroke-width="4.50169"/>
<path d="M897.605 532.026C879.979 533.691 862.973 536.589 846.247 529.083C817.845 516.337 799.769 491.87 780.528 468.302C750.023 430.936 720.081 394.388 682.607 363.629C661.618 346.401 632.227 320.494 602.733 323.906C596.377 324.641 577.235 329.295 574.527 336.948C573.28 340.473 578.889 349.04 580.254 351.513C583.279 356.992 587.658 365.772 594.727 366.845C604.961 368.398 619.926 361.277 626.242 353.418C636.463 340.699 624.76 316.125 618.88 304.156C609.466 284.992 599.206 270.938 581.261 259.408C570.706 252.626 561.035 247.977 549.304 254.419C533.935 262.86 561.897 256.728 566.498 254.122C575.064 249.27 577.557 242.56 575.801 232.65C571.145 206.358 553.097 180.055 540.38 157.144C523.116 126.041 498.475 98.0826 484.523 65.3059C479.374 53.2094 478.573 42.1565 482.169 29.639C483.854 23.7704 486.416 12.1941 492.344 8.73933C497.336 5.82998 504.204 7.41613 509.399 8.60008C523.793 11.8804 537.708 17.069 551.865 21.2006C574.417 27.7821 597.302 30.8519 618.245 18.0129C638.074 5.85661 642.837 -18.543 636.852 -39.8238C631.195 -59.9351 620.113 -78.7493 606.612 -94.5821C600.855 -101.334 600.576 -101.138 595.136 -105.565C593.243 -107.106 594.276 -106.286 597.265 -105.34C621.05 -97.8142 641.619 -91.4064 664.788 -103.406C683.74 -113.222 700.868 -130.245 691.072 -153.216C681.238 -176.275 662.603 -195.593 655.923 -220.083C650.566 -239.723 669.594 -246.261 683.787 -254.532C688.748 -257.423 692.922 -260.494 698.808 -258.424C706.576 -255.692 713.079 -249.61 719.407 -244.579C730.766 -235.547 741.724 -226.032 754.371 -238.255C758.11 -241.87 756.631 -245.944 754.566 -250.175C747.342 -264.984 736.506 -278.376 725.265 -290.278C715.473 -300.646 703.175 -313.789 689.237 -318.591C686.329 -319.593 683.131 -318.042 687.239 -320.436C697.663 -326.511 717.861 -334.119 710.505 -349.196C704.328 -361.857 694.194 -373.035 683.612 -382.138C676.445 -388.303 665.554 -397.534 655.322 -397.444C653.914 -397.431 646.67 -394.022 650.946 -396.514C658.907 -401.153 667.536 -406.069 673.04 -413.711C681.757 -425.814 672.341 -439.255 666.249 -450.265C644.427 -489.697 620.98 -528.293 598.28 -567.223" stroke="url(#paint3_linear_147_3863)" stroke-width="4.50169"/>
<path d="M889.161 535.227C871.516 536.692 854.477 539.396 837.837 531.701C809.578 518.634 791.779 493.963 772.805 470.18C742.723 432.472 713.194 395.588 676.068 364.406C655.274 346.942 626.176 320.704 596.643 323.78C590.279 324.443 571.085 328.879 568.291 336.5C567.003 340.011 572.515 348.64 573.852 351.128C576.816 356.642 581.095 365.47 588.152 366.623C598.369 368.292 613.414 361.342 619.819 353.556C630.184 340.955 618.758 316.25 613.014 304.216C603.816 284.947 593.715 270.778 575.901 259.046C565.422 252.145 555.804 247.386 544 253.694C528.536 261.959 556.567 256.147 561.197 253.593C569.818 248.838 572.387 242.158 570.744 232.229C566.385 205.887 548.634 179.383 536.176 156.33C519.263 125.034 494.939 96.7989 481.358 63.8674C476.345 51.7139 475.669 40.6532 479.406 28.1781C481.158 22.3294 483.85 10.7836 489.817 7.39661C494.843 4.54437 501.693 6.2084 506.874 7.45127C521.231 10.8949 535.087 16.2409 549.197 20.533C571.675 27.3701 594.525 30.6997 615.613 18.1003C635.579 6.17089 640.618 -18.1716 634.873 -39.5179C629.444 -59.6911 618.574 -78.629 605.253 -94.6134C599.572 -101.43 599.29 -101.237 593.901 -105.726C592.025 -107.287 593.049 -106.456 596.028 -105.476C619.727 -97.6809 640.224 -91.0401 663.527 -102.775C682.591 -112.374 699.911 -129.201 690.374 -152.28C680.801 -175.448 662.384 -194.975 655.982 -219.539C650.847 -239.237 669.949 -245.558 684.235 -253.667C689.228 -256.501 693.437 -259.525 699.299 -257.388C707.036 -254.567 713.471 -248.412 719.742 -243.309C730.999 -234.15 741.85 -224.511 754.634 -236.589C758.414 -240.161 756.981 -244.251 754.964 -248.506C747.907 -263.395 737.223 -276.909 726.116 -288.937C716.441 -299.415 704.292 -312.697 690.408 -317.656C687.512 -318.691 684.296 -317.177 688.431 -319.524C698.924 -325.479 719.208 -332.856 712.022 -348.016C705.989 -360.745 695.981 -372.037 685.502 -381.259C678.405 -387.505 667.618 -396.859 657.385 -396.885C655.977 -396.888 648.694 -393.562 652.999 -396.005C661.012 -400.553 669.697 -405.37 675.287 -412.948C684.14 -424.951 674.877 -438.497 668.909 -449.575C647.533 -489.25 624.523 -528.108 602.263 -567.292" stroke="url(#paint4_linear_147_3863)" stroke-width="4.50169"/>
<path d="M880.343 540.43C862.682 541.694 845.613 544.204 829.059 536.321C800.949 522.934 783.429 498.065 764.724 474.068C735.068 436.022 705.956 398.807 669.183 367.207C648.587 349.508 619.785 322.943 590.218 325.683C583.846 326.274 564.602 330.491 561.722 338.079C560.395 341.574 565.809 350.265 567.118 352.769C570.019 358.315 574.199 367.191 581.243 368.424C591.44 370.209 606.564 363.431 613.057 355.718C623.564 343.237 612.418 318.405 606.81 306.307C597.83 286.936 587.889 272.654 570.207 260.721C559.807 253.702 550.242 248.834 538.368 255.007C522.81 263.095 550.906 257.602 555.566 255.101C564.24 250.445 566.884 243.795 565.353 233.848C561.292 207.46 543.841 180.757 531.644 157.565C515.085 126.08 491.08 97.5725 477.871 64.4906C472.996 52.2815 472.445 41.2144 476.323 28.7833C478.141 22.9552 480.963 11.4413 486.969 8.12264C492.026 5.32787 498.857 7.06958 504.025 8.37121C518.342 11.9776 532.138 17.4806 546.2 21.9325C568.6 29.0244 591.412 32.6134 612.642 20.2552C632.743 8.55425 638.057 -15.7281 632.553 -37.1371C627.352 -57.3696 616.697 -76.4288 603.556 -92.5628C597.952 -99.4427 597.668 -99.2535 592.33 -103.803C590.472 -105.386 591.486 -104.542 594.454 -103.529C618.064 -95.4654 638.486 -88.5923 661.922 -100.061C681.094 -109.442 698.604 -126.07 689.328 -149.255C680.017 -172.529 661.821 -192.263 655.696 -216.897C650.784 -236.65 669.957 -242.754 684.335 -250.699C689.36 -253.476 693.603 -256.452 699.441 -254.248C707.147 -251.341 713.512 -245.113 719.725 -239.94C730.878 -230.653 741.62 -220.892 754.54 -232.823C758.361 -236.352 756.974 -240.458 755.005 -244.735C748.117 -259.702 737.585 -273.336 726.614 -285.489C717.058 -296.076 705.059 -309.494 691.232 -314.611C688.347 -315.678 685.114 -314.201 689.276 -316.501C699.836 -322.336 720.202 -329.482 713.188 -344.721C707.299 -357.517 697.419 -368.922 687.044 -378.262C680.017 -384.588 669.337 -394.063 659.104 -394.205C657.697 -394.225 650.376 -390.982 654.708 -393.376C662.773 -397.832 671.512 -402.55 677.187 -410.064C686.176 -421.964 677.066 -435.614 671.223 -446.758C650.296 -486.672 627.725 -525.787 605.908 -565.219" stroke="url(#paint5_linear_147_3863)" stroke-width="4.50169"/>
<path d="M871.857 543.655C854.182 544.718 837.085 547.033 820.62 538.963C792.661 525.258 775.422 500.192 756.989 475.986C727.763 437.607 699.072 400.066 662.656 368.051C642.26 350.12 613.76 323.231 584.161 325.634C577.783 326.152 558.491 330.15 555.526 337.704C554.159 341.185 559.475 349.936 560.756 352.454C563.594 358.033 567.674 366.955 574.704 368.268C584.881 370.169 600.081 363.564 606.661 355.926C617.309 343.565 606.444 318.61 600.972 306.449C592.211 286.979 582.431 272.585 564.885 260.452C554.564 253.315 545.055 248.339 533.111 254.377C517.462 262.287 545.619 257.114 550.307 254.666C559.034 250.11 561.753 243.491 560.335 233.528C556.572 207.096 539.423 180.198 527.488 156.87C511.285 125.201 487.602 96.4234 474.767 63.1952C470.031 50.9322 469.604 39.8602 473.623 27.4746C475.507 21.6678 478.459 10.1875 484.502 6.93747C489.591 4.20053 496.402 6.01971 501.555 7.37994C515.832 11.1487 529.565 16.8079 543.576 21.4192C565.896 28.7649 588.667 32.6129 610.037 20.4976C630.27 9.02654 635.858 -15.1925 630.596 -36.6615C625.624 -56.9508 615.184 -76.1289 602.226 -92.4104C596.7 -99.3532 596.414 -99.1672 591.127 -103.777C589.287 -105.38 590.292 -104.526 593.247 -103.479C616.767 -95.1477 637.111 -88.0432 660.676 -99.2436C679.954 -108.406 697.651 -124.832 688.638 -148.12C679.59 -171.497 661.617 -191.436 655.771 -216.137C651.082 -235.944 670.324 -241.829 684.791 -249.61C689.848 -252.329 694.124 -255.256 699.937 -252.987C707.61 -249.991 713.904 -243.692 720.059 -238.449C731.107 -229.037 741.738 -219.154 754.793 -230.937C758.654 -234.422 757.313 -238.543 755.393 -242.842C748.674 -257.886 738.296 -271.638 727.463 -283.915C718.027 -294.609 706.179 -308.162 692.41 -313.435C689.537 -314.535 686.288 -313.095 690.475 -315.347C701.101 -321.062 721.548 -327.975 714.707 -343.292C708.962 -356.154 699.211 -367.669 688.941 -377.127C681.986 -383.532 671.413 -393.127 661.182 -393.386C659.775 -393.421 652.417 -390.261 656.776 -392.606C664.891 -396.97 673.684 -401.588 679.444 -409.036C688.568 -420.833 679.612 -434.585 673.895 -445.795C653.419 -485.941 631.29 -525.308 609.919 -564.984" stroke="url(#paint6_linear_147_3863)" stroke-width="4.50169"/>
<path d="M863.351 546.89C845.663 547.752 828.54 549.873 812.167 541.616C784.363 527.595 767.408 502.336 749.248 477.923C720.456 439.217 692.189 401.353 656.136 368.928C635.943 350.767 607.746 323.557 578.121 325.624C571.737 326.069 552.4 329.847 549.349 337.367C547.944 340.831 553.161 349.642 554.413 352.174C557.188 357.784 561.166 366.752 568.182 368.145C578.337 370.161 593.612 363.73 600.278 356.167C611.066 343.929 600.482 318.853 595.148 306.632C586.607 287.064 576.991 272.561 559.581 260.23C549.341 252.977 539.888 247.893 527.876 253.794C512.138 261.525 540.354 256.673 545.069 254.279C553.847 249.822 556.641 243.235 555.336 233.257C551.871 206.786 535.027 179.696 523.355 156.235C507.51 124.385 484.153 95.3418 471.693 61.9716C467.095 49.6561 466.794 38.5805 470.952 26.2421C472.902 20.4575 475.984 9.01202 482.064 5.8311C487.184 3.15235 493.974 5.04878 499.112 6.46744C513.345 10.3981 527.015 16.2128 540.974 20.9829C563.21 28.5815 585.938 32.688 607.444 20.8171C627.806 9.57751 633.668 -14.5751 628.649 -36.1015C623.906 -56.4449 613.683 -75.7395 600.909 -92.1664C595.462 -99.1712 595.173 -98.9885 589.938 -103.657C588.117 -105.282 589.112 -104.416 592.056 -103.336C615.481 -94.738 635.744 -87.403 659.436 -98.3341C678.817 -107.276 696.7 -123.5 687.95 -146.887C679.166 -170.364 661.419 -190.505 655.851 -215.269C651.386 -235.127 670.694 -240.793 685.249 -248.408C690.337 -251.07 694.646 -253.948 700.434 -251.613C708.072 -248.531 714.295 -242.16 720.391 -236.848C731.332 -227.311 741.852 -217.309 755.04 -228.942C758.94 -232.382 757.646 -236.519 755.774 -240.839C749.225 -255.957 739.003 -269.826 728.309 -282.224C718.993 -293.024 707.299 -306.71 693.589 -312.14C690.729 -313.272 687.464 -311.869 691.676 -314.073C702.367 -319.667 722.892 -326.346 716.223 -341.74C710.624 -354.665 701.003 -366.29 690.841 -375.863C683.958 -382.346 673.493 -392.061 663.265 -392.436C661.858 -392.487 654.465 -389.412 658.851 -391.706C667.015 -395.978 675.86 -400.495 681.704 -407.877C690.961 -419.569 682.161 -433.421 676.57 -444.694C656.548 -485.069 634.865 -524.683 613.942 -564.597" stroke="url(#paint7_linear_147_3863)" stroke-width="4.50169"/>
<path d="M854.822 550.136C837.125 550.797 819.979 552.723 803.699 544.281C776.054 529.945 759.384 504.496 741.5 479.879C713.146 440.85 685.307 402.67 649.621 369.839C629.633 351.45 601.744 323.922 572.096 325.652C565.708 326.025 546.328 329.582 543.192 337.066C541.747 340.514 546.865 349.383 548.089 351.93C550.8 357.571 554.677 366.583 561.677 368.056C571.809 370.187 587.157 363.93 593.908 356.444C604.834 344.33 594.534 319.137 589.338 306.856C581.018 287.193 571.565 272.583 554.296 260.055C544.138 252.686 534.742 247.496 522.663 253.259C506.838 260.811 535.109 256.28 539.851 253.94C548.679 249.584 551.548 243.029 550.355 233.037C547.19 206.53 530.651 179.251 519.245 155.66C503.76 123.634 480.731 94.3283 468.649 60.8203C464.19 48.4539 464.014 37.3763 468.311 25.0866C470.326 19.3248 473.538 7.91572 479.653 4.80432C484.803 2.18411 491.573 4.15754 496.694 5.63446C510.883 9.72655 524.486 15.696 538.391 20.6243C560.542 28.475 583.223 32.8394 604.863 21.2145C625.352 10.2078 631.486 -13.8754 626.711 -35.4563C622.198 -55.8513 612.193 -75.2599 599.604 -91.8302C594.236 -98.8961 593.946 -98.7167 588.764 -103.445C586.96 -105.09 587.946 -104.213 590.877 -103.099C614.205 -94.2358 634.385 -86.6712 658.2 -97.3316C677.682 -106.052 695.748 -122.07 687.262 -145.555C678.744 -169.129 661.224 -189.469 655.937 -214.294C651.696 -234.201 671.068 -239.646 685.709 -247.095C690.826 -249.698 695.168 -252.527 700.929 -250.126C708.533 -246.957 714.684 -240.517 720.719 -235.136C731.553 -225.476 741.96 -215.355 755.279 -226.837C759.218 -230.233 757.97 -234.383 756.148 -238.724C749.769 -253.915 739.704 -267.898 729.15 -280.417C719.957 -291.322 708.417 -305.139 694.769 -310.724C691.921 -311.889 688.64 -310.523 692.878 -312.679C703.631 -318.15 724.232 -324.596 717.737 -340.063C712.284 -353.051 702.794 -364.783 692.74 -374.471C685.931 -381.032 675.576 -390.864 665.352 -391.355C663.946 -391.423 656.518 -388.432 660.93 -390.676C669.142 -394.854 678.038 -399.271 683.965 -406.585C693.354 -418.17 684.711 -432.121 679.248 -443.456C659.682 -484.054 638.446 -523.91 617.975 -564.057" stroke="url(#paint8_linear_147_3863)" stroke-width="4.50169"/>
<path d="M847.093 554.566C829.389 555.025 812.221 556.756 796.037 548.13C768.554 533.481 752.172 507.846 734.566 483.028C706.654 443.681 679.247 405.188 643.931 371.955C624.152 353.342 596.574 325.5 566.907 326.892C560.514 327.192 541.095 330.528 537.874 337.976C536.391 341.407 541.408 350.334 542.603 352.893C545.251 358.565 549.026 367.62 556.008 369.172C566.117 371.418 581.535 365.337 588.371 357.928C599.433 345.94 589.418 320.632 584.361 308.294C576.263 288.539 566.976 273.823 549.848 261.1C539.773 253.617 530.436 248.32 518.293 253.945C502.382 261.316 530.703 257.107 535.472 254.821C544.35 250.566 547.292 244.044 546.212 234.04C543.346 207.5 527.116 180.036 515.977 156.319C500.854 124.12 478.156 94.5557 466.453 60.9141C462.134 48.4985 462.083 37.4201 466.519 25.1807C468.599 19.4425 471.939 8.07127 478.09 5.02978C483.27 2.46845 490.016 4.51865 495.121 6.05364C509.264 10.3066 522.799 16.4301 536.648 21.516C558.71 29.6177 581.341 34.2396 603.112 22.8621C623.725 12.0897 630.132 -11.9209 625.6 -33.5536C621.318 -53.9976 611.532 -73.5177 599.131 -90.2293C593.843 -97.3554 593.551 -97.1794 588.422 -101.966C586.637 -103.631 587.612 -102.743 590.532 -101.596C613.759 -92.4685 633.853 -84.6753 657.788 -95.0636C677.368 -103.562 695.615 -119.372 687.395 -142.95C679.143 -166.619 661.853 -187.156 656.846 -212.038C652.831 -231.991 672.264 -237.215 686.989 -244.497C692.135 -247.042 696.509 -249.82 702.243 -247.354C709.811 -244.1 715.889 -237.59 721.863 -232.141C732.588 -222.359 742.88 -212.121 756.329 -223.45C760.306 -226.8 759.105 -230.965 757.332 -235.326C751.125 -250.588 741.218 -264.684 730.806 -277.321C721.735 -288.329 710.352 -302.276 696.767 -308.015C693.933 -309.213 690.637 -307.884 694.898 -309.992C705.714 -315.34 726.386 -321.55 720.067 -337.09C714.76 -350.138 705.403 -361.977 695.459 -371.778C688.724 -378.416 678.48 -388.365 668.262 -388.972C666.857 -389.056 659.395 -386.149 663.832 -388.343C672.091 -392.428 681.037 -396.742 687.047 -403.988C696.566 -415.465 688.081 -429.513 682.746 -440.909C663.639 -481.725 642.854 -521.817 622.836 -562.193" stroke="url(#paint9_linear_147_3863)" stroke-width="4.50169"/>
<path d="M838.523 557.834C820.813 558.092 803.626 559.627 787.54 550.818C760.223 535.858 744.13 510.039 726.805 485.024C699.338 445.364 672.366 406.564 637.426 372.933C617.857 354.097 590.595 325.944 560.912 326.999C554.516 327.226 535.059 330.342 531.755 337.752C530.232 341.166 535.148 350.148 536.314 352.721C538.898 358.422 542.571 367.519 549.536 369.15C559.619 371.511 575.105 365.606 582.025 358.276C593.222 346.415 583.493 320.996 578.576 308.602C570.701 288.757 561.58 273.937 544.596 261.021C534.606 253.423 525.329 248.021 513.122 253.508C497.129 260.697 525.497 256.81 530.292 254.579C539.217 250.425 542.233 243.938 541.266 233.922C538.701 207.353 522.781 179.708 511.909 155.866C497.15 123.499 474.787 93.6799 463.464 59.909C459.285 47.4457 459.359 36.368 463.934 24.1805C466.079 18.4666 469.547 7.13465 475.732 4.16347C480.941 1.66135 487.664 3.78805 492.751 5.38093C506.846 9.79431 520.312 16.0711 534.103 21.3139C556.073 29.6656 578.652 34.5443 600.551 23.4158C621.286 12.8791 627.964 -11.0559 623.676 -32.7376C619.624 -53.228 610.06 -72.8572 597.847 -89.7079C592.64 -96.8934 592.346 -96.7207 587.271 -101.565C585.505 -103.25 586.47 -102.351 589.377 -101.171C612.5 -91.7805 632.507 -83.7596 656.559 -93.8745C676.234 -102.149 694.659 -117.75 686.705 -141.419C678.721 -165.179 661.664 -185.911 656.938 -210.846C653.148 -230.842 672.64 -235.845 687.446 -242.958C692.622 -245.444 697.027 -248.173 702.733 -245.642C710.264 -242.302 716.268 -235.724 722.181 -230.207C732.795 -220.304 742.971 -209.951 756.548 -221.125C760.563 -224.43 759.409 -228.607 757.685 -232.988C751.651 -248.319 741.903 -262.526 731.634 -275.28C722.688 -286.39 711.462 -300.465 697.943 -306.358C695.122 -307.588 691.81 -306.297 696.096 -308.356C706.971 -313.58 727.714 -319.555 721.57 -335.164C716.411 -348.272 707.188 -360.216 697.354 -370.129C690.694 -376.842 680.563 -386.906 670.352 -387.63C668.948 -387.73 661.454 -384.908 665.915 -387.052C674.221 -391.042 683.214 -395.254 689.306 -402.431C698.956 -413.799 690.628 -427.941 685.422 -439.396C666.777 -480.425 646.445 -520.749 626.884 -561.348" stroke="url(#paint10_linear_147_3863)" stroke-width="4.50169"/>
<path d="M828.757 561.931C811.045 561.987 793.84 563.326 777.854 554.335C750.706 539.067 734.906 513.068 717.863 487.858C690.844 447.891 664.311 408.788 629.752 374.763C610.396 355.706 583.452 327.247 553.758 327.964C547.359 328.118 527.867 331.012 524.479 338.384C522.918 341.78 527.733 350.817 528.87 353.403C531.389 359.133 534.959 368.271 541.906 369.981C551.962 372.457 567.515 366.728 574.517 359.478C585.848 347.745 576.406 322.219 571.629 309.77C563.979 289.838 555.025 274.915 538.187 261.808C528.283 254.097 519.067 248.59 506.799 253.937C490.725 260.943 519.136 257.38 523.956 255.204C532.928 251.152 536.017 244.699 535.163 234.674C532.898 208.078 517.291 180.255 506.689 156.293C492.295 123.761 470.269 93.6915 459.328 59.7957C455.29 47.2863 455.489 36.2107 460.201 24.0765C462.41 18.3877 466.007 7.09652 472.225 4.19603C477.462 1.75344 484.162 3.95639 489.23 5.60695C503.275 10.1802 516.67 16.6094 530.402 22.0085C552.277 30.6092 574.801 35.7442 596.825 24.8661C617.679 14.5665 624.626 -9.28984 620.584 -31.018C616.764 -51.5521 607.421 -71.2878 595.399 -88.2756C590.273 -95.5195 589.977 -95.3501 584.957 -100.251C583.21 -101.957 584.165 -101.047 587.058 -99.8337C610.075 -90.1812 629.991 -81.9337 654.157 -91.7738C673.926 -99.8236 692.527 -115.213 684.84 -138.97C677.124 -162.818 660.301 -183.741 655.857 -208.728C652.293 -228.765 671.841 -233.545 686.728 -240.489C691.931 -242.916 696.367 -245.594 702.045 -242.999C709.537 -239.573 715.468 -232.928 721.318 -227.344C731.82 -217.322 741.879 -206.854 755.582 -217.873C759.634 -221.131 758.528 -225.321 756.853 -229.721C750.992 -245.119 741.405 -259.436 731.279 -272.305C722.459 -283.515 711.393 -297.716 697.94 -303.763C695.133 -305.024 691.807 -303.771 696.116 -305.781C707.05 -310.881 727.86 -316.619 721.892 -332.297C716.881 -345.461 707.794 -357.509 698.072 -367.533C691.488 -374.321 681.471 -384.499 671.268 -385.339C669.865 -385.455 662.339 -382.719 666.824 -384.811C675.175 -388.706 684.216 -392.816 690.389 -399.923C700.166 -411.179 691.999 -425.415 686.923 -436.928C668.741 -478.164 648.865 -518.715 629.762 -559.531" stroke="url(#paint11_linear_147_3863)" stroke-width="4.50169"/>
<path d="M820.143 565.219C802.43 565.073 785.211 566.217 769.326 557.045C742.352 541.469 726.845 515.293 710.088 489.893C683.521 449.622 657.429 410.222 623.255 375.808C604.115 356.533 577.492 327.771 547.791 328.149C541.391 328.231 521.867 330.903 518.395 338.235C516.796 341.613 521.508 350.704 522.616 353.303C525.071 359.06 528.537 368.238 535.464 370.027C545.492 372.617 561.11 367.065 568.194 359.896C579.657 348.294 570.504 322.663 565.867 310.161C558.442 290.144 549.657 275.121 532.968 261.823C523.151 254.002 513.998 248.39 501.669 253.597C485.516 260.419 513.967 257.18 518.811 255.059C527.829 251.109 530.991 244.693 530.251 234.659C528.285 208.04 512.993 180.043 502.662 155.962C488.636 123.271 466.95 92.9536 456.391 58.9372C452.495 46.3832 452.819 35.3111 457.668 23.2319C459.942 17.5688 463.666 6.31985 469.917 3.49043C475.181 1.10769 481.855 3.3866 486.906 5.09465C500.898 9.82712 514.221 16.408 527.891 21.9627C549.669 30.8113 572.134 36.202 594.281 25.5757C615.25 15.5144 622.468 -8.26017 618.671 -30.0318C615.082 -50.6071 605.963 -70.447 594.133 -87.5695C589.088 -94.8709 588.79 -94.705 583.826 -99.6628C582.098 -101.388 583.043 -100.467 585.922 -99.2213C608.83 -89.308 628.652 -80.8348 652.929 -90.3989C672.788 -98.2229 691.563 -113.399 684.145 -137.241C676.698 -161.174 660.112 -182.286 655.95 -207.321C652.612 -227.396 672.214 -231.953 687.179 -238.727C692.41 -241.095 696.876 -243.722 702.524 -241.062C709.978 -237.552 715.833 -230.839 721.62 -225.19C732.009 -215.05 741.95 -204.468 755.777 -215.33C759.866 -218.542 758.807 -222.744 757.182 -227.163C751.494 -242.625 742.069 -257.049 732.089 -270.033C723.396 -281.342 712.49 -295.667 699.106 -301.866C696.313 -303.159 692.973 -301.944 697.305 -303.905C708.296 -308.88 729.171 -314.381 723.38 -330.124C718.518 -343.344 709.566 -355.494 699.958 -365.627C693.451 -372.49 683.549 -382.781 673.356 -383.737C671.954 -383.868 664.397 -381.218 668.906 -383.259C677.301 -387.059 686.388 -391.065 692.641 -398.101C702.546 -409.245 694.539 -423.572 689.593 -435.142C671.877 -476.58 652.459 -517.353 633.818 -558.382" stroke="url(#paint12_linear_147_3863)" stroke-width="4.50169"/>
<path d="M812.325 569.685C794.614 569.338 777.382 570.285 761.601 560.934C734.803 545.053 719.592 518.703 703.123 493.115C677.01 452.547 651.364 412.854 617.58 378.055C598.657 358.565 572.36 329.502 542.655 329.543C536.254 329.552 516.7 332.001 513.146 339.293C511.508 342.653 516.118 351.796 517.196 354.407C519.586 360.192 522.949 369.408 529.856 371.276C539.854 373.98 555.534 368.607 562.699 361.518C574.293 350.048 565.43 324.316 560.934 311.762C553.735 291.663 545.12 276.542 528.581 263.056C518.853 255.123 509.763 249.408 497.375 254.474C481.146 261.112 509.633 258.197 514.501 256.131C523.564 252.284 526.798 245.905 526.171 235.864C524.506 209.225 509.53 181.057 499.471 156.862C485.815 124.014 464.471 93.4538 454.297 59.321C450.542 46.7241 450.992 35.6569 455.977 23.6343C458.315 17.9977 462.166 6.79234 468.449 4.03435C473.74 1.71176 480.388 4.06636 485.419 5.83167C499.358 10.7228 512.606 17.4546 526.214 23.1642C547.891 32.2595 570.295 37.9053 592.561 27.5321C613.644 17.7105 621.13 -5.97931 617.579 -27.7917C614.223 -48.4056 605.327 -68.347 593.691 -85.6022C588.729 -92.9602 588.429 -92.7977 583.521 -97.8114C581.813 -99.556 582.747 -98.6245 585.612 -97.3461C608.408 -87.1733 628.134 -78.4755 652.518 -87.7623C672.465 -95.3595 691.411 -110.321 684.262 -134.244C677.086 -158.259 660.739 -179.558 656.86 -204.637C653.749 -224.748 673.401 -229.081 688.443 -235.684C693.7 -237.992 698.196 -240.569 703.814 -237.845C711.228 -234.25 717.007 -227.472 722.731 -221.757C733.004 -211.499 742.825 -200.806 756.775 -211.509C760.9 -214.675 759.888 -218.888 758.313 -223.325C752.801 -238.85 743.539 -253.38 733.706 -266.475C725.14 -277.882 714.397 -292.33 701.082 -298.68C698.304 -300.005 694.951 -298.829 699.304 -300.74C710.352 -305.589 731.288 -310.852 725.675 -326.66C720.962 -339.933 712.148 -352.184 702.655 -362.425C696.225 -369.361 686.439 -379.764 676.257 -380.835C674.857 -380.982 667.27 -378.419 671.802 -380.409C680.239 -384.112 689.372 -388.015 695.704 -394.978C705.735 -406.009 697.89 -420.425 693.074 -432.05C675.827 -473.685 656.87 -514.674 638.692 -555.91" stroke="url(#paint13_linear_147_3863)" stroke-width="4.50169"/>
<path d="M803.67 572.996C785.964 572.447 768.722 573.199 753.047 563.668C726.428 547.484 711.515 520.965 695.335 495.192C669.681 454.331 644.484 414.351 611.093 379.172C592.391 359.468 566.423 330.109 536.717 329.812C530.316 329.748 510.735 331.975 507.099 339.226C505.423 342.566 509.93 351.761 510.979 354.384C513.303 360.196 516.562 369.449 523.447 371.395C533.415 374.212 549.155 369.018 556.4 362.012C568.124 350.675 559.551 324.844 555.197 312.241C548.225 292.062 539.781 276.845 523.395 263.172C513.756 255.13 504.731 249.312 492.287 254.237C475.982 260.689 504.502 258.098 509.393 256.088C518.499 252.345 521.805 246.002 521.291 235.955C519.928 209.301 505.27 180.966 495.484 156.658C482.199 123.659 461.201 92.8592 451.413 58.6144C447.801 45.9761 448.375 34.9153 453.496 22.9507C455.897 17.3413 459.875 6.18102 466.189 3.49481C471.506 1.23268 478.128 3.66266 483.138 5.48502C497.022 10.5342 510.193 17.416 523.736 23.2798C545.31 32.6208 567.65 38.5208 590.033 28.4021C611.227 18.8215 618.98 -4.78061 615.675 -26.6311C612.552 -47.2808 603.882 -67.3212 592.441 -84.707C587.562 -92.1206 587.26 -91.9615 582.409 -97.0305C580.72 -98.7944 581.644 -97.8524 584.495 -96.5415C607.175 -86.1105 626.802 -77.1892 651.291 -86.1976C671.324 -93.5669 690.438 -108.311 683.56 -132.313C676.655 -156.407 660.548 -177.889 656.952 -203.01C654.069 -223.154 673.77 -227.264 688.886 -233.695C694.169 -235.942 698.694 -238.467 704.281 -235.68C711.654 -232.001 717.357 -225.158 723.015 -219.379C733.173 -209.005 742.873 -198.201 756.943 -208.745C761.104 -211.863 760.14 -216.088 758.615 -220.541C753.278 -236.128 744.18 -250.762 734.495 -263.967C726.059 -275.471 715.478 -290.039 702.236 -296.54C699.473 -297.896 696.106 -296.758 700.481 -298.619C711.584 -303.343 732.579 -308.366 727.145 -324.236C722.582 -337.562 713.906 -349.912 704.528 -360.26C698.177 -367.268 688.509 -377.781 678.339 -378.968C676.94 -379.131 669.325 -376.655 673.88 -378.592C682.359 -382.2 691.535 -385.998 697.946 -392.889C708.1 -403.803 700.419 -418.307 695.735 -429.986C678.958 -471.812 660.464 -513.013 642.752 -554.452" stroke="url(#paint14_linear_147_3863)" stroke-width="4.50169"/>
<path d="M794.991 576.313C777.291 575.563 760.041 576.118 744.474 566.41C718.039 549.925 703.426 523.239 687.536 497.285C662.345 456.136 637.599 415.874 604.606 380.318C586.127 360.404 560.491 330.753 530.789 330.118C524.389 329.981 504.783 331.985 501.065 339.193C499.352 342.514 503.755 351.76 504.774 354.394C507.032 360.232 510.187 369.521 517.05 371.545C526.986 374.475 542.784 369.461 550.108 362.538C561.96 351.336 553.679 325.41 549.467 312.759C542.724 292.503 534.451 277.191 518.22 263.334C508.672 255.182 499.713 249.262 487.213 254.045C470.836 260.311 499.385 258.045 504.299 256.09C513.446 252.451 516.824 246.148 516.424 236.096C515.361 209.429 501.024 180.93 491.513 156.514C478.601 123.367 457.951 92.3314 448.549 57.9789C445.08 45.3009 445.779 34.2478 451.035 22.3427C453.499 16.7613 457.603 5.64746 463.947 3.0334C469.289 0.832008 475.884 3.33708 480.874 5.21626C494.7 10.4229 507.794 17.4538 521.27 23.4711C542.738 33.0565 565.011 39.2101 587.508 29.3472C608.809 20.0088 616.828 -3.50253 613.771 -25.3882C610.881 -46.0712 602.437 -66.2081 591.193 -83.7222C586.398 -91.1905 586.094 -91.0349 581.3 -96.1586C579.632 -97.9415 580.545 -96.989 583.38 -95.6458C605.942 -84.9579 625.469 -75.8142 650.058 -84.543C670.174 -91.6836 689.454 -106.208 682.847 -130.286C676.215 -154.456 660.351 -176.119 657.039 -201.278C654.383 -221.453 674.13 -225.338 689.318 -231.596C694.627 -233.784 699.18 -236.257 704.735 -233.406C712.067 -229.644 717.692 -222.736 723.285 -216.894C733.326 -206.406 742.904 -195.493 757.093 -205.875C761.289 -208.945 760.372 -213.18 758.898 -217.651C753.737 -233.297 744.804 -248.032 735.269 -261.347C726.962 -272.945 716.547 -287.632 703.378 -294.283C700.63 -295.671 697.251 -294.57 701.646 -296.382C712.802 -300.978 733.853 -305.763 728.599 -321.693C724.186 -335.069 715.65 -347.516 706.39 -357.969C700.118 -365.049 690.569 -375.671 680.412 -376.974C679.015 -377.153 671.372 -374.763 675.949 -376.649C684.468 -380.159 693.687 -383.853 700.176 -390.67C710.453 -401.468 702.936 -416.058 698.383 -427.788C682.079 -469.801 664.051 -511.207 646.808 -552.843" stroke="url(#paint15_linear_147_3863)" stroke-width="4.50169"/>
<path d="M786.29 579.638C768.599 578.687 751.342 579.046 735.885 569.162C709.637 552.378 695.325 525.528 679.73 499.396C655.003 457.965 630.713 417.426 598.122 381.498C579.868 361.376 554.567 331.436 524.874 330.463C518.475 330.254 498.847 332.034 495.047 339.199C493.297 342.501 497.595 351.795 498.584 354.441C500.777 360.303 503.826 369.627 510.667 371.729C520.569 374.772 536.424 369.938 543.826 363.1C555.803 352.033 547.815 326.017 543.747 313.319C537.232 292.988 529.133 277.584 513.058 263.543C503.603 255.284 494.711 249.263 482.157 253.903C465.71 259.982 494.283 258.041 499.219 256.142C508.408 252.608 511.857 246.343 511.57 236.288C510.808 209.612 496.793 180.952 487.558 156.431C475.02 123.141 454.721 91.8733 445.708 57.4175C442.381 44.7014 443.205 33.6574 448.596 21.8135C451.123 16.2607 455.352 5.19476 461.726 2.65316C467.093 0.512804 473.659 3.09265 478.628 5.02841C492.395 10.3918 505.409 17.5709 518.817 23.7409C540.176 33.5697 562.379 39.976 584.987 30.3702C606.393 21.2752 614.678 -2.14234 611.867 -24.0605C609.211 -44.7742 600.995 -65.005 589.948 -82.6451C585.238 -90.1672 584.932 -90.015 580.196 -95.1927C578.548 -96.9944 579.45 -96.0317 582.271 -94.6564C604.712 -83.7128 624.134 -74.3479 648.822 -82.7959C669.018 -89.7069 688.462 -104.011 682.127 -128.161C675.767 -152.404 660.148 -174.245 657.12 -199.439C654.692 -219.642 674.483 -223.302 689.741 -229.387C695.074 -231.513 699.655 -233.934 705.178 -231.021C712.467 -227.175 718.015 -220.205 723.542 -214.299C733.463 -203.698 742.918 -192.677 757.224 -202.897C761.454 -205.919 760.586 -210.164 759.162 -214.651C754.178 -230.354 745.412 -245.189 736.027 -258.611C727.852 -270.302 717.602 -285.107 704.508 -291.907C701.777 -293.325 698.385 -292.264 702.801 -294.025C714.008 -298.494 735.113 -303.038 730.038 -319.027C725.777 -332.452 717.382 -344.994 708.239 -355.552C702.047 -362.703 692.618 -373.432 682.477 -374.85C681.082 -375.045 673.412 -372.743 678.01 -374.576C686.569 -377.989 695.829 -381.577 702.395 -388.32C712.794 -399 705.441 -413.673 701.022 -425.454C685.192 -467.648 667.632 -509.255 650.859 -551.083" stroke="url(#paint16_linear_147_3863)" stroke-width="4.50169"/>
<path d="M777.211 584.959C759.531 583.807 742.271 583.969 726.926 573.91C700.867 556.829 686.859 529.819 671.559 503.513C647.301 461.805 623.469 420.993 591.284 384.699C573.258 364.371 548.296 334.146 518.614 332.836C512.218 332.553 492.57 334.11 488.69 341.231C486.902 344.512 491.095 353.855 492.055 356.511C494.181 362.398 497.125 371.756 503.941 373.936C513.809 377.091 529.718 372.438 537.197 365.684C549.3 354.755 541.605 328.651 537.68 315.908C531.395 295.505 523.47 280.011 507.554 265.788C498.193 257.422 489.369 251.3 476.763 255.797C460.247 261.688 488.842 260.073 493.799 258.23C503.027 254.801 506.547 248.576 506.374 238.519C505.913 211.837 492.222 183.021 483.264 158.397C471.103 124.968 451.157 93.4726 442.533 58.9179C439.35 46.1653 440.299 35.1318 445.823 23.3505C448.413 17.827 452.767 6.8104 459.169 4.3416C464.56 2.26255 471.097 4.91684 476.043 6.90894C489.75 12.4284 502.682 19.7549 516.021 26.0768C537.268 36.1476 559.398 42.8059 582.114 33.4584C603.622 24.6079 612.171 1.28717 609.608 -20.6606C607.186 -41.4023 599.198 -61.7245 588.351 -79.4885C583.726 -87.0634 583.419 -86.9147 578.741 -92.1458C577.113 -93.966 578.005 -92.9931 580.81 -91.5858C603.126 -80.3881 622.443 -70.8032 647.225 -78.9693C667.499 -85.6497 687.104 -99.7309 681.042 -123.951C674.956 -148.263 659.584 -170.28 656.841 -195.506C654.64 -215.734 674.472 -219.168 689.799 -225.079C695.156 -227.145 699.764 -229.513 705.254 -226.537C712.5 -222.609 717.968 -215.576 723.428 -209.608C733.23 -198.895 742.56 -187.768 756.981 -197.824C761.246 -200.798 760.425 -205.052 759.052 -209.555C754.245 -225.313 745.647 -240.246 736.413 -253.773C728.37 -265.557 718.288 -280.476 705.272 -287.424C702.556 -288.874 699.152 -287.851 703.588 -289.562C714.845 -293.903 736.001 -298.206 731.107 -314.251C726.998 -327.723 718.744 -340.36 709.721 -351.02C703.61 -358.241 694.303 -369.076 684.178 -370.61C682.785 -370.821 675.089 -368.605 679.707 -370.386C688.304 -373.702 697.605 -377.184 704.247 -383.851C714.766 -394.412 707.579 -409.167 703.293 -420.997C687.94 -463.367 670.85 -505.17 654.55 -547.184" stroke="url(#paint17_linear_147_3863)" stroke-width="4.50169"/>
<path d="M768.467 588.3C750.8 586.947 733.539 586.913 718.308 576.681C692.443 559.305 678.74 532.139 663.737 505.661C639.95 463.681 616.58 422.602 584.806 385.945C567.01 365.414 542.389 334.909 512.723 333.261C506.33 332.905 486.666 334.238 482.705 341.315C480.88 344.575 484.967 353.964 485.897 356.632C487.957 362.542 490.795 371.933 497.587 374.19C507.419 377.457 523.38 372.985 530.935 366.317C543.16 355.527 535.761 329.338 531.98 316.552C525.926 296.08 518.176 280.496 502.421 266.094C493.153 257.623 484.399 251.401 471.743 255.754C455.161 261.456 483.773 260.167 488.751 258.381C498.018 255.057 501.608 248.873 501.548 238.814C501.389 212.13 488.023 183.161 479.343 158.438C467.56 124.874 447.97 93.1549 439.736 58.5057C436.698 45.7182 437.771 34.6967 443.428 22.9795C446.08 17.4861 450.558 6.52012 456.988 4.12444C462.403 2.10696 468.909 4.83537 473.833 6.88356C487.477 12.5585 500.326 20.0313 513.593 26.5044C534.727 36.8159 556.781 43.7254 579.602 34.6374C601.209 26.0326 610.021 2.8116 607.706 -19.1631C605.518 -39.9302 597.76 -60.3412 587.114 -78.2267C582.574 -85.8535 582.265 -85.7083 577.647 -90.992C576.04 -92.8306 576.92 -91.8477 579.709 -90.4086C601.899 -78.9581 621.107 -69.1543 645.981 -77.0376C666.329 -83.4865 686.093 -97.3431 680.304 -121.629C674.493 -146.009 659.37 -168.198 656.911 -193.452C654.94 -213.703 674.81 -216.912 690.203 -222.647C695.583 -224.652 700.218 -226.968 705.674 -223.93C712.875 -219.92 718.264 -212.825 723.657 -206.796C733.337 -195.972 742.541 -184.74 757.075 -194.63C761.374 -197.555 760.601 -201.819 759.278 -206.337C754.65 -222.148 746.22 -237.178 737.14 -250.808C729.23 -262.682 719.317 -277.714 706.379 -284.81C703.68 -286.291 700.265 -285.306 704.72 -286.966C716.026 -291.179 737.23 -295.241 732.517 -311.34C728.56 -324.857 720.449 -337.587 711.546 -348.349C705.517 -355.638 696.332 -366.578 686.225 -368.227C684.834 -368.454 677.114 -366.326 681.752 -368.054C690.386 -371.272 699.726 -374.647 706.443 -381.239C717.081 -391.678 710.061 -406.514 705.908 -418.392C691.034 -460.932 674.417 -502.924 658.591 -545.12" stroke="url(#paint18_linear_147_3863)" stroke-width="4.50169"/>
<path d="M759.699 591.651C742.048 590.097 724.787 589.866 709.672 579.462C684.004 561.794 670.609 534.474 655.905 507.828C632.593 465.582 609.687 424.242 578.327 387.227C560.763 366.495 536.488 335.713 506.841 333.727C500.452 333.299 480.773 334.408 476.732 341.439C474.871 344.678 478.852 354.113 479.752 356.791C481.745 362.724 484.477 372.145 491.243 374.48C501.038 377.858 517.049 373.569 524.679 366.988C537.026 356.338 529.923 330.067 526.286 317.239C520.463 296.7 512.889 281.03 497.297 266.45C488.126 257.874 479.441 251.554 466.736 255.762C450.091 261.275 478.717 260.311 483.715 258.582C493.019 255.364 496.679 249.221 496.732 239.163C496.874 212.48 483.836 183.362 475.436 158.542C464.031 124.848 444.8 92.9092 436.958 58.1699C434.064 45.3491 435.261 34.3409 441.05 22.6893C443.765 17.2267 448.366 6.31281 454.823 3.99055C460.26 2.0349 466.736 4.83708 471.637 6.9411C485.216 12.7707 497.981 20.389 511.174 27.0124C532.191 37.5634 554.166 44.7232 577.089 35.8958C598.793 27.5378 607.867 4.4195 605.8 -17.5792C603.847 -38.3691 596.319 -58.8663 585.875 -76.8712C581.422 -84.5488 581.111 -84.4072 576.553 -89.7429C574.966 -91.5996 575.836 -90.6067 578.608 -89.1361C600.668 -77.4342 619.765 -67.4128 644.727 -75.0122C665.148 -81.2289 685.067 -94.8591 679.553 -119.209C674.017 -143.652 659.145 -166.011 656.972 -191.29C655.229 -211.562 675.134 -214.544 690.592 -220.104C695.995 -222.047 700.656 -224.31 706.077 -221.21C713.233 -217.118 718.541 -209.963 723.866 -203.873C733.424 -192.94 742.501 -181.604 757.146 -191.329C761.478 -194.204 760.753 -198.476 759.482 -203.009C755.032 -218.871 746.772 -233.995 737.846 -247.728C730.07 -259.69 720.327 -274.834 707.47 -282.076C704.787 -283.587 701.361 -282.642 705.835 -284.251C717.188 -288.334 738.437 -292.155 733.906 -308.305C730.102 -321.867 722.135 -334.687 713.354 -345.549C707.407 -352.906 698.346 -363.95 688.257 -365.713C686.87 -365.956 679.125 -363.917 683.783 -365.592C692.453 -368.71 701.831 -371.98 708.622 -378.494C719.378 -388.811 712.526 -403.725 708.507 -415.649C694.114 -458.354 677.971 -500.532 662.622 -542.902" stroke="url(#paint19_linear_147_3863)" stroke-width="4.50169"/>
<path d="M750.911 595.014C733.278 593.26 716.021 592.832 701.024 582.257C675.556 564.298 662.469 536.829 648.066 510.018C625.232 467.511 602.793 425.914 571.852 388.546C554.523 367.617 530.595 336.562 500.972 334.239C494.588 333.738 474.897 334.623 470.777 341.607C468.879 344.825 472.754 354.304 473.623 356.991C475.549 362.947 478.175 372.399 484.914 374.809C494.671 378.299 510.73 374.193 518.434 367.699C530.901 357.191 524.094 330.841 520.602 317.974C515.011 297.37 507.615 281.616 492.188 266.86C483.113 258.18 474.501 251.762 461.749 255.825C445.041 261.148 473.677 260.51 478.695 258.838C488.035 255.726 491.764 249.626 491.931 239.569C492.374 212.89 479.665 183.627 471.545 158.714C460.521 124.893 441.652 92.7391 434.202 57.914C431.452 45.0616 432.774 34.0682 438.695 22.4837C441.47 17.0525 446.195 6.19209 452.678 3.94354C458.137 2.04998 464.581 4.92557 469.458 7.08515C482.971 13.0687 495.649 20.8315 508.767 27.6044C529.664 38.3935 551.558 45.8027 574.581 37.2371C596.378 29.127 605.713 6.11428 603.894 -15.9058C602.176 -36.7158 594.88 -57.2965 584.639 -75.4184C580.273 -83.146 579.961 -83.0079 575.462 -88.395C573.897 -90.2695 574.755 -89.2669 577.511 -87.7648C599.438 -75.813 618.421 -65.5754 643.469 -72.8898C663.959 -78.8735 684.032 -92.2756 678.792 -116.685C673.533 -141.189 658.914 -163.715 657.026 -189.017C655.512 -209.306 675.45 -212.061 690.97 -217.445C696.395 -219.326 701.081 -221.536 706.468 -218.374C713.577 -214.202 718.805 -206.987 724.06 -200.837C733.495 -189.797 742.443 -178.358 757.198 -187.915C761.562 -190.741 760.886 -195.021 759.665 -199.567C755.394 -215.478 747.306 -230.695 738.535 -244.528C730.895 -256.577 721.322 -271.83 708.547 -279.218C705.882 -280.76 702.445 -279.854 706.937 -281.412C718.336 -285.366 739.628 -288.944 735.279 -305.144C731.628 -318.747 723.806 -331.657 715.148 -342.619C709.284 -350.042 700.348 -361.188 690.28 -363.066C688.895 -363.324 681.127 -361.374 685.804 -362.995C694.509 -366.015 703.924 -369.177 710.788 -375.613C721.66 -385.807 714.976 -400.798 711.092 -412.766C697.181 -455.631 681.515 -497.988 666.645 -540.529" stroke="url(#paint20_linear_147_3863)" stroke-width="4.50169"/>
<path d="M742.913 599.551C725.301 597.595 708.049 596.972 693.171 586.227C667.907 567.98 655.131 540.365 641.031 513.393C618.677 470.63 596.708 428.782 566.19 391.065C549.098 369.941 525.522 338.617 495.925 335.956C489.547 335.383 469.847 336.044 465.648 342.98C463.714 346.176 467.481 355.698 468.32 358.396C470.179 364.372 472.698 373.853 479.41 376.34C489.127 379.941 505.232 376.017 513.009 369.612C525.594 359.247 519.085 332.823 515.739 319.916C510.381 299.252 503.162 283.415 487.902 268.485C478.926 259.703 470.386 253.186 457.588 257.104C440.821 262.237 469.464 261.924 474.5 260.31C483.875 257.305 487.673 251.247 487.953 241.194C488.698 214.522 476.319 185.117 468.481 160.115C457.839 126.171 439.333 93.806 432.276 58.8996C429.672 46.0171 431.118 35.0399 437.169 23.5239C440.006 18.1248 444.853 7.31931 451.361 5.14478C456.842 3.31353 463.253 6.26218 468.105 8.47706C481.55 14.6138 494.141 22.5202 507.182 29.4417C527.957 40.4675 549.767 48.1252 572.885 39.8225C594.773 31.9613 604.368 9.05712 602.798 -12.9814C601.314 -33.8089 594.251 -54.4706 584.215 -72.7073C579.936 -80.4837 579.622 -80.3492 575.185 -85.787C573.64 -87.6791 574.487 -86.6668 577.226 -85.1335C599.018 -72.9334 617.885 -62.4807 643.014 -69.5093C663.572 -75.2592 683.795 -88.4315 678.831 -112.899C673.848 -137.459 659.484 -160.15 657.882 -185.47C656.597 -205.775 676.566 -208.303 692.146 -213.509C697.592 -215.329 702.303 -217.485 707.654 -214.262C714.716 -210.009 719.862 -202.736 725.048 -196.526C734.357 -185.38 743.177 -173.841 758.039 -183.228C762.434 -186.005 761.806 -190.292 760.637 -194.852C756.546 -210.81 748.63 -226.117 740.015 -240.048C732.511 -252.183 723.111 -267.544 710.42 -275.076C707.772 -276.648 704.325 -275.781 708.834 -277.288C720.278 -281.112 741.609 -284.447 737.444 -300.695C733.946 -314.339 726.27 -327.336 717.736 -338.395C711.957 -345.885 703.146 -357.131 693.099 -359.124C691.717 -359.398 683.928 -357.535 688.623 -359.104C697.362 -362.024 706.812 -365.079 713.749 -371.436C724.736 -381.505 718.222 -396.571 714.473 -408.582C701.046 -451.6 685.858 -494.131 671.469 -536.838" stroke="url(#paint21_linear_147_3863)" stroke-width="4.50169"/>
<defs>
<linearGradient id="paint0_linear_147_3863" x1="962.218" y1="496.333" x2="386.604" y2="-441.575" gradientUnits="userSpaceOnUse">
<stop stop-color="#FF6D3A"/>
<stop offset="1" stop-color="#994123"/>
</linearGradient>
<linearGradient id="paint1_linear_147_3863" x1="787.453" y1="585.763" x2="450.612" y2="-461.869" gradientUnits="userSpaceOnUse">
<stop stop-color="#FF6D3A"/>
<stop offset="1" stop-color="#994123"/>
</linearGradient>
<linearGradient id="paint2_linear_147_3863" x1="954.146" y1="500.057" x2="389.262" y2="-444.352" gradientUnits="userSpaceOnUse">
<stop stop-color="#FF6D3A"/>
<stop offset="1" stop-color="#994123"/>
</linearGradient>
<linearGradient id="paint3_linear_147_3863" x1="946.047" y1="503.796" x2="391.966" y2="-446.991" gradientUnits="userSpaceOnUse">
<stop stop-color="#FF6D3A"/>
<stop offset="1" stop-color="#994123"/>
</linearGradient>
<linearGradient id="paint4_linear_147_3863" x1="937.921" y1="507.551" x2="394.716" y2="-449.491" gradientUnits="userSpaceOnUse">
<stop stop-color="#FF6D3A"/>
<stop offset="1" stop-color="#994123"/>
</linearGradient>
<linearGradient id="paint5_linear_147_3863" x1="929.416" y1="513.312" x2="397.156" y2="-449.86" gradientUnits="userSpaceOnUse">
<stop stop-color="#FF6D3A"/>
<stop offset="1" stop-color="#994123"/>
</linearGradient>
<linearGradient id="paint6_linear_147_3863" x1="921.236" y1="517.098" x2="399.991" y2="-452.08" gradientUnits="userSpaceOnUse">
<stop stop-color="#FF6D3A"/>
<stop offset="1" stop-color="#994123"/>
</linearGradient>
<linearGradient id="paint7_linear_147_3863" x1="913.028" y1="520.898" x2="402.866" y2="-454.159" gradientUnits="userSpaceOnUse">
<stop stop-color="#FF6D3A"/>
<stop offset="1" stop-color="#994123"/>
</linearGradient>
<linearGradient id="paint8_linear_147_3863" x1="904.793" y1="524.712" x2="405.779" y2="-456.097" gradientUnits="userSpaceOnUse">
<stop stop-color="#FF6D3A"/>
<stop offset="1" stop-color="#994123"/>
</linearGradient>
<linearGradient id="paint9_linear_147_3863" x1="897.351" y1="529.713" x2="409.55" y2="-456.721" gradientUnits="userSpaceOnUse">
<stop stop-color="#FF6D3A"/>
<stop offset="1" stop-color="#994123"/>
</linearGradient>
<linearGradient id="paint10_linear_147_3863" x1="889.06" y1="533.556" x2="412.535" y2="-458.374" gradientUnits="userSpaceOnUse">
<stop stop-color="#FF6D3A"/>
<stop offset="1" stop-color="#994123"/>
</linearGradient>
<linearGradient id="paint11_linear_147_3863" x1="879.568" y1="538.23" x2="414.381" y2="-459.067" gradientUnits="userSpaceOnUse">
<stop stop-color="#FF6D3A"/>
<stop offset="1" stop-color="#994123"/>
</linearGradient>
<linearGradient id="paint12_linear_147_3863" x1="871.221" y1="542.099" x2="417.432" y2="-460.436" gradientUnits="userSpaceOnUse">
<stop stop-color="#FF6D3A"/>
<stop offset="1" stop-color="#994123"/>
</linearGradient>
<linearGradient id="paint13_linear_147_3863" x1="863.663" y1="547.148" x2="421.33" y2="-460.493" gradientUnits="userSpaceOnUse">
<stop stop-color="#FF6D3A"/>
<stop offset="1" stop-color="#994123"/>
</linearGradient>
<linearGradient id="paint14_linear_147_3863" x1="855.262" y1="551.046" x2="424.443" y2="-461.571" gradientUnits="userSpaceOnUse">
<stop stop-color="#FF6D3A"/>
<stop offset="1" stop-color="#994123"/>
</linearGradient>
<linearGradient id="paint15_linear_147_3863" x1="846.829" y1="554.952" x2="427.58" y2="-462.509" gradientUnits="userSpaceOnUse">
<stop stop-color="#FF6D3A"/>
<stop offset="1" stop-color="#994123"/>
</linearGradient>
<linearGradient id="paint16_linear_147_3863" x1="838.368" y1="558.87" x2="430.742" y2="-463.304" gradientUnits="userSpaceOnUse">
<stop stop-color="#FF6D3A"/>
<stop offset="1" stop-color="#994123"/>
</linearGradient>
<linearGradient id="paint17_linear_147_3863" x1="829.522" y1="564.786" x2="433.571" y2="-461.967" gradientUnits="userSpaceOnUse">
<stop stop-color="#FF6D3A"/>
<stop offset="1" stop-color="#994123"/>
</linearGradient>
<linearGradient id="paint18_linear_147_3863" x1="821.005" y1="568.725" x2="436.781" y2="-462.473" gradientUnits="userSpaceOnUse">
<stop stop-color="#FF6D3A"/>
<stop offset="1" stop-color="#994123"/>
</linearGradient>
<linearGradient id="paint19_linear_147_3863" x1="812.457" y1="572.675" x2="440.008" y2="-462.833" gradientUnits="userSpaceOnUse">
<stop stop-color="#FF6D3A"/>
<stop offset="1" stop-color="#994123"/>
</linearGradient>
<linearGradient id="paint20_linear_147_3863" x1="803.882" y1="576.641" x2="443.256" y2="-463.044" gradientUnits="userSpaceOnUse">
<stop stop-color="#FF6D3A"/>
<stop offset="1" stop-color="#994123"/>
</linearGradient>
<linearGradient id="paint21_linear_147_3863" x1="796.09" y1="581.782" x2="447.334" y2="-461.944" gradientUnits="userSpaceOnUse">
<stop stop-color="#FF6D3A"/>
<stop offset="1" stop-color="#994123"/>
</linearGradient>
</defs>
</svg>
