<svg width="1881" height="2589" viewBox="0 0 1881 2589" fill="none" xmlns="http://www.w3.org/2000/svg">
<g opacity="0.4">
<path d="M220.508 1406.27C317.229 1303.06 406.216 1203.13 461.311 1071.02C489.224 1004.09 541.799 883.984 515.831 808.111C512.913 799.584 510.101 800.823 502.948 805.555C463.505 831.646 430.34 891.236 410.477 929.725C319.043 1106.89 286.553 1289.51 347.215 1480.63C393.726 1627.17 486.577 1827.05 663.323 1837.6C793.625 1845.38 904.538 1764.08 993.612 1677.81C1147.19 1529.07 1237.85 1327.86 1251.39 1114.06C1263.45 923.706 1174.53 706.162 967.063 666.321C853.691 644.55 744.947 695.527 653.852 758.801C575.939 812.918 502.823 879.633 463.773 968.175C435.333 1032.66 432.181 1107.86 428.812 1176.9C421.991 1316.71 411.51 1466.01 439.362 1604.2C467.372 1743.17 548.578 1863.66 657.878 1952.15C781.095 2051.9 935.179 2091.26 1092.99 2075.97C1196.27 2065.97 1285.55 2028.09 1358.91 1953.38C1472.41 1837.8 1512.48 1693.36 1588.24 1555.39" stroke="#FF6D3A" stroke-width="1.19285" stroke-linecap="round"/>
<path d="M750.946 1726.85C772.516 1587.05 789.558 1454.34 760.453 1314.19C745.708 1243.19 721.302 1114.38 657.036 1066.42C649.814 1061.03 648.192 1063.64 644.959 1071.58C627.131 1115.39 633.396 1183.3 638.729 1226.28C663.275 1424.13 739.549 1593.2 897.513 1716.69C1018.63 1811.37 1208.11 1923.92 1359.96 1832.83C1471.9 1765.68 1517.55 1635.96 1542.38 1514.46C1585.17 1304.99 1546.42 1087.73 1436.9 903.626C1339.39 739.706 1143.18 610.362 949.447 694.619C843.577 740.662 782.596 844.135 743.124 947.791C709.364 1036.45 686.675 1132.79 704.427 1227.92C717.356 1297.2 757.206 1361.05 793.399 1419.93C866.694 1539.17 942.327 1668.31 1043.33 1766.64C1144.91 1865.53 1279.95 1919.13 1420.12 1930.44C1578.14 1943.2 1727.55 1888.69 1849.18 1786.97C1928.78 1720.4 1981.09 1638.73 1999.47 1535.65C2027.9 1376.17 1979.43 1234.33 1964.08 1077.68" stroke="#FF6D3A" stroke-width="1.19285" stroke-linecap="round"/>
<path d="M247.628 1420.05C341.362 1314.12 427.459 1211.69 478.758 1078.06C504.748 1010.36 553.871 888.805 525.747 813.705C522.586 805.266 519.811 806.585 512.796 811.519C474.113 838.726 442.664 899.238 423.908 938.279C337.572 1117.99 310.311 1301.46 376.407 1490.77C427.085 1635.91 525.608 1833.06 702.584 1838.56C833.055 1842.61 941.601 1758.18 1028.17 1669.4C1177.44 1516.34 1262.32 1312.62 1269.75 1098.52C1276.36 907.898 1181.27 692.983 972.746 659.085C858.798 640.561 751.554 694.623 662.303 760.473C585.967 816.794 514.787 885.57 478.282 975.19C451.695 1040.46 450.691 1115.72 449.297 1184.83C446.472 1324.77 440.258 1474.31 472.047 1611.65C504.015 1749.77 588.63 1867.89 700.412 1953.21C826.429 2049.4 981.574 2084.35 1138.88 2064.56C1241.84 2051.61 1330 2011.2 1401.2 1934.43C1511.35 1815.65 1547.28 1670.12 1619.06 1530.04" stroke="#FF6D3A" stroke-width="1.19285"/>
<path d="M273.571 1434.89C364.241 1326.33 447.378 1221.48 494.839 1086.44C518.885 1018.03 564.516 895.117 534.259 820.851C530.859 812.505 528.122 813.902 521.251 819.035C483.361 847.336 453.653 908.721 436.019 948.282C354.851 1130.38 332.841 1314.56 404.318 1501.9C459.121 1645.54 563.235 1839.79 740.296 1840.23C870.83 1840.56 976.921 1753.06 1060.92 1661.84C1205.76 1504.58 1284.78 1298.52 1286.09 1084.3C1287.26 893.563 1186.06 681.453 976.661 653.525C862.23 638.264 756.574 695.367 669.24 763.739C594.543 822.218 525.356 892.999 491.425 983.625C466.713 1049.63 467.86 1124.89 468.439 1194C469.613 1333.97 467.673 1483.63 503.371 1620C539.271 1757.15 627.226 1872.8 741.4 1954.9C870.113 2047.45 1026.19 2077.95 1182.88 2053.68C1285.42 2037.79 1372.39 1994.88 1441.37 1916.1C1548.08 1794.23 1579.84 1647.73 1647.59 1505.66" stroke="#FF6D3A" stroke-width="1.19285"/>
<path d="M300.339 1448.79C387.872 1337.68 467.98 1230.51 511.565 1094.17C533.647 1025.09 575.749 900.929 543.383 827.558C539.746 819.313 537.05 820.788 530.328 826.115C493.262 855.487 465.319 917.695 448.823 957.743C372.889 1142.09 356.148 1326.81 432.947 1512.04C491.831 1654.05 601.451 1845.26 778.452 1840.64C908.943 1837.23 1012.49 1746.74 1093.86 1653.16C1234.14 1491.82 1307.24 1283.59 1302.44 1069.42C1298.16 878.731 1190.94 669.599 980.827 647.664C866.006 635.678 762.024 695.776 676.678 766.615C603.682 827.203 536.544 899.931 505.216 991.489C482.399 1058.17 485.695 1133.37 488.248 1202.44C493.419 1342.31 495.754 1491.96 535.333 1627.26C575.136 1763.33 666.358 1876.42 782.831 1955.22C914.135 2044.06 1071.02 2070.09 1226.95 2041.35C1329 2022.54 1414.71 1977.16 1481.41 1896.45C1584.59 1771.57 1612.15 1624.23 1675.82 1480.28" stroke="#FF6D3A" stroke-width="1.19285"/>
<path d="M326.937 1463.76C411.261 1350.19 488.276 1240.78 527.949 1103.25C548.049 1033.57 586.588 908.255 552.139 835.839C548.268 827.701 545.616 829.252 539.048 834.769C502.836 865.187 476.682 928.169 461.336 968.672C390.698 1155.11 379.24 1340.24 461.298 1523.19C524.214 1663.47 639.251 1851.46 816.049 1841.79C946.389 1834.65 1047.31 1741.24 1125.97 1645.38C1261.59 1480.1 1328.72 1269.86 1317.79 1055.92C1308.07 865.431 1194.93 659.447 984.268 643.523C869.151 634.821 766.928 697.865 683.639 771.113C612.404 833.761 547.37 908.377 518.67 1000.79C497.767 1068.1 503.209 1143.17 507.734 1212.14C516.898 1351.81 523.507 1501.33 566.934 1635.44C610.607 1770.32 705.022 1880.76 823.699 1956.2C957.487 2041.25 1115.06 2062.78 1270.1 2029.6C1371.57 2007.89 1455.95 1960.08 1520.31 1877.49C1619.89 1749.72 1643.23 1601.66 1702.77 1455.95" stroke="#FF6D3A" stroke-width="1.19285"/>
<path d="M353.36 1478.8C434.407 1362.87 508.265 1251.3 543.994 1112.69C562.096 1042.47 597.04 916.105 560.537 844.703C556.435 836.679 553.828 838.306 547.421 844.007C512.092 875.448 487.747 939.15 473.564 980.075C408.279 1168.45 402.114 1353.83 489.364 1534.37C556.262 1672.79 676.621 1857.42 853.071 1842.7C983.155 1831.85 1081.37 1735.59 1157.26 1637.52C1288.1 1468.43 1349.2 1256.37 1332.17 1042.82C1317.01 852.689 1198.03 650.022 986.997 640.122C871.679 634.713 771.297 700.651 690.135 776.247C620.717 840.904 557.842 917.348 531.792 1010.55C512.82 1078.42 520.404 1153.3 526.897 1222.12C540.047 1361.47 550.923 1510.74 598.164 1643.56C645.671 1777.13 743.203 1884.83 863.986 1956.85C1000.15 2038.04 1158.27 2055.06 1312.3 2017.47C1413.11 1992.86 1496.09 1942.66 1558.07 1858.27C1653.96 1727.71 1673.06 1579.04 1728.41 1431.69" stroke="#FF6D3A" stroke-width="1.19285"/>
<path d="M378.614 1492.91C456.317 1374.72 526.959 1261.08 558.714 1121.51C574.803 1050.8 606.124 923.491 567.596 853.16C563.266 845.257 560.707 846.957 554.465 852.84C520.049 885.276 497.533 949.648 484.525 990.961C424.647 1181.13 423.779 1366.61 516.15 1544.58C586.974 1681.03 712.558 1862.14 888.516 1842.39C1018.24 1827.83 1113.66 1728.8 1186.72 1628.61C1312.68 1455.85 1367.69 1242.13 1344.57 1029.16C1323.99 839.534 1199.27 640.35 988.04 636.482C872.614 634.368 774.157 703.147 695.186 781.031C627.644 847.644 566.977 925.852 543.6 1019.76C526.574 1088.15 536.294 1162.78 544.75 1231.38C561.874 1370.3 577.01 1519.2 628.024 1650.61C679.327 1782.77 779.896 1887.64 902.687 1956.18C1041.11 2033.45 1199.66 2045.95 1352.55 2003.97C1452.61 1976.5 1534.13 1923.95 1593.67 1837.82C1685.79 1704.57 1700.64 1555.42 1751.76 1406.54" stroke="#FF6D3A" stroke-width="1.19285"/>
<path d="M404.698 1508.11C478.993 1387.74 546.36 1272.14 574.117 1131.72C588.179 1060.57 615.851 932.422 575.33 863.221C570.777 855.444 568.267 857.217 562.196 863.275C528.72 896.682 508.052 961.67 496.229 1003.34C441.807 1195.14 446.236 1380.57 543.653 1555.82C618.345 1690.2 749.052 1867.65 924.374 1842.88C1053.63 1824.61 1146.18 1722.9 1216.35 1620.66C1337.32 1444.38 1386.21 1229.17 1357.02 1016.95C1331.03 827.993 1200.67 632.453 989.416 634.621C873.976 635.805 777.523 707.368 700.809 787.476C635.196 855.992 576.787 935.9 556.102 1030.43C541.036 1099.28 552.884 1173.61 563.296 1241.94C584.38 1380.31 603.763 1528.72 658.51 1658.62C713.567 1789.26 817.09 1891.21 941.789 1956.22C1082.37 2029.5 1241.2 2037.46 1392.83 1991.13C1492.07 1960.81 1572.05 1905.96 1629.11 1818.17C1717.39 1682.34 1727.97 1532.82 1774.82 1382.55" stroke="#FF6D3A" stroke-width="1.19285"/>
<path d="M430.62 1523.39C501.447 1400.95 565.485 1283.47 589.22 1142.31C601.245 1070.8 625.245 941.908 582.764 873.893C577.99 866.249 575.532 868.093 569.637 874.322C537.129 908.671 518.325 974.224 507.697 1016.21C458.775 1209.49 468.499 1394.71 570.882 1567.11C649.382 1699.3 785.103 1872.95 959.647 1843.17C1088.33 1821.23 1177.94 1716.92 1245.16 1612.71C1361.05 1433.05 1403.77 1216.53 1368.53 1005.23C1337.15 817.093 1201.26 625.357 990.153 633.558C874.794 638.04 780.423 712.328 706.029 794.594C642.399 864.956 586.297 946.501 568.32 1041.59C555.227 1110.84 569.192 1184.79 581.551 1252.8C606.58 1390.51 630.193 1538.3 688.628 1666.59C747.394 1795.6 853.787 1894.55 980.292 1955.97C1122.91 2025.21 1281.9 2028.63 1432.15 1977.99C1530.48 1944.85 1608.87 1887.73 1663.4 1798.34C1747.76 1660.05 1754.07 1510.29 1796.6 1358.75" stroke="#FF6D3A" stroke-width="1.19285"/>
<path d="M456.38 1537.76C523.682 1413.35 584.338 1294.09 604.032 1152.31C614.009 1080.48 634.319 950.958 589.912 884.184C584.922 876.681 582.518 878.594 576.802 884.989C545.288 920.253 528.365 986.315 518.94 1028.59C475.558 1223.18 490.569 1408.05 597.834 1577.46C680.077 1707.35 820.703 1877.05 994.326 1842.3C1122.33 1816.69 1208.92 1709.86 1273.14 1603.78C1383.85 1420.88 1420.37 1203.23 1379.11 993.021C1342.37 805.859 1201.05 618.083 990.271 632.311C875.087 640.086 782.877 717.04 710.862 801.398C649.268 873.548 595.517 956.662 580.263 1052.22C569.153 1121.82 585.226 1195.35 599.522 1262.97C628.474 1399.91 656.298 1546.97 718.374 1673.53C780.801 1800.81 889.976 1896.69 1018.18 1954.46C1162.72 2019.6 1321.75 2018.48 1470.49 1963.57C1567.84 1927.63 1644.55 1868.29 1696.51 1777.39C1776.89 1636.74 1778.91 1486.86 1817.1 1334.17" stroke="#FF6D3A" stroke-width="1.19285"/>
<path d="M481.981 1553.23C545.702 1426.95 602.928 1306 618.564 1163.72C626.485 1091.63 643.087 961.582 596.792 896.104C591.589 888.746 589.24 890.727 583.71 897.283C553.216 933.432 538.186 999.951 529.973 1042.48C492.166 1238.23 512.451 1422.6 624.511 1588.87C710.431 1716.36 855.847 1881.97 1028.41 1842.28C1155.62 1813.02 1239.13 1703.76 1300.29 1595.89C1405.74 1409.9 1436.03 1191.29 1388.77 982.352C1346.7 796.316 1200.08 612.654 989.794 632.898C874.879 643.96 784.904 723.517 715.328 809.897C655.82 883.777 604.465 968.392 591.946 1064.35C582.829 1134.23 600.994 1207.27 617.216 1274.46C650.067 1410.52 682.081 1556.72 747.746 1681.46C813.783 1806.9 925.653 1899.62 1055.46 1953.71C1201.79 2014.69 1360.73 2009.03 1507.84 1949.89C1604.12 1911.18 1679.11 1849.68 1728.45 1757.33C1804.78 1614.45 1802.53 1464.57 1836.34 1310.84" stroke="#FF6D3A" stroke-width="1.19285"/>
<path d="M506.425 1568.8C566.513 1440.74 620.261 1318.21 631.827 1175.54C637.687 1103.26 650.568 972.789 602.421 908.661C597.011 901.454 594.719 903.502 589.378 910.213C559.929 947.218 546.805 1014.14 539.81 1056.88C507.61 1253.63 533.152 1437.35 649.915 1600.35C739.441 1725.33 889.528 1886.72 1060.88 1842.12C1187.21 1809.24 1267.57 1697.64 1325.62 1588.06C1425.71 1399.13 1449.74 1179.76 1396.55 972.25C1349.18 787.492 1197.37 608.093 987.746 634.336C873.193 648.676 785.528 730.77 718.447 819.102C661.073 894.653 612.155 980.7 602.382 1076.97C595.265 1147.09 615.509 1219.58 633.643 1286.28C670.367 1421.34 706.543 1566.57 775.744 1689.38C845.337 1812.89 959.81 1902.37 1091.11 1952.73C1239.12 2009.5 1397.83 1999.31 1543.2 1935.99C1638.33 1894.55 1711.54 1830.93 1758.22 1737.21C1830.43 1592.2 1823.9 1442.45 1853.31 1287.82" stroke="#FF6D3A" stroke-width="1.19285"/>
<path d="M531.715 1583.46C588.122 1453.75 638.348 1329.73 645.835 1186.79C649.628 1114.37 658.777 983.585 608.818 920.858C603.204 913.809 600.972 915.921 595.825 922.782C567.445 960.613 556.238 1027.88 550.466 1070.81C523.898 1268.4 554.677 1451.31 676.049 1610.91C769.108 1733.28 923.743 1890.31 1093.76 1840.84C1219.09 1804.36 1296.23 1690.51 1351.13 1579.32C1445.78 1387.61 1463.54 1167.64 1404.44 961.736C1351.81 778.406 1194.94 603.418 986.152 635.638C872.055 653.245 786.769 737.809 722.239 828.022C667.046 905.18 620.606 992.589 613.587 1089.1C608.474 1159.4 630.781 1231.28 650.813 1297.43C691.379 1431.39 731.689 1575.52 804.369 1696.31C877.461 1817.77 994.443 1903.95 1127.13 1950.54C1276.7 2003.06 1435.06 1988.34 1578.55 1920.89C1672.47 1876.75 1743.83 1811.07 1787.81 1716.05C1855.86 1569.04 1845.05 1419.54 1870.03 1264.13" stroke="#FF6D3A" stroke-width="1.19285"/>
<path d="M556.855 1599.24C609.533 1467.97 656.197 1342.56 659.598 1199.47C661.321 1126.97 666.731 995.978 615.001 934.704C609.188 927.818 607.017 929.993 602.069 936.999C574.78 975.625 565.499 1043.19 560.956 1086.26C540.042 1284.53 576.032 1466.48 701.913 1622.55C798.43 1742.21 957.487 1894.77 1126.02 1840.45C1250.26 1800.41 1324.12 1684.4 1375.82 1571.69C1464.96 1377.36 1476.42 1156.97 1411.46 952.838C1353.62 771.087 1191.82 600.651 984.035 638.822C870.488 659.681 787.652 746.647 725.724 838.666C672.758 917.369 628.833 1006.07 624.573 1102.74C621.471 1173.15 645.821 1244.37 667.734 1309.92C712.11 1442.67 756.52 1585.59 832.621 1704.25C909.153 1823.58 1028.55 1906.38 1162.51 1949.16C1313.53 1997.39 1471.39 1978.14 1612.9 1906.63C1705.52 1859.82 1774.97 1792.13 1816.22 1695.89C1880.04 1547 1864.97 1397.87 1885.5 1241.81" stroke="#FF6D3A" stroke-width="1.19285"/>
<path d="M581.847 1615.13C630.754 1482.41 673.818 1355.72 673.13 1212.59C672.782 1140.07 674.449 1008.98 620.99 949.205C614.982 942.488 612.874 944.725 608.128 951.868C581.954 991.259 574.606 1059.06 571.294 1102.24C556.052 1301.03 597.225 1481.88 727.512 1634.29C827.407 1751.14 990.757 1899.09 1157.67 1839.99C1280.72 1796.41 1351.23 1678.34 1399.69 1564.2C1483.24 1367.4 1488.41 1146.77 1417.65 944.58C1354.64 764.556 1188.03 598.812 981.422 642.903C868.517 666.997 788.199 756.293 728.924 850.044C678.227 930.228 636.854 1020.15 635.357 1116.9C634.267 1187.37 660.641 1257.86 684.417 1322.76C732.567 1454.19 781.041 1595.78 860.5 1712.22C940.409 1829.31 1062.12 1908.67 1197.25 1947.61C1349.58 1991.5 1506.84 1967.75 1646.25 1892.22C1737.49 1842.79 1804.98 1773.14 1843.46 1675.77C1903.01 1525.11 1883.68 1376.47 1899.74 1219.89" stroke="#FF6D3A" stroke-width="1.19285"/>
<path d="M606.694 1630.14C651.791 1496.07 691.219 1368.21 686.444 1225.15C684.024 1152.67 681.946 1021.59 626.801 963.366C620.604 956.824 618.561 959.119 614.021 966.395C588.982 1006.52 583.574 1074.5 581.497 1117.76C571.939 1316.9 618.26 1496.5 752.847 1645.13C856.039 1759.08 1023.55 1902.3 1188.7 1838.45C1310.46 1791.38 1377.57 1671.34 1422.75 1555.86C1500.65 1356.76 1499.51 1136.07 1423 935.986C1354.88 757.835 1183.61 596.918 978.339 646.893C866.168 674.202 788.433 765.757 731.86 861.162C683.474 942.761 644.685 1033.82 645.953 1130.59C646.876 1201.06 675.253 1270.76 700.873 1334.96C752.756 1464.95 805.254 1605.11 888.007 1719.23C971.227 1833.99 1095.16 1909.84 1231.34 1944.9C1384.87 1984.42 1541.38 1956.19 1678.57 1876.71C1768.37 1824.7 1833.84 1753.14 1869.53 1654.71C1924.74 1502.42 1901.18 1354.39 1912.77 1197.41" stroke="#FF6D3A" stroke-width="1.19285"/>
<path d="M630.401 1646.27C671.65 1510.97 707.41 1382.03 698.551 1239.17C694.062 1166.79 688.241 1035.81 631.456 979.193C625.074 972.83 623.098 975.183 618.767 982.586C594.885 1023.41 591.42 1091.51 590.58 1134.82C586.713 1334.15 638.145 1512.35 776.922 1657.07C883.327 1768.03 1054.86 1906.41 1218.12 1837.87C1338.48 1787.34 1402.14 1665.44 1444 1548.71C1516.18 1347.46 1508.74 1126.9 1426.55 929.08C1353.36 752.948 1177.57 596.989 973.811 652.807C862.466 683.309 787.377 777.047 733.553 874.029C687.516 956.977 651.345 1049.11 655.375 1145.8C658.311 1216.21 688.667 1285.08 716.11 1348.52C771.686 1476.98 828.165 1615.57 914.143 1727.28C1000.61 1839.62 1126.65 1911.9 1263.78 1943.05C1418.37 1978.18 1574.02 1945.49 1708.89 1862.12C1797.16 1807.56 1860.56 1734.17 1893.42 1634.75C1944.27 1480.95 1916.48 1333.65 1923.58 1176.41" stroke="#FF6D3A" stroke-width="1.19285"/>
<path d="M654.97 1661.52C692.338 1525.09 724.4 1395.19 711.465 1252.64C704.911 1180.42 695.351 1049.66 636.972 994.686C630.411 988.508 628.503 990.917 624.385 998.44C601.678 1039.93 600.16 1108.11 600.557 1151.42C602.385 1350.78 658.886 1527.44 801.74 1668.13C911.271 1776.01 1086.68 1909.43 1247.92 1836.25C1366.79 1782.3 1426.94 1658.63 1465.45 1540.76C1531.86 1337.53 1518.12 1117.27 1430.31 921.882C1352.12 747.912 1171.95 597.038 969.866 658.654C859.437 692.325 787.056 788.169 736.023 886.649C692.375 970.879 658.85 1064.01 665.64 1160.54C670.585 1230.84 702.896 1298.82 732.14 1361.44C791.362 1488.26 851.777 1625.19 940.911 1734.39C1030.55 1844.22 1158.61 1912.86 1296.57 1940.09C1452.1 1970.78 1606.75 1933.66 1739.18 1846.48C1825.86 1789.42 1887.14 1714.24 1917.15 1613.93C1963.58 1458.73 1931.6 1312.29 1934.2 1154.91" stroke="#FF6D3A" stroke-width="1.19285"/>
<path d="M679.409 1677.9C712.866 1540.46 741.204 1409.69 724.202 1267.57C715.588 1195.57 702.298 1065.14 642.372 1011.85C635.638 1005.87 633.799 1008.33 629.898 1015.97C608.385 1058.08 608.815 1126.28 610.449 1169.56C617.97 1368.79 679.494 1543.76 826.309 1680.32C938.876 1785.02 1118.03 1913.38 1277.11 1835.63C1394.39 1778.3 1450.98 1652.96 1486.11 1534.04C1546.68 1329 1526.66 1109.22 1433.31 916.417C1350.19 744.752 1165.77 599.087 965.533 666.45C856.111 703.261 786.497 801.134 738.298 901.032C697.073 986.474 666.221 1080.52 675.766 1176.82C682.717 1246.95 716.956 1313.98 747.977 1375.74C810.797 1500.82 875.098 1635.96 967.315 1742.58C1060.05 1849.8 1190.02 1914.76 1328.7 1938.03C1485.05 1964.27 1638.57 1922.74 1768.46 1831.81C1853.47 1772.3 1912.58 1695.41 1939.72 1594.28C1981.69 1437.82 1945.54 1292.35 1943.65 1134.96" stroke="#FF6D3A" stroke-width="1.19285"/>
<path d="M703.71 1694.41C733.228 1556.08 757.82 1424.55 736.766 1282.97C726.099 1211.24 709.088 1081.25 647.665 1029.7C640.762 1023.9 638.995 1026.42 635.313 1034.16C615.013 1076.88 617.39 1145.03 620.259 1188.25C633.468 1387.18 699.964 1560.33 850.619 1692.64C966.131 1794.08 1148.88 1917.27 1305.67 1835C1421.27 1774.35 1474.26 1647.45 1505.98 1527.57C1560.67 1320.88 1534.38 1101.76 1435.55 911.705C1347.56 742.484 1159.06 602.146 960.829 675.202C852.502 715.124 785.713 814.945 740.386 916.179C701.619 1002.76 673.466 1097.66 685.757 1193.64C694.708 1263.55 730.848 1329.56 763.62 1390.42C829.987 1513.65 898.122 1646.9 993.346 1750.84C1089.11 1855.37 1220.88 1916.59 1360.17 1935.89C1517.2 1957.65 1669.47 1911.76 1796.72 1817.15C1879.99 1755.23 1936.88 1676.68 1961.11 1574.82C1998.61 1417.23 1958.32 1272.85 1951.93 1115.58" stroke="#FF6D3A" stroke-width="1.19285"/>
<path d="M726.889 1710.06C752.443 1570.94 773.269 1438.76 748.179 1297.85C735.468 1226.45 714.751 1096.99 651.881 1047.22C644.816 1041.62 643.121 1044.19 639.662 1052.04C620.59 1095.31 624.913 1163.37 629.015 1206.49C647.9 1404.96 719.315 1576.14 873.687 1704.09C992.049 1802.19 1178.24 1920.11 1332.62 1833.4C1446.44 1769.47 1495.78 1641.1 1524.06 1520.37C1572.83 1312.2 1540.29 1093.92 1436.08 906.769C1343.29 740.131 1150.86 605.235 954.792 683.923C847.65 726.923 783.739 828.612 741.322 931.098C705.043 1018.76 679.612 1114.41 694.64 1210.01C705.585 1279.63 743.595 1344.59 778.091 1404.48C847.951 1525.76 919.864 1657.02 1018.02 1758.19C1116.73 1859.94 1250.19 1917.37 1389.98 1932.69C1547.57 1949.95 1698.47 1899.73 1822.95 1801.53C1904.43 1737.26 1959.05 1657.12 1980.36 1554.6C2013.34 1396 1968.94 1252.84 1958.07 1095.81" stroke="#FF6D3A" stroke-width="1.19285"/>
</g>
</svg>
