<svg width="946" height="340" viewBox="0 0 946 340" fill="none" xmlns="http://www.w3.org/2000/svg">
<path d="M664.285 222.905C652.489 183.727 646.812 145.198 640.06 105.071C636.756 85.4345 632.294 66.0259 626.592 46.9443C615.056 8.33464 593.419 -15.4123 559.866 -37.935C530.896 -57.3811 500.422 -71.4527 466.457 -79.3677C445.836 -84.1732 424.785 -86.5188 404.213 -91.7541C377.649 -98.5144 348.433 -107.026 325.688 -122.999C322.119 -125.505 316.91 -134.454 314.994 -130.537C313.624 -127.736 320.444 -113.094 321.038 -111.434C335.98 -69.6927 354.659 -29.4432 370.811 11.824C382.337 41.272 394.348 69.9496 408.74 98.1208C420.681 121.495 431.075 146.546 449.658 165.587C479.932 196.607 523.629 218.858 565.875 228.702C585.708 233.324 603.868 227.209 623.261 224.117C627.83 223.389 648.872 215.469 651.35 217.294C653.241 218.687 648.105 220.697 646.371 222.282C640.13 227.986 633.917 233.7 627.833 239.573C615.317 251.655 604.895 256.56 587.838 260.787C525.253 276.299 461.34 294.258 423.269 350.63C403.817 379.432 389.396 409.377 361.283 430.979C353.942 436.62 346.162 441.644 338.805 447.253C331.921 452.501 334.71 454.03 342.706 457.186C372.804 469.063 403.575 477.831 432.634 492.381C458.79 505.477 484.102 520.946 512.49 528.908C538.362 536.165 559.289 530.492 583.031 519.265C598.913 511.755 616.14 503.83 629.791 492.541C645.268 479.742 651.393 461.098 658.484 443.082C677.879 393.808 690.482 339.721 679.787 286.543C675.566 265.556 670.694 243.165 663.042 223.15C661.522 219.174 656.408 207.487 658.345 211.277C666.789 227.807 675.56 244.209 683.536 260.971C694.203 283.386 702.129 306.641 706.375 331.124C710.206 353.215 710.247 375.737 713.611 397.909C721.705 451.263 744.177 494.909 788.548 527.178C825.789 554.263 880.825 556.007 924.981 555.624C937.351 555.517 949.853 555.193 962.061 553.006C963.358 552.774 977.719 550.445 978.719 547.917C982.718 537.812 964.15 499.225 962.37 494.293C952.433 466.755 941.917 439.774 937.391 410.765C929.067 357.409 919.127 298.05 873.31 262.752C820.822 222.314 751.498 214.998 687.539 210.635C676.273 209.866 673.527 210.681 664.475 204.333C649.934 194.135 657.939 172.489 659.988 158.236C663.357 134.789 668.3 111.641 671.294 88.1372C675.351 56.2821 678.716 25.3106 688.392 -5.44959C700.582 -44.2038 724.284 -72.8455 751.559 -102.239C777.793 -130.51 806.702 -158.06 818.256 -195.944C819.945 -201.483 820.824 -206.773 821.344 -212.478C821.658 -215.917 824.764 -206.467 826.212 -203.332C838.565 -176.6 850.448 -149.769 863.851 -123.535C886.435 -79.3283 911.245 -30.893 896.903 19.9967C872.548 106.409 789.651 161.673 710.524 194.395C693.542 201.418 675.884 204.663 659.295 213.138" stroke="#FF6D3A" stroke-width="0.5" stroke-linecap="round"/>
<path d="M656.196 218.982C635.907 186.973 621.272 153.976 605.276 119.824C597.448 103.112 588.637 86.9009 578.795 71.3003C558.88 39.734 533.58 24.0516 497.885 12.5228C467.067 2.56884 436.23 -2.19313 403.783 -0.553135C384.084 0.442558 364.607 3.74834 344.846 4.34691C319.328 5.11986 290.996 5.00782 266.625 -3.4381C262.801 -4.7634 255.91 -11.4296 255.159 -7.43432C254.623 -4.57802 264.37 6.76533 265.315 8.09703C289.062 41.5899 315.794 72.7893 340.509 105.547C358.146 128.923 376.028 151.486 395.921 172.984C412.427 190.822 427.959 210.556 449.354 222.814C484.209 242.783 528.94 251.466 569.298 249.426C588.244 248.468 603.031 238.338 619.672 230.596C623.593 228.772 640.52 216.288 643.196 217.284C645.239 218.045 641.126 221.16 639.962 223.022C635.772 229.725 631.61 236.43 627.603 243.244C619.36 257.261 611.22 264.322 596.956 272.481C544.62 302.417 491.698 334.882 471.483 395.066C461.155 425.816 455.625 456.296 435.739 482.83C430.546 489.76 424.806 496.249 419.591 503.153C414.712 509.613 417.594 510.265 425.553 511.034C455.509 513.93 485.301 513.873 514.987 519.425C541.706 524.423 568.257 531.76 595.71 531.593C620.729 531.442 638.109 520.997 656.64 504.863C669.036 494.07 682.537 482.562 691.995 468.963C702.718 453.544 703.6 435.299 705.504 417.367C710.713 368.325 708.634 316.722 685.867 271.912C676.882 254.228 666.965 235.454 655.14 219.519C652.792 216.355 645.308 207.215 647.985 210.108C659.657 222.722 671.591 235.139 682.901 248.081C698.025 265.388 710.898 284.15 720.771 304.955C729.679 323.727 735.293 343.857 743.801 362.821C764.277 408.456 795.254 441.719 843.072 459.188C883.206 473.85 933.038 461.282 972.578 449.606C983.655 446.335 994.796 442.837 1005.21 437.747C1006.32 437.207 1018.63 431.438 1018.91 428.921C1019.99 418.857 993.772 389.117 990.953 385.162C975.215 363.087 959.095 341.658 947.85 316.877C927.168 271.3 903.548 220.769 853.683 200.963C796.557 178.274 732.52 189.524 674.03 202.04C663.728 204.244 661.465 205.678 651.768 202.324C636.19 196.937 638.017 175.525 636.326 162.253C633.546 140.42 632.251 118.451 629.118 96.6639C624.873 67.1355 620.225 38.5749 621.294 8.5834C622.64 -29.2023 636.824 -60.8995 654.028 -94.1858C670.575 -126.202 689.704 -158.26 690.695 -195.103C690.839 -200.49 690.318 -205.447 689.373 -210.682C688.803 -213.838 693.93 -206.184 696.007 -203.753C713.713 -183.017 731.023 -162.074 749.549 -142.053C780.766 -108.318 815.028 -71.372 814.754 -22.1814C814.289 61.3456 753.563 132.045 690.641 181.617C677.137 192.257 662.09 199.691 649.298 211.528" stroke="#FF6D3A" stroke-width="0.5" stroke-linecap="round"/>
<path d="M665.075 222.524C652.814 183.638 646.662 145.321 639.417 105.424C635.871 85.8997 631.174 66.6183 625.246 47.6791C613.252 9.35753 591.381 -14.0201 557.648 -36.0204C528.522 -55.0155 497.967 -68.6352 464.011 -76.0738C443.396 -80.5899 422.383 -82.6493 401.811 -87.5945C375.246 -93.9802 346.016 -102.076 323.139 -117.692C319.55 -120.142 314.244 -128.991 312.384 -125.062C311.054 -122.253 318.04 -107.753 318.653 -106.107C334.082 -64.7093 353.217 -24.8481 369.846 16.0606C381.712 45.2529 394.052 73.671 408.759 101.553C420.961 124.687 431.643 149.513 450.41 168.242C480.983 198.752 524.824 220.348 567.058 229.6C586.886 233.944 604.909 227.61 624.199 224.273C628.744 223.487 649.616 215.317 652.11 217.103C654.013 218.466 648.919 220.537 647.211 222.139C641.063 227.906 634.944 233.681 628.955 239.614C616.634 251.819 606.31 256.844 589.362 261.282C527.179 277.566 463.705 296.306 426.481 352.982C407.462 381.941 393.472 411.97 365.728 433.868C358.482 439.586 350.792 444.695 343.531 450.382C336.737 455.702 339.536 457.189 347.547 460.228C377.699 471.666 408.483 479.996 437.634 494.111C463.873 506.816 489.301 521.896 517.7 529.456C543.58 536.345 564.367 530.415 587.887 518.914C603.622 511.221 620.691 503.097 634.153 491.667C649.415 478.709 655.281 460.049 662.118 442.002C680.817 392.646 692.685 338.583 681.343 285.733C676.866 264.876 671.723 242.628 663.838 222.784C662.272 218.842 657.026 207.263 659.004 211.015C667.634 227.375 676.586 243.603 684.752 260.201C695.671 282.396 703.87 305.465 708.416 329.806C712.518 351.769 712.849 374.211 716.486 396.261C725.238 449.32 748.197 492.516 792.837 524.086C830.306 550.583 885.185 551.594 929.192 550.629C941.521 550.359 953.978 549.871 966.118 547.531C967.408 547.282 981.692 544.772 982.657 542.24C986.513 532.117 967.51 493.912 965.673 489.02C955.415 461.71 944.587 434.963 939.703 406.115C930.722 353.057 920.052 294.038 873.932 259.47C821.095 219.867 751.902 213.492 688.095 209.989C676.856 209.372 674.13 210.22 665.025 204.014C650.401 194.044 658.102 172.369 659.961 158.139C663.019 134.73 667.649 111.597 670.331 88.1367C673.966 56.34 676.923 25.433 686.173 -5.34687C697.826 -44.1258 721.084 -72.9799 747.892 -102.63C773.678 -131.149 802.14 -158.984 813.171 -196.887C814.783 -202.428 815.591 -207.712 816.037 -213.404C816.305 -216.835 819.522 -207.459 821.006 -204.354C833.662 -177.879 845.851 -151.3 859.546 -125.334C882.624 -81.5817 907.975 -33.6444 894.332 17.2559C871.166 103.686 789.247 159.851 710.797 193.503C693.961 200.725 676.401 204.192 659.976 212.856" stroke="#FF6D3A" stroke-width="0.5"/>
<path d="M665.747 222.15C653.027 183.564 646.404 145.462 638.671 105.802C634.886 86.3935 629.957 67.242 623.806 48.4479C611.359 10.4198 589.26 -12.5865 555.354 -34.0636C526.08 -52.607 495.451 -65.775 461.51 -72.7387C440.904 -76.9665 419.933 -78.741 399.365 -83.397C372.805 -89.4092 343.566 -97.0898 320.564 -112.349C316.955 -114.743 311.553 -123.491 309.749 -119.551C308.46 -116.735 315.609 -102.377 316.242 -100.745C332.151 -59.6975 351.735 -20.2295 368.834 20.3154C381.036 49.248 393.7 77.403 408.716 104.992C421.175 127.884 432.141 152.481 451.087 170.896C481.952 200.895 525.926 221.836 568.141 230.497C587.96 234.563 605.843 228.013 625.027 224.434C629.547 223.59 650.247 215.174 652.754 216.92C654.669 218.254 649.618 220.384 647.936 222.003C641.883 227.83 635.857 233.667 629.964 239.658C617.84 251.982 607.614 257.126 590.779 261.773C529.008 278.821 465.981 298.333 429.606 355.302C411.02 384.41 397.461 414.518 370.088 436.705C362.94 442.499 355.34 447.691 348.176 453.454C341.472 458.846 344.281 460.29 352.305 463.213C382.505 474.212 413.296 482.106 442.533 495.786C468.849 508.099 494.387 522.791 522.79 529.949C548.674 536.472 569.317 530.288 592.613 518.517C608.197 510.642 625.107 502.321 638.378 490.754C653.424 477.64 659.031 458.968 665.615 440.895C683.62 391.465 694.756 337.436 682.772 284.922C678.043 264.197 672.631 242.096 664.518 222.426C662.906 218.519 657.528 207.05 659.549 210.762C668.36 226.951 677.491 243.004 685.843 259.435C697.012 281.408 705.479 304.287 710.323 328.482C714.693 350.314 715.31 372.672 719.218 394.596C728.623 447.353 752.061 490.093 796.96 520.962C834.646 546.871 889.359 547.153 933.21 545.611C945.495 545.178 957.905 544.527 969.976 542.035C971.258 541.77 985.464 539.08 986.393 536.544C990.107 526.406 970.676 488.586 968.782 483.736C958.207 456.658 947.071 430.148 941.834 401.466C932.201 348.714 920.809 290.044 874.395 256.207C821.223 217.442 752.175 212.003 688.531 209.356C677.321 208.889 674.615 209.771 665.46 203.706C650.755 193.965 658.154 172.264 659.824 158.06C662.572 134.693 666.89 111.58 669.262 88.1673C672.478 56.4346 675.029 25.5974 683.853 -5.1963C694.971 -43.9926 717.782 -73.0524 744.123 -102.952C769.459 -131.711 797.471 -159.824 807.98 -197.739C809.516 -203.283 810.253 -208.558 810.624 -214.236C810.848 -217.659 814.174 -208.358 815.694 -205.284C828.647 -179.069 841.137 -152.745 855.121 -127.052C878.685 -83.7582 904.569 -36.3247 891.623 14.5765C869.641 101.008 788.71 158.057 710.948 192.628C694.259 200.047 676.801 203.734 660.54 212.584" stroke="#FF6D3A" stroke-width="0.5"/>
<path d="M666.298 221.787C653.126 183.506 646.035 145.626 637.819 106.207C633.798 86.9178 628.64 67.899 622.268 49.2525C609.374 11.5232 587.052 -11.1099 552.983 -32.0631C523.567 -50.154 492.869 -62.8707 458.95 -69.3612C438.357 -73.3018 417.433 -74.7929 396.872 -79.1605C370.323 -84.8004 341.081 -92.0675 317.959 -106.969C314.331 -109.307 308.834 -117.953 307.087 -114.003C305.838 -111.179 313.148 -96.9669 313.799 -95.349C330.183 -54.6564 350.208 -15.5864 367.772 24.5893C380.305 53.2586 393.288 81.1468 408.609 108.44C421.32 131.086 432.565 155.452 451.685 173.551C482.834 203.037 526.932 223.322 569.12 231.395C588.926 235.185 606.666 228.422 625.741 224.601C630.236 223.701 650.759 215.04 653.281 216.748C655.207 218.051 650.2 220.241 648.544 221.876C642.585 227.763 636.654 233.659 630.857 239.706C618.931 252.147 608.804 257.409 592.084 262.261C530.734 280.066 468.164 300.342 432.639 357.59C414.487 386.841 401.359 417.022 374.361 439.493C367.31 445.361 359.802 450.635 352.735 456.472C346.122 461.934 348.941 463.336 356.976 466.142C387.218 476.703 418.009 484.163 447.325 497.408C473.712 509.33 499.355 523.632 527.757 530.389C553.64 536.547 574.136 530.112 597.204 518.075C612.636 510.022 629.384 501.507 642.463 489.805C657.292 476.538 662.641 457.858 668.971 439.762C686.284 390.269 696.69 336.283 684.073 284.112C679.093 263.524 673.416 241.571 665.077 222.078C663.42 218.207 657.913 206.849 659.974 210.521C668.964 226.536 678.271 242.412 686.806 258.675C698.22 280.423 706.953 303.109 712.091 327.155C716.727 348.851 717.629 371.123 721.805 392.918C731.856 445.364 755.764 487.644 800.912 517.81C838.807 543.13 893.344 542.688 937.031 540.571C949.27 539.978 961.631 539.165 973.631 536.522C974.905 536.241 989.03 533.373 989.923 530.833C993.495 520.682 973.643 483.253 971.693 478.444C960.806 451.602 949.366 425.333 943.778 396.822C933.501 344.383 921.394 286.07 874.699 252.966C821.204 215.041 752.312 210.534 688.844 208.737C677.664 208.42 674.978 209.334 665.776 203.412C650.994 193.9 658.09 172.178 659.573 158.001C662.012 134.68 666.02 111.593 668.084 88.231C670.882 56.5677 673.029 25.8056 681.43 -4.996C692.014 -43.8024 714.378 -73.061 740.249 -103.204C765.133 -132.196 792.693 -160.58 802.68 -198.5C804.141 -204.044 804.808 -209.311 805.105 -214.973C805.284 -218.387 808.719 -209.163 810.272 -206.12C823.52 -180.169 836.306 -154.103 850.574 -128.685C874.615 -85.8558 901.022 -38.9318 888.772 11.9609C867.97 98.378 788.036 156.296 710.972 191.772C694.433 199.386 677.08 203.29 660.986 212.324" stroke="#FF6D3A" stroke-width="0.5"/>
<path d="M666.729 221.438C653.109 183.465 645.557 145.813 636.862 106.643C632.608 87.4744 627.222 68.5911 620.632 50.0948C607.298 12.6693 584.76 -9.58855 550.534 -30.0172C520.983 -47.6553 490.223 -59.9211 456.333 -65.9402C435.758 -69.5946 414.883 -70.8037 394.334 -74.884C367.8 -80.153 338.561 -87.0078 315.325 -101.551C311.679 -103.833 306.089 -112.375 304.398 -108.416C303.19 -105.586 310.658 -91.5205 311.328 -89.9169C328.179 -49.5848 348.639 -10.9178 366.659 28.8837C379.518 57.2858 392.816 84.9038 408.436 111.898C421.396 134.296 432.916 158.427 452.206 176.209C483.629 205.179 527.842 224.809 569.994 232.296C589.784 235.81 607.379 228.837 626.342 224.777C630.81 223.821 651.155 214.92 653.691 216.588C655.626 217.861 650.664 220.109 649.035 221.761C643.171 227.706 637.335 233.659 631.635 239.761C619.908 252.316 609.881 257.693 593.278 262.749C532.359 281.302 470.255 302.334 435.581 359.849C417.864 389.237 405.166 419.485 378.544 442.233C371.592 448.174 364.176 453.528 357.207 459.438C350.687 464.968 353.514 466.328 361.558 469.018C391.836 479.142 422.621 486.168 452.011 498.979C478.464 510.509 504.206 524.422 532.6 530.779C558.477 536.574 578.822 529.891 601.661 517.591C616.939 509.362 633.522 500.656 646.408 488.823C661.017 475.406 666.11 456.722 672.187 438.606C688.808 389.059 698.488 335.126 685.244 283.307C680.017 262.857 674.077 241.057 665.515 221.743C663.815 217.907 658.18 206.663 660.282 210.295C669.447 226.134 678.927 241.831 687.642 257.923C699.297 279.443 708.293 301.934 713.722 325.827C718.62 347.386 719.805 369.567 724.247 391.229C734.936 443.357 759.308 485.171 804.694 514.634C842.788 539.363 897.139 538.201 940.656 535.514C952.847 534.762 965.156 533.788 977.083 530.996C978.349 530.699 992.39 527.654 993.249 525.112C996.678 514.95 976.412 477.915 974.406 473.149C963.211 446.545 951.473 420.52 945.538 392.184C934.622 340.067 921.808 282.12 874.842 249.75C821.038 212.666 752.316 209.086 689.033 208.135C677.886 207.967 675.221 208.914 665.973 203.134C651.118 193.851 657.913 172.112 659.209 157.966C661.341 134.695 665.039 111.636 666.797 88.3296C669.18 56.7414 670.926 26.0597 678.904 -4.74409C688.956 -43.5532 710.871 -73.0041 736.271 -103.382C760.701 -132.601 787.806 -161.249 797.275 -199.167C798.659 -204.711 799.257 -209.968 799.48 -215.614C799.615 -219.018 803.157 -209.873 804.744 -206.861C818.28 -181.177 831.359 -155.371 845.905 -130.232C870.417 -87.8722 897.338 -41.4633 885.78 9.4114C866.154 95.798 787.226 154.568 710.871 190.937C694.484 198.743 677.239 202.863 661.313 212.078" stroke="#FF6D3A" stroke-width="0.5"/>
<path d="M667.036 221.101C652.975 183.443 644.965 146.025 635.798 107.108C631.312 88.0639 625.702 69.3187 618.897 50.9751C605.127 13.8585 582.378 -8.0224 548.004 -27.926C518.325 -45.1107 487.51 -56.9263 453.655 -62.4759C433.101 -65.8452 412.28 -66.7739 391.747 -70.568C365.233 -75.4674 336.004 -81.9112 312.658 -96.0952C308.994 -98.3209 303.314 -106.759 301.679 -102.792C300.511 -99.9554 308.134 -86.0389 308.823 -84.4498C326.135 -44.4834 347.023 -6.22405 365.493 33.1981C378.674 61.3296 392.281 88.6738 408.195 115.366C421.4 137.513 433.191 161.406 452.644 178.871C484.334 207.321 528.652 226.298 570.761 233.2C590.53 236.441 607.977 229.259 626.826 224.963C631.267 223.951 651.43 214.812 653.979 216.441C655.924 217.684 651.007 219.99 649.405 221.657C643.637 227.658 637.896 233.668 632.293 239.824C620.766 252.49 610.842 257.98 594.358 263.238C533.878 282.531 472.25 304.31 438.427 362.08C421.145 391.597 408.877 421.907 382.635 444.926C375.782 450.938 368.46 456.371 361.589 462.352C355.161 467.948 357.996 469.267 366.048 471.84C396.356 481.528 427.129 488.122 456.585 500.499C483.098 511.639 508.933 525.161 537.315 531.121C563.18 536.552 583.373 529.624 605.978 517.066C621.1 508.665 637.517 499.77 650.208 487.808C664.598 474.246 669.434 455.56 675.259 437.428C691.19 387.837 700.147 333.967 686.282 282.507C680.811 262.198 674.611 240.554 665.831 221.422C664.087 217.622 658.326 206.492 660.467 210.083C669.805 225.745 679.455 241.261 688.348 257.181C700.24 278.471 709.494 300.763 715.211 324.499C720.37 345.917 721.834 368.003 726.539 389.53C737.861 441.332 762.688 482.676 808.301 511.434C846.585 535.572 900.742 533.695 944.08 530.442C956.221 529.531 968.477 528.398 980.328 525.458C981.587 525.146 995.542 521.926 996.365 519.381C999.653 509.21 978.98 472.574 976.92 467.852C965.421 441.49 953.388 415.713 947.109 387.555C935.562 335.767 922.048 278.195 874.823 246.561C820.722 210.32 752.181 207.662 689.096 207.551C677.984 207.531 675.339 208.509 666.048 202.873C651.124 193.819 657.617 172.067 658.728 157.954C660.555 134.737 663.945 111.711 665.399 88.4639C667.369 56.9561 668.716 26.3599 676.273 -4.44025C685.794 -43.2448 707.26 -72.8812 732.186 -103.488C756.161 -132.926 782.809 -161.831 791.761 -199.74C793.069 -205.283 793.597 -210.529 793.748 -216.158C793.839 -219.552 797.486 -210.485 799.107 -207.505C812.927 -182.091 826.293 -156.55 841.113 -131.692C866.086 -89.8067 893.513 -43.9183 882.645 6.92901C864.191 93.2691 786.277 152.874 710.642 190.125C694.409 198.12 677.273 202.453 661.519 211.846" stroke="#FF6D3A" stroke-width="0.5"/>
<path d="M667.228 220.781C652.732 183.443 644.269 146.263 634.633 107.606C629.918 88.6885 624.087 70.084 617.07 51.8956C602.871 15.0929 579.917 -6.40937 545.402 -25.7875C515.602 -42.5186 484.738 -53.8846 450.925 -58.9665C430.396 -62.0519 409.632 -62.7019 389.119 -66.2109C362.631 -70.7421 333.416 -76.7763 309.966 -90.6011C306.287 -92.7704 300.517 -101.103 298.939 -97.1286C297.811 -94.2869 305.587 -80.5207 306.293 -78.9463C324.06 -39.3509 345.368 -1.50362 364.282 37.5342C377.779 65.3915 391.691 92.4586 407.895 118.846C421.339 140.739 433.396 164.391 453.008 181.537C484.958 209.467 529.371 227.79 571.428 234.111C591.173 237.078 608.47 229.691 627.201 225.161C631.614 224.094 651.593 214.721 654.154 216.31C656.109 217.523 651.238 219.885 649.662 221.568C643.99 227.625 638.346 233.688 632.84 239.897C621.514 252.67 611.693 258.272 595.332 263.73C535.3 283.754 474.156 306.271 441.185 364.284C424.339 393.925 412.5 424.289 386.64 447.574C379.887 453.655 372.658 459.166 365.888 465.217C359.553 470.878 362.395 472.154 370.454 474.612C400.784 483.865 431.539 490.028 461.056 501.971C487.624 512.721 513.546 525.854 541.909 531.417C567.758 536.487 587.795 529.316 610.164 516.503C625.128 507.931 641.376 498.851 653.872 486.763C668.04 473.059 672.621 454.376 678.194 436.231C693.437 386.605 701.674 332.808 687.197 281.714C681.483 261.55 675.027 240.065 666.03 221.116C664.244 217.353 658.36 206.339 660.54 209.889C670.048 225.372 679.864 240.705 688.931 256.451C701.056 277.508 710.565 299.598 716.567 323.175C721.983 344.448 723.725 366.437 728.69 387.825C740.638 439.294 765.911 480.161 811.741 508.214C850.207 531.76 904.16 529.173 947.312 525.359C959.401 524.29 971.602 522.999 983.376 519.912C984.626 519.585 998.494 516.192 999.281 513.645C1002.43 503.466 981.354 467.234 979.241 462.556C967.442 436.44 955.119 410.913 948.501 382.939C936.329 331.487 922.122 274.299 874.649 243.401C820.264 208.005 751.917 206.263 689.041 206.987C677.966 207.114 675.342 208.124 666.01 202.63C651.019 193.806 657.212 172.045 658.138 157.968C659.662 134.809 662.746 111.82 663.897 88.6361C665.457 57.214 666.408 26.7086 673.546 -4.08218C682.538 -42.875 703.552 -72.6902 728.003 -103.518C751.522 -133.169 777.711 -162.324 786.147 -200.217C787.38 -205.757 787.84 -210.991 787.918 -216.603C787.965 -219.986 791.716 -211 793.369 -208.051C807.469 -182.91 821.118 -157.637 836.207 -133.064C861.633 -91.657 889.556 -46.2943 879.376 4.5164C862.089 90.7942 785.198 151.219 710.292 189.338C694.215 197.519 677.192 202.064 661.61 211.632" stroke="#FF6D3A" stroke-width="0.5"/>
<path d="M667.301 220.478C652.375 183.464 643.465 146.529 633.366 108.136C628.425 89.3486 622.375 70.8875 615.148 52.8566C600.525 16.3727 577.373 -4.74934 542.726 -23.6018C512.811 -39.8791 481.905 -50.7961 448.14 -55.4125C427.64 -58.2153 406.937 -58.5881 386.448 -61.8132C359.99 -65.9777 330.796 -71.6038 307.247 -85.0691C303.552 -87.182 297.695 -95.409 296.173 -91.4275C295.085 -88.581 303.012 -74.9666 303.736 -73.4072C321.95 -34.1876 343.671 3.24305 363.022 41.8918C376.83 69.4714 391.043 96.2581 407.53 122.337C421.209 143.975 433.529 167.383 453.295 184.208C485.496 211.616 529.995 229.286 571.992 235.028C591.709 237.724 608.854 230.134 627.464 225.372C631.849 224.25 651.641 214.646 654.214 216.195C656.178 217.378 651.353 219.797 649.804 221.495C644.229 227.604 638.681 233.721 633.273 239.981C622.148 252.859 612.432 258.571 596.195 264.225C536.621 284.973 475.969 308.219 443.852 366.462C427.442 396.221 416.031 426.633 390.556 450.178C383.903 456.326 376.769 461.914 370.098 468.033C363.857 473.757 366.706 474.991 374.769 477.334C405.117 486.152 435.848 491.887 465.419 503.397C492.035 513.757 518.039 526.5 546.379 531.667C572.206 536.377 592.084 528.967 614.214 515.903C629.018 507.164 645.096 497.901 657.395 485.691C671.34 471.848 675.667 453.171 680.989 435.016C695.546 385.365 703.067 331.651 687.983 280.93C682.031 260.913 675.321 239.59 666.112 220.828C664.283 217.101 658.278 206.204 660.496 209.713C670.17 225.015 680.15 240.163 689.388 255.733C701.742 276.555 711.502 298.441 717.786 321.854C723.456 342.98 725.474 364.868 730.696 386.114C743.263 437.242 768.975 477.63 815.011 504.976C853.65 527.929 907.389 524.638 950.348 520.266C962.383 519.041 974.526 517.593 986.221 514.361C987.463 514.018 1001.24 510.454 1001.99 507.906C1005 497.721 983.532 461.897 981.366 457.264C969.272 431.397 956.664 406.124 949.71 378.337C936.919 327.229 922.028 270.432 874.318 240.273C819.662 205.722 751.521 204.89 688.864 206.444C677.828 206.717 675.226 207.758 665.855 202.408C650.801 193.813 656.695 172.048 657.437 158.008C658.659 134.912 661.439 111.964 662.29 88.8468C663.442 57.5157 663.999 27.1063 670.718 -3.66954C679.184 -42.4434 699.746 -72.4307 723.721 -103.472C746.781 -133.329 772.51 -162.727 780.432 -200.597C781.59 -206.134 781.981 -211.356 781.987 -216.948C781.99 -220.32 785.844 -211.415 787.53 -208.499C801.904 -183.634 815.831 -158.631 831.185 -134.345C857.056 -93.4221 885.466 -48.5903 875.97 2.17445C859.846 88.3743 783.986 149.602 709.818 188.577C693.9 196.941 676.992 201.695 661.585 211.435" stroke="#FF6D3A" stroke-width="0.5"/>
<path d="M667.256 220.193C651.906 183.51 642.553 146.823 631.997 108.701C626.832 90.0462 620.566 71.731 613.133 53.8599C598.092 17.6996 574.748 -3.0407 539.975 -21.3674C509.953 -37.1906 479.011 -47.6596 445.3 -51.8126C424.833 -54.334 404.195 -54.4315 383.734 -57.3738C357.311 -61.1732 328.143 -66.3928 304.501 -79.4984C300.792 -81.5549 294.849 -89.675 293.383 -85.6875C292.335 -82.8367 300.409 -69.3758 301.151 -67.8315C319.806 -28.9928 341.933 8.01701 361.714 46.2719C375.829 73.5704 390.336 100.074 407.101 125.841C421.012 147.221 433.59 170.383 453.505 186.886C485.948 213.771 530.524 230.788 572.454 235.954C592.139 238.379 609.129 230.589 627.615 225.598C631.971 224.422 651.574 214.59 654.158 216.1C656.131 217.252 651.353 219.726 649.831 221.438C644.352 227.6 638.902 233.769 633.592 240.078C622.669 253.057 613.058 258.877 596.949 264.726C537.84 286.189 477.69 310.155 446.426 368.616C430.452 398.486 419.469 428.941 394.381 452.739C387.829 458.954 380.79 464.616 374.22 470.801C368.073 476.588 370.929 477.78 378.995 480.008C409.353 488.392 440.054 493.7 469.673 504.777C496.333 514.748 522.412 527.101 550.723 531.876C576.524 536.227 596.24 528.579 618.129 515.269C632.771 506.366 648.676 496.922 660.778 484.593C674.499 470.615 678.572 451.947 683.644 433.787C697.516 384.12 704.324 330.497 688.642 280.156C682.453 260.29 675.493 239.131 666.075 220.558C664.205 216.869 658.08 206.091 660.336 209.557C670.173 224.677 680.314 239.639 689.72 255.031C702.299 275.615 712.306 297.294 718.869 320.541C724.79 341.516 727.082 363.299 732.558 384.401C745.737 435.18 771.88 475.084 818.111 501.723C856.914 524.083 910.43 520.092 953.189 515.167C965.167 513.787 977.252 512.184 988.866 508.809C990.099 508.45 1003.79 504.716 1004.5 502.167C1007.37 491.979 985.514 456.567 983.296 451.978C970.912 426.364 958.022 401.348 950.736 373.752C937.334 322.995 921.766 266.597 873.831 237.177C818.916 203.473 750.994 203.547 688.567 205.924C677.571 206.343 674.992 207.414 665.583 202.207C650.47 193.842 656.065 172.076 656.626 158.077C657.548 135.047 660.025 112.144 660.576 89.0979C661.324 57.8632 661.49 27.5547 667.793 -3.20047C675.734 -41.9483 695.843 -72.1009 719.34 -103.349C741.94 -133.405 767.206 -163.039 774.617 -200.879C775.701 -206.411 776.023 -211.62 775.957 -217.192C775.918 -220.552 779.872 -211.73 781.59 -208.847C796.234 -184.261 810.434 -159.531 826.047 -135.535C852.355 -95.1001 881.244 -50.804 872.43 -0.0944557C857.463 86.0117 782.642 148.025 709.222 187.843C693.464 196.389 676.674 201.349 661.443 211.259" stroke="#FF6D3A" stroke-width="0.5"/>
<path d="M667.089 219.931C651.322 183.581 641.531 147.149 630.523 109.303C625.137 90.783 618.658 72.6161 611.021 54.9073C595.568 19.0752 572.037 -1.28197 537.148 -19.0828C507.024 -34.452 476.053 -44.4739 442.403 -48.1656C421.973 -50.407 401.403 -50.2309 380.973 -52.8917C354.591 -56.3277 325.455 -61.1424 301.725 -73.8882C298.002 -75.8882 291.975 -83.9006 290.565 -79.9079C289.557 -77.0535 297.776 -63.7475 298.535 -62.2186C317.624 -23.7655 340.151 12.8192 360.353 50.6757C374.77 77.6899 389.568 103.906 406.606 129.36C420.743 150.479 433.575 173.392 453.634 189.572C486.312 215.931 530.955 232.298 572.809 236.89C592.458 239.046 609.291 231.059 627.652 225.841C631.978 224.611 651.389 214.555 653.983 216.025C655.964 217.147 651.234 219.676 649.739 221.402C644.358 227.614 639.004 233.833 633.793 240.19C623.073 253.267 613.57 259.194 597.589 265.236C538.955 287.404 479.315 312.081 448.904 370.747C433.366 400.722 422.81 431.214 398.111 455.259C391.661 461.539 384.719 467.274 378.25 473.524C372.198 479.372 375.059 480.522 383.126 482.635C413.489 490.588 444.155 495.469 473.815 506.115C500.512 515.697 526.662 527.661 554.938 532.044C580.707 536.037 600.259 528.156 621.903 514.604C636.383 505.538 652.113 495.918 664.016 483.473C677.512 469.363 681.332 450.707 686.155 432.545C699.345 382.871 705.444 329.35 689.171 279.396C682.748 259.682 675.541 238.692 665.917 220.31C664.006 216.659 657.764 205.999 660.056 209.424C670.054 224.359 680.352 239.134 689.923 254.346C702.723 274.69 712.974 296.159 719.811 319.236C725.981 340.058 728.544 361.733 734.272 382.687C748.056 433.11 774.621 472.526 821.037 498.458C859.995 520.224 913.279 515.539 955.83 510.065C967.751 508.531 979.774 506.774 991.306 503.257C992.53 502.883 1006.12 498.982 1006.8 496.432C1009.53 486.243 987.297 451.246 985.027 446.703C972.358 421.344 959.191 396.588 951.576 369.187C937.571 318.789 921.333 262.799 873.184 234.118C818.023 201.262 750.331 202.234 688.146 205.43C677.192 205.993 674.635 207.095 665.192 202.03C650.023 193.896 655.321 172.133 655.7 158.176C656.325 135.216 658.5 112.362 658.755 89.3912C659.1 58.2581 658.878 28.0555 664.766 -2.6733C672.184 -41.388 691.84 -71.6993 714.857 -103.147C736.997 -133.395 761.798 -163.258 768.7 -201.061C769.709 -206.588 769.964 -211.782 769.827 -217.334C769.745 -220.681 773.799 -211.943 775.547 -209.093C790.457 -184.788 804.925 -160.335 820.792 -136.631C847.529 -96.6889 876.887 -52.9335 868.751 -2.28821C854.937 83.7089 781.162 146.492 708.499 187.14C692.905 195.864 676.234 201.029 661.182 211.105" stroke="#FF6D3A" stroke-width="0.5"/>
<path d="M666.81 219.69C650.631 183.679 640.407 147.507 628.953 109.942C623.347 91.5595 616.658 73.5433 608.821 55.999C592.962 20.4997 569.25 0.526937 534.252 -16.7481C504.034 -31.6633 473.039 -41.2392 439.456 -44.472C419.067 -46.4348 398.57 -45.9868 378.175 -48.3675C351.838 -51.4418 322.739 -55.8533 298.927 -68.2392C295.191 -70.1827 289.082 -78.0867 287.728 -74.0896C286.76 -71.232 295.122 -58.0825 295.898 -56.5691C315.413 -18.5063 338.331 17.6493 358.95 55.1028C373.663 81.8294 388.746 107.756 406.052 132.893C420.411 153.75 433.493 176.41 453.691 192.267C486.594 218.099 531.295 233.816 573.066 237.837C592.676 239.725 609.35 231.544 627.581 226.101C631.877 224.819 651.093 214.541 653.698 215.972C655.686 217.064 651.005 219.646 649.537 221.385C644.253 227.647 638.998 233.914 633.886 240.317C623.369 253.49 613.974 259.521 598.125 265.753C539.973 288.619 480.851 313.998 451.294 372.857C436.193 402.931 426.062 433.454 401.754 457.74C395.406 464.083 388.561 469.889 382.194 476.203C376.238 482.11 379.104 483.217 387.17 485.216C417.533 492.738 448.156 497.196 477.852 507.411C504.581 516.605 530.795 528.18 559.031 532.172C584.764 535.811 604.149 527.699 625.546 513.908C639.86 504.683 655.414 494.889 667.118 482.33C680.388 468.092 683.956 449.453 688.53 431.291C701.04 381.621 706.433 328.209 689.576 278.65C682.924 259.092 675.473 238.272 665.646 220.083C663.694 216.47 657.338 205.932 659.666 209.314C669.821 224.063 680.272 238.648 690.006 253.68C703.023 273.782 713.513 295.038 720.623 317.942C727.038 338.608 729.869 360.172 735.846 380.974C750.228 431.035 777.207 469.957 823.797 495.182C862.902 516.354 915.945 510.98 958.282 504.962C970.142 503.276 982.102 501.366 993.55 497.709C994.765 497.32 1008.26 493.252 1008.91 490.703C1011.49 480.514 988.889 445.937 986.569 441.44C973.618 416.339 960.18 391.847 952.24 364.644C937.638 314.612 920.739 259.037 872.386 231.097C816.992 199.088 749.543 200.954 687.609 204.962C676.7 205.668 674.166 206.8 664.69 201.879C649.468 193.974 654.47 172.219 654.669 158.307C654.998 135.421 656.873 112.619 656.834 89.7273C656.78 58.7009 656.172 28.6093 661.647 -2.08768C668.545 -40.7622 687.746 -71.2256 710.283 -102.866C731.96 -133.299 756.295 -163.383 762.69 -201.143C763.625 -206.663 763.813 -211.842 763.605 -217.372C763.48 -220.706 767.633 -212.054 769.412 -209.237C784.582 -185.217 799.314 -161.042 815.43 -137.633C842.587 -98.1881 872.405 -54.978 864.945 -4.40594C852.277 81.4667 779.556 145.002 707.66 186.468C692.229 195.367 675.682 200.735 660.809 210.974" stroke="#FF6D3A" stroke-width="0.5"/>
<path d="M666.414 219.473C649.829 183.805 639.178 147.899 627.282 110.62C621.461 92.3777 614.564 74.5147 606.529 57.137C590.271 21.975 566.384 2.38794 531.284 -14.3615C500.979 -28.8229 469.968 -37.9539 436.458 -40.7301C416.113 -42.4157 395.691 -41.6977 375.335 -43.7997C349.05 -46.514 319.994 -50.5242 296.104 -62.5502C292.356 -64.4373 286.167 -72.232 284.869 -68.2313C283.94 -65.3711 292.442 -52.3794 293.234 -50.8817C313.17 -13.2138 336.472 22.5086 357.499 59.5548C372.504 85.9908 387.867 111.625 405.436 136.443C420.012 157.034 433.339 179.44 453.671 194.973C486.793 220.276 531.542 235.345 573.222 238.798C592.789 240.419 609.302 232.046 627.401 226.381C631.666 225.047 650.685 214.551 653.299 215.942C655.294 217.004 650.662 219.639 649.221 221.392C644.036 227.701 638.878 234.015 633.866 240.463C623.554 253.728 614.267 259.862 598.552 266.282C540.891 289.837 482.295 315.908 453.592 374.948C438.926 405.114 429.22 435.662 405.306 460.183C399.061 466.587 392.314 472.463 386.049 478.839C380.188 484.804 383.059 485.869 391.124 487.754C421.478 494.847 452.054 498.883 481.78 508.668C508.535 517.475 534.807 528.661 562.999 532.265C588.69 535.549 607.905 527.209 629.053 513.185C643.2 503.803 658.576 493.838 670.079 481.169C683.121 466.806 686.439 448.186 690.765 430.029C702.597 380.371 707.29 327.079 689.857 277.921C682.977 258.521 675.285 237.874 665.259 219.88C663.268 216.307 656.798 205.89 659.162 209.229C669.47 223.791 680.073 238.186 689.965 253.034C703.195 272.892 713.921 293.933 721.3 316.66C727.957 337.168 731.055 358.616 737.277 379.266C752.25 428.956 779.635 467.382 826.388 491.899C865.63 512.477 918.424 506.419 960.539 499.862C972.338 498.025 984.232 495.963 995.594 492.167C996.8 491.764 1010.2 487.532 1010.81 484.983C1013.26 474.796 990.287 440.642 987.918 436.193C974.69 411.354 960.984 387.126 952.724 360.126C937.531 310.467 919.98 255.315 871.434 228.116C815.82 196.956 748.625 199.708 686.954 204.523C676.091 205.371 673.58 206.532 664.073 201.754C648.802 194.079 653.508 172.336 653.53 158.471C653.564 135.663 655.142 112.918 654.81 90.1084C654.359 59.1938 653.368 29.2181 658.432 -1.44154C664.812 -40.069 683.558 -70.6777 705.614 -102.503C726.828 -133.115 750.696 -163.414 756.586 -201.122C757.447 -206.636 757.568 -211.799 757.29 -217.306C757.123 -220.627 761.372 -212.06 763.181 -209.276C778.606 -185.544 793.597 -161.651 809.958 -138.539C837.526 -99.5952 867.795 -56.9349 861.007 -6.44515C849.481 79.2878 777.82 143.56 706.699 185.829C691.436 194.901 675.013 200.468 660.322 210.868" stroke="#FF6D3A" stroke-width="0.5"/>
<path d="M665.898 219.282C648.915 183.962 637.841 148.326 625.509 111.338C619.475 93.2382 612.373 75.5307 604.143 58.3218C587.491 23.5014 563.437 4.30119 528.243 -11.923C497.856 -25.9309 466.835 -34.618 433.404 -36.9402C413.108 -38.3501 392.765 -37.3641 372.452 -39.1887C346.222 -41.5449 317.214 -45.1557 293.253 -56.8219C289.493 -58.6526 283.226 -66.3373 281.983 -62.3337C281.095 -59.4715 289.733 -46.6391 290.542 -45.1573C310.891 -7.88868 334.57 27.3967 355.998 64.0314C371.29 90.1737 386.928 115.512 404.753 140.008C419.543 160.333 433.111 182.482 453.572 197.689C486.903 222.463 531.692 236.884 573.273 239.772C592.794 241.128 609.143 232.567 627.107 226.682C631.34 225.296 650.16 214.586 652.783 215.937C654.785 216.969 650.202 219.656 648.789 221.422C643.702 227.777 638.643 234.137 633.73 240.628C623.623 253.982 614.447 260.217 598.868 266.822C541.705 291.057 483.643 317.811 455.793 377.019C441.564 407.272 432.282 437.839 408.763 462.589C402.621 469.053 395.972 474.997 389.81 481.433C384.046 487.454 386.92 488.478 394.981 490.249C425.322 496.914 455.845 500.531 485.594 509.886C512.37 518.307 538.695 529.105 566.836 532.322C592.481 535.254 611.523 526.69 632.42 512.435C646.399 502.899 661.594 492.766 672.896 479.991C685.71 465.506 688.779 446.909 692.858 428.76C704.014 379.123 708.009 325.96 690.008 277.209C682.903 257.97 674.974 237.499 664.752 219.703C662.722 216.168 656.142 205.875 658.54 209.171C668.999 223.544 679.749 237.746 689.798 252.411C703.236 272.021 714.194 292.845 721.838 315.393C728.735 335.739 732.096 357.069 738.561 377.562C754.118 426.876 781.9 464.801 828.807 488.611C868.177 508.595 920.712 501.859 962.599 494.767C974.334 492.78 986.161 490.568 997.436 486.635C998.633 486.217 1011.93 481.823 1012.51 479.275C1014.82 469.092 991.488 435.365 989.07 430.963C975.57 406.388 961.602 382.43 953.025 355.636C937.249 306.356 919.053 251.635 870.326 225.176C814.504 194.865 747.574 198.498 686.176 204.113C675.362 205.102 672.874 206.292 663.339 201.657C648.022 194.213 652.434 172.485 652.278 158.67C652.021 135.942 653.303 113.258 652.68 90.5351C651.836 59.7374 650.465 29.8822 655.12 -0.734476C660.984 -39.3079 679.275 -70.0552 700.848 -102.059C721.598 -132.842 744.996 -163.348 750.384 -201C751.172 -206.505 751.226 -211.651 750.88 -217.135C750.671 -220.441 755.014 -211.961 756.852 -209.212C772.528 -185.769 787.773 -162.161 804.373 -139.349C832.345 -100.91 863.055 -58.8035 856.936 -8.40491C846.546 77.1733 775.952 142.164 705.615 185.225C690.52 194.466 674.225 200.231 659.717 210.788" stroke="#FF6D3A" stroke-width="0.5"/>
<path d="M665.271 219.118C647.895 184.15 636.404 148.789 623.642 112.098C617.397 94.1427 610.094 76.5929 601.672 59.555C584.633 25.0804 560.416 6.26813 525.135 -9.43117C494.675 -22.9859 463.649 -31.2306 430.304 -33.1013C410.059 -34.237 389.8 -32.9849 369.533 -34.5337C343.363 -36.5337 314.41 -39.7469 290.382 -51.0536C286.612 -52.8278 280.268 -60.4019 279.081 -56.3962C278.232 -53.5325 287.004 -40.8607 287.829 -39.3949C308.584 -2.53001 332.633 32.3147 354.455 68.5336C370.028 94.3792 385.936 119.419 404.013 143.591C419.012 163.646 432.816 185.536 453.4 200.418C486.934 224.66 531.752 238.436 573.227 240.763C592.698 241.855 608.881 233.107 626.709 227.006C630.909 225.569 649.528 214.648 652.159 215.959C654.167 216.961 649.634 219.699 648.248 221.477C643.26 227.877 638.3 234.281 633.487 240.814C623.585 254.254 614.52 260.588 599.079 267.376C542.424 292.281 484.904 319.709 457.906 379.074C444.112 409.406 435.253 439.986 412.131 464.959C406.093 471.481 399.543 477.493 393.485 483.987C387.817 490.063 390.695 491.045 398.751 492.702C429.073 498.942 459.536 502.141 489.302 511.068C516.094 519.104 542.466 529.514 570.551 532.347C596.145 534.928 615.012 526.142 635.655 511.662C649.464 501.975 664.477 491.677 675.577 478.797C688.161 464.195 690.982 445.624 694.815 427.486C705.299 377.879 708.601 324.855 690.038 276.518C682.712 257.442 674.548 237.149 664.135 219.553C662.067 216.058 655.377 205.889 657.809 209.141C668.416 223.324 679.311 237.332 689.512 251.811C703.154 271.173 714.341 291.777 722.247 314.142C729.38 334.323 733.002 355.533 739.706 375.866C755.84 424.797 784.011 462.217 831.06 485.319C870.55 504.71 922.818 497.302 964.47 489.68C976.139 487.544 987.897 485.183 999.083 481.115C1000.27 480.683 1013.47 476.128 1014.01 473.582C1016.18 463.405 992.501 430.109 990.035 425.754C976.267 401.447 962.041 377.76 953.151 351.176C936.8 302.282 917.967 247.998 869.07 222.281C813.053 192.819 746.4 197.326 685.286 203.735C674.521 204.863 672.057 206.082 662.495 201.591C647.137 194.376 651.256 172.668 650.924 158.904C650.377 136.262 651.364 113.642 650.453 91.0091C649.219 60.3332 647.471 30.6035 651.718 0.0351305C657.069 -38.4774 674.904 -69.3567 695.994 -101.531C716.279 -132.479 739.207 -163.186 744.096 -200.773C744.81 -206.269 744.798 -211.397 744.383 -216.857C744.132 -220.149 748.569 -211.757 750.436 -209.042C766.358 -185.891 781.851 -162.57 798.686 -140.059C827.053 -102.129 858.195 -60.5817 852.741 -10.2831C843.48 75.1253 773.96 140.819 704.416 184.656C689.491 194.065 673.326 200.025 659.003 210.737" stroke="#FF6D3A" stroke-width="0.5"/>
<path d="M664.53 218.984C646.767 184.372 634.864 149.29 621.678 112.9C615.225 95.0929 607.723 77.7032 599.113 60.8382C581.692 26.7137 557.318 8.29022 521.96 -6.88475C491.431 -19.9868 460.408 -27.7904 427.154 -29.2122C406.965 -30.0754 386.792 -28.5591 366.576 -29.8336C340.471 -31.4794 311.576 -34.2971 287.488 -45.2445C283.708 -46.9623 277.289 -54.425 276.157 -50.418C275.348 -47.5534 284.252 -35.0435 285.093 -33.5939C306.247 2.86303 330.657 37.2634 352.867 73.0626C368.716 98.6087 384.889 123.348 403.212 147.193C418.415 166.977 432.451 188.605 453.154 203.16C486.881 226.871 531.72 240.002 573.081 241.771C592.499 242.601 608.514 233.67 626.202 227.355C630.369 225.867 648.784 214.738 651.422 216.01C653.437 216.981 648.955 219.769 647.596 221.559C642.707 228.002 637.846 234.45 633.133 241.023C623.437 254.546 614.484 260.978 599.184 267.946C543.043 293.512 486.072 321.604 459.927 381.113C446.568 411.519 438.13 442.107 415.408 467.297C409.474 473.875 403.023 479.952 397.069 486.503C391.499 492.632 394.379 493.572 402.428 495.117C432.724 500.932 463.124 503.715 492.9 512.216C519.702 519.868 546.116 529.891 574.14 532.341C599.678 534.573 618.368 525.569 638.754 510.867C652.391 501.032 667.221 490.572 678.118 477.591C690.472 462.875 693.045 444.333 696.634 426.21C706.447 376.642 709.06 323.765 689.944 275.848C682.4 256.938 674.005 236.827 663.403 219.432C661.297 215.977 654.501 205.933 656.966 209.141C667.718 223.132 678.754 236.946 689.105 251.237C702.947 270.349 714.358 290.73 722.522 312.91C729.888 332.924 733.769 354.009 740.71 374.18C757.413 422.721 785.964 459.633 833.146 482.028C872.746 500.825 924.739 492.751 966.149 484.604C977.75 482.322 989.438 479.813 1000.53 475.611C1001.71 475.165 1014.8 470.452 1015.31 467.907C1017.34 457.738 993.322 424.876 990.808 420.57C976.778 396.532 962.298 373.119 953.099 346.749C936.181 298.248 916.719 244.409 867.663 219.433C811.464 190.82 745.1 196.195 684.279 203.39C673.566 204.658 671.126 205.905 661.54 201.556C646.142 194.571 649.97 172.886 649.463 159.177C648.629 136.623 649.324 114.072 648.127 91.5322C646.504 60.9832 644.383 31.3837 648.225 0.868997C653.066 -37.5759 670.444 -68.5805 691.05 -100.919C710.869 -132.024 733.325 -162.925 737.717 -200.442C738.359 -205.927 738.281 -211.037 737.797 -216.471C737.506 -219.748 742.034 -211.445 743.93 -208.764C760.092 -185.908 775.83 -162.876 792.894 -140.67C821.647 -103.253 853.212 -62.2676 848.42 -12.0777C840.282 73.1461 771.842 139.525 703.099 184.127C688.346 193.699 672.313 199.853 658.176 210.716" stroke="#FF6D3A" stroke-width="0.5"/>
<path d="M663.675 218.88C645.532 184.628 633.222 149.831 619.617 113.747C612.959 96.0895 605.261 78.862 596.466 62.1721C578.67 28.4017 554.146 10.3679 518.716 -4.28337C488.127 -16.9333 457.112 -24.2973 423.956 -25.2729C403.826 -25.8652 383.742 -24.0868 363.58 -25.0886C337.545 -26.3822 308.715 -28.8065 284.571 -39.3949C280.782 -41.0564 274.29 -48.4071 273.214 -44.3995C272.444 -41.5345 281.476 -29.1878 282.333 -27.7546C303.879 8.29032 328.644 42.2429 351.234 77.6184C367.354 102.862 383.786 127.298 402.35 150.813C417.753 170.325 432.016 191.688 452.833 205.916C486.745 229.095 531.596 241.584 572.836 242.798C592.196 243.367 608.042 234.256 625.587 227.729C629.721 226.191 647.93 214.858 650.575 216.091C652.595 217.032 648.164 219.869 646.833 221.671C642.043 228.155 637.281 234.644 632.669 241.256C623.179 254.859 614.34 261.386 599.182 268.532C543.563 294.751 487.15 323.497 461.855 383.139C448.931 413.612 440.913 444.201 418.592 469.601C412.763 476.235 406.412 482.375 400.562 488.982C395.089 495.163 397.971 496.061 406.012 497.494C436.278 502.886 466.607 505.256 496.388 513.331C523.194 520.6 549.644 530.236 577.602 532.306C603.08 534.192 621.589 524.972 641.716 510.052C655.181 500.072 669.826 489.453 680.519 476.375C692.642 461.547 694.969 443.038 698.314 424.933C707.46 375.414 709.389 322.693 689.727 275.202C681.968 256.46 673.345 236.533 662.558 219.341C660.415 215.927 653.514 206.009 656.012 209.173C666.905 222.971 678.079 236.589 688.576 250.691C702.614 269.55 714.246 289.706 722.665 311.698C730.261 331.542 734.397 352.5 741.572 372.506C758.837 420.65 787.76 457.051 835.063 478.739C874.766 496.943 926.475 488.208 967.637 479.542C979.168 477.114 990.783 474.459 1001.79 470.126C1002.95 469.665 1015.94 464.795 1016.41 462.253C1018.31 452.094 993.952 419.668 991.392 415.411C977.104 391.647 962.375 368.51 952.872 342.357C935.392 294.255 915.311 240.869 866.107 216.633C809.738 188.868 743.673 195.104 683.156 203.08C672.496 204.485 670.081 205.761 660.473 201.555C645.039 194.799 648.577 173.142 647.897 159.488C646.778 137.027 647.182 114.548 645.701 92.1054C643.694 61.688 641.202 32.2233 644.641 1.76772C648.974 -36.6027 665.896 -67.7261 686.017 -100.221C705.37 -131.477 727.353 -162.564 731.25 -200.004C731.82 -205.478 731.677 -210.568 731.126 -215.977C730.793 -219.238 735.412 -211.025 737.335 -208.379C753.733 -185.819 769.71 -163.079 786.999 -141.18C816.129 -104.279 848.108 -63.86 843.974 -13.7875C836.953 71.2369 769.599 138.284 701.665 183.637C687.085 193.371 671.186 199.715 657.238 210.726" stroke="#FF6D3A" stroke-width="0.5"/>
<path d="M662.703 218.807C644.187 184.92 631.475 150.412 617.457 114.639C610.597 97.1335 602.706 80.0703 593.729 63.5573C575.563 30.145 550.895 12.5017 515.403 -1.62666C484.759 -13.8251 453.758 -20.751 420.706 -21.2833C400.639 -21.6064 380.648 -19.568 360.544 -20.2987C334.584 -21.2422 305.824 -23.2753 281.628 -33.5052C277.831 -35.1104 271.269 -42.3484 270.247 -38.341C269.516 -35.4761 278.675 -23.2938 279.547 -21.8772C301.478 13.7517 326.589 47.2532 349.552 82.2012C365.938 107.14 382.625 131.269 401.424 154.454C417.022 173.69 431.508 194.788 452.434 208.688C486.523 231.333 531.377 243.182 572.487 243.844C591.787 244.155 607.461 234.867 624.862 228.13C628.962 226.543 646.962 215.009 649.614 216.202C651.639 217.113 647.259 219.999 645.956 221.812C641.266 228.336 636.603 234.865 632.091 241.514C622.809 255.194 614.084 261.815 599.07 269.136C543.98 295.998 488.132 325.389 463.687 385.15C451.198 415.685 443.598 446.27 421.68 471.875C415.955 478.562 409.705 484.764 403.961 491.424C398.586 497.656 401.469 498.513 409.5 499.833C439.729 504.804 469.982 506.764 499.762 514.415C526.567 521.301 553.047 530.552 580.933 532.243C606.347 533.784 624.674 524.352 644.54 509.22C657.829 499.097 672.287 488.322 682.776 475.149C694.668 460.214 696.751 441.741 699.852 423.656C708.334 374.195 709.583 321.639 689.384 274.581C681.412 256.009 672.565 236.269 661.596 219.282C659.418 215.908 652.414 206.118 654.943 209.237C665.974 222.841 677.283 236.261 687.924 250.173C702.154 268.778 714.002 288.707 722.672 310.508C730.495 330.18 734.884 351.007 742.289 370.846C760.108 418.587 789.396 454.472 836.81 475.455C876.607 493.066 928.022 483.677 968.93 474.495C980.39 471.923 991.93 469.124 1002.84 464.66C1004 464.186 1016.88 459.161 1017.32 456.622C1019.08 446.475 994.388 414.489 991.783 410.282C977.241 386.792 962.269 363.934 952.465 338.002C934.432 290.306 913.74 237.379 864.398 213.883C807.872 186.967 742.118 194.056 681.914 202.807C671.31 204.348 668.919 205.651 659.291 201.587C643.826 195.06 647.074 173.435 646.222 159.84C644.82 137.475 644.936 115.071 643.174 92.7293C640.786 62.4484 637.926 33.1232 640.964 2.73199C644.791 -35.5574 661.257 -66.7928 680.892 -99.4376C699.779 -130.837 721.288 -162.103 724.693 -199.46C725.191 -204.922 724.984 -209.992 724.365 -215.374C723.992 -218.618 728.7 -210.496 730.65 -207.886C747.279 -185.625 763.491 -163.179 780.998 -141.588C810.498 -105.206 842.881 -65.358 839.4 -15.4115C833.489 69.399 767.227 137.097 700.11 183.188C685.706 193.08 669.944 199.612 656.185 210.768" stroke="#FF6D3A" stroke-width="0.5"/>
<path d="M661.624 218.769C642.739 185.25 629.632 151.035 615.207 115.578C608.148 98.2268 600.066 81.3301 590.91 64.996C572.382 31.9456 547.575 14.6934 512.027 1.08714C481.335 -10.6605 450.355 -17.1501 417.413 -17.2418C397.412 -17.2975 377.518 -15.0011 357.475 -15.4624C331.594 -16.0581 302.909 -17.7022 278.668 -27.574C274.864 -29.1231 268.232 -36.2478 267.265 -32.2413C266.574 -29.3771 275.856 -17.3604 276.743 -15.9605C299.051 19.2485 324.502 52.2955 347.83 86.8125C364.477 111.444 381.413 135.264 400.442 158.115C416.231 177.075 430.935 197.904 451.965 211.476C486.223 233.587 531.07 244.798 572.045 244.912C591.281 244.966 606.781 235.503 624.034 228.56C628.1 226.924 645.889 215.194 648.547 216.347C650.576 217.228 646.249 220.161 644.974 221.985C640.383 228.548 635.82 235.115 631.409 241.8C622.334 255.553 613.724 262.266 598.857 269.76C544.304 297.256 489.027 327.281 465.431 387.151C453.375 417.741 446.193 448.316 424.678 474.119C419.06 480.858 412.911 487.121 407.271 493.833C401.995 500.113 404.879 500.929 412.899 502.138C443.084 506.69 473.256 508.241 503.029 515.469C529.828 521.975 556.333 530.841 584.143 532.156C609.486 533.354 627.628 523.713 647.231 508.372C660.345 498.109 674.614 487.181 684.898 473.917C696.557 458.878 698.397 440.445 701.257 422.384C709.077 372.989 709.651 320.607 688.922 273.987C680.742 255.588 671.674 236.036 660.526 219.257C658.312 215.924 651.209 206.262 653.769 209.337C664.934 222.745 676.375 235.967 687.156 249.687C701.573 268.036 713.634 287.735 722.552 309.343C730.599 328.839 735.238 349.533 742.87 369.202C761.236 416.533 790.878 451.9 838.394 472.178C878.275 489.197 929.39 479.16 970.037 469.469C981.424 466.754 992.888 463.812 1003.7 459.219C1004.85 458.732 1017.62 453.554 1018.02 451.018C1019.65 440.884 994.64 409.342 991.99 405.184C977.199 381.973 961.988 359.396 951.887 333.687C933.309 286.403 912.014 233.942 862.546 211.187C805.875 185.117 740.443 193.054 680.563 202.571C670.015 204.248 667.65 205.577 658.004 201.657C642.509 195.359 645.47 173.768 644.447 160.233C642.765 137.968 642.594 115.644 640.553 93.4063C637.787 63.2666 634.563 34.0855 637.202 3.76395C640.528 -34.4377 656.536 -65.7786 675.686 -98.5659C694.105 -130.102 715.14 -161.541 718.056 -198.808C718.482 -204.256 718.212 -209.305 717.526 -214.659C717.113 -217.887 721.908 -209.857 723.885 -207.282C740.739 -185.322 757.18 -163.172 774.901 -141.892C804.762 -106.034 837.54 -66.759 834.709 -16.947C829.901 67.635 764.737 135.968 698.444 182.782C684.217 192.83 668.594 199.547 655.025 210.846" stroke="#FF6D3A" stroke-width="0.5"/>
<path d="M660.433 218.765C641.187 185.619 627.69 151.702 612.863 116.565C605.607 99.3698 597.339 82.6416 588.006 66.4882C569.122 33.8034 544.183 16.943 508.587 3.85784C477.854 -7.43991 446.901 -13.4948 414.073 -13.1489C394.143 -12.939 374.348 -10.3869 354.37 -10.5805C328.573 -10.8305 299.969 -12.088 275.688 -21.6023C271.877 -23.0952 265.178 -30.1061 264.265 -26.1013C263.613 -23.2383 273.015 -11.3884 273.917 -10.0053C296.596 24.7801 322.379 57.3696 346.065 91.4518C362.967 115.773 380.147 139.282 399.401 161.798C415.375 180.48 430.294 201.038 451.422 214.282C485.842 235.857 530.673 246.433 571.504 246.003C590.673 245.801 605.997 236.167 623.101 229.02C627.131 227.336 644.708 215.412 647.371 216.526C649.405 217.376 645.13 220.357 643.883 222.191C639.392 228.791 634.929 235.394 630.619 242.114C621.751 255.938 613.258 262.74 598.538 270.404C544.529 298.525 489.831 329.175 467.083 389.141C455.46 419.781 448.694 450.34 427.584 476.335C422.071 483.124 416.024 489.446 410.49 496.209C405.313 502.536 408.197 503.311 416.204 504.409C446.341 508.544 476.425 509.689 506.186 516.496C532.972 522.622 559.497 531.104 587.225 532.045C612.494 532.903 630.449 523.056 649.787 507.51C662.724 497.11 676.803 486.032 686.881 472.68C698.307 457.541 699.905 439.15 702.524 421.117C709.687 371.797 709.589 319.597 688.339 273.421C679.953 255.198 670.668 235.837 659.345 219.266C657.097 215.975 649.895 206.442 652.485 209.471C663.782 222.683 675.351 235.705 686.269 249.233C700.869 267.323 713.139 286.792 722.302 308.202C730.568 327.521 735.456 348.078 743.312 367.575C762.217 414.491 792.206 449.336 839.812 468.91C879.769 485.339 930.576 474.659 970.955 464.463C982.267 461.607 993.652 458.524 1004.37 453.804C1005.51 453.303 1018.16 447.975 1018.54 445.443C1020.03 435.324 994.703 404.228 992.01 400.12C976.975 377.189 961.53 354.896 951.136 329.415C932.021 282.549 910.131 230.56 860.548 208.544C803.744 183.321 738.645 192.098 679.098 202.375C668.609 204.186 666.269 205.542 656.607 201.763C641.087 195.694 643.762 174.142 642.57 160.67C640.609 138.507 640.154 116.267 637.837 94.1367C634.696 64.1429 631.111 35.1103 633.354 4.86358C636.18 -33.2437 651.732 -64.6836 670.395 -97.6063C688.347 -129.273 708.906 -160.877 711.336 -198.047C711.692 -203.482 711.357 -208.509 710.606 -213.834C710.153 -217.045 715.033 -209.108 717.036 -206.568C734.111 -184.911 750.777 -163.06 768.707 -142.092C798.919 -106.76 832.083 -68.0628 829.897 -18.3937C826.187 65.9457 762.124 134.896 696.664 182.42C682.615 192.62 667.133 199.521 653.757 210.958" stroke="#FF6D3A" stroke-width="0.5"/>
<path d="M659.131 218.799C639.531 186.028 625.649 152.414 610.427 117.601C602.977 100.565 594.525 84.0069 585.019 68.036C565.785 35.7206 540.719 19.2524 505.083 6.68727C474.315 -4.1615 443.395 -9.78345 410.689 -9.0031C390.832 -8.52933 371.14 -5.72378 351.231 -5.65148C325.522 -5.55812 297.003 -6.43131 272.687 -15.5887C268.871 -17.0257 262.106 -23.9222 261.248 -19.9198C260.634 -17.0585 270.155 -5.3764 271.071 -4.01031C294.113 30.3477 320.22 62.4767 344.256 96.1208C361.409 120.129 378.828 143.325 398.3 165.504C414.457 183.905 429.584 204.191 450.807 217.107C485.379 238.147 530.186 248.089 570.866 247.118C589.964 246.663 605.111 236.86 622.063 229.512C626.058 227.78 643.419 215.666 646.088 216.741C648.124 217.561 643.904 220.588 642.684 222.432C638.293 229.068 633.931 235.706 629.721 242.459C621.062 256.35 612.685 263.241 598.116 271.072C544.658 299.808 490.545 331.073 468.643 391.123C457.452 421.806 451.1 452.344 430.397 478.525C424.99 485.363 419.045 491.742 413.617 498.553C408.539 504.926 411.423 505.66 419.415 506.648C449.498 510.368 479.49 511.109 509.231 517.496C536.001 523.245 562.54 531.344 590.181 531.914C615.372 532.433 633.137 522.383 652.208 506.637C664.965 496.103 678.853 484.879 688.725 471.441C699.917 456.205 701.275 437.86 703.655 419.857C710.163 370.622 709.4 318.612 687.636 272.885C679.047 254.84 669.548 235.673 658.054 219.312C655.771 216.063 648.474 206.66 651.093 209.644C662.519 222.658 674.213 235.479 685.264 248.813C700.044 266.644 712.519 285.879 721.921 307.09C730.405 326.229 735.538 346.647 743.614 365.968C763.051 412.463 793.378 446.784 841.065 465.654C881.089 481.493 931.579 470.178 971.684 459.483C982.919 456.487 994.225 453.264 1004.84 448.419C1005.97 447.905 1018.52 442.428 1018.85 439.9C1020.21 429.798 994.579 399.151 991.843 395.094C976.57 372.446 960.894 350.439 950.213 325.188C930.567 278.746 908.092 227.237 858.404 205.958C801.481 181.581 736.725 191.19 677.521 202.221C667.093 204.164 664.778 205.546 655.102 201.909C639.56 196.068 641.95 174.559 640.591 161.152C638.354 139.096 637.617 116.942 635.025 94.9227C631.513 65.0795 627.57 36.1999 629.419 6.03311C631.749 -31.9734 646.844 -63.5055 665.022 -96.5565C682.505 -128.346 702.588 -160.109 704.535 -197.176C704.82 -202.596 704.423 -207.6 703.606 -212.896C703.114 -216.089 708.078 -208.246 710.106 -205.742C727.397 -184.391 744.282 -162.84 762.416 -142.186C792.972 -107.383 826.511 -69.2666 824.967 -19.7488C822.346 64.3337 759.391 133.884 694.77 182.105C680.901 192.454 665.562 199.535 652.379 211.109" stroke="#FF6D3A" stroke-width="0.5"/>
<path d="M657.716 218.871C637.768 186.479 623.507 153.171 607.895 118.687C600.255 101.812 591.622 85.4262 581.946 69.6396C562.368 37.697 537.182 21.6215 501.513 9.57519C470.717 -0.825621 439.835 -6.01659 407.256 -4.80482C387.476 -4.06913 367.89 -1.01231 348.053 -0.675941C322.437 -0.241583 294.009 -0.732936 269.663 -9.53422C265.843 -10.9153 259.014 -17.6969 258.21 -13.6977C257.635 -10.8386 267.27 0.6746 268.2 2.02356C291.599 35.9508 318.022 67.6163 342.402 100.819C359.799 124.512 377.452 147.393 397.138 169.232C413.471 187.352 428.803 207.363 450.115 219.95C484.832 240.455 529.606 249.766 570.128 248.259C589.152 247.551 604.12 237.583 620.918 230.037C624.875 228.258 642.021 215.958 644.693 216.993C646.733 217.784 642.566 220.855 641.374 222.708C637.084 229.379 632.821 236.051 628.713 242.835C620.262 256.79 612.003 263.767 597.586 271.764C544.685 301.105 491.165 332.975 470.107 393.098C459.348 423.817 453.408 454.329 433.113 480.689C427.813 487.574 421.97 494.009 416.649 500.868C411.67 507.285 414.553 507.978 422.529 508.856C452.551 512.163 482.446 512.503 512.163 518.472C538.91 523.845 565.457 531.562 593.007 531.762C618.114 531.945 635.687 521.696 654.489 505.754C667.067 495.089 680.762 483.721 690.427 470.201C701.385 454.872 702.504 436.575 704.645 418.607C710.502 369.464 709.078 317.653 686.809 272.382C678.02 254.516 668.311 235.545 656.65 219.396C654.334 216.189 646.942 206.918 649.59 209.856C661.141 222.671 672.956 235.29 684.139 248.428C699.093 265.998 711.768 284.998 721.408 306.007C730.106 324.964 735.48 345.239 743.775 364.383C763.735 410.451 794.391 444.244 842.148 462.413C882.232 477.663 932.397 465.718 972.222 454.53C983.379 451.396 994.604 448.034 1005.12 443.066C1006.24 442.538 1018.67 436.914 1018.97 434.392C1020.2 424.308 994.266 394.113 991.488 390.107C975.98 367.744 960.08 346.025 949.115 321.008C928.947 274.995 905.895 223.972 856.113 203.43C799.082 179.898 734.681 190.331 675.829 202.108C665.463 204.183 663.174 205.591 653.486 202.096C637.925 196.482 640.032 175.019 638.507 161.679C635.997 139.733 634.98 117.669 632.116 95.7645C628.235 66.0765 623.939 37.3542 625.396 7.27255C627.233 -30.6267 641.872 -62.2447 659.563 -95.4168C676.578 -127.323 696.184 -159.237 697.652 -196.195C697.866 -201.599 697.407 -206.58 696.525 -211.846C695.994 -215.021 701.041 -207.272 703.093 -204.804C720.594 -183.76 737.694 -162.512 756.027 -142.173C786.918 -107.903 820.823 -70.3703 819.916 -21.012C818.377 62.7997 756.535 132.933 692.759 181.837C679.072 192.332 663.878 199.591 650.89 211.298" stroke="#FF6D3A" stroke-width="0.5"/>
</svg>
