<svg width="792" height="400" viewBox="0 0 792 400" fill="none" xmlns="http://www.w3.org/2000/svg">
<path d="M522.911 506.562C459.046 513.689 393.861 518.435 330.965 532.358C297.714 539.719 266.688 551.167 246.567 579.93C237.31 593.163 206.599 656.209 245.069 646.537C282.061 637.237 328.168 613.892 336.817 573.127C342.914 544.387 340.966 517.691 322.512 494.044C294.618 458.3 209.31 412.861 174.744 464.36C168.464 473.717 161.902 486.199 161.226 497.806C160.744 506.087 187.125 508.297 192.659 508.211C213.02 507.894 241.486 475.693 234.924 454.89C226.164 427.116 201.535 410.513 187.081 386.803C183.551 381.013 190.181 364.14 193.729 359.406C203.524 346.333 217.197 341.505 233.007 341.932C266.863 342.847 302.074 355.446 334.697 363.676C385.597 376.515 414.691 400.931 411.701 455.35C409.961 487.023 360.274 445.578 354.221 429.52C338.107 386.774 369.488 372.278 409.71 363.052C434.094 357.458 460.594 353.685 474.894 330.415C493.154 300.701 486.994 265.036 460.06 243.333C430.703 219.678 373.503 191.886 335.128 206.691C309.311 216.652 302.848 242.321 297.712 266.744C295.366 277.896 311.412 277.707 319.519 279.288C338.915 283.071 344.81 264.443 350.847 248.775C360.45 223.854 347.51 211.604 323.727 204.696C287.91 194.294 249.408 191.494 212.281 192.622C190.453 193.285 168.132 192.755 159.105 215.21C150.909 235.596 155.735 236.289 175.708 227.572C199.337 217.26 234.201 198.384 237.075 169.319C240.947 130.165 165.516 118.897 141.279 111.2C74.1529 89.8823 6.66911 70.2039 -61.7642 53.5984" stroke="url(#paint0_linear_147_3838)" stroke-width="3.91432" stroke-linecap="round"/>
<path d="M568.538 563.404C506.153 548.042 443.35 529.988 379.531 521.34C345.791 516.769 312.729 516.803 283.929 536.857C270.679 546.084 220.117 594.666 259.55 598.87C297.47 602.912 348.785 596.918 370.96 561.635C386.594 536.759 393.974 511.025 384.813 482.452C370.967 439.264 306.591 367.149 256.395 403.56C247.274 410.176 236.812 419.628 232.175 430.291C228.866 437.899 252.858 449.083 258.081 450.913C277.295 457.646 315.112 437.246 316.13 415.451C317.489 386.352 300.105 362.26 294.72 335.011C293.404 328.356 305.445 314.806 310.407 311.586C324.106 302.696 338.602 302.885 353.29 308.745C384.743 321.294 413.438 345.282 441.211 364.272C484.544 393.902 503.423 426.87 481.848 476.925C469.292 506.058 436.963 449.993 436.821 432.828C436.444 387.134 470.889 384.361 511.813 389.589C536.623 392.757 562.79 398.366 584.234 381.458C611.616 359.869 618.137 324.259 600.35 294.585C580.961 262.24 536.874 216.398 495.758 217.045C468.097 217.481 453.18 239.347 439.937 260.502C433.89 270.161 449.012 275.524 456.073 279.808C472.968 290.057 484.925 274.605 495.994 261.981C513.599 241.901 505.682 225.933 485.748 211.236C455.728 189.103 420.565 173.179 385.338 161.417C364.627 154.502 343.866 146.297 327.65 164.261C312.929 180.569 317.218 182.885 338.966 181.599C364.695 180.078 403.919 174.396 416.641 148.103C433.778 112.682 366.885 76.057 346.796 60.4613C291.162 17.2695 234.626 -24.5071 176.139 -63.7268" stroke="url(#paint1_linear_147_3838)" stroke-width="3.91432" stroke-linecap="round"/>
<path d="M525.239 508.399C461.263 514.453 396.008 518.103 332.889 530.968C299.519 537.77 268.305 548.696 247.706 577.117C238.228 590.193 206.464 652.715 245.091 643.69C282.233 635.012 328.725 612.445 338.056 571.83C344.634 543.197 343.134 516.472 325.079 492.517C297.788 456.31 213.255 409.444 177.831 460.356C171.394 469.607 164.624 481.977 163.754 493.571C163.133 501.842 189.473 504.495 195.008 504.502C215.371 504.527 244.373 472.808 238.161 451.898C229.867 423.981 205.52 406.966 191.466 383.017C188.033 377.168 194.945 360.409 198.572 355.735C208.584 342.829 222.337 338.231 238.137 338.923C271.973 340.406 306.968 353.595 339.448 362.371C390.125 376.064 418.806 400.965 414.904 455.326C412.633 486.966 363.648 444.692 357.865 428.535C342.47 385.524 374.089 371.557 414.46 363.007C438.934 357.824 465.493 354.496 480.181 331.469C498.937 302.066 493.376 266.302 466.81 244.15C437.854 220.005 381.128 191.256 342.51 205.415C316.53 214.941 309.638 240.498 304.093 264.831C301.561 275.942 317.607 276.023 325.686 277.74C345.016 281.848 351.223 263.322 357.522 247.757C367.541 223.001 354.808 210.535 331.144 203.229C295.507 192.227 257.057 188.781 219.917 189.285C198.081 189.581 175.773 188.677 166.37 210.977C157.834 231.223 162.647 231.996 182.764 223.616C206.563 213.702 241.737 195.414 245.098 166.402C249.626 127.318 174.396 114.785 150.29 106.681C83.5319 84.2395 16.388 63.4305 -51.7568 45.6781" stroke="url(#paint2_linear_147_3838)" stroke-width="3.91432"/>
<path d="M527.551 511.292C463.484 516.271 398.177 518.825 334.852 530.628C301.373 536.869 269.981 547.269 248.908 575.34C239.212 588.256 206.405 650.236 245.177 641.861C282.46 633.807 329.322 612.024 339.333 571.572C346.39 543.052 345.339 516.306 327.688 492.051C301.008 455.39 217.273 407.112 181.001 457.422C174.41 466.563 167.434 478.818 166.369 490.396C165.61 498.656 191.901 501.75 197.435 501.85C217.795 502.217 247.324 470.99 241.463 449.978C233.639 421.925 209.581 404.504 195.93 380.322C192.596 374.416 199.788 357.776 203.493 353.163C213.72 340.426 227.547 336.06 243.334 337.018C277.139 339.069 311.908 352.844 344.236 362.164C394.676 376.705 422.935 402.085 418.123 456.373C415.322 487.97 367.053 444.88 361.542 428.628C346.87 385.364 378.718 371.93 419.226 364.059C443.784 359.287 470.395 356.406 485.467 333.629C504.712 304.545 499.752 268.691 473.561 246.097C445.014 221.469 388.779 191.771 349.929 205.28C323.793 214.368 316.474 239.806 310.522 264.043C307.804 275.11 323.846 275.46 331.895 277.312C351.153 281.745 357.67 263.325 364.229 247.868C374.661 223.283 362.14 210.605 338.601 202.903C303.155 191.304 264.768 187.213 227.625 187.093C205.787 187.023 183.497 185.744 173.723 207.884C164.848 227.983 169.648 228.837 189.902 220.796C213.863 211.283 249.339 193.588 253.186 164.636C258.369 125.633 183.359 111.838 159.393 103.332C93.0211 79.7717 26.2359 57.838 -41.6011 38.9438" stroke="url(#paint3_linear_147_3838)" stroke-width="3.91432"/>
<path d="M529.849 513.24C465.708 517.142 400.368 518.599 336.854 529.338C303.275 535.016 271.713 544.887 250.173 572.601C240.262 585.352 206.421 646.773 245.328 639.05C282.74 631.624 329.961 610.63 340.648 570.351C348.182 541.954 347.579 515.193 330.337 490.646C304.276 453.542 221.363 403.863 184.253 453.558C177.51 462.587 170.329 474.723 169.071 486.282C168.173 494.528 194.409 498.064 199.94 498.257C220.29 498.965 250.339 468.238 244.831 447.131C237.478 418.95 213.716 401.127 200.472 376.719C197.238 370.758 204.708 354.241 208.489 349.69C218.929 337.127 232.827 332.994 248.595 334.216C282.361 336.835 316.894 351.192 349.061 361.053C399.25 376.44 427.079 402.291 421.357 456.491C418.027 488.037 370.488 444.142 365.25 427.799C351.306 384.295 383.374 371.397 424.008 364.207C448.642 359.849 475.298 357.415 490.749 334.894C510.479 306.136 506.12 270.205 480.312 247.173C452.182 222.069 396.454 191.431 357.383 204.286C331.098 212.934 323.354 238.245 316.996 262.379C314.093 273.399 330.128 274.019 338.145 276.006C357.325 280.761 364.15 262.453 370.967 247.109C381.81 222.702 369.503 209.816 346.097 201.719C310.85 189.527 272.538 184.791 235.402 184.048C213.569 183.611 191.304 181.958 181.159 203.931C171.949 223.879 176.734 224.813 197.119 217.113C221.237 208.004 257.004 190.907 261.336 162.023C267.171 123.113 192.404 108.06 168.585 99.1518C102.617 74.4806 36.2099 51.4285 -31.3003 31.3977" stroke="url(#paint4_linear_147_3838)" stroke-width="3.91432"/>
<path d="M532.13 515.243C467.933 518.068 402.578 518.428 338.894 528.099C305.225 533.211 273.503 542.552 251.501 569.9C241.378 582.483 206.512 643.328 245.542 636.259C283.073 629.462 330.639 609.264 342 569.17C350.009 540.903 349.855 514.136 333.027 489.302C307.592 451.765 225.524 400.701 187.586 449.766C180.693 458.681 173.31 470.695 171.858 482.231C170.822 490.461 196.994 494.437 202.522 494.722C222.857 495.773 253.416 465.554 248.263 444.357C241.384 416.056 217.924 397.837 205.091 373.21C201.957 367.195 209.703 350.805 213.56 346.319C224.209 333.933 238.175 330.033 253.919 331.521C287.637 334.706 321.924 349.641 353.921 360.041C403.844 376.268 431.235 402.583 424.606 456.68C420.747 488.166 373.951 443.479 368.988 427.05C355.775 383.317 388.055 370.96 428.804 364.453C453.507 360.509 480.199 358.523 496.026 336.264C516.235 307.842 512.479 271.842 487.061 248.38C459.357 222.807 404.15 191.237 364.869 203.434C338.444 211.639 330.276 236.818 323.515 260.842C320.428 271.812 336.449 272.7 344.431 274.822C363.529 279.898 370.66 261.707 377.733 246.479C388.984 222.258 376.894 209.167 353.628 200.678C318.591 187.895 280.364 182.517 243.246 181.151C221.423 180.347 199.189 178.32 188.678 200.12C179.135 219.911 183.903 220.925 204.415 213.568C228.681 204.865 264.73 188.371 269.545 159.564C276.032 120.757 201.529 104.451 177.862 95.1437C112.318 69.3682 46.3069 45.204 -20.8574 24.0423" stroke="url(#paint5_linear_147_3838)" stroke-width="3.91432"/>
<path d="M534.394 518.301C470.159 520.048 404.808 519.31 340.971 527.911C307.222 532.457 275.347 541.264 252.89 568.239C242.558 580.651 206.677 640.902 245.82 634.49C283.459 628.324 331.357 608.927 343.388 569.029C351.87 540.9 352.164 514.134 335.756 489.02C310.953 451.062 229.754 398.626 190.999 447.048C183.958 455.846 176.374 467.734 174.729 479.244C173.555 487.456 199.657 491.871 205.179 492.249C225.494 493.641 256.555 463.938 251.758 442.658C245.354 414.246 222.203 395.635 209.785 370.795C206.753 364.729 214.772 348.471 218.704 344.051C229.558 331.845 243.587 328.18 259.305 329.932C292.964 333.682 326.995 349.191 358.813 360.127C408.457 377.191 435.403 403.962 427.867 457.941C423.481 489.357 377.442 443.89 372.754 427.381C360.277 383.432 392.759 371.618 433.611 365.796C458.376 362.267 485.098 360.729 501.296 338.739C521.978 310.66 518.827 274.602 493.806 250.716C466.534 224.681 411.865 192.189 372.386 203.725C345.827 211.485 337.238 236.523 330.075 260.431C326.804 271.347 342.809 272.504 350.754 274.76C369.764 280.157 377.198 262.088 384.526 246.98C396.181 222.951 384.313 209.658 361.192 200.781C326.374 187.411 288.243 181.392 251.154 179.402C229.348 178.233 207.152 175.833 196.276 197.453C186.403 217.081 191.153 218.175 211.785 211.164C236.194 202.869 272.514 186.983 277.811 158.26C284.948 119.567 210.729 102.012 187.222 92.3088C122.12 65.4361 56.5239 40.1668 -10.2756 17.8802" stroke="url(#paint6_linear_147_3838)" stroke-width="3.91432"/>
<path d="M536.639 520.414C472.385 521.082 407.056 519.247 343.085 526.774C309.264 530.754 277.247 539.024 254.341 565.619C243.802 577.855 206.917 637.496 246.161 631.742C283.898 626.209 332.113 607.618 344.812 567.928C353.764 539.945 354.507 513.187 338.522 487.802C314.36 449.432 234.052 395.64 194.491 443.405C187.303 452.083 179.521 463.842 177.683 475.323C176.372 483.514 202.396 488.366 207.911 488.837C228.199 490.57 259.753 461.393 255.314 440.035C249.388 411.519 226.552 392.522 214.553 367.477C211.622 361.361 219.913 345.24 223.918 340.886C234.976 328.864 249.064 325.435 264.75 327.45C298.341 331.766 332.107 347.844 363.737 359.313C413.087 377.207 439.581 404.428 431.141 458.273C426.229 489.612 380.958 443.377 376.549 426.791C364.81 382.639 397.485 371.371 438.429 366.237C463.249 363.124 489.993 362.035 506.557 340.32C527.707 312.592 525.16 276.485 500.544 252.182C473.712 225.693 419.596 192.287 379.93 203.158C353.244 210.472 344.237 235.363 336.675 259.147C333.221 270.007 349.204 271.432 357.11 273.821C376.027 279.536 383.763 261.594 391.343 246.612C403.399 222.782 391.756 209.292 368.787 200.027C334.199 186.075 296.174 179.416 259.124 176.804C237.341 175.268 215.188 172.496 203.952 193.931C193.751 213.39 198.482 214.564 219.229 207.9C243.773 200.016 280.353 184.742 286.132 156.112C293.916 117.543 220.002 98.7449 196.662 88.6483C132.02 60.6861 66.8574 34.3188 0.441597 10.9135" stroke="url(#paint7_linear_147_3838)" stroke-width="3.91432"/>
<path d="M538.866 522.58C474.61 522.17 409.322 519.238 345.234 525.691C311.351 529.102 279.2 536.834 255.852 563.04C245.11 575.098 207.23 634.112 246.565 629.017C284.389 624.118 332.909 606.34 346.271 566.868C355.691 539.039 356.882 512.297 341.325 486.647C317.81 447.876 238.416 392.743 198.06 439.837C190.728 448.394 182.75 460.021 180.72 471.469C179.272 479.637 205.211 484.926 210.716 485.489C230.972 487.562 263.011 458.919 258.931 437.489C253.483 408.877 230.97 389.499 219.392 364.256C216.564 358.092 225.124 342.112 229.202 337.826C240.459 325.991 254.603 322.799 270.253 325.077C303.766 329.956 337.258 346.599 368.69 358.598C417.733 377.319 443.766 404.98 434.425 458.676C428.988 489.929 384.5 442.94 380.369 426.282C369.372 381.939 402.232 371.221 443.255 366.775C468.124 364.079 494.882 363.439 511.807 342.005C533.419 314.636 531.478 278.491 507.273 253.778C480.89 226.842 427.341 192.532 387.499 202.736C360.695 209.6 351.272 234.336 343.312 257.99C339.677 268.791 355.633 270.485 363.498 273.006C382.316 279.038 390.352 261.228 398.182 246.375C410.636 222.751 399.22 209.067 376.411 199.417C342.061 184.886 304.154 177.59 267.153 174.356C245.399 172.455 223.296 169.311 211.702 190.554C201.177 209.84 205.887 211.093 226.743 204.779C251.415 197.308 288.246 182.65 294.504 154.12C302.933 115.688 229.346 95.6507 206.178 85.1636C142.015 56.1197 77.3044 28.6618 11.2911 4.1445" stroke="url(#paint8_linear_147_3838)" stroke-width="3.91432"/>
<path d="M541.072 525.801C476.833 524.312 411.604 520.285 347.417 525.66C313.483 528.502 281.207 535.693 257.423 561.504C246.48 573.38 207.617 631.75 247.031 627.317C284.931 623.053 333.742 606.092 347.764 566.849C357.649 539.182 359.289 512.464 344.164 486.556C321.302 447.395 242.845 390.936 201.706 437.347C194.231 445.779 186.059 457.271 183.838 468.684C182.253 476.826 208.099 482.55 213.594 483.205C233.813 485.618 266.327 457.517 262.606 436.021C257.639 407.322 235.454 387.568 224.301 362.134C221.578 355.923 230.404 340.089 234.553 335.872C246.007 324.228 260.202 321.274 275.811 323.814C309.238 329.255 342.445 346.458 373.672 358.983C422.393 378.525 447.959 406.62 437.719 460.152C431.759 491.309 388.065 443.58 384.214 426.855C373.962 382.332 406.997 372.168 448.088 368.411C472.999 366.133 499.763 365.943 517.045 344.795C539.113 317.792 537.778 281.62 513.991 256.504C488.063 229.128 435.098 193.923 395.091 203.457C368.176 209.871 358.339 234.445 349.984 257.962C346.169 268.701 362.094 270.662 369.916 273.315C388.63 279.662 396.963 261.99 405.041 247.27C417.889 223.858 406.704 209.984 384.06 199.953C349.959 184.847 312.18 176.915 275.239 173.061C253.52 170.795 231.473 167.28 219.525 188.326C208.678 207.432 213.367 208.765 234.325 202.801C259.119 195.745 296.19 181.707 302.925 153.287C311.998 115.001 238.758 93.7307 215.769 82.856C152.102 52.7387 87.8618 24.1979 22.2695 -1.42442" stroke="url(#paint9_linear_147_3838)" stroke-width="3.91432"/>
<path d="M543.258 528.076C479.053 525.508 413.902 520.386 349.635 524.683C315.658 526.955 283.266 533.603 259.053 559.012C247.913 570.702 208.076 628.413 247.559 624.641C285.525 621.015 334.613 604.875 349.29 565.873C359.638 538.376 361.726 511.688 347.037 485.529C324.836 445.99 247.337 388.221 205.426 433.935C197.811 442.241 189.448 453.594 187.035 464.968C185.314 473.083 211.06 479.239 216.543 479.987C236.718 482.739 269.699 455.187 266.339 433.632C261.854 404.853 240.004 384.729 229.279 359.112C226.66 352.855 235.75 337.172 239.969 333.025C251.617 321.574 265.859 318.859 281.424 321.662C314.754 327.663 347.668 345.421 378.68 358.468C427.066 378.826 452.157 407.346 441.021 460.7C434.54 491.753 391.652 443.296 388.082 426.509C378.579 381.82 411.778 372.211 452.927 369.144C477.872 367.285 504.635 367.544 522.27 346.69C544.787 320.061 544.059 283.871 520.696 258.359C495.231 230.551 442.865 194.462 402.703 203.323C375.685 209.284 365.438 233.69 356.689 257.064C352.694 267.736 368.584 269.965 376.361 272.749C394.965 279.409 403.594 261.879 411.917 247.297C425.155 224.103 414.205 210.044 391.733 199.634C357.891 183.957 320.25 175.392 283.38 170.918C261.702 168.288 239.717 164.403 227.418 185.246C216.252 204.168 220.917 205.579 241.972 199.967C266.881 193.329 304.182 179.915 311.392 151.611C321.106 113.483 248.233 90.9859 225.431 79.7267C162.278 48.5444 98.5262 18.9288 33.3734 -7.79137" stroke="url(#paint10_linear_147_3838)" stroke-width="3.91432"/>
<path d="M545.422 530.403C481.27 526.758 416.214 520.543 351.885 523.761C317.875 525.462 285.377 531.566 260.741 556.564C249.407 568.066 208.609 625.1 248.148 621.992C286.17 619.003 335.521 603.69 350.85 564.939C361.657 537.619 364.192 510.97 349.944 484.568C328.409 444.661 251.89 385.599 209.219 430.603C201.466 438.78 192.914 449.991 190.311 461.323C188.454 469.408 214.093 475.996 219.563 476.836C239.689 479.927 273.126 452.932 270.129 431.323C266.127 402.472 244.617 381.985 234.324 356.19C231.81 349.891 241.162 334.362 245.449 330.286C257.287 319.033 271.573 316.557 287.088 319.62C320.313 326.18 352.924 344.489 383.713 358.055C431.75 379.222 456.359 408.16 444.33 461.32C437.329 492.26 395.261 443.09 391.973 426.244C383.22 381.402 416.576 372.352 457.769 369.976C482.742 368.536 509.497 369.244 527.478 348.689C550.438 322.441 550.317 286.243 527.386 260.343C502.391 232.111 450.638 195.147 410.334 203.333C383.219 208.839 372.565 233.07 363.425 256.294C359.252 266.899 375.103 269.394 382.831 272.308C401.321 279.28 410.242 261.897 418.809 247.456C432.434 224.488 421.721 210.246 399.427 199.46C365.853 183.218 328.362 174.022 291.571 168.929C269.941 165.935 248.025 161.682 235.378 182.316C223.896 201.048 228.538 202.537 249.683 197.28C274.699 191.06 312.22 178.274 319.904 150.095C330.255 112.135 257.771 88.4175 235.16 76.7769C172.541 44.5385 109.295 13.8564 44.5996 -13.9541" stroke="url(#paint11_linear_147_3838)" stroke-width="3.91432"/>
<path d="M547.563 532.784C483.482 528.062 418.54 520.756 354.167 522.893C320.133 524.023 287.538 529.58 262.487 554.162C250.961 565.472 209.213 621.814 248.799 619.37C286.865 617.02 336.465 602.537 352.442 564.049C363.705 536.914 366.686 510.311 352.884 483.673C332.021 443.41 256.504 383.071 213.085 427.353C205.196 435.398 196.457 446.464 193.664 457.751C191.672 465.804 217.197 472.822 222.652 473.753C242.723 477.181 276.608 450.751 273.973 429.095C270.455 400.181 249.293 379.334 239.433 353.37C237.025 347.03 246.636 331.66 250.992 327.657C263.016 316.604 277.342 314.368 292.803 317.691C325.913 324.808 358.212 343.662 388.768 357.743C436.444 379.714 460.563 409.061 447.645 462.012C440.126 492.831 398.889 442.961 395.884 426.062C387.884 381.079 421.387 372.59 462.614 370.906C487.607 369.885 514.346 371.043 532.669 350.791C556.066 324.933 556.552 288.738 534.058 262.455C509.541 233.808 458.415 195.98 417.98 203.488C390.777 208.539 379.718 232.588 370.19 255.655C365.84 266.188 381.646 268.949 389.324 271.992C407.695 279.274 416.906 262.043 425.713 247.748C439.722 225.011 429.25 210.591 407.139 199.433C373.843 182.629 336.511 172.805 299.812 167.095C278.235 163.738 256.393 159.118 243.402 179.536C231.608 198.073 236.224 199.64 257.455 194.739C282.572 188.94 320.301 176.786 328.456 148.739C339.442 110.957 267.367 86.0263 244.955 74.0077C182.885 40.7222 120.163 8.9824 55.9443 -19.9106" stroke="url(#paint12_linear_147_3838)" stroke-width="3.91432"/>
<path d="M549.681 536.217C485.689 530.42 420.879 522.024 356.48 523.081C322.433 523.639 289.749 528.649 264.289 552.807C252.576 563.922 209.889 619.555 249.51 617.776C287.61 616.066 337.445 602.417 354.065 564.202C365.782 537.26 369.208 510.71 355.854 483.844C335.67 443.236 261.176 381.637 217.021 425.184C208.998 433.097 200.075 444.014 197.094 455.253C194.967 463.271 220.37 470.716 225.809 471.74C245.819 475.504 280.142 449.646 277.871 427.949C274.839 398.979 254.029 377.78 244.606 351.654C242.305 345.274 252.172 330.067 256.594 326.137C268.802 315.288 283.163 313.293 298.566 316.875C331.551 324.547 363.53 343.941 393.845 358.533C441.145 381.301 464.769 411.05 450.965 463.777C442.93 494.465 402.535 443.909 399.814 426.963C392.57 381.851 426.21 373.926 467.459 372.934C492.465 372.333 519.181 373.939 537.841 353.998C561.667 328.535 562.76 292.353 540.711 265.697C516.677 236.641 466.193 197.96 425.639 204.788C398.356 209.382 386.895 233.242 376.982 256.146C372.456 266.605 388.213 269.631 395.839 272.803C414.085 280.392 423.583 263.317 432.629 249.172C447.017 226.674 436.788 212.08 414.868 200.552C381.858 183.191 344.697 172.741 308.099 166.417C286.582 162.698 264.821 157.712 251.49 177.909C239.387 196.246 243.975 197.889 265.285 193.345C290.495 187.969 328.422 176.45 337.047 148.544C348.665 110.951 277.018 84.8135 254.811 72.4202C193.309 38.097 131.129 5.30843 67.4043 -24.6589" stroke="url(#paint13_linear_147_3838)" stroke-width="3.91432"/>
<path d="M551.774 538.702C487.889 531.831 423.23 522.349 358.822 522.324C324.771 522.311 292.009 526.771 266.148 550.499C254.25 561.416 210.637 616.326 250.281 615.212C288.404 614.141 338.46 601.331 355.718 563.4C367.885 536.658 371.757 510.169 358.855 483.082C339.355 442.141 265.906 379.299 221.027 422.1C212.873 429.876 203.768 440.643 200.598 451.83C198.337 459.811 223.612 467.682 229.032 468.796C248.977 472.896 283.728 447.618 281.821 425.885C279.275 396.868 258.824 375.323 249.84 349.042C247.647 342.624 257.768 327.585 262.255 323.73C274.643 313.086 289.035 311.333 304.375 315.174C337.227 323.398 368.875 343.326 398.942 358.425C445.852 381.985 468.974 412.126 454.288 464.614C445.74 495.164 406.199 443.936 403.762 426.946C397.276 381.718 431.043 374.359 472.302 374.06C497.315 373.878 524 375.933 542.991 356.308C567.241 331.249 568.941 295.089 547.342 268.066C523.799 238.611 473.971 199.088 433.308 205.234C405.952 209.369 394.093 233.033 383.798 255.769C379.097 266.15 394.801 269.44 402.373 272.739C420.488 280.634 430.272 263.721 439.553 249.73C454.316 227.475 444.334 212.712 422.61 200.817C389.897 182.904 352.917 171.833 316.43 164.894C294.979 160.815 273.305 155.464 259.637 175.435C247.228 193.566 251.788 195.287 273.171 191.101C298.467 186.148 336.582 175.267 345.673 147.51C357.92 110.117 286.722 82.7799 264.726 70.0154C203.809 34.6643 142.188 0.836139 78.976 -30.197" stroke="url(#paint14_linear_147_3838)" stroke-width="3.91432"/>
<path d="M554.842 541.238C491.082 533.296 426.592 522.73 362.194 521.624C328.149 521.039 295.316 524.949 269.061 548.239C256.982 558.955 212.455 613.126 252.112 612.678C290.247 612.247 340.511 600.279 358.402 562.642C371.016 536.108 375.33 509.688 362.885 482.388C344.075 441.124 271.69 377.058 226.1 419.099C217.817 426.738 208.533 437.35 205.176 448.483C202.782 456.425 227.921 464.719 233.322 465.924C253.194 470.358 288.364 445.667 286.822 423.905C284.763 394.849 264.676 372.963 256.135 346.535C254.049 340.08 264.421 325.213 268.971 321.434C281.536 311 295.956 309.489 311.229 313.586C343.938 322.361 375.248 342.817 405.056 358.42C451.565 382.763 474.177 413.289 458.613 465.524C449.554 495.926 410.878 444.042 408.727 427.013C403 381.682 436.885 374.89 478.143 375.284C503.155 375.522 529.801 378.024 549.119 358.721C573.786 334.072 576.091 297.946 554.949 270.563C531.904 240.717 482.746 200.362 441.986 205.825C414.565 209.5 402.311 232.963 391.636 255.522C386.762 265.823 402.408 269.376 409.923 272.803C427.904 281 437.97 264.254 447.484 250.42C462.618 228.416 452.884 213.487 431.364 201.229C398.956 182.77 362.167 171.079 325.803 163.529C304.422 159.09 282.841 153.376 268.841 173.115C256.13 191.035 260.661 192.832 282.11 189.006C307.486 184.479 345.777 174.239 355.332 146.637C368.204 109.455 297.476 80.9264 275.698 67.7943C215.383 31.4252 154.338 -3.43298 91.6559 -35.5232" stroke="url(#paint15_linear_147_3838)" stroke-width="3.91432"/>
<path d="M556.884 544.826C493.267 535.815 428.964 524.168 364.594 521.981C330.564 520.825 297.671 524.183 271.029 547.029C258.772 557.541 213.343 610.957 253.002 611.175C291.138 611.384 341.595 600.261 360.115 562.93C373.171 536.611 377.929 510.266 365.943 482.761C347.827 441.187 276.528 375.914 230.24 417.185C221.83 424.684 212.37 435.139 208.827 446.214C206.299 454.115 231.295 462.829 236.676 464.125C256.471 468.892 292.049 444.794 290.872 423.009C289.301 393.922 269.584 371.702 261.487 345.134C259.51 338.645 270.129 323.954 274.743 320.252C287.481 310.03 301.923 308.761 317.126 313.114C349.683 322.437 380.644 343.416 410.186 359.517C456.28 384.638 478.377 415.539 461.939 467.506C452.372 497.753 414.572 445.226 412.706 428.163C407.74 382.742 441.735 376.52 482.98 377.606C507.984 378.264 534.584 381.213 554.223 362.236C579.299 338.004 582.21 301.922 561.529 274.188C538.988 243.959 490.515 202.784 449.67 207.562C422.191 210.776 409.546 234.03 398.494 256.408C393.448 266.625 409.032 270.441 416.489 273.993C434.329 282.491 444.674 265.916 454.419 252.244C469.92 230.497 460.438 215.406 439.126 202.789C407.033 183.787 370.446 171.48 334.213 163.321C312.911 158.524 291.429 152.448 277.099 171.95C264.09 189.654 268.59 191.527 290.101 188.061C315.548 183.961 354.005 174.365 364.022 146.927C377.515 109.966 307.276 80.2538 285.721 66.7578C226.025 29.381 165.575 -6.49729 103.44 -39.6355" stroke="url(#paint16_linear_147_3838)" stroke-width="3.91432"/>
<path d="M558.899 547.465C495.442 537.387 431.344 524.662 367.022 521.395C333.015 519.668 300.071 522.473 273.051 544.87C260.619 555.174 214.301 607.821 253.951 608.704C292.077 609.554 342.713 599.279 361.856 562.264C375.352 536.167 380.55 509.906 369.028 482.203C351.612 440.33 281.418 373.869 234.446 414.357C225.911 421.714 216.277 432.009 212.549 443.023C209.889 450.88 234.735 460.014 240.092 461.4C259.805 466.498 295.782 443.001 294.97 421.198C293.887 392.089 274.546 369.541 266.896 342.84C265.028 336.319 275.892 321.808 280.567 318.184C293.474 308.178 307.936 307.151 323.063 311.759C355.459 321.627 386.063 343.123 415.331 359.718C460.996 385.609 482.572 416.877 465.265 468.562C455.192 498.643 418.278 445.488 416.699 428.397C412.496 382.898 446.589 377.247 487.81 379.026C512.799 380.104 539.346 383.499 559.3 364.854C584.779 341.046 588.294 305.017 568.082 276.94C546.052 246.336 498.277 204.353 457.357 208.445C429.829 211.198 416.795 234.236 405.37 256.425C400.153 266.557 415.671 270.633 423.067 274.31C440.762 283.106 451.383 266.707 461.356 253.2C477.219 231.716 467.992 216.469 446.895 203.495C415.125 183.957 378.75 171.038 342.66 162.271C321.441 157.117 300.065 150.682 285.41 169.94C272.106 187.424 276.574 189.372 298.139 186.268C323.652 182.595 362.264 173.646 372.739 146.38C386.85 109.65 317.12 78.7629 295.795 64.9068C236.735 26.5329 176.895 -10.3555 115.326 -44.5324" stroke="url(#paint17_linear_147_3838)" stroke-width="3.91432"/>
<path d="M560.886 550.154C497.608 539.012 433.733 525.213 369.475 520.867C335.503 518.569 302.517 520.821 275.125 542.761C262.522 552.856 215.329 604.718 254.957 606.267C293.063 607.756 343.864 598.333 363.625 561.643C377.556 535.777 383.194 509.606 372.138 481.714C355.427 439.554 286.359 371.923 238.714 411.618C230.058 418.83 220.252 428.962 216.34 439.912C213.549 447.724 238.238 457.273 243.571 458.749C263.195 464.178 299.561 441.287 299.115 419.474C298.52 390.35 279.56 367.48 272.359 340.654C270.6 334.103 281.706 319.776 286.441 316.231C299.515 306.443 313.991 305.658 329.039 310.52C361.264 320.931 391.504 342.938 420.489 360.021C465.713 386.676 486.76 418.302 468.589 469.689C458.013 499.598 421.997 445.83 420.705 428.714C417.265 383.151 451.448 378.073 492.633 380.543C517.6 382.04 544.086 385.881 564.349 367.573C590.223 344.196 594.343 308.231 574.605 279.818C553.091 248.848 506.027 206.069 465.045 209.473C437.475 211.764 424.057 234.58 412.261 256.575C406.875 266.618 422.323 270.954 429.656 274.754C447.201 283.847 458.095 267.628 468.293 254.29C484.514 233.075 475.544 217.675 454.668 204.349C423.23 184.28 387.077 170.752 351.14 161.381C330.011 155.871 308.745 149.078 293.77 168.088C280.174 185.346 284.609 187.369 306.223 184.627C331.793 181.383 370.55 173.083 381.481 145.997C396.206 109.508 327.004 77.4544 305.915 63.2422C247.507 23.8819 188.295 -14.0061 127.308 -49.212" stroke="url(#paint18_linear_147_3838)" stroke-width="3.91432"/>
<path d="M562.844 553.893C499.763 541.691 436.129 526.821 371.954 521.397C338.025 518.529 305.006 520.227 277.251 541.705C264.48 551.587 216.424 602.65 256.021 604.864C294.096 606.993 345.047 598.423 365.42 562.07C379.784 536.44 385.86 510.368 375.273 482.293C359.272 439.859 291.348 371.077 243.045 409.967C234.269 417.033 224.295 427 220.2 437.882C217.278 445.646 241.803 455.609 247.111 457.174C266.64 462.931 303.385 440.654 303.305 418.836C303.198 389.706 284.625 366.521 277.875 339.578C276.226 332.998 287.571 318.859 292.365 315.394C305.6 305.826 320.088 305.285 335.052 310.398C367.097 321.349 396.963 343.86 425.657 361.428C470.427 388.839 490.941 420.814 471.911 471.889C460.835 501.617 425.726 447.252 424.721 430.116C422.046 384.501 456.309 379.998 497.446 383.159C522.384 385.075 548.802 389.359 569.369 371.394C595.632 348.454 600.353 312.563 581.095 283.822C560.104 252.495 513.764 208.932 472.732 211.648C445.127 213.475 431.328 236.064 419.166 257.857C413.612 267.808 428.985 272.403 436.253 276.326C453.643 285.712 464.808 269.678 475.228 256.513C491.802 235.573 483.091 220.024 462.442 206.349C431.346 185.756 395.425 171.623 359.65 161.65C338.617 155.786 317.469 148.637 302.177 167.393C288.294 184.421 292.694 186.518 314.351 184.139C339.971 181.325 378.861 173.676 390.245 146.777C405.579 110.54 336.926 77.3289 316.078 62.7646C258.34 22.4291 199.772 -16.4478 139.385 -52.6728" stroke="url(#paint19_linear_147_3838)" stroke-width="3.91432"/>
<path d="M564.773 556.681C501.906 543.422 438.531 527.486 374.456 520.986C340.581 517.549 307.539 518.693 279.427 539.702C266.493 549.368 217.588 599.618 257.141 602.496C295.175 605.264 346.262 597.55 367.242 561.544C382.033 536.159 388.545 510.191 378.431 481.943C363.144 439.245 296.384 369.332 247.436 407.407C238.543 414.325 228.403 424.122 224.126 434.935C221.075 442.649 245.429 453.022 250.71 454.675C270.14 460.76 307.252 439.102 307.538 417.286C307.92 388.158 289.738 364.664 283.441 337.611C281.904 331.004 293.483 317.058 298.335 313.674C311.729 304.329 326.223 304.031 341.099 309.395C372.956 320.882 402.44 343.892 430.835 361.939C475.138 390.097 495.113 422.412 475.229 473.162C463.656 502.7 429.464 447.753 428.747 430.602C426.837 384.948 461.171 381.021 502.248 384.871C527.151 387.206 553.492 391.933 574.358 374.315C601.001 351.819 606.324 316.012 587.55 286.952C567.088 255.277 521.486 210.941 480.414 212.968C452.783 214.332 438.608 236.686 426.081 258.272C420.362 268.129 435.655 272.982 442.856 277.026C460.086 286.702 471.518 270.858 482.157 257.869C499.08 237.211 490.632 221.517 470.215 207.498C439.469 186.385 403.791 171.65 368.189 161.078C347.257 154.862 326.232 147.359 310.627 165.856C296.461 182.649 300.825 184.82 322.519 182.804C348.183 180.42 387.195 173.426 399.028 146.721C414.968 110.746 346.882 76.3872 326.281 61.4749C269.228 20.1755 211.322 -19.6793 151.551 -56.9131" stroke="url(#paint20_linear_147_3838)" stroke-width="3.91432"/>
<path d="M566.671 559.518C504.036 545.206 440.938 528.208 376.983 520.633C343.17 516.629 310.113 517.218 281.654 537.752C268.56 547.2 218.819 596.623 258.318 600.165C296.3 603.57 347.508 596.715 369.089 561.065C384.304 535.931 391.25 510.077 381.612 481.662C367.043 438.713 301.466 367.69 251.887 404.938C242.879 411.705 232.576 421.331 228.118 432.071C224.938 439.733 249.115 450.513 254.367 452.255C273.692 458.665 311.162 437.632 311.814 415.824C312.684 386.706 294.899 362.91 289.057 335.755C287.63 329.123 299.442 315.373 304.349 312.071C317.898 302.952 332.395 302.898 347.179 308.51C378.838 320.53 407.932 344.032 436.02 362.553C479.844 391.452 499.274 424.098 478.542 474.507C466.475 503.847 433.21 448.333 432.781 431.173C431.637 385.492 466.031 382.142 507.038 386.681C531.897 389.433 558.156 394.602 579.313 377.337C606.33 355.291 612.253 319.577 593.969 290.206C574.041 258.192 529.19 213.096 488.091 214.434C460.441 215.334 445.892 237.447 433.006 258.82C427.122 268.58 442.331 273.688 449.464 277.853C466.528 287.817 478.225 272.167 489.08 259.359C506.347 238.987 498.163 223.153 477.984 208.793C447.597 187.167 412.171 171.836 376.752 160.667C355.928 154.101 335.031 146.246 319.119 164.479C304.674 181.031 309.001 183.275 330.725 181.624C356.425 179.671 395.548 173.332 407.827 146.829C424.368 111.127 356.869 75.6296 336.522 60.3735C280.17 18.1219 222.941 -22.6996 163.804 -60.9317" stroke="url(#paint21_linear_147_3838)" stroke-width="3.91432"/>
<defs>
<linearGradient id="paint0_linear_147_3838" x1="146.663" y1="625.886" x2="266.218" y2="133.184" gradientUnits="userSpaceOnUse">
<stop stop-color="#FF6D3A"/>
<stop offset="1" stop-color="#994123"/>
</linearGradient>
<linearGradient id="paint1_linear_147_3838" x1="174.335" y1="545.503" x2="456.706" y2="124.414" gradientUnits="userSpaceOnUse">
<stop stop-color="#FF6D3A"/>
<stop offset="1" stop-color="#994123"/>
</linearGradient>
<linearGradient id="paint2_linear_147_3838" x1="147.046" y1="621.389" x2="274.858" y2="130.764" gradientUnits="userSpaceOnUse">
<stop stop-color="#FF6D3A"/>
<stop offset="1" stop-color="#994123"/>
</linearGradient>
<linearGradient id="paint3_linear_147_3838" x1="147.521" y1="617.917" x2="283.554" y2="129.507" gradientUnits="userSpaceOnUse">
<stop stop-color="#FF6D3A"/>
<stop offset="1" stop-color="#994123"/>
</linearGradient>
<linearGradient id="paint4_linear_147_3838" x1="148.087" y1="613.47" x2="292.304" y2="127.413" gradientUnits="userSpaceOnUse">
<stop stop-color="#FF6D3A"/>
<stop offset="1" stop-color="#994123"/>
</linearGradient>
<linearGradient id="paint5_linear_147_3838" x1="148.745" y1="609.05" x2="301.104" y2="125.484" gradientUnits="userSpaceOnUse">
<stop stop-color="#FF6D3A"/>
<stop offset="1" stop-color="#994123"/>
</linearGradient>
<linearGradient id="paint6_linear_147_3838" x1="149.494" y1="605.658" x2="309.952" y2="124.719" gradientUnits="userSpaceOnUse">
<stop stop-color="#FF6D3A"/>
<stop offset="1" stop-color="#994123"/>
</linearGradient>
<linearGradient id="paint7_linear_147_3838" x1="150.333" y1="601.297" x2="318.844" y2="123.12" gradientUnits="userSpaceOnUse">
<stop stop-color="#FF6D3A"/>
<stop offset="1" stop-color="#994123"/>
</linearGradient>
<linearGradient id="paint8_linear_147_3838" x1="151.261" y1="596.967" x2="327.779" y2="121.688" gradientUnits="userSpaceOnUse">
<stop stop-color="#FF6D3A"/>
<stop offset="1" stop-color="#994123"/>
</linearGradient>
<linearGradient id="paint9_linear_147_3838" x1="152.279" y1="593.671" x2="336.754" y2="121.423" gradientUnits="userSpaceOnUse">
<stop stop-color="#FF6D3A"/>
<stop offset="1" stop-color="#994123"/>
</linearGradient>
<linearGradient id="paint10_linear_147_3838" x1="153.386" y1="589.409" x2="345.764" y2="120.325" gradientUnits="userSpaceOnUse">
<stop stop-color="#FF6D3A"/>
<stop offset="1" stop-color="#994123"/>
</linearGradient>
<linearGradient id="paint11_linear_147_3838" x1="154.58" y1="585.183" x2="354.809" y2="119.396" gradientUnits="userSpaceOnUse">
<stop stop-color="#FF6D3A"/>
<stop offset="1" stop-color="#994123"/>
</linearGradient>
<linearGradient id="paint12_linear_147_3838" x1="155.862" y1="580.995" x2="363.885" y2="118.636" gradientUnits="userSpaceOnUse">
<stop stop-color="#FF6D3A"/>
<stop offset="1" stop-color="#994123"/>
</linearGradient>
<linearGradient id="paint13_linear_147_3838" x1="157.231" y1="577.846" x2="372.988" y2="119.046" gradientUnits="userSpaceOnUse">
<stop stop-color="#FF6D3A"/>
<stop offset="1" stop-color="#994123"/>
</linearGradient>
<linearGradient id="paint14_linear_147_3838" x1="158.686" y1="573.738" x2="382.117" y2="118.625" gradientUnits="userSpaceOnUse">
<stop stop-color="#FF6D3A"/>
<stop offset="1" stop-color="#994123"/>
</linearGradient>
<linearGradient id="paint15_linear_147_3838" x1="161.226" y1="569.672" x2="392.268" y2="118.375" gradientUnits="userSpaceOnUse">
<stop stop-color="#FF6D3A"/>
<stop offset="1" stop-color="#994123"/>
</linearGradient>
<linearGradient id="paint16_linear_147_3838" x1="162.851" y1="566.649" x2="401.438" y2="119.295" gradientUnits="userSpaceOnUse">
<stop stop-color="#FF6D3A"/>
<stop offset="1" stop-color="#994123"/>
</linearGradient>
<linearGradient id="paint17_linear_147_3838" x1="164.56" y1="562.671" x2="410.625" y2="119.387" gradientUnits="userSpaceOnUse">
<stop stop-color="#FF6D3A"/>
<stop offset="1" stop-color="#994123"/>
</linearGradient>
<linearGradient id="paint18_linear_147_3838" x1="166.352" y1="558.739" x2="419.825" y2="119.649" gradientUnits="userSpaceOnUse">
<stop stop-color="#FF6D3A"/>
<stop offset="1" stop-color="#994123"/>
</linearGradient>
<linearGradient id="paint19_linear_147_3838" x1="168.226" y1="555.855" x2="429.037" y2="121.083" gradientUnits="userSpaceOnUse">
<stop stop-color="#FF6D3A"/>
<stop offset="1" stop-color="#994123"/>
</linearGradient>
<linearGradient id="paint20_linear_147_3838" x1="170.182" y1="552.02" x2="438.256" y2="121.688" gradientUnits="userSpaceOnUse">
<stop stop-color="#FF6D3A"/>
<stop offset="1" stop-color="#994123"/>
</linearGradient>
<linearGradient id="paint21_linear_147_3838" x1="172.219" y1="548.236" x2="447.48" y2="122.466" gradientUnits="userSpaceOnUse">
<stop stop-color="#FF6D3A"/>
<stop offset="1" stop-color="#994123"/>
</linearGradient>
</defs>
</svg>
