<svg width="1186" height="1189" viewBox="0 0 1186 1189" fill="none" xmlns="http://www.w3.org/2000/svg">
<path d="M906.821 1125.34C932.423 1073.03 934.955 1010.04 925.298 953.734C911.346 872.387 880.777 788.862 836.995 718.795C815.19 683.899 796.621 661.126 765.816 634.131C740.823 612.229 718.06 593.757 683.365 591.257C643.632 588.394 613.607 604.819 581.294 626.073C544.236 650.447 516.304 676.104 491.699 712.923C449.315 776.346 464.869 845.343 487.024 913.22C518.507 1009.67 564.169 1104.71 641.239 1173.2C711.9 1236 805.03 1273.56 900.247 1267.24C992.947 1261.08 1063.28 1209.07 1107.85 1128.93C1175.86 1006.62 1164.67 864.071 1138.78 731.493C1123.62 653.86 1106.74 590.058 1071.75 519.801C1050.3 476.73 1030.18 445.78 988.073 422.389C903.494 375.403 798.075 416.888 731.829 476.418C640.039 558.899 609.424 681.137 590.683 798.121C575.304 894.122 560.676 1002.3 600.518 1094.66C632.916 1169.76 699.483 1242.32 775.693 1274.19C812.69 1289.66 839.631 1294.1 877.381 1278.81C917.856 1262.41 940.137 1234.34 962.158 1197.36C1010.1 1116.85 1031.48 1019.93 1042.27 927.913C1051.67 847.71 1061.21 731.8 1004.88 663.499C971.094 622.528 920.272 628.207 882.521 659.616C825.071 707.415 783.752 789.202 771.033 861.925C752.824 966.029 790.461 1075.22 838.825 1165.96C856.976 1200.02 888.478 1246.63 918.413 1273.33C934.397 1287.58 970.974 1309.84 995.055 1309.27C1024.31 1308.58 1050.23 1283.91 1065.43 1262.39C1088.42 1229.86 1111.11 1171.67 1120.44 1134.15C1128.53 1101.65 1135.3 1050.38 1126.96 1015.66C1123.23 1000.14 1109.25 976.406 1089.14 976.539C1070.45 976.663 1049.08 1000.13 1041.47 1013.05C1023.91 1042.86 1012.85 1089.38 1008.55 1122.12C998.304 1200.15 998.271 1297.85 1040.43 1367.89C1072.07 1420.47 1133.99 1452.96 1191.66 1417.17C1226.88 1395.32 1262.68 1346.09 1282.94 1312.86C1305.92 1275.17 1339.28 1203.89 1352.29 1161.01C1361.65 1130.17 1371.44 1080.56 1360.77 1046.99C1353.76 1024.95 1328.71 1001.02 1305.35 997.053C1224.39 983.291 1160.48 1084.73 1145.91 1150.01C1127.9 1230.69 1172.96 1321.56 1263.05 1326.43C1301.97 1328.54 1346.44 1308.49 1377.37 1287.43C1441.42 1243.84 1409.68 1250.47 1466.63 1200.88" stroke="#175F79" stroke-width="1.0241" stroke-linecap="round"/>
<path d="M915.266 1081.37C913.433 1023.16 886.218 966.307 851.349 921.05C800.976 855.67 734.895 796.137 663.429 754.677C627.837 734.029 600.773 722.583 560.92 713.127C528.586 705.456 499.827 699.773 467.991 713.788C431.531 729.838 412.672 758.397 394.049 792.295C372.692 831.169 360 866.91 355.469 910.962C347.665 986.842 393.679 1040.56 445.004 1090.19C517.938 1160.73 602.742 1223.38 702.896 1247.88C794.723 1270.35 894.603 1259.99 975.813 1209.88C1054.87 1161.09 1092.72 1082.22 1094.64 990.544C1097.56 850.625 1021.01 729.853 936.122 624.773C886.415 563.243 841.662 514.739 777.876 469.002C738.771 440.962 706.514 423.014 658.358 422.028C561.625 420.049 487.843 506.017 457.125 589.615C414.562 705.447 444.664 827.812 482.806 939.981C514.105 1032.03 551.766 1134.49 630.172 1197.5C693.931 1248.73 786.699 1281.73 868.968 1274.27C908.906 1270.64 934.796 1261.97 961.013 1230.8C989.121 1197.38 995.687 1162.14 997.858 1119.16C1002.58 1025.58 976.162 929.909 942.664 843.527C913.468 768.237 867.695 661.322 785.968 627.29C736.943 606.875 694.676 635.662 675.996 681.078C647.568 750.195 649.292 841.81 672.057 912.039C704.646 1012.57 788.973 1091.49 874.16 1149.08C906.131 1170.7 955.774 1197.17 994.717 1206.76C1015.51 1211.89 1058.25 1214.46 1079.27 1202.69C1104.8 1188.4 1116.18 1154.48 1119.56 1128.35C1124.66 1088.84 1117.51 1026.79 1108.21 989.264C1100.16 956.755 1082.17 908.274 1058.56 881.483C1048.01 869.511 1024.55 855.066 1006.83 864.59C990.37 873.44 982.459 904.17 981.772 919.155C980.188 953.716 992.172 1000.01 1003.68 1030.96C1031.12 1104.72 1076.77 1191.1 1146.79 1233.29C1199.35 1264.97 1269.28 1264.74 1303.51 1206.13C1324.42 1170.34 1333.04 1110.09 1335.42 1071.24C1338.11 1027.18 1334.26 948.572 1325.71 904.585C1319.56 872.952 1305.01 824.516 1279.88 799.835C1263.38 783.631 1230.04 774.199 1207.54 781.613C1129.54 807.309 1120.49 926.861 1138.14 991.372C1159.95 1071.12 1242.28 1130.36 1324.18 1092.54C1359.57 1076.2 1389.5 1037.68 1407 1004.61C1443.22 936.123 1418.27 956.829 1445.42 886.36" stroke="#175F79" stroke-width="1.0241" stroke-linecap="round"/>
<path d="M910.462 1123.52C934.845 1070.63 935.917 1007.61 924.958 951.536C909.125 870.534 876.629 787.74 831.235 718.706C808.628 684.325 789.535 661.988 758.113 635.714C732.619 614.397 709.435 596.457 674.691 594.762C634.902 592.821 605.265 609.937 573.454 631.934C536.971 657.16 509.641 683.457 485.895 720.837C444.992 785.224 462.141 853.842 485.863 921.188C519.572 1016.89 567.424 1110.84 646.06 1177.53C718.158 1238.67 812.132 1274.06 907.178 1265.54C999.71 1257.24 1068.82 1203.6 1111.52 1122.46C1176.68 998.605 1162.19 856.351 1133.23 724.408C1116.28 647.147 1097.93 583.754 1061.32 514.326C1038.87 471.764 1018.04 441.288 975.404 418.879C889.76 373.866 785.33 417.782 720.481 478.831C630.627 563.417 602.853 686.331 586.827 803.718C573.676 900.05 561.559 1008.54 603.53 1099.95C637.66 1174.28 705.89 1245.27 782.818 1275.37C820.163 1289.98 847.2 1293.8 884.586 1277.63C924.669 1260.31 946.294 1231.72 967.453 1194.24C1013.51 1112.64 1032.64 1015.26 1041.3 923.012C1048.84 842.612 1055.69 726.512 997.794 659.535C963.067 619.358 912.39 626.213 875.377 658.489C819.051 707.606 779.638 790.328 768.606 863.326C752.815 967.824 792.972 1076.11 843.425 1165.71C862.36 1199.34 894.934 1245.21 925.48 1271.2C941.79 1285.08 978.873 1306.49 1002.93 1305.36C1032.16 1303.99 1057.51 1278.73 1072.21 1256.86C1094.43 1223.81 1115.77 1165.11 1124.23 1127.38C1131.56 1094.7 1137.14 1043.29 1128 1008.77C1123.91 993.347 1109.39 969.94 1089.28 970.539C1070.6 971.095 1049.78 995.047 1042.47 1008.14C1025.6 1038.35 1015.63 1085.12 1012.09 1117.95C1003.65 1196.2 1005.88 1293.87 1049.65 1362.92C1082.51 1414.74 1145.16 1445.8 1201.98 1408.68C1236.69 1386.01 1271.34 1335.97 1290.82 1302.28C1312.93 1264.07 1344.62 1192.03 1356.64 1148.86C1365.28 1117.82 1373.92 1067.99 1362.47 1034.68C1354.96 1012.8 1329.35 989.465 1305.91 986.037C1224.65 974.155 1163.11 1077.05 1150.06 1142.64C1133.92 1223.73 1181.08 1313.53 1271.25 1316.31C1310.22 1317.51 1354.2 1296.44 1384.64 1274.67C1447.66 1229.61 1416.08 1236.97 1471.87 1186.08" stroke="#175F79" stroke-width="1.0241"/>
<path d="M913.785 1121.63C936.935 1068.19 936.547 1005.16 924.291 949.357C906.586 868.743 872.18 786.724 825.199 718.76C801.801 684.913 782.196 663.024 750.174 637.485C724.193 616.764 700.599 599.367 665.825 598.477C626.002 597.458 596.77 615.256 565.476 637.984C529.588 664.049 502.875 690.972 480.001 728.892C440.601 794.21 459.335 862.412 484.611 929.19C520.529 1024.08 570.545 1116.9 650.705 1181.75C724.2 1241.21 818.969 1274.41 913.792 1263.68C1006.11 1253.24 1073.96 1198.02 1114.76 1115.91C1177.04 990.58 1159.26 848.7 1127.25 717.463C1108.51 640.616 1088.69 577.665 1050.48 509.104C1027.06 467.073 1005.53 437.089 962.383 415.674C875.718 372.657 772.334 418.981 708.916 481.516C621.047 568.161 596.128 691.686 582.827 809.413C571.911 906.023 562.311 1014.77 606.389 1105.18C642.232 1178.7 712.088 1248.09 789.693 1276.4C827.367 1290.14 854.485 1293.33 891.486 1276.3C931.157 1258.05 952.114 1228.97 972.398 1191.01C1016.55 1108.37 1033.43 1010.56 1039.94 918.144C1045.61 837.591 1049.77 721.364 990.343 655.746C954.694 616.385 904.189 624.412 867.934 657.536C812.761 707.946 775.275 791.559 765.938 864.793C752.572 969.628 795.227 1076.95 847.743 1165.36C867.452 1198.54 901.08 1243.65 932.22 1268.92C948.847 1282.42 986.416 1302.96 1010.44 1301.28C1039.63 1299.23 1064.38 1273.39 1078.58 1251.19C1100.03 1217.63 1120 1158.45 1127.59 1120.54C1134.15 1087.7 1138.54 1036.17 1128.6 1001.87C1124.16 986.546 1109.1 963.482 1089.01 964.547C1070.35 965.536 1050.09 989.964 1043.08 1003.23C1026.92 1033.82 1018.03 1080.81 1015.25 1113.71C1008.64 1192.13 1013.13 1289.72 1058.48 1357.74C1092.53 1408.79 1155.89 1438.38 1211.84 1399.96C1246 1376.49 1279.48 1325.66 1298.19 1291.53C1319.4 1252.82 1349.42 1180.06 1360.43 1136.63C1368.35 1105.39 1375.83 1055.37 1363.62 1022.34C1355.59 1000.64 1329.46 977.905 1305.94 975.021C1224.43 965.025 1165.29 1069.32 1153.76 1135.2C1139.5 1216.63 1188.73 1305.32 1278.94 1306.01C1317.93 1306.31 1361.41 1284.22 1391.34 1261.75C1453.29 1215.24 1421.9 1223.34 1476.49 1171.16" stroke="#175F79" stroke-width="1.0241"/>
<path d="M916.787 1119.67C938.693 1065.71 936.844 1002.7 923.299 947.2C903.731 867.019 867.434 785.819 818.89 718.962C794.715 685.666 774.608 664.237 742.002 639.447C715.548 619.334 691.557 602.488 656.773 602.404C616.937 602.308 588.125 620.778 557.366 644.225C522.092 671.115 496.009 698.65 474.021 737.089C436.144 803.303 456.453 871.053 483.27 937.227C521.377 1031.26 573.53 1122.89 655.171 1185.87C730.024 1243.61 825.537 1274.6 920.085 1261.69C1012.13 1249.11 1078.69 1192.33 1117.58 1109.3C1176.93 982.557 1155.87 841.126 1120.83 710.667C1100.31 634.275 1079.05 571.8 1039.26 504.143C1014.86 462.666 992.643 433.188 949.015 412.778C861.377 371.781 759.094 420.488 697.142 484.475C611.304 573.134 589.254 697.203 578.684 815.206C570.01 912.043 562.932 1020.98 609.092 1110.35C646.629 1183.02 718.075 1250.77 796.315 1277.27C834.297 1290.14 861.482 1292.7 898.078 1274.82C937.316 1255.65 957.593 1226.1 976.992 1187.67C1019.22 1104.03 1033.82 1005.86 1038.19 913.317C1042 832.654 1043.46 716.362 982.53 652.138C945.978 613.614 895.673 622.809 860.196 656.764C806.205 708.438 770.667 792.898 763.029 866.328C752.096 971.446 797.226 1077.75 851.777 1164.92C872.249 1197.64 906.913 1241.95 938.63 1266.5C955.565 1279.61 993.601 1299.27 1017.58 1297.03C1046.72 1294.31 1070.86 1267.9 1084.54 1245.38C1105.21 1211.33 1123.8 1151.7 1130.51 1113.62C1136.31 1080.64 1139.5 1029.03 1128.77 994.968C1123.98 979.749 1108.38 957.04 1088.33 958.57C1069.69 959.991 1050.01 984.882 1043.31 998.304C1027.86 1029.26 1020.06 1076.44 1018.05 1109.4C1013.25 1187.95 1020 1285.42 1066.92 1352.36C1102.14 1402.61 1166.16 1430.73 1221.21 1391.02C1254.82 1366.77 1287.12 1315.17 1305.02 1280.62C1325.33 1241.42 1353.65 1167.99 1363.66 1124.32C1370.85 1092.9 1377.18 1042.73 1364.2 1009.98C1355.67 988.481 1329.02 966.353 1305.44 964.015C1223.72 955.91 1167.01 1061.55 1157.01 1127.67C1144.65 1209.42 1195.92 1296.94 1286.12 1295.54C1325.1 1294.94 1368.06 1271.85 1397.46 1248.69C1458.32 1200.76 1427.12 1209.58 1480.49 1156.15" stroke="#175F79" stroke-width="1.0241"/>
<path d="M919.468 1117.65C940.118 1063.2 936.81 1000.25 921.982 945.076C900.562 865.369 862.393 785.032 812.313 719.318C787.373 686.59 766.775 665.633 733.604 641.606C706.691 622.111 682.316 605.825 647.538 606.547C607.711 607.374 579.334 626.507 549.127 650.661C514.485 678.36 489.048 706.492 467.956 745.431C431.624 812.504 453.497 879.765 481.84 945.3C522.115 1038.43 576.378 1128.83 659.456 1189.89C735.627 1245.88 831.832 1274.66 926.056 1259.55C1017.79 1244.85 1083.01 1186.54 1119.96 1102.63C1176.37 974.546 1152.03 833.641 1113.98 704.029C1091.7 628.132 1068.99 566.167 1027.64 499.45C1002.3 458.549 979.398 429.594 935.308 410.201C846.744 371.245 745.617 422.31 685.165 487.715C601.403 578.338 582.234 702.885 574.401 821.102C567.973 918.114 563.421 1027.19 611.64 1115.46C650.85 1187.24 723.847 1253.32 802.68 1278C840.95 1289.98 868.187 1291.91 904.359 1273.19C943.142 1253.12 962.73 1223.1 981.233 1184.24C1021.51 1099.64 1033.84 1001.16 1036.06 908.539C1038 827.81 1036.77 711.515 974.36 648.72C936.926 611.053 886.848 621.411 852.167 656.18C799.388 709.091 765.816 794.351 759.882 867.939C751.387 973.281 798.968 1078.52 855.524 1164.4C876.749 1196.63 912.43 1240.12 944.708 1263.93C961.942 1276.64 1000.42 1295.43 1024.35 1292.63C1053.41 1289.23 1076.94 1262.27 1090.08 1239.44C1109.96 1204.91 1127.17 1144.88 1132.99 1106.65C1138.03 1073.54 1140.03 1021.87 1128.51 988.07C1123.36 972.965 1107.25 950.624 1087.23 952.618C1068.63 954.471 1049.53 979.811 1043.14 993.385C1028.42 1024.69 1021.71 1072.04 1020.46 1105.04C1017.48 1183.68 1026.49 1280.96 1074.95 1346.8C1111.33 1396.22 1175.99 1422.85 1230.09 1381.87C1263.14 1356.85 1294.23 1304.52 1311.33 1269.56C1330.72 1229.9 1357.34 1155.84 1366.33 1111.94C1372.79 1080.37 1377.95 1030.06 1364.22 997.623C1355.2 976.327 1328.04 954.823 1304.41 953.032C1222.52 946.823 1168.28 1053.74 1159.81 1120.09C1149.35 1202.1 1202.63 1288.4 1292.78 1284.92C1331.73 1283.41 1374.15 1259.33 1403 1235.5C1462.74 1186.17 1431.75 1195.71 1483.87 1141.06" stroke="#175F79" stroke-width="1.0241"/>
<path d="M921.826 1115.58C941.209 1060.66 936.443 997.806 920.341 942.99C897.079 863.802 857.059 784.371 805.471 719.834C779.778 687.694 758.7 667.22 724.982 643.967C697.624 625.101 672.878 609.384 638.127 610.912C598.329 612.661 570.404 632.447 540.765 657.294C506.774 685.789 481.995 714.502 461.811 753.919C427.043 821.816 450.469 888.553 480.322 953.413C522.745 1045.58 579.087 1134.7 663.558 1193.83C741.006 1248.04 837.852 1274.57 931.701 1257.29C1023.07 1240.46 1086.92 1180.66 1121.92 1095.91C1175.34 966.558 1147.75 826.256 1106.7 697.56C1082.67 622.2 1058.53 560.777 1015.65 495.036C989.359 454.734 965.797 426.317 921.271 407.951C831.827 371.057 731.911 424.451 672.99 491.24C591.351 583.779 575.072 708.737 569.981 827.103C565.802 924.238 563.779 1033.39 614.03 1120.52C654.893 1191.37 729.401 1255.74 808.785 1278.59C847.322 1289.68 874.596 1290.98 910.325 1271.43C948.633 1250.46 967.519 1220 985.118 1180.72C1023.43 1095.21 1033.46 996.47 1033.54 903.82C1033.61 823.068 1029.68 706.833 965.839 645.501C927.542 608.711 877.717 620.227 843.85 655.79C792.312 709.91 760.724 795.925 756.497 869.63C750.445 975.141 800.452 1079.24 858.982 1163.79C880.948 1195.52 917.628 1238.18 950.449 1261.24C967.973 1273.54 1006.88 1291.43 1030.73 1288.08C1059.71 1284.01 1082.6 1256.51 1095.22 1233.38C1114.29 1198.4 1130.1 1137.98 1135.03 1099.64C1139.31 1066.42 1140.1 1014.71 1127.81 981.188C1122.31 966.207 1105.68 944.245 1085.72 946.702C1067.17 948.986 1048.66 974.761 1042.59 988.479C1028.59 1020.12 1022.99 1067.61 1022.5 1100.63C1021.34 1179.32 1032.61 1276.36 1082.58 1341.06C1120.09 1389.63 1185.35 1414.75 1238.49 1372.53C1270.95 1346.75 1300.81 1293.71 1317.1 1258.36C1335.57 1218.27 1360.46 1143.61 1368.43 1099.51C1374.16 1067.8 1378.16 1017.39 1363.67 985.277C1354.17 964.196 1326.51 943.327 1302.85 942.083C1220.84 937.773 1169.09 1045.92 1162.16 1112.44C1153.6 1194.67 1208.87 1279.72 1298.91 1274.15C1337.82 1271.74 1379.67 1246.68 1407.96 1222.19C1466.54 1171.49 1435.78 1181.75 1486.62 1125.9" stroke="#175F79" stroke-width="1.0241"/>
<path d="M923.861 1113.46C941.965 1058.11 935.745 995.383 918.377 940.955C893.287 862.327 851.437 783.844 798.367 720.521C771.937 688.984 750.39 669.004 716.141 646.539C688.354 628.311 663.251 613.172 628.544 615.505C588.798 618.176 561.338 638.603 532.283 664.13C498.961 693.405 474.854 722.685 455.589 762.559C422.404 831.244 447.369 897.419 478.718 961.571C523.264 1052.73 581.656 1140.52 667.474 1197.67C746.157 1250.07 843.593 1274.36 937.016 1254.9C1027.97 1235.97 1090.42 1174.7 1123.44 1089.16C1173.85 958.609 1143.02 818.983 1099 691.273C1073.23 616.49 1047.67 555.643 1003.28 490.913C976.064 451.231 951.85 423.368 906.909 406.038C816.635 371.227 717.982 426.922 660.625 495.057C581.152 589.464 567.773 714.765 565.425 833.217C563.499 930.423 564.005 1039.59 616.261 1125.53C658.755 1195.42 734.735 1258.05 814.627 1279.05C853.41 1289.25 880.707 1289.91 915.974 1269.53C953.785 1247.69 971.961 1216.8 988.644 1177.12C1024.96 1090.75 1032.71 991.8 1030.64 899.173C1028.83 818.441 1022.22 702.328 956.969 642.492C917.83 606.599 868.285 619.267 835.252 655.604C784.981 710.904 755.395 797.628 752.877 871.411C749.272 977.034 801.677 1079.95 862.15 1163.12C884.846 1194.33 922.504 1236.13 955.85 1258.42C973.655 1270.32 1012.96 1287.3 1036.73 1283.39C1065.61 1278.65 1087.86 1250.63 1099.94 1227.21C1118.19 1191.81 1132.6 1131.04 1136.64 1092.58C1140.14 1059.28 1139.74 1007.57 1126.67 974.335C1120.83 959.486 1103.7 937.915 1083.8 940.835C1065.3 943.547 1047.4 969.745 1041.65 983.6C1028.38 1015.55 1023.88 1063.16 1024.16 1096.18C1024.83 1174.88 1038.34 1271.64 1089.79 1335.16C1128.42 1382.84 1194.24 1406.45 1246.39 1363.01C1278.24 1336.48 1306.87 1282.77 1322.34 1247.05C1339.87 1206.54 1363.03 1131.32 1369.97 1087.05C1374.97 1055.22 1377.79 1004.72 1362.57 972.959C1352.58 952.103 1324.45 931.881 1300.77 931.186C1218.68 928.777 1169.45 1038.1 1164.06 1104.76C1157.41 1187.17 1214.63 1270.91 1304.52 1263.25C1343.36 1259.94 1384.62 1233.92 1412.33 1208.78C1469.72 1156.74 1439.21 1167.7 1488.74 1110.7" stroke="#175F79" stroke-width="1.0241"/>
<path d="M925.57 1111.31C942.388 1055.55 934.715 992.983 916.091 938.972C889.185 860.946 845.528 783.454 791.005 721.377C763.851 690.461 741.848 670.986 707.088 649.32C678.886 631.742 653.438 617.188 618.795 620.325C579.121 623.916 552.142 644.974 523.686 671.167C491.052 701.206 467.63 731.037 449.294 771.347C417.709 840.782 444.201 906.361 477.027 969.769C523.674 1059.87 584.084 1146.28 671.204 1201.43C751.08 1252 849.052 1274.02 941.999 1252.41C1032.49 1231.36 1093.5 1168.67 1124.54 1082.39C1171.91 950.701 1137.84 811.827 1090.88 685.171C1063.38 611.006 1036.42 550.768 990.542 487.084C962.415 448.042 937.562 420.748 892.232 404.464C801.175 371.754 703.84 429.719 648.076 499.166C570.812 595.388 560.34 720.966 560.738 839.441C561.064 936.665 564.099 1045.79 618.333 1130.5C662.435 1199.38 739.845 1260.23 820.202 1279.38C859.212 1288.68 886.517 1288.71 921.302 1267.52C958.597 1244.8 976.052 1213.5 991.811 1173.44C1026.12 1086.25 1031.57 987.154 1027.35 894.6C1023.68 813.931 1014.37 698.002 947.757 639.694C907.797 604.718 858.559 618.53 826.377 655.624C777.4 712.073 749.832 799.459 749.024 873.281C747.867 978.959 802.643 1080.63 865.027 1162.38C888.44 1193.06 927.056 1233.97 960.91 1255.48C978.985 1266.96 1018.68 1283.03 1042.35 1278.58C1071.11 1273.17 1092.7 1244.64 1104.23 1220.95C1121.66 1185.13 1134.66 1124.04 1137.81 1085.5C1140.54 1052.12 1138.94 1000.44 1125.1 967.517C1118.92 952.806 1101.29 931.639 1081.46 935.018C1063.04 938.159 1045.74 964.764 1040.32 978.749C1027.8 1011 1024.4 1058.7 1025.44 1091.71C1027.93 1170.37 1043.68 1266.79 1096.59 1329.1C1136.31 1375.88 1202.67 1397.95 1253.8 1353.31C1285.03 1326.05 1312.4 1271.69 1327.03 1235.63C1343.63 1194.72 1365.04 1118.99 1370.95 1074.57C1375.21 1042.62 1376.86 992.08 1360.91 960.675C1350.43 940.056 1321.84 920.491 1298.15 920.345C1216.03 919.839 1169.34 1030.27 1165.5 1097.04C1160.76 1179.58 1219.91 1261.97 1309.59 1252.24C1348.35 1248.03 1388.99 1221.06 1416.12 1195.28C1472.28 1141.92 1442.03 1153.59 1490.23 1095.45" stroke="#175F79" stroke-width="1.0241"/>
<path d="M926.954 1109.12C942.475 1052.99 933.355 990.617 913.484 937.052C884.778 859.67 839.337 783.211 783.39 722.414C755.528 692.135 733.078 673.175 697.826 652.32C669.224 635.4 643.446 621.44 608.885 625.378C569.305 629.888 542.821 651.566 514.98 678.411C483.05 709.198 460.326 739.564 442.928 780.287C412.961 850.435 440.965 915.384 475.252 978.014C523.974 1067.01 586.37 1152 674.744 1205.12C755.77 1253.82 854.226 1273.56 946.648 1249.8C1036.63 1226.67 1096.17 1162.58 1125.2 1075.6C1169.5 942.851 1132.23 804.803 1082.35 679.269C1053.14 605.761 1024.79 546.163 977.445 483.56C948.421 445.181 922.942 418.469 877.247 403.24C785.457 372.649 689.49 432.854 635.351 503.574C560.337 601.56 552.778 727.347 555.92 845.781C558.499 942.972 564.062 1052 620.244 1135.43C665.93 1203.27 744.729 1262.31 825.509 1279.59C864.723 1287.98 892.022 1287.38 926.306 1265.39C963.065 1241.81 979.79 1210.11 994.617 1169.71C1026.89 1081.74 1030.05 982.545 1023.69 890.114C1018.15 809.552 1006.16 693.87 938.208 637.121C897.448 603.08 848.543 618.029 817.229 655.858C769.574 713.427 744.037 801.429 744.94 875.25C746.232 980.926 803.349 1081.3 867.611 1161.58C891.728 1191.71 931.282 1231.72 965.625 1252.44C983.961 1263.5 1024.02 1278.64 1047.58 1273.64C1076.2 1267.57 1097.13 1238.55 1108.11 1214.59C1124.71 1178.38 1136.28 1117 1138.54 1078.41C1140.49 1044.97 1137.7 993.336 1123.1 960.746C1116.58 946.183 1098.47 925.429 1078.72 929.268C1060.37 932.834 1043.7 959.833 1038.6 973.94C1026.83 1006.47 1024.54 1054.24 1026.35 1087.21C1030.66 1165.79 1048.63 1261.82 1102.98 1322.89C1143.77 1368.74 1210.62 1389.26 1260.7 1343.46C1291.29 1315.48 1317.4 1260.5 1331.19 1224.1C1346.83 1182.83 1366.48 1106.62 1371.37 1062.07C1374.88 1030.04 1375.36 979.469 1358.68 948.442C1347.73 928.072 1318.7 909.174 1295.01 909.577C1212.9 910.974 1168.78 1022.46 1166.49 1089.3C1163.66 1171.92 1224.71 1252.93 1314.14 1241.11C1352.79 1236.01 1392.8 1208.11 1419.32 1181.71C1474.23 1127.06 1444.26 1139.43 1491.1 1080.19" stroke="#175F79" stroke-width="1.0241"/>
<path d="M928.012 1106.91C942.228 1050.43 931.665 988.291 910.558 935.201C880.067 858.505 832.867 783.12 775.526 723.635C746.969 694.01 724.087 675.575 688.361 655.543C659.374 639.29 633.28 625.931 598.82 630.669C559.355 636.095 533.38 658.38 506.168 685.863C474.96 717.382 452.946 748.266 436.496 789.382C408.162 860.205 437.664 924.487 473.393 986.306C524.164 1074.15 588.513 1157.67 678.094 1208.73C760.227 1255.54 859.113 1272.99 950.959 1247.1C1040.38 1221.89 1098.42 1156.43 1125.43 1068.81C1166.64 935.066 1126.18 797.92 1073.4 673.575C1042.5 600.764 1012.78 541.839 963.994 480.349C934.089 442.652 907.998 416.539 861.962 402.372C769.488 373.916 674.942 436.329 622.456 508.284C549.733 607.982 545.09 733.91 550.976 852.24C555.806 949.345 563.894 1058.21 621.994 1140.32C669.239 1207.08 749.385 1264.28 830.543 1279.69C869.942 1287.17 897.219 1285.93 930.984 1263.15C967.187 1238.73 983.173 1206.65 997.06 1165.91C1027.29 1077.23 1028.15 977.981 1019.65 885.722C1012.24 805.31 997.572 689.937 928.326 634.778C886.788 601.69 838.243 617.769 807.813 656.313C761.505 714.971 738.015 803.541 740.627 877.321C744.368 982.939 803.795 1081.97 869.899 1160.74C894.708 1190.3 935.178 1229.38 969.992 1249.29C988.58 1259.93 1028.97 1274.13 1052.42 1268.59C1080.89 1261.86 1101.14 1232.36 1111.56 1208.16C1127.31 1171.57 1137.47 1109.94 1138.83 1071.3C1140.01 1037.83 1136.02 986.275 1120.67 954.032C1113.81 939.624 1095.22 919.296 1075.57 923.591C1057.31 927.581 1041.27 954.959 1036.49 969.18C1025.48 1001.98 1024.3 1049.79 1026.87 1082.71C1033 1161.16 1053.2 1256.75 1108.94 1316.55C1150.79 1361.43 1218.09 1380.41 1267.1 1333.45C1297.03 1304.78 1321.86 1249.2 1334.8 1212.5C1349.49 1170.87 1367.36 1094.22 1371.21 1049.58C1373.98 1017.47 1373.29 966.905 1355.9 936.273C1344.48 916.162 1315.02 897.942 1291.34 898.894C1209.29 902.193 1167.77 1014.67 1167.03 1081.54C1166.11 1164.21 1229.02 1243.78 1318.15 1229.9C1356.67 1223.9 1396.02 1195.08 1421.93 1168.07C1475.56 1112.16 1445.88 1125.22 1491.33 1064.92" stroke="#175F79" stroke-width="1.0241"/>
<path d="M928.742 1104.69C941.646 1047.89 929.646 986.013 907.315 933.427C875.055 857.458 826.121 783.186 767.417 725.046C738.182 696.091 714.878 678.191 678.697 658.992C649.342 643.415 622.946 630.664 588.604 636.199C549.275 642.538 523.824 665.419 497.256 693.525C466.787 725.759 445.494 757.145 430.002 798.63C403.316 870.092 434.3 933.672 471.451 994.647C524.244 1081.29 590.511 1163.3 681.251 1212.26C764.446 1257.16 863.711 1272.32 954.932 1244.3C1043.74 1217.03 1100.25 1150.25 1125.22 1062.02C1163.33 927.358 1119.7 791.186 1064.05 668.098C1031.47 596.022 1000.39 537.801 950.198 477.458C919.427 440.465 892.738 414.963 846.386 401.867C753.277 375.561 660.204 440.147 609.399 513.299C539.005 614.656 537.281 740.657 545.907 858.819C552.986 955.786 563.594 1064.44 623.58 1145.17C672.36 1210.83 753.81 1266.16 835.303 1279.67C874.864 1286.24 902.106 1284.37 935.335 1260.82C970.962 1235.56 986.2 1203.12 999.139 1162.07C1027.31 1072.71 1025.86 973.471 1015.23 881.433C1005.96 801.214 988.622 686.212 918.117 632.672C875.824 600.556 827.664 617.755 798.136 656.994C753.199 716.709 731.767 805.799 736.089 879.499C742.275 985.002 803.981 1082.63 871.893 1159.84C897.38 1188.82 938.745 1226.95 974.011 1246.06C992.84 1256.26 1033.55 1269.53 1056.86 1263.44C1085.17 1256.05 1104.73 1226.09 1114.59 1201.65C1129.49 1164.71 1138.21 1102.86 1138.68 1064.2C1139.08 1030.71 1133.9 979.263 1117.81 947.384C1110.62 933.139 1091.56 913.247 1072.01 917.996C1053.85 922.408 1038.45 950.151 1034 964.478C1023.76 997.523 1023.68 1045.35 1027.01 1078.2C1034.96 1156.49 1057.37 1251.59 1114.48 1310.07C1157.35 1353.98 1225.08 1371.39 1272.99 1323.31C1302.25 1293.95 1325.78 1237.81 1337.87 1200.82C1351.58 1158.86 1367.68 1081.82 1370.5 1037.1C1372.52 1004.94 1370.66 954.4 1352.56 924.18C1340.68 904.338 1310.8 886.806 1287.16 888.306C1205.2 893.506 1166.3 1006.91 1167.11 1073.79C1168.11 1156.46 1232.84 1234.55 1321.63 1218.6C1360 1211.71 1398.67 1181.98 1423.94 1154.39C1476.26 1097.25 1446.9 1111 1490.94 1049.65" stroke="#175F79" stroke-width="1.0241"/>
<path d="M929.15 1102.46C940.734 1045.38 927.304 983.792 903.761 931.737C869.749 856.536 819.107 783.418 759.072 726.654C729.173 698.384 705.461 681.029 668.845 662.673C639.137 647.781 612.452 635.645 578.248 641.974C539.077 649.222 514.163 672.687 488.253 701.402C458.539 734.332 437.979 766.203 423.452 808.037C398.429 880.097 430.878 942.943 469.432 1003.04C524.218 1088.44 592.367 1168.89 684.217 1215.74C768.431 1258.69 868.02 1271.55 958.568 1241.43C1046.72 1212.1 1101.67 1144.03 1124.59 1055.25C1159.57 919.738 1112.79 784.613 1054.31 662.848C1020.06 591.546 987.645 534.061 936.067 474.897C904.447 438.627 877.174 413.75 830.532 401.732C736.838 377.59 645.286 444.316 596.189 518.625C528.163 621.586 529.359 747.593 540.721 865.524C550.044 962.3 563.167 1070.68 625.008 1150C675.296 1214.51 758.006 1267.93 839.791 1279.56C879.493 1285.2 906.684 1282.71 939.358 1258.39C974.391 1232.32 988.873 1199.53 1000.86 1158.19C1026.95 1068.2 1023.2 969.023 1010.44 877.257C999.314 797.275 979.318 682.705 907.591 630.813C864.565 599.685 816.817 617.996 788.206 657.908C744.664 718.649 725.302 808.211 731.33 881.792C739.96 987.123 803.911 1083.29 873.594 1158.91C899.746 1187.29 941.983 1224.46 977.682 1242.74C996.743 1252.5 1037.75 1264.82 1060.91 1258.2C1089.04 1250.15 1107.91 1219.75 1117.19 1195.09C1131.23 1157.81 1138.52 1095.78 1138.09 1057.12C1137.72 1023.63 1131.34 972.311 1114.52 940.814C1107 926.739 1087.49 907.294 1068.06 912.494C1050 917.327 1035.24 945.418 1031.13 959.845C1021.65 993.118 1022.69 1040.93 1026.78 1073.7C1036.54 1151.79 1061.14 1246.34 1119.6 1303.48C1163.48 1346.38 1231.59 1362.22 1278.37 1313.04C1306.94 1283.01 1329.17 1226.34 1340.4 1189.08C1353.13 1146.82 1367.44 1069.43 1369.22 1024.65C1370.5 992.451 1367.47 941.969 1348.68 912.176C1336.34 892.615 1306.06 875.78 1282.46 877.828C1200.64 884.925 1164.38 999.202 1166.73 1066.04C1169.65 1148.66 1236.17 1225.23 1324.57 1207.23C1362.77 1199.46 1400.74 1168.84 1425.37 1140.67C1476.35 1082.33 1447.31 1096.76 1489.92 1034.41" stroke="#175F79" stroke-width="1.0241"/>
<path d="M929.223 1100.22C939.481 1042.89 924.628 981.636 899.884 930.14C864.139 855.748 811.817 783.822 750.483 728.464C719.937 700.895 695.83 684.094 658.798 666.591C628.753 652.391 601.794 640.877 567.746 647.997C528.753 656.151 504.389 680.187 479.152 709.494C450.209 743.104 430.392 775.443 416.839 817.602C393.493 890.222 427.388 952.3 467.325 1011.49C524.075 1095.59 594.07 1174.44 686.981 1219.15C772.167 1260.14 872.027 1270.69 961.852 1238.48C1049.3 1207.12 1102.66 1137.79 1123.51 1048.5C1155.34 912.217 1105.45 778.213 1044.16 657.835C1008.27 587.346 974.532 530.628 921.597 472.674C889.145 437.147 861.303 412.908 814.395 401.974C720.167 380.009 630.185 448.839 582.824 524.266C517.202 628.775 521.317 754.721 535.408 872.356C546.971 968.891 562.602 1076.93 626.264 1154.81C678.033 1218.13 761.959 1269.62 843.991 1279.35C883.814 1284.08 910.939 1280.95 943.041 1255.88C977.46 1229.01 991.179 1195.89 1002.2 1154.29C1026.2 1063.71 1020.16 964.649 1005.27 873.203C992.297 793.5 969.651 679.424 896.741 629.208C853.006 599.086 805.695 618.498 778.016 659.062C735.894 720.795 718.612 810.783 726.343 884.203C737.411 989.306 803.573 1083.97 874.99 1157.95C901.792 1185.72 944.879 1221.89 980.992 1239.35C1000.27 1248.66 1041.56 1260.03 1064.56 1252.87C1092.49 1244.18 1110.65 1213.34 1119.36 1188.47C1132.53 1150.88 1138.38 1088.7 1137.06 1050.06C1135.91 1016.58 1128.35 965.43 1110.8 934.331C1102.95 920.434 1083 901.446 1063.69 907.096C1045.75 912.345 1031.65 940.771 1027.87 955.289C1019.17 988.773 1021.31 1036.55 1026.16 1069.21C1037.73 1147.05 1064.51 1241.01 1124.28 1296.79C1169.14 1338.66 1237.6 1352.91 1283.23 1302.66C1311.09 1271.98 1332 1214.81 1342.37 1177.3C1354.12 1134.75 1366.63 1057.05 1367.37 1012.24C1367.91 980.023 1363.71 929.625 1344.23 900.275C1331.44 881.006 1300.78 864.877 1277.23 867.471C1195.6 876.461 1161.99 991.549 1165.9 1058.32C1170.73 1140.85 1239.01 1215.85 1326.96 1195.81C1364.97 1187.15 1402.23 1155.67 1426.19 1126.93C1475.81 1067.43 1447.11 1082.52 1488.27 1019.2" stroke="#175F79" stroke-width="1.0241"/>
<path d="M928.972 1098C937.9 1040.45 921.631 979.548 895.701 928.64C858.242 855.096 804.267 784.402 741.667 730.48C710.491 703.626 686 687.388 648.573 670.748C618.207 657.248 590.988 646.362 557.114 654.268C518.321 663.324 494.521 687.917 469.969 717.801C441.812 752.073 422.751 784.862 410.178 827.324C388.52 900.466 423.845 961.741 465.143 1019.99C523.826 1102.76 595.629 1179.96 689.551 1222.51C775.664 1261.51 875.742 1269.74 964.797 1235.46C1051.5 1202.08 1103.23 1131.53 1122.01 1041.79C1150.67 904.803 1097.69 771.99 1033.63 653.065C996.118 583.426 961.072 527.505 906.808 470.794C873.542 436.028 845.146 412.441 797.997 402.596C703.285 382.821 614.923 453.717 569.322 530.221C506.138 636.223 513.171 762.039 529.983 879.317C543.781 975.557 561.91 1083.21 627.36 1159.58C680.582 1221.69 765.679 1271.23 847.914 1279.05C887.835 1282.85 914.881 1279.1 946.394 1253.29C980.181 1225.63 993.129 1192.21 1003.19 1150.36C1025.08 1059.25 1016.74 960.353 999.741 869.276C984.923 789.895 959.64 676.375 885.586 627.862C841.164 598.761 794.316 619.263 767.584 660.459C726.904 723.151 711.712 813.515 721.142 886.736C734.642 991.555 802.98 1084.66 876.091 1156.97C903.53 1184.11 947.443 1219.27 983.951 1235.88C1003.44 1244.75 1044.98 1255.16 1067.81 1247.47C1095.54 1238.13 1112.97 1206.88 1121.11 1181.82C1133.4 1143.93 1137.81 1081.63 1135.59 1043.03C1133.67 1009.59 1124.92 958.627 1106.65 927.943C1098.49 914.231 1078.1 895.711 1058.93 901.806C1041.12 907.47 1027.68 936.215 1024.24 950.817C1016.31 984.493 1019.56 1032.21 1025.17 1064.75C1038.53 1142.3 1067.49 1235.61 1128.53 1289.99C1174.35 1330.81 1243.12 1343.47 1287.57 1292.18C1314.72 1260.86 1334.3 1203.22 1343.79 1165.48C1354.56 1122.67 1365.26 1044.7 1364.97 999.89C1364.75 967.665 1359.39 917.378 1339.23 888.488C1326 869.52 1294.97 854.106 1271.49 857.244C1190.09 868.124 1159.16 983.959 1164.61 1050.62C1171.35 1133.02 1241.35 1206.42 1328.82 1184.35C1366.62 1174.81 1403.13 1142.47 1426.43 1113.18C1474.65 1052.55 1446.31 1068.3 1485.99 1004.04" stroke="#175F79" stroke-width="1.0241"/>
<path d="M928.396 1095.79C935.987 1038.05 918.311 977.541 891.209 927.247C852.056 854.59 796.457 785.166 732.625 732.709C700.834 706.584 675.974 690.918 638.172 675.15C607.501 662.357 580.037 652.104 546.356 660.794C507.782 670.746 484.558 695.884 460.706 726.329C433.351 761.244 415.054 794.466 403.468 837.208C383.511 910.832 420.247 971.272 462.883 1028.55C523.468 1109.93 597.041 1185.46 691.923 1225.81C778.917 1262.81 879.159 1268.72 967.395 1232.38C1053.3 1197 1103.39 1125.28 1120.08 1035.12C1145.56 897.508 1089.52 765.959 1022.72 648.549C983.6 579.799 947.267 524.705 891.704 469.266C857.642 435.28 828.707 412.358 781.342 403.608C686.198 386.033 599.502 458.957 555.686 536.497C494.975 643.934 504.921 769.554 524.447 886.41C540.47 982.306 561.089 1089.51 628.291 1164.35C682.938 1225.2 769.159 1272.76 851.554 1278.67C891.552 1281.55 918.504 1277.17 949.41 1250.64C982.547 1222.2 994.718 1188.48 1003.8 1146.41C1023.58 1054.83 1012.95 956.146 993.846 865.488C977.192 786.472 949.286 673.568 874.127 626.784C829.043 598.72 782.682 620.302 756.913 662.106C717.696 725.724 704.602 816.415 715.726 889.399C731.651 993.877 802.128 1085.37 876.895 1155.97C904.955 1182.46 949.671 1216.6 986.554 1232.36C1006.25 1240.78 1048.01 1250.22 1070.66 1242C1098.16 1232.02 1114.87 1200.38 1122.42 1175.14C1133.84 1136.97 1136.8 1074.59 1133.68 1036.05C1130.99 1002.66 1121.06 951.915 1102.09 921.662C1093.61 908.143 1072.8 890.1 1053.77 896.638C1036.09 902.713 1023.32 931.762 1020.23 946.439C1013.08 980.29 1017.43 1027.91 1023.79 1060.32C1038.95 1137.54 1070.06 1230.15 1132.35 1283.1C1179.1 1322.85 1248.15 1333.92 1291.4 1281.61C1317.81 1249.67 1336.05 1191.59 1344.67 1153.64C1354.44 1110.59 1363.33 1032.39 1362 987.605C1361.04 955.393 1354.51 905.244 1333.69 876.829C1320.02 858.172 1288.65 843.481 1265.24 847.163C1184.12 859.926 1155.88 976.446 1162.88 1042.96C1171.52 1125.18 1243.2 1196.94 1330.14 1172.85C1367.71 1162.44 1403.46 1129.26 1426.07 1099.44C1472.88 1037.71 1444.91 1054.11 1483.09 988.952" stroke="#175F79" stroke-width="1.0241"/>
<path d="M927.492 1093.6C933.744 1035.7 914.671 975.618 886.41 925.966C845.584 854.236 788.392 786.118 723.361 735.155C690.974 709.773 665.758 694.687 627.6 679.8C596.641 667.721 568.947 658.107 535.476 667.575C497.143 678.417 474.508 704.087 451.368 735.077C424.829 770.616 407.307 804.253 396.714 847.252C378.469 921.319 416.595 980.892 460.546 1037.16C523.001 1117.12 598.304 1190.92 694.096 1229.07C781.923 1264.04 882.275 1267.63 969.646 1229.25C1054.71 1191.89 1103.12 1119.03 1117.72 1028.5C1140.01 890.342 1080.93 760.126 1011.43 644.296C970.726 576.47 933.127 522.233 876.294 468.097C841.453 434.909 811.995 412.663 764.44 405.013C668.914 389.647 583.931 464.56 541.923 543.095C483.719 651.91 496.572 777.266 518.8 893.638C537.041 989.136 560.139 1095.83 629.057 1169.09C685.099 1228.67 772.399 1274.21 854.909 1278.22C894.963 1280.16 921.806 1275.16 952.089 1247.92C984.558 1218.72 995.944 1184.74 1004.05 1142.46C1021.7 1050.44 1008.79 952.037 987.589 861.846C969.109 783.236 938.594 671.009 862.372 625.979C816.649 598.967 770.801 621.618 746.007 664.008C708.274 728.517 697.285 819.488 710.098 892.194C728.439 996.274 801.017 1086.11 877.4 1154.96C906.066 1180.8 951.562 1213.89 988.8 1228.79C1008.68 1236.75 1050.66 1245.22 1073.1 1236.48C1100.37 1225.86 1116.34 1193.84 1123.3 1168.43C1133.83 1130.01 1135.35 1067.58 1131.34 1029.12C1127.87 995.807 1116.77 945.301 1097.1 915.496C1088.31 902.178 1067.09 884.622 1048.22 891.599C1030.69 898.081 1018.59 927.418 1015.84 942.164C1009.48 976.171 1014.93 1023.68 1022.04 1055.93C1038.99 1132.78 1072.24 1224.65 1135.73 1276.14C1183.39 1314.79 1252.67 1324.25 1294.7 1270.96C1320.37 1238.41 1337.26 1179.93 1344.99 1141.79C1353.76 1098.53 1360.84 1020.15 1358.47 975.399C1356.77 943.218 1349.08 893.234 1327.61 865.309C1313.51 846.974 1281.8 833.014 1258.49 837.237C1177.68 851.876 1152.15 969.019 1160.69 1035.35C1171.24 1117.35 1244.56 1187.43 1330.91 1161.33C1368.23 1150.05 1403.2 1116.05 1425.12 1085.72C1470.48 1022.92 1442.9 1039.97 1479.56 973.941" stroke="#175F79" stroke-width="1.0241"/>
<path d="M926.263 1091.45C931.171 1033.41 910.712 973.791 881.308 924.807C838.831 854.042 780.076 787.268 713.882 737.825C680.915 713.201 655.356 698.703 616.863 684.703C585.633 673.345 557.724 664.376 524.481 674.616C486.41 686.344 464.376 712.532 441.959 744.049C416.251 780.194 399.513 814.228 389.92 857.46C373.395 931.93 412.891 990.604 458.135 1045.84C522.426 1124.33 599.418 1196.37 696.068 1232.28C784.683 1265.21 885.091 1266.47 971.549 1226.08C1055.72 1186.76 1102.43 1112.79 1114.93 1021.96C1134.01 883.316 1071.93 754.504 999.763 640.316C957.503 573.451 918.657 520.1 860.586 467.295C824.985 434.923 795.019 413.366 747.3 406.82C651.444 393.671 568.219 470.533 528.042 550.02C472.375 660.155 488.129 785.179 513.048 901.005C533.497 996.055 559.06 1102.19 629.657 1173.83C687.065 1232.09 775.396 1275.6 857.977 1277.69C898.065 1278.71 924.785 1273.09 954.429 1245.16C986.213 1215.21 996.808 1180.97 1003.93 1138.52C1019.44 1046.12 1004.26 948.035 980.974 858.36C960.677 780.199 927.57 668.709 850.325 625.457C803.989 599.512 758.678 623.22 734.873 666.172C698.645 731.539 689.767 822.739 704.26 895.129C725.008 998.757 799.648 1086.89 877.606 1153.95C906.863 1179.11 953.113 1211.14 990.687 1225.18C1010.75 1232.67 1052.91 1240.17 1075.14 1230.91C1102.16 1219.67 1117.38 1187.29 1123.76 1161.72C1133.39 1123.07 1133.46 1060.61 1128.56 1022.26C1124.32 989.035 1112.06 938.8 1091.7 909.458C1082.61 896.347 1060.98 879.287 1042.28 886.7C1024.9 893.587 1013.49 923.196 1011.08 938.002C1005.51 972.147 1012.06 1019.52 1019.92 1051.59C1038.64 1128.03 1074 1219.1 1138.67 1269.11C1187.22 1306.65 1256.7 1314.5 1297.48 1260.25C1322.39 1227.12 1337.92 1168.26 1344.77 1129.95C1352.53 1086.5 1357.8 1007.97 1354.39 963.289C1351.94 931.156 1343.09 881.364 1320.98 853.943C1306.46 835.94 1274.44 822.718 1251.23 827.48C1170.79 843.988 1147.98 961.692 1158.04 1027.81C1170.49 1109.54 1245.42 1177.91 1331.14 1149.81C1368.19 1137.67 1402.37 1102.87 1423.57 1072.04C1467.47 1008.2 1440.29 1025.88 1475.41 959.025" stroke="#175F79" stroke-width="1.0241"/>
<path d="M924.709 1089.32C928.272 1031.19 906.436 972.063 875.905 923.773C831.8 854.011 771.513 788.617 704.191 740.72C670.663 716.867 644.775 702.965 605.968 689.861C574.483 679.229 546.374 670.909 513.377 681.917C475.588 694.524 454.166 721.215 432.486 753.244C407.622 789.974 391.677 824.387 383.088 867.83C368.294 942.663 409.139 1000.41 455.65 1054.58C521.742 1131.56 600.383 1201.79 697.84 1235.46C787.193 1266.33 887.603 1265.26 973.103 1222.88C1056.34 1181.62 1101.32 1106.59 1111.72 1015.49C1127.58 876.439 1062.53 749.099 987.737 636.614C943.939 570.746 903.867 518.309 844.588 466.864C808.247 435.326 777.789 414.469 729.931 409.03C633.796 398.106 552.375 476.876 514.05 557.272C460.949 668.667 479.597 793.293 507.192 908.511C529.838 1003.06 557.853 1108.57 630.091 1178.56C688.834 1235.48 778.15 1276.92 860.756 1277.1C900.858 1277.19 927.44 1270.95 956.429 1242.34C987.511 1211.67 997.31 1177.19 1003.45 1134.59C1016.82 1041.85 999.363 944.146 974.004 855.034C951.902 777.365 916.221 666.672 837.995 625.222C791.07 600.357 746.32 625.108 723.516 668.601C688.813 734.789 682.05 826.171 698.217 898.206C721.361 1001.32 798.023 1087.7 877.513 1152.94C907.346 1177.42 954.326 1208.37 992.214 1221.53C1012.44 1228.55 1054.76 1235.07 1076.78 1225.3C1103.53 1213.44 1118 1180.71 1123.78 1155C1132.51 1116.14 1131.13 1053.7 1125.35 1015.47C1120.34 982.353 1106.91 932.415 1085.89 903.553C1076.49 890.656 1054.47 874.103 1035.95 881.946C1018.74 889.234 1008.01 919.1 1005.94 933.957C1001.17 968.223 1008.82 1015.43 1017.41 1047.31C1037.9 1123.3 1075.37 1213.52 1141.18 1262.02C1190.58 1298.42 1260.23 1304.67 1299.74 1249.48C1323.87 1215.78 1338.04 1156.58 1343.99 1118.12C1350.75 1074.5 1354.19 995.873 1349.75 951.283C1346.56 919.216 1336.56 869.642 1313.82 842.741C1298.89 825.079 1266.57 812.603 1243.47 817.901C1163.43 836.268 1143.36 954.469 1154.95 1020.34C1169.29 1101.76 1245.78 1168.37 1330.83 1138.29C1367.59 1125.3 1400.95 1089.72 1421.43 1058.4C1463.84 993.562 1437.08 1011.87 1470.64 944.217" stroke="#175F79" stroke-width="1.0241"/>
<path d="M922.831 1087.25C925.046 1029.05 901.846 970.443 870.205 922.874C824.495 854.153 762.709 790.173 694.295 743.849C660.224 720.779 634.02 707.481 594.92 695.28C563.197 685.38 534.902 677.714 502.169 689.483C464.683 702.963 443.886 730.143 422.953 762.665C398.947 799.962 383.804 834.735 376.224 878.365C363.167 953.521 405.339 1010.3 453.093 1063.38C520.951 1138.81 601.198 1207.2 699.409 1238.6C789.453 1267.39 889.812 1264 974.306 1219.65C1056.57 1176.47 1099.8 1100.42 1108.08 1009.1C1120.71 869.721 1052.73 743.923 975.353 633.201C930.04 568.366 888.764 516.871 828.309 466.814C791.247 436.126 760.314 415.98 712.343 411.652C615.981 402.958 536.406 483.593 499.955 564.856C449.449 677.452 470.979 801.612 501.237 916.159C526.067 1010.16 556.52 1114.99 630.36 1183.29C690.406 1238.83 780.658 1278.2 863.247 1276.46C903.339 1275.62 929.77 1268.76 958.088 1239.49C988.45 1208.1 997.448 1173.41 1002.6 1130.68C1013.81 1037.65 994.101 940.381 966.685 851.881C942.789 774.745 904.552 664.909 825.387 625.282C777.898 601.511 733.734 627.292 711.944 671.301C678.784 738.276 674.14 829.79 691.972 901.431C717.499 1003.99 796.141 1088.56 877.122 1151.94C907.514 1175.72 955.198 1205.58 993.381 1217.85C1013.77 1224.41 1056.23 1229.95 1078.01 1219.67C1104.48 1207.19 1118.18 1174.13 1123.37 1148.3C1131.2 1109.24 1128.38 1046.85 1121.71 1008.76C1115.93 975.775 1101.35 926.162 1079.66 897.795C1069.97 885.119 1047.57 869.08 1029.24 877.35C1012.2 885.035 1002.17 915.142 1000.44 930.043C996.464 964.41 1005.2 1011.43 1014.54 1043.1C1036.78 1118.59 1076.33 1207.93 1143.24 1254.88C1193.48 1290.13 1263.25 1294.76 1301.47 1238.68C1324.82 1204.42 1337.61 1144.91 1342.67 1106.32C1348.41 1062.56 1350.03 983.872 1344.56 939.398C1340.62 907.414 1329.48 858.085 1306.12 831.718C1290.78 814.406 1258.18 802.682 1235.22 808.514C1155.63 828.731 1138.29 947.365 1151.42 1012.95C1167.64 1094.01 1245.65 1158.83 1329.98 1126.8C1366.42 1112.95 1398.95 1076.61 1418.71 1044.82C1459.6 979.022 1433.27 997.945 1465.25 929.533" stroke="#175F79" stroke-width="1.0241"/>
<path d="M920.63 1085.23C921.496 1027 896.944 968.939 864.209 922.115C816.919 854.472 753.668 791.941 684.199 747.215C649.602 724.94 623.097 712.253 583.725 700.961C551.781 691.799 523.317 684.79 490.865 697.315C453.701 711.659 433.539 739.314 413.366 772.312C390.231 810.155 375.897 845.27 369.33 889.064C358.018 964.502 401.494 1020.29 450.465 1072.25C520.053 1146.09 601.863 1212.6 700.775 1241.72C791.462 1268.41 891.715 1262.69 975.159 1216.4C1056.4 1171.32 1097.86 1094.29 1104.02 1002.81C1113.42 863.172 1042.54 738.983 962.617 630.084C915.815 566.316 873.357 515.792 811.758 467.148C773.994 437.327 742.604 417.904 694.545 414.688C598.007 408.229 520.322 490.687 485.764 572.772C437.88 686.508 462.281 810.136 495.185 923.951C522.187 1017.35 555.06 1121.45 630.463 1188.02C691.779 1242.15 782.92 1279.42 865.446 1275.77C905.508 1274 931.773 1266.53 959.405 1236.61C989.032 1204.53 997.224 1169.64 1001.38 1126.8C1010.44 1033.54 988.478 936.747 959.019 848.906C933.342 772.344 892.571 663.423 812.508 625.641C764.482 602.977 720.927 629.775 700.162 674.277C668.563 742.002 666.041 833.599 685.528 904.808C713.424 1006.74 794.005 1089.48 876.432 1150.96C907.367 1174.03 955.73 1202.77 994.188 1214.16C1014.72 1220.24 1057.3 1224.79 1078.84 1214.02C1105.01 1200.92 1117.94 1167.56 1122.53 1141.61C1129.45 1102.38 1125.18 1040.08 1117.64 1002.16C1111.1 969.308 1095.37 920.046 1073.03 892.19C1063.05 879.742 1040.28 864.226 1022.14 872.919C1005.29 880.997 995.961 911.327 994.58 926.264C991.397 960.714 1001.22 1007.52 1011.29 1038.97C1035.27 1113.92 1076.88 1202.31 1144.87 1247.71C1195.9 1281.78 1265.77 1284.79 1302.68 1227.84C1325.23 1193.06 1336.63 1133.26 1340.8 1094.57C1345.53 1050.68 1345.32 971.979 1338.82 927.644C1334.14 895.759 1321.86 846.702 1297.9 820.883C1282.16 803.932 1249.3 792.966 1226.48 799.329C1147.37 821.384 1132.79 940.388 1147.43 1005.65C1165.53 1086.32 1245.02 1149.31 1328.59 1115.33C1364.7 1100.64 1396.38 1063.56 1415.39 1031.32C1454.75 964.592 1428.86 984.12 1459.25 914.985" stroke="#175F79" stroke-width="1.0241"/>
<path d="M918.104 1083.27C917.62 1025.03 891.73 967.56 857.919 921.507C809.074 854.977 744.391 793.929 673.905 750.824C638.801 729.357 612.009 717.287 572.386 706.911C540.238 698.492 511.619 692.144 479.466 705.417C442.644 720.619 423.129 748.733 403.726 782.19C381.473 820.559 367.957 855.996 362.407 899.931C352.846 975.611 397.603 1030.38 447.764 1081.19C519.045 1153.39 602.374 1217.99 701.933 1244.81C793.215 1269.4 893.309 1261.36 975.658 1213.14C1055.83 1166.2 1095.49 1088.22 1099.53 996.619C1105.7 856.806 1031.96 734.292 949.534 627.274C901.267 564.608 857.65 515.081 794.94 467.877C756.496 438.939 724.663 420.248 676.543 418.147C579.881 413.927 504.128 498.162 471.48 581.027C426.245 695.841 453.504 818.871 489.036 931.893C518.195 1024.64 553.472 1127.95 630.397 1192.76C692.951 1245.45 784.93 1280.6 867.349 1275.04C907.36 1272.34 933.445 1264.27 960.376 1233.71C989.252 1200.95 996.633 1165.88 999.799 1122.95C1006.69 1029.51 982.494 933.256 951.006 846.12C923.563 770.174 880.279 662.227 799.362 626.31C750.824 604.765 707.901 632.565 688.174 677.536C658.152 745.975 657.753 837.606 678.884 908.344C709.135 1009.61 791.611 1090.45 875.441 1150.01C906.902 1172.36 955.918 1199.97 994.629 1210.46C1015.3 1216.07 1057.97 1219.63 1079.25 1208.36C1105.11 1194.66 1117.27 1161.01 1121.25 1134.96C1127.27 1095.58 1121.56 1033.39 1113.13 995.654C1105.83 962.967 1088.97 914.083 1065.99 886.751C1055.72 874.538 1032.6 859.554 1014.67 868.665C998.006 877.131 989.385 907.669 988.351 922.634C985.967 957.149 996.875 1003.71 1007.67 1034.92C1033.38 1109.3 1077.03 1196.7 1146.05 1240.51C1197.86 1273.39 1267.77 1274.78 1303.36 1216.99C1325.09 1181.69 1335.1 1121.65 1338.38 1082.87C1342.09 1038.89 1340.06 960.21 1332.53 916.037C1327.12 884.27 1313.7 835.51 1289.14 810.253C1273.02 793.671 1239.91 783.47 1217.25 790.36C1138.67 814.242 1126.86 933.552 1143 998.454C1162.96 1078.68 1243.89 1139.82 1326.65 1103.91C1362.41 1088.39 1393.22 1050.58 1411.48 1017.92C1449.28 950.289 1423.86 970.412 1452.64 900.591" stroke="#175F79" stroke-width="1.0241"/>
</svg>
