<svg width="1264" height="528" viewBox="0 0 1264 528" fill="none" xmlns="http://www.w3.org/2000/svg">
<g style="mix-blend-mode:color">
<path d="M93.8057 325.366C127.258 300.927 162.195 277.558 194.036 250.981C207.505 239.738 218.409 228.794 223.745 211.858C230.808 189.44 226.557 181.46 203.816 190.567C183.31 198.779 167.382 221.072 179.29 243.594C185.44 255.224 198.052 258.554 210.233 259.628C269.967 264.895 332.939 251.59 391.972 244.257C435.897 238.802 480.146 234.021 523.54 225.036C572.868 214.822 620.574 199.218 668.546 184.124C762.342 154.61 854.78 136.366 951.822 122.293C1016.51 112.912 1081.36 98.5611 1146.64 93.9192C1177.22 91.7447 1184.82 104.662 1194.89 130.994C1205.37 158.426 1206.52 187.726 1200.31 216.454C1192.26 253.698 1157.82 278.999 1123.45 291.106C1095.39 300.991 1065.03 304.629 1035.85 309.475C973.791 319.784 911.846 330.458 850.166 342.909C742.279 364.687 635.72 393.52 529.413 421.926C445.63 444.313 362.793 471.61 277.091 485.961C215.766 496.231 147.011 508.265 87.547 483.721C49.1645 467.878 34.3004 438.872 30.9677 399.284C27.799 361.643 48.1281 336.857 71.1595 310.03" stroke="#309EC6" stroke-width="0.5" stroke-linecap="round"/>
<path d="M118.986 329.778C150.846 303.298 184.256 277.792 214.374 249.278C227.115 237.216 237.314 225.612 241.582 208.376C247.231 185.561 242.49 177.862 220.362 188.371C200.409 197.848 185.904 221.093 199.196 242.827C206.06 254.05 218.856 256.586 231.08 256.897C291.026 258.422 353.044 241.21 411.504 230.205C455.003 222.017 498.866 214.481 541.614 202.804C590.208 189.529 636.847 170.976 683.782 152.915C775.552 117.601 866.67 93.6186 962.643 73.512C1026.62 60.1094 1090.44 41.7362 1155.31 33.026C1185.69 28.9458 1194.08 41.3626 1205.78 67.0148C1217.96 93.7389 1220.94 122.91 1216.53 151.969C1210.82 189.643 1178.02 217.046 1144.48 231.276C1117.09 242.894 1087.02 248.422 1058.2 255.081C996.904 269.245 935.747 283.768 874.964 300.047C768.649 328.52 664.098 363.953 559.774 398.942C477.552 426.519 396.581 458.936 311.943 478.613C251.379 492.692 183.51 508.997 122.629 488.214C83.3324 474.8 66.6857 446.779 60.887 407.477C55.3734 370.107 74.1148 344.1 95.4257 315.887" stroke="#309EC6" stroke-width="0.5" stroke-linecap="round"/>
<path d="M95.0111 325.587C128.39 301.048 163.258 277.575 195.019 250.904C208.455 239.621 219.327 228.644 224.612 211.692C231.608 189.254 227.334 181.287 204.62 190.461C184.138 198.734 168.276 221.074 180.252 243.561C186.436 255.172 199.059 258.465 211.243 259.503C270.992 264.591 333.923 251.099 392.935 243.591C436.844 238.005 481.078 233.092 524.445 223.978C573.742 213.618 621.402 197.872 669.328 182.634C763.036 152.842 855.42 134.323 952.419 119.961C1017.08 110.388 1081.88 95.8438 1147.15 91.0076C1177.72 88.7421 1185.36 101.636 1195.51 127.939C1206.08 155.34 1207.32 184.636 1201.19 213.382C1193.25 250.65 1158.88 276.053 1124.55 288.262C1096.52 298.231 1066.17 301.96 1037.01 306.893C974.975 317.386 913.063 328.244 851.42 340.879C743.599 362.978 637.126 392.128 530.904 420.85C447.188 443.486 364.432 471.03 278.773 485.636C217.479 496.088 148.761 508.326 89.2237 483.959C50.7942 468.231 35.8439 439.269 32.3934 399.691C29.1126 362.06 49.3679 337.214 72.3194 310.318" stroke="#309EC6" stroke-width="0.5"/>
<path d="M96.2158 325.804C129.522 301.166 164.32 277.589 196.001 250.824C209.404 239.501 220.242 228.492 225.477 211.524C232.406 189.065 228.108 181.111 205.422 190.352C184.965 198.686 169.17 221.074 181.212 243.525C187.431 255.118 200.063 258.373 212.25 259.374C272.014 264.285 334.905 250.606 393.894 242.922C437.786 237.205 482.006 232.161 525.345 222.918C574.611 212.411 622.224 196.523 670.105 181.143C763.724 151.072 856.052 132.278 953.008 117.627C1017.64 107.862 1082.4 93.125 1147.65 88.0946C1178.22 85.7382 1185.9 98.6095 1196.12 124.881C1206.77 152.251 1208.1 181.544 1202.06 210.308C1194.23 247.599 1159.93 273.105 1125.64 285.416C1097.64 295.468 1067.3 299.287 1038.15 304.306C976.152 314.984 914.272 326.027 852.667 338.845C744.912 361.265 638.526 390.731 532.39 419.769C448.742 442.655 366.069 470.444 280.453 485.306C219.19 495.94 150.509 508.383 90.8997 484.193C52.4235 468.579 37.3871 439.662 33.8189 400.095C30.4261 362.473 50.6073 337.567 73.4787 310.603" stroke="#309EC6" stroke-width="0.5"/>
<path d="M97.4196 326.023C130.652 301.286 165.38 277.606 196.981 250.746C210.35 239.383 221.156 228.342 226.341 211.359C233.203 188.879 228.881 180.938 206.222 190.247C185.79 198.641 170.061 221.076 182.171 243.491C188.424 255.065 201.066 258.283 213.256 259.248C273.034 263.981 335.884 250.114 394.85 242.255C438.725 236.408 482.929 231.232 526.241 221.86C575.475 211.206 623.041 195.177 670.876 179.655C764.405 149.305 856.676 130.236 953.589 115.297C1018.19 105.339 1082.91 90.4098 1148.14 85.1852C1178.7 82.7378 1186.42 95.5863 1196.72 121.828C1207.45 149.166 1208.87 178.454 1202.91 207.236C1195.19 244.55 1160.97 270.158 1126.72 282.571C1098.75 292.707 1068.42 296.616 1039.29 301.722C977.32 312.584 915.473 323.811 853.906 336.812C746.219 359.553 639.921 389.336 533.872 418.689C450.292 441.824 367.702 469.859 282.131 484.975C220.9 495.792 152.256 508.439 92.575 484.427C54.0525 468.928 38.9301 440.055 35.2441 400.499C31.7394 362.888 51.8464 337.921 74.6374 310.89" stroke="#309EC6" stroke-width="0.5"/>
<path d="M98.6266 326.24C131.786 301.404 166.442 277.621 197.964 250.667C211.299 239.264 222.072 228.192 227.206 211.193C234.001 188.693 229.655 180.764 207.025 190.141C186.617 198.596 170.956 221.078 183.132 243.456C189.419 255.012 202.071 258.192 214.264 259.121C274.056 263.676 336.864 249.622 395.807 241.588C439.663 235.61 483.852 230.302 527.136 220.801C576.339 210.001 623.856 193.83 671.644 178.166C765.083 147.538 857.297 128.195 954.165 112.967C1018.73 102.817 1083.41 87.6952 1148.63 82.2765C1179.18 79.7381 1186.94 92.5635 1197.32 118.774C1208.13 146.08 1209.63 175.364 1203.76 204.164C1196.15 241.501 1162.01 267.21 1127.79 279.725C1099.85 289.944 1069.54 293.943 1040.42 299.136C978.483 310.183 916.67 321.594 855.142 334.778C747.522 357.839 641.314 387.938 535.353 417.607C451.842 440.99 369.336 469.272 283.81 484.642C222.612 495.641 154.005 508.492 94.2534 484.658C55.685 469.273 40.4767 440.446 36.673 400.901C33.0564 363.3 53.089 338.274 75.7995 311.175" stroke="#309EC6" stroke-width="0.5"/>
<path d="M99.8289 326.454C132.914 301.52 167.5 277.634 198.941 250.586C212.242 239.144 222.982 228.039 228.065 211.025C234.793 188.505 230.424 180.589 207.822 190.033C187.439 198.549 171.845 221.077 184.087 243.419C190.409 254.956 203.07 258.099 215.266 258.991C275.071 263.368 337.837 249.128 396.756 240.918C440.595 234.809 484.767 229.37 528.023 219.741C577.193 208.794 624.662 192.482 672.404 176.675C765.751 145.769 857.907 126.152 954.729 110.636C1019.27 100.294 1083.9 84.9798 1149.1 79.367C1179.65 76.7377 1187.44 89.54 1197.89 115.72C1208.79 142.993 1210.38 172.273 1204.59 201.09C1197.1 238.449 1163.03 264.26 1128.85 276.877C1100.94 287.179 1070.64 291.268 1041.54 296.548C979.633 307.779 917.855 319.374 856.366 332.741C748.816 356.122 642.697 386.537 536.825 416.521C453.384 440.153 370.962 468.68 285.483 484.305C224.318 495.485 155.75 508.541 95.9272 484.884C57.3132 469.615 42.0192 440.833 38.0978 401.299C34.3693 363.709 54.3273 338.624 76.957 311.457" stroke="#309EC6" stroke-width="0.5"/>
<path d="M101.034 326.671C134.045 301.638 168.56 277.649 199.92 250.508C213.187 239.026 223.894 227.889 228.926 210.86C235.588 188.32 231.195 180.417 208.621 189.929C188.264 198.505 172.736 221.08 185.045 243.385C191.401 254.903 204.072 258.008 216.27 258.864C276.088 263.063 338.812 248.636 397.705 240.251C441.526 234.012 485.682 228.441 528.909 218.683C578.046 207.59 625.466 191.137 673.161 175.188C766.415 144.005 858.513 124.113 955.288 108.309C1019.8 97.775 1084.38 82.2684 1149.57 76.4616C1180.1 73.7414 1187.93 86.5204 1198.47 112.669C1209.44 139.91 1211.12 169.185 1205.42 198.018C1198.04 235.4 1164.05 261.312 1129.91 274.031C1102.03 284.416 1071.73 288.595 1042.65 293.962C980.779 305.377 919.036 317.155 857.587 330.706C750.107 354.406 644.079 385.138 538.297 415.437C454.927 439.316 372.59 468.088 287.158 483.968C226.026 495.33 157.497 508.59 97.6042 485.112C58.9449 469.957 43.5653 441.221 39.5262 401.699C35.6859 364.12 55.5692 338.976 78.118 311.741" stroke="#309EC6" stroke-width="0.5"/>
<path d="M102.239 326.885C135.175 301.755 169.618 277.663 200.898 250.429C214.13 238.907 224.804 227.739 229.786 210.695C236.38 188.135 231.964 180.246 209.418 189.824C189.087 198.461 173.626 221.081 186.002 243.35C192.392 254.849 205.071 257.916 217.272 258.736C277.102 262.758 339.783 248.143 398.651 239.583C442.453 233.214 486.593 227.512 529.79 217.625C578.894 206.386 626.265 189.791 673.912 173.701C767.073 142.24 859.111 122.074 955.839 105.983C1020.32 95.2565 1084.85 79.5577 1150.02 73.5569C1180.55 70.7459 1188.42 83.5016 1199.03 109.619C1210.09 136.827 1211.85 166.096 1206.24 194.947C1198.97 232.35 1165.05 258.364 1130.95 271.184C1103.1 281.652 1072.82 285.921 1043.75 291.374C981.917 302.973 920.208 314.936 858.8 328.669C751.391 352.689 645.455 383.736 539.764 414.35C456.465 438.478 374.214 467.494 288.83 483.628C227.732 495.172 159.243 508.636 99.2804 485.336C60.5761 470.296 45.1111 441.606 40.9545 402.096C37.0023 364.529 56.8107 339.326 79.2783 312.024" stroke="#309EC6" stroke-width="0.5"/>
<path d="M103.439 327.097C136.3 301.868 170.671 277.674 201.87 250.347C215.068 238.786 225.708 227.586 230.639 210.527C237.166 187.948 232.727 180.071 210.209 189.717C189.904 198.414 174.511 221.081 186.953 243.313C193.377 254.793 206.066 257.822 218.269 258.606C278.111 262.449 340.748 247.648 399.59 238.913C443.373 232.413 487.495 226.58 530.663 216.564C579.733 205.179 627.055 188.444 674.654 172.212C767.721 140.474 859.698 120.034 956.378 103.655C1020.82 92.7366 1085.31 76.8459 1150.46 70.6511C1180.98 67.7492 1188.89 80.4814 1199.58 106.567C1210.72 133.742 1212.57 163.006 1207.04 191.873C1199.88 229.298 1166.04 255.412 1131.98 268.334C1104.16 278.885 1073.9 283.244 1044.84 288.784C983.042 300.567 921.369 312.713 860.002 326.629C752.665 350.969 646.822 382.33 541.222 413.259C457.995 437.634 375.831 466.896 290.495 483.283C229.432 495.01 160.983 508.677 100.952 485.555C62.2031 470.631 46.6528 441.987 42.3785 402.49C38.3146 364.935 58.0479 339.672 80.4341 312.304" stroke="#309EC6" stroke-width="0.5"/>
<path d="M104.638 327.31C137.424 301.983 171.723 277.687 202.84 250.267C216.004 238.667 226.611 227.435 231.491 210.362C237.951 187.764 233.488 179.9 210.999 189.612C190.72 198.37 175.395 221.083 187.902 243.277C194.361 254.738 207.058 257.73 219.264 258.477C279.117 262.142 341.709 247.155 400.526 238.245C444.289 231.615 488.394 225.65 531.531 215.506C580.568 203.975 627.839 187.099 675.389 170.725C768.362 138.71 860.278 117.997 956.908 101.33C1021.32 90.2202 1085.76 74.1376 1150.89 67.749C1181.41 64.7563 1189.35 77.4649 1200.12 103.518C1211.34 130.66 1213.27 159.919 1207.83 188.802C1200.78 226.248 1167.03 252.463 1133 265.486C1105.21 276.119 1074.96 280.569 1045.92 286.195C984.158 298.162 922.522 310.491 861.196 324.59C753.932 349.249 648.183 380.926 542.676 412.168C459.522 436.791 377.445 466.297 292.158 482.939C231.13 494.847 162.723 508.718 102.623 485.775C63.8296 470.966 48.1941 442.368 43.8024 402.884C39.6266 365.341 59.2847 340.02 81.5894 312.586" stroke="#309EC6" stroke-width="0.5"/>
<path d="M105.837 327.521C138.547 302.098 172.773 277.699 203.809 250.187C216.938 238.548 227.511 227.284 232.341 210.197C238.733 187.579 234.247 179.729 211.787 189.508C191.534 198.327 176.276 221.084 188.85 243.242C195.343 254.683 208.049 257.637 220.257 258.348C280.121 261.835 342.668 246.662 401.458 237.576C445.201 230.816 489.288 224.72 532.395 214.448C581.397 202.771 628.618 185.754 676.119 169.239C768.996 136.948 860.85 115.961 957.43 99.0065C1021.81 87.705 1086.2 71.4307 1151.32 64.8483C1181.82 61.7648 1189.8 74.4497 1200.65 100.471C1211.94 127.579 1213.97 156.832 1208.61 185.732C1201.68 223.198 1168 249.513 1134.01 262.637C1106.25 273.354 1076.01 277.894 1047 283.606C985.266 295.756 923.666 308.269 862.383 322.55C755.193 347.529 649.539 379.52 544.125 411.076C461.045 435.947 379.056 465.696 293.819 482.592C232.827 494.681 164.461 508.756 104.293 485.992C65.4558 471.299 49.7352 442.748 45.226 403.276C40.9385 365.746 60.5211 340.367 82.7441 312.866" stroke="#309EC6" stroke-width="0.5"/>
<path d="M107.038 327.73C139.672 302.209 173.826 277.709 204.779 250.104C217.874 238.426 228.414 227.131 233.193 210.029C239.518 187.393 235.008 179.556 212.578 189.402C192.351 198.281 177.161 221.084 189.8 243.204C196.327 254.626 209.042 257.541 221.252 258.216C281.126 261.525 343.628 246.166 402.39 236.905C446.113 230.015 490.182 223.788 533.258 213.387C582.225 201.565 629.395 184.408 676.847 167.751C769.627 135.183 861.419 113.923 957.948 96.6815C1022.29 85.1885 1086.64 68.7226 1151.73 61.9464C1182.22 58.7722 1190.24 71.4333 1201.17 97.422C1212.55 124.497 1214.66 153.743 1209.39 182.659C1202.56 220.146 1168.96 246.561 1135.01 259.786C1107.29 270.585 1077.06 275.215 1048.06 281.013C986.369 293.348 924.807 306.044 863.567 320.507C756.451 345.804 650.893 378.11 545.573 409.98C462.567 435.097 380.668 465.091 295.481 482.24C234.525 494.511 166.201 508.789 105.966 486.204C67.0853 471.627 51.2799 443.123 46.6532 403.665C42.2541 366.148 61.7611 340.71 83.9021 313.143" stroke="#309EC6" stroke-width="0.5"/>
<path d="M108.235 327.939C140.793 302.321 174.874 277.719 205.745 250.023C218.805 238.306 229.311 226.98 234.039 209.864C240.296 187.209 235.763 179.385 213.362 189.298C193.162 198.237 178.04 221.085 190.745 243.167C197.306 254.57 210.03 257.448 222.241 258.086C282.125 261.217 344.581 245.671 403.315 236.236C447.017 229.216 491.067 222.857 534.113 212.329C583.044 200.361 630.163 183.063 677.565 166.265C770.248 133.422 861.976 111.889 958.453 94.3596C1022.76 82.6751 1087.06 66.0178 1152.13 59.0479C1182.62 55.7829 1190.67 68.4201 1201.67 94.3762C1213.13 121.417 1215.33 150.657 1210.15 179.588C1203.43 217.096 1169.91 243.61 1136 256.936C1108.31 267.818 1078.1 272.538 1049.12 278.422C987.459 290.94 925.936 303.82 864.739 318.465C757.699 344.081 652.237 376.7 547.012 408.884C464.082 434.248 382.272 464.486 297.137 481.888C236.218 494.34 167.937 508.821 107.634 486.416C68.7106 471.954 52.8204 443.497 48.0763 404.054C43.5655 366.55 62.9967 341.054 85.0556 313.422" stroke="#309EC6" stroke-width="0.5"/>
<path d="M109.435 328.149C141.917 302.434 175.924 277.731 206.712 249.943C219.737 238.187 230.21 226.829 234.887 209.699C241.077 187.026 236.521 179.216 214.149 189.195C193.976 198.194 178.922 221.087 191.693 243.131C198.287 254.514 211.019 257.354 223.233 257.956C283.125 260.909 345.535 245.178 404.241 235.568C447.922 228.417 491.953 221.928 534.967 211.271C583.862 199.157 630.93 181.72 678.281 164.781C770.866 131.662 862.529 109.856 958.954 92.0397C1023.23 80.1639 1087.47 63.3153 1152.53 56.1518C1183 52.7961 1191.1 65.4092 1202.17 91.3325C1213.71 118.339 1216 147.572 1210.9 176.519C1204.3 214.046 1170.86 240.661 1136.99 254.087C1109.33 265.051 1079.13 269.861 1050.16 275.832C988.545 288.533 927.06 301.596 865.907 316.423C758.944 342.357 653.58 375.291 548.451 407.787C465.597 433.398 383.877 463.879 298.794 481.534C237.912 494.168 169.675 508.852 109.306 486.627C70.3393 472.281 54.3644 443.871 49.503 404.442C44.8806 366.952 64.2358 341.398 86.2124 313.7" stroke="#309EC6" stroke-width="0.5"/>
<path d="M110.63 328.354C143.035 302.542 176.969 277.738 207.674 249.858C220.664 238.064 231.103 226.675 235.729 209.532C241.852 186.839 237.272 179.043 214.93 189.089C194.784 198.148 179.798 221.086 192.634 243.092C199.263 254.455 212.003 257.257 224.218 257.823C284.12 260.597 346.482 244.681 405.159 234.896C448.819 227.615 492.83 220.995 535.812 210.21C584.672 197.951 631.687 180.373 678.988 163.294C771.474 129.899 863.072 107.821 959.443 89.7175C1023.68 77.6505 1087.88 60.6108 1152.91 53.2537C1183.37 49.8073 1191.5 62.3963 1202.66 88.2865C1214.28 115.258 1216.65 144.485 1211.64 173.446C1205.15 210.993 1171.79 237.707 1137.96 251.235C1110.33 262.281 1080.15 267.18 1051.2 273.237C989.619 286.122 928.173 299.367 867.064 314.377C760.179 340.629 654.913 373.876 549.882 406.685C467.104 432.543 385.475 463.267 300.445 481.175C239.601 493.99 171.407 508.877 110.973 486.831C71.9636 472.601 55.9043 444.24 50.9255 404.825C46.1916 367.349 65.4707 341.738 87.3647 313.974" stroke="#309EC6" stroke-width="0.5"/>
<path d="M111.828 328.561C144.157 302.653 178.016 277.748 208.639 249.777C221.593 237.944 231.998 226.524 236.573 209.367C242.628 186.657 238.025 178.874 215.714 188.986C195.594 198.105 180.677 221.087 193.579 243.055C200.241 254.399 212.99 257.163 225.206 257.692C285.116 260.288 347.43 244.186 406.078 234.227C449.716 226.816 493.707 220.065 536.657 209.153C585.48 196.748 632.442 179.03 679.692 161.81C772.078 128.14 863.61 105.789 959.927 87.3994C1024.13 75.1412 1088.27 57.9106 1153.28 50.36C1183.74 46.823 1191.91 59.3877 1203.14 85.2446C1214.84 112.182 1217.3 141.401 1212.37 170.377C1205.99 207.943 1172.71 234.756 1138.92 248.385C1111.33 259.513 1081.16 264.502 1052.23 270.645C990.687 283.713 929.281 297.141 868.217 312.333C761.411 338.903 656.244 372.463 551.311 405.584C468.61 431.688 387.074 462.655 302.098 480.817C241.292 493.813 173.143 508.903 112.643 487.037C73.5914 472.923 57.4477 444.609 52.3517 405.209C47.5062 367.747 66.709 342.079 88.5203 314.251" stroke="#309EC6" stroke-width="0.5"/>
<path d="M113.022 328.767C145.273 302.764 179.058 277.758 209.597 249.696C222.517 237.824 232.888 226.374 237.411 209.203C243.399 186.474 238.773 178.706 216.491 188.884C196.399 198.063 181.55 221.089 194.517 243.019C201.213 254.343 213.97 257.069 226.189 257.562C286.105 259.979 348.372 243.692 406.99 233.558C450.605 226.018 494.576 219.136 537.493 208.095C586.279 195.545 633.189 177.688 680.387 160.327C772.673 126.383 864.138 103.759 960.399 85.083C1024.57 72.6338 1088.66 55.2123 1153.64 47.4683C1184.09 43.8406 1192.29 56.381 1203.6 82.2043C1215.38 109.107 1217.93 138.319 1213.09 167.309C1206.82 204.894 1173.62 231.806 1139.87 245.535C1112.31 256.745 1082.16 261.824 1053.25 268.053C991.744 281.304 930.378 294.915 869.359 310.288C762.632 337.177 657.566 371.049 552.732 404.483C470.109 430.833 388.665 462.042 303.743 480.456C242.977 493.633 174.873 508.926 114.308 487.24C75.2148 473.243 58.9869 444.977 53.7736 405.592C48.8167 368.145 67.9431 342.42 89.6714 314.527" stroke="#309EC6" stroke-width="0.5"/>
<path d="M114.215 328.97C146.388 302.87 180.099 277.764 210.554 249.611C223.438 237.701 233.775 226.22 238.248 209.036C244.168 186.29 239.518 178.535 217.268 188.78C197.202 198.018 182.422 221.089 195.455 242.979C202.184 254.283 214.949 256.971 227.169 257.428C287.093 259.667 349.31 243.194 407.898 232.886C451.491 225.216 495.441 218.203 538.325 207.035C587.073 194.34 633.929 176.343 681.076 158.842C773.26 124.623 864.657 101.728 960.863 82.7648C1024.99 70.1247 1089.03 52.5126 1153.99 44.5752C1184.43 40.8569 1192.67 53.3728 1204.06 79.1624C1215.92 106.029 1218.55 135.234 1213.8 164.239C1207.64 201.842 1174.52 228.853 1140.81 242.682C1113.29 253.974 1083.15 259.143 1054.25 265.458C992.791 278.892 931.466 292.686 870.494 308.24C763.847 335.446 658.882 369.631 554.148 403.376C471.604 429.972 390.253 461.423 305.387 480.091C244.659 493.448 176.602 508.944 115.972 487.438C76.8377 473.557 60.5258 445.34 55.1953 405.971C50.127 368.539 69.1767 342.757 90.8219 314.799" stroke="#309EC6" stroke-width="0.5"/>
<path d="M115.411 329.174C147.506 302.979 181.142 277.772 211.514 249.529C224.362 237.581 234.665 226.069 239.086 208.871C244.938 186.108 240.266 178.367 218.046 188.678C198.008 197.976 183.297 221.09 196.394 242.942C203.157 254.226 215.93 256.876 228.151 257.296C288.081 259.357 350.25 242.699 408.807 232.217C452.376 224.417 496.306 217.273 539.156 205.978C587.866 193.138 634.669 175.002 681.763 157.36C773.845 122.867 865.174 99.6993 961.323 80.4504C1025.41 67.6194 1089.4 49.8168 1154.34 41.6861C1184.76 37.8773 1193.04 50.3686 1204.5 76.1241C1216.44 102.956 1219.16 132.152 1214.5 161.171C1208.46 198.792 1175.41 225.902 1141.75 239.831C1114.26 251.205 1084.13 256.464 1055.26 262.865C993.834 276.482 932.55 290.458 871.625 306.193C765.059 333.717 660.197 368.214 555.563 402.271C473.099 429.112 391.842 460.806 307.032 479.725C246.344 493.263 178.333 508.961 117.64 487.636C78.4641 473.872 62.0683 445.703 56.6206 406.351C51.4409 368.933 70.4138 343.095 91.9758 315.073" stroke="#309EC6" stroke-width="0.5"/>
<path d="M116.602 329.377C148.619 303.087 182.18 277.78 212.467 249.447C225.28 237.46 235.549 225.917 239.919 208.707C245.703 185.926 241.008 178.199 218.818 188.576C198.809 197.934 184.166 221.092 197.328 242.905C204.125 254.168 216.906 256.78 229.128 257.164C289.064 259.047 351.183 242.204 409.708 231.547C453.254 223.618 497.162 216.343 539.979 204.92C588.65 191.935 635.399 173.66 682.441 155.879C774.419 121.111 865.679 97.6721 961.77 78.1371C1025.82 65.1155 1089.76 47.1225 1154.67 38.7986C1185.08 34.8993 1193.4 47.3659 1204.94 73.0872C1216.96 99.8833 1219.76 129.071 1215.19 158.104C1209.25 195.743 1176.29 222.951 1142.67 236.98C1115.21 248.436 1085.1 253.784 1056.25 260.271C994.865 274.071 933.623 288.229 872.744 304.146C766.261 331.986 661.502 366.796 556.97 401.164C474.586 428.25 393.424 460.185 308.67 479.357C248.023 493.076 180.059 508.976 119.303 487.832C80.086 474.184 63.6065 446.065 58.0417 406.728C52.7507 369.327 71.6466 343.432 93.125 315.346" stroke="#309EC6" stroke-width="0.5"/>
<path d="M117.796 329.577C149.735 303.191 183.221 277.785 213.423 249.361C226.201 237.337 236.434 225.764 240.753 208.54C246.47 185.742 241.752 178.029 219.593 188.472C199.611 197.889 185.038 221.091 198.265 242.865C205.095 254.108 217.884 256.682 230.107 257.029C290.048 258.733 352.117 241.706 410.61 230.875C454.132 222.816 498.018 215.411 540.801 203.861C589.434 190.731 636.127 172.316 683.116 154.395C774.991 119.354 866.18 95.6436 962.213 75.8227C1026.23 62.6106 1090.11 44.4273 1155 35.9102C1185.39 31.9205 1193.75 44.3622 1205.36 70.0491C1217.46 96.8093 1220.36 125.989 1215.87 155.035C1210.05 192.692 1177.16 219.997 1143.58 234.127C1116.16 245.664 1086.07 251.102 1057.23 257.675C995.89 271.657 934.691 285.998 873.86 302.096C767.46 330.253 662.805 365.374 558.376 400.053C476.073 427.384 395.006 459.561 310.31 478.985C249.704 492.884 181.787 508.987 120.968 488.023C81.7114 474.492 65.1482 446.422 59.4665 407.102C54.0641 369.716 72.8829 343.765 94.2776 315.615" stroke="#309EC6" stroke-width="0.5"/>
</g>
</svg>
