<svg width="1540" height="1189" viewBox="0 0 1540 1189" fill="none" xmlns="http://www.w3.org/2000/svg">
<path d="M1220.77 1102.99C1255.24 1032.56 1258.65 947.76 1245.65 871.946C1226.86 762.422 1185.71 649.965 1126.76 555.628C1097.4 508.645 1072.4 477.984 1030.92 441.638C997.274 412.149 966.626 387.279 919.914 383.913C866.418 380.059 825.992 402.173 782.487 430.788C732.593 463.606 694.986 498.15 661.858 547.722C604.793 633.113 625.734 726.01 655.564 817.398C697.952 947.262 759.431 1075.21 863.196 1167.43C958.333 1251.99 1083.72 1302.55 1211.92 1294.04C1336.73 1285.76 1431.43 1215.72 1491.43 1107.83C1583 943.155 1567.94 751.225 1533.08 572.724C1512.67 468.2 1489.94 382.299 1442.83 287.706C1413.95 229.715 1386.86 188.045 1330.17 156.552C1216.29 93.2909 1074.36 149.146 985.164 229.295C861.581 340.347 820.361 504.926 795.129 662.432C774.422 791.686 754.728 937.341 808.37 1061.69C851.99 1162.8 941.614 1260.49 1044.22 1303.4C1094.03 1324.23 1130.31 1330.21 1181.13 1309.62C1235.63 1287.55 1265.63 1249.75 1295.28 1199.96C1359.82 1091.56 1388.61 961.075 1403.13 837.181C1415.79 729.197 1428.63 573.137 1352.8 481.178C1307.31 426.016 1238.88 433.663 1188.05 475.951C1110.7 540.307 1055.07 650.423 1037.95 748.336C1013.43 888.5 1064.11 1035.51 1129.22 1157.69C1153.66 1203.54 1196.07 1266.3 1236.38 1302.24C1257.9 1321.43 1307.15 1351.4 1339.57 1350.63C1378.95 1349.7 1413.85 1316.49 1434.32 1287.52C1465.27 1243.71 1495.82 1165.37 1508.39 1114.85C1519.27 1071.09 1528.39 1002.07 1517.16 955.321C1512.14 934.43 1493.32 902.472 1466.24 902.651C1441.07 902.817 1412.31 934.407 1402.06 951.809C1378.41 991.941 1363.53 1054.58 1357.74 1098.66C1343.94 1203.72 1343.9 1335.26 1400.66 1429.56C1443.26 1500.35 1526.63 1544.1 1604.27 1495.91C1651.69 1466.49 1699.89 1400.2 1727.17 1355.47C1758.11 1304.72 1803.02 1208.75 1820.54 1151.02C1833.14 1109.5 1846.33 1042.7 1831.96 997.502C1822.52 967.828 1788.79 935.615 1757.34 930.269C1648.34 911.741 1562.3 1048.32 1542.68 1136.2C1518.43 1244.84 1579.1 1367.18 1700.39 1373.74C1752.8 1376.58 1812.66 1349.58 1854.31 1321.23C1940.54 1262.54 1897.81 1271.47 1974.49 1204.7" stroke="#274D5B" stroke-width="1.37883" stroke-linecap="round"/>
<path d="M1232.14 1043.8C1229.67 965.423 1193.03 888.873 1146.08 827.94C1078.26 739.913 989.291 659.758 893.07 603.937C845.15 576.137 808.711 560.727 755.054 547.996C711.52 537.666 672.8 530.015 629.936 548.885C580.847 570.495 555.455 608.946 530.382 654.585C501.627 706.925 484.539 755.046 478.439 814.356C467.93 916.521 529.883 988.841 598.987 1055.67C697.184 1150.64 811.362 1234.99 946.208 1267.98C1069.84 1298.23 1204.32 1284.28 1313.66 1216.81C1420.11 1151.12 1471.06 1044.93 1473.64 921.504C1477.58 733.121 1374.51 570.515 1260.22 429.037C1193.3 346.193 1133.04 280.889 1047.16 219.309C994.51 181.557 951.08 157.392 886.243 156.065C756.003 153.4 656.665 269.145 615.306 381.701C558 537.655 598.529 702.405 649.882 853.427C692.024 977.36 742.73 1115.32 848.294 1200.14C934.137 1269.12 1059.04 1313.56 1169.8 1303.51C1223.58 1298.63 1258.43 1286.95 1293.73 1244.98C1331.58 1199.98 1340.42 1152.54 1343.34 1094.67C1349.7 968.673 1314.13 839.867 1269.03 723.564C1229.72 622.195 1168.09 478.246 1058.05 432.425C992.049 404.94 935.141 443.697 909.99 504.845C871.715 597.902 874.036 721.252 904.687 815.807C948.564 951.165 1062.1 1057.41 1176.8 1134.96C1219.84 1164.06 1286.68 1199.7 1339.11 1212.62C1367.11 1219.52 1424.65 1222.98 1452.95 1207.14C1487.33 1187.9 1502.65 1142.22 1507.19 1107.04C1514.06 1053.85 1504.43 970.311 1491.92 919.781C1481.07 876.012 1456.85 810.738 1425.06 774.666C1410.86 758.547 1379.28 739.099 1355.42 751.923C1333.26 763.838 1322.61 805.212 1321.68 825.388C1319.55 871.919 1335.68 934.253 1351.18 975.923C1388.12 1075.23 1449.59 1191.53 1543.86 1248.34C1614.62 1290.98 1708.77 1290.67 1754.87 1211.77C1783.02 1163.58 1794.63 1082.45 1797.82 1030.15C1801.44 970.831 1796.26 864.994 1784.75 805.771C1776.47 763.18 1756.89 697.967 1723.05 664.737C1700.83 642.92 1655.95 630.222 1625.65 640.203C1520.64 674.8 1508.45 835.762 1532.21 922.619C1561.58 1029.99 1672.42 1109.75 1782.69 1058.83C1830.35 1036.83 1870.64 984.973 1894.2 940.438C1942.97 848.233 1909.37 876.112 1945.93 781.233" stroke="#274D5B" stroke-width="1.37883" stroke-linecap="round"/>
<path d="M1225.67 1100.55C1258.5 1029.33 1259.95 944.479 1245.19 868.986C1223.87 759.927 1180.12 648.454 1119 555.508C1088.57 509.218 1062.86 479.144 1020.55 443.769C986.23 415.068 955.014 390.914 908.236 388.632C854.665 386.018 814.763 409.062 771.932 438.679C722.812 472.643 686.015 508.049 654.045 558.376C598.974 645.066 622.062 737.453 654.001 828.125C699.387 956.972 763.814 1083.47 869.688 1173.26C966.759 1255.58 1093.28 1303.23 1221.25 1291.75C1345.84 1280.58 1438.89 1208.37 1496.37 1099.11C1584.11 932.359 1564.6 740.83 1525.61 563.185C1502.78 459.162 1478.08 373.811 1428.78 280.334C1398.56 223.029 1370.52 181.997 1313.11 151.826C1197.8 91.2203 1057.2 150.349 969.886 232.543C848.909 346.429 811.514 511.919 789.938 669.967C772.232 799.666 755.917 945.739 812.426 1068.81C858.378 1168.89 950.241 1264.47 1053.82 1304.99C1104.1 1324.67 1140.5 1329.8 1190.83 1308.04C1244.8 1284.71 1273.92 1246.22 1302.41 1195.76C1364.42 1085.9 1390.18 954.779 1401.83 830.582C1411.98 722.333 1421.2 566.018 1343.26 475.841C1296.5 421.747 1228.27 430.977 1178.44 474.432C1102.6 540.563 1049.53 651.939 1034.68 750.222C1013.42 890.916 1067.49 1036.71 1135.42 1157.35C1160.91 1202.62 1204.77 1264.38 1245.89 1299.38C1267.85 1318.06 1317.78 1346.89 1350.18 1345.37C1389.53 1343.53 1423.65 1309.52 1443.45 1280.07C1473.37 1235.56 1502.1 1156.54 1513.49 1105.74C1523.36 1061.74 1530.87 992.524 1518.56 946.047C1513.06 925.279 1493.51 893.765 1466.43 894.571C1441.28 895.321 1413.25 927.569 1403.41 945.203C1380.7 985.873 1367.27 1048.84 1362.5 1093.05C1351.15 1198.39 1354.15 1329.9 1413.08 1422.86C1457.31 1492.64 1541.67 1534.45 1618.17 1484.48C1664.9 1453.96 1711.55 1386.58 1737.79 1341.22C1767.54 1289.77 1810.22 1192.78 1826.4 1134.66C1838.03 1092.86 1849.67 1025.78 1834.25 980.923C1824.13 951.476 1789.66 920.053 1758.1 915.438C1648.7 899.44 1565.84 1037.98 1548.26 1126.29C1526.53 1235.46 1590.03 1356.37 1711.43 1360.11C1763.9 1361.73 1823.12 1333.36 1864.1 1304.05C1948.95 1243.37 1906.43 1253.29 1981.55 1184.77" stroke="#274D5B" stroke-width="1.37883"/>
<path d="M1230.14 1098C1261.31 1026.05 1260.79 941.182 1244.29 866.051C1220.45 757.515 1174.13 647.086 1110.87 555.581C1079.37 510.009 1052.98 480.538 1009.86 446.153C974.882 418.255 943.115 394.831 896.296 393.633C842.679 392.261 803.321 416.224 761.188 446.825C712.869 481.918 676.902 518.167 646.106 569.222C593.059 657.165 618.281 748.991 652.313 838.9C700.672 966.66 768.012 1091.63 875.938 1178.94C974.891 1259 1102.49 1303.69 1230.15 1289.26C1354.45 1275.2 1445.8 1200.85 1500.74 1090.3C1584.58 921.554 1560.64 730.529 1517.55 553.834C1492.32 450.369 1465.64 365.613 1414.19 273.303C1382.65 216.713 1353.66 176.343 1295.58 147.51C1178.89 89.5922 1039.7 151.963 954.313 236.158C836.007 352.816 802.457 519.128 784.548 677.634C769.852 807.708 756.927 954.12 816.272 1075.85C864.53 1174.83 958.584 1268.26 1063.07 1306.38C1113.79 1324.88 1150.3 1329.17 1200.12 1306.25C1253.53 1281.67 1281.75 1242.52 1309.06 1191.41C1368.51 1080.14 1391.23 948.461 1400 824.028C1407.64 715.573 1413.24 559.086 1333.22 470.739C1285.22 417.744 1217.23 428.552 1168.41 473.15C1094.13 541.02 1043.66 653.595 1031.09 752.196C1013.09 893.345 1070.52 1037.85 1141.23 1156.88C1167.76 1201.55 1213.04 1262.28 1254.97 1296.31C1277.35 1314.48 1327.93 1342.14 1360.29 1339.87C1399.58 1337.12 1432.91 1302.33 1452.02 1272.44C1480.9 1227.24 1507.79 1147.57 1518 1096.53C1526.85 1052.31 1532.75 982.937 1519.37 936.758C1513.39 916.122 1493.11 885.07 1466.07 886.503C1440.94 887.835 1413.67 920.724 1404.23 938.582C1382.47 979.767 1370.5 1043.03 1366.76 1087.33C1357.85 1192.92 1363.9 1324.32 1424.97 1415.89C1470.81 1484.62 1556.11 1524.47 1631.44 1472.74C1677.44 1441.14 1722.52 1372.7 1747.7 1326.74C1776.25 1274.62 1816.67 1176.67 1831.5 1118.19C1842.16 1076.13 1852.24 1008.79 1835.79 964.309C1824.99 935.105 1789.8 904.489 1758.14 900.606C1648.39 887.147 1568.77 1027.57 1553.24 1116.26C1534.05 1225.91 1600.33 1345.31 1721.79 1346.24C1774.27 1346.65 1832.82 1316.91 1873.11 1286.66C1956.53 1224.03 1914.26 1234.93 1987.77 1164.69" stroke="#274D5B" stroke-width="1.37883"/>
<path d="M1234.19 1095.36C1263.69 1022.71 1261.2 937.876 1242.96 863.148C1216.61 755.193 1167.74 645.867 1102.39 555.852C1069.84 511.022 1042.76 482.171 998.865 448.794C963.248 421.714 930.946 399.032 884.113 398.92C830.478 398.79 791.686 423.659 750.273 455.227C702.78 491.431 667.663 528.504 638.058 580.258C587.063 669.406 614.406 760.624 650.512 849.719C701.818 976.325 772.036 1099.7 881.956 1184.49C982.737 1262.23 1111.33 1303.96 1238.63 1286.57C1362.57 1269.63 1452.17 1193.19 1504.53 1081.39C1584.45 910.751 1556.09 720.331 1508.91 544.683C1481.29 441.83 1452.65 357.715 1399.08 266.622C1366.24 210.778 1336.32 171.09 1277.58 143.611C1159.59 88.4124 1021.88 153.992 938.466 240.142C822.894 359.51 793.206 526.555 778.975 685.433C767.297 815.813 757.767 962.485 819.917 1082.8C870.456 1180.65 966.649 1271.87 1071.99 1307.55C1123.13 1324.87 1159.73 1328.32 1209 1304.25C1261.83 1278.44 1289.13 1238.65 1315.25 1186.92C1372.11 1074.3 1391.77 942.131 1397.65 817.527C1402.78 708.925 1404.75 552.35 1322.71 465.881C1273.49 414.012 1205.76 426.393 1158 472.11C1085.31 541.683 1037.46 655.397 1027.17 754.263C1012.45 895.791 1073.22 1038.92 1146.66 1156.29C1174.23 1200.33 1220.9 1259.99 1263.6 1293.05C1286.4 1310.69 1337.61 1337.17 1369.9 1334.16C1409.13 1330.49 1441.64 1294.94 1460.05 1264.61C1487.88 1218.76 1512.91 1138.49 1521.94 1087.22C1529.76 1042.81 1534.05 973.318 1519.61 927.461C1513.15 906.97 1492.16 876.396 1465.15 878.456C1440.06 880.369 1413.56 913.881 1404.54 931.953C1383.74 973.631 1373.24 1037.16 1370.53 1081.53C1364.06 1187.29 1373.15 1318.52 1436.33 1408.65C1483.75 1476.31 1569.95 1514.16 1644.06 1460.7C1689.32 1428.05 1732.8 1358.58 1756.9 1312.05C1784.25 1259.28 1822.38 1160.42 1835.85 1101.61C1845.54 1059.32 1854.05 991.764 1836.58 947.674C1825.1 918.727 1789.21 888.935 1757.47 885.787C1647.44 874.875 1571.09 1017.1 1557.63 1106.13C1540.98 1216.19 1610.01 1334.03 1731.45 1332.15C1783.94 1331.33 1841.78 1300.25 1881.36 1269.07C1963.3 1204.53 1921.29 1216.41 1993.16 1144.48" stroke="#274D5B" stroke-width="1.37883"/>
<path d="M1237.8 1092.64C1265.6 1019.32 1261.15 934.574 1241.18 860.288C1212.34 752.973 1160.95 644.808 1093.53 556.332C1059.95 512.268 1032.21 484.052 987.553 451.701C951.318 425.454 918.5 403.527 871.677 404.499C818.053 405.613 779.848 431.373 739.178 463.893C692.536 501.187 658.288 539.064 629.89 591.49C580.973 681.796 610.423 772.356 648.583 860.591C702.809 985.974 775.867 1107.69 887.722 1189.91C990.278 1265.29 1119.81 1304.03 1246.67 1283.69C1370.18 1263.89 1457.99 1185.39 1507.74 1072.41C1583.68 899.966 1550.92 710.255 1499.69 535.747C1469.68 433.561 1439.11 350.132 1383.44 260.305C1349.32 205.237 1318.49 166.253 1259.13 140.142C1139.88 87.6926 1003.73 156.445 922.336 244.505C809.562 366.519 783.752 534.207 773.206 693.372C764.552 823.987 758.423 970.841 823.344 1089.69C876.136 1186.33 974.417 1275.3 1080.56 1308.54C1132.08 1324.67 1168.75 1327.26 1217.46 1302.06C1269.67 1275.03 1296.04 1234.62 1320.96 1182.3C1375.19 1068.4 1391.78 935.802 1394.77 811.096C1397.38 702.404 1395.73 545.826 1311.7 461.281C1261.3 410.566 1193.88 424.512 1147.18 471.324C1076.12 542.562 1030.92 657.355 1022.93 756.433C1011.5 898.264 1075.56 1039.95 1151.7 1155.58C1180.28 1198.97 1228.32 1257.54 1271.78 1289.59C1294.98 1306.71 1346.79 1331.99 1379.01 1328.23C1418.13 1323.66 1449.81 1287.36 1467.51 1256.61C1494.27 1210.13 1517.44 1129.3 1525.28 1077.83C1532.07 1033.26 1534.75 963.684 1519.25 918.175C1512.32 897.839 1490.62 867.759 1463.67 870.444C1438.63 872.939 1412.91 907.056 1404.31 925.331C1384.48 967.48 1375.46 1031.23 1373.78 1075.66C1369.76 1181.54 1381.89 1312.52 1447.14 1401.16C1496.11 1467.7 1583.17 1503.55 1656.02 1448.39C1700.51 1414.69 1742.37 1344.24 1765.39 1297.16C1791.5 1243.78 1827.34 1144.06 1839.44 1084.95C1848.14 1042.44 1855.09 974.711 1836.6 931.038C1824.46 902.365 1787.89 873.412 1756.08 871C1645.83 862.64 1572.8 1006.6 1561.4 1095.92C1547.3 1206.34 1619.04 1322.54 1740.41 1317.84C1792.86 1315.81 1849.97 1283.39 1888.82 1251.31C1969.24 1184.89 1927.52 1197.74 1997.7 1124.16" stroke="#274D5B" stroke-width="1.37883"/>
<path d="M1240.97 1089.85C1267.07 1015.91 1260.65 931.284 1238.97 857.482C1207.66 750.863 1153.77 643.918 1084.32 557.028C1049.72 513.754 1021.34 486.188 975.946 454.881C939.112 429.48 905.795 408.319 859.007 410.376C805.423 412.732 767.825 439.371 727.919 472.824C682.155 511.189 648.793 549.849 621.617 602.919C574.806 694.335 606.346 784.187 646.541 871.515C703.657 995.607 779.516 1115.59 893.246 1195.2C997.52 1268.19 1127.91 1303.92 1254.27 1280.65C1377.28 1257.99 1463.25 1177.48 1510.38 1063.37C1582.3 889.213 1545.15 700.312 1489.89 527.038C1457.53 425.575 1425.03 342.876 1367.29 254.363C1331.9 200.101 1300.18 161.841 1240.23 137.113C1119.8 87.4404 985.275 159.329 905.945 249.252C796.028 373.846 774.11 542.086 767.255 701.453C761.63 832.234 758.905 979.19 826.563 1096.5C881.58 1191.9 981.896 1278.57 1088.78 1309.33C1140.66 1324.26 1177.38 1326.01 1225.49 1299.68C1277.07 1271.45 1302.49 1230.44 1326.19 1177.56C1377.77 1062.43 1391.28 929.486 1391.38 804.744C1391.47 696.02 1386.19 539.523 1300.23 456.947C1248.67 407.413 1181.59 422.919 1135.99 470.799C1066.6 543.665 1024.07 659.475 1018.38 758.711C1010.23 900.769 1077.56 1040.93 1156.36 1154.77C1185.94 1197.49 1235.32 1254.92 1279.51 1285.96C1303.1 1302.53 1355.49 1326.61 1387.6 1322.1C1426.61 1316.62 1457.44 1279.6 1474.43 1248.46C1500.1 1201.37 1521.39 1120.02 1528.03 1068.39C1533.79 1023.66 1534.86 954.048 1518.3 908.91C1510.9 888.739 1488.52 859.171 1461.64 862.479C1436.66 865.553 1411.74 900.257 1403.57 918.727C1384.72 961.324 1377.17 1025.27 1376.52 1069.72C1374.96 1175.67 1390.13 1306.33 1457.41 1393.44C1507.91 1458.83 1595.77 1492.65 1667.33 1435.81C1711.02 1401.09 1751.24 1329.69 1773.16 1282.09C1798.03 1228.12 1831.55 1127.59 1842.28 1068.22C1849.99 1025.53 1855.37 957.649 1835.87 914.416C1823.07 886.032 1785.84 857.934 1753.98 856.26C1643.57 850.457 1573.89 996.068 1564.56 1085.63C1553.03 1196.34 1627.44 1310.85 1748.67 1303.35C1801.06 1300.1 1857.4 1266.37 1895.5 1233.39C1974.36 1165.13 1932.95 1178.94 2001.4 1103.75" stroke="#274D5B" stroke-width="1.37883"/>
<path d="M1243.71 1087C1268.09 1012.48 1259.71 928.022 1236.33 854.741C1202.55 748.877 1146.2 643.209 1074.75 557.952C1039.17 515.491 1010.16 488.59 964.044 458.343C926.632 433.803 892.833 413.419 846.105 416.56C792.591 420.157 755.62 447.66 716.5 482.028C671.637 521.444 639.179 560.866 613.241 614.552C568.561 707.027 602.174 796.125 644.381 882.497C704.358 1005.23 782.976 1123.43 898.52 1200.38C1004.46 1270.93 1135.64 1303.63 1261.43 1277.44C1383.88 1251.94 1467.96 1169.45 1512.43 1054.29C1580.3 878.509 1538.78 690.52 1479.52 518.572C1444.82 417.886 1410.41 335.963 1350.64 248.812C1314 195.384 1281.4 157.87 1220.89 134.537C1099.35 87.668 966.523 162.654 889.298 254.391C782.297 381.498 764.284 550.202 761.123 709.684C758.529 840.561 759.211 987.54 829.568 1103.25C886.781 1197.35 989.078 1281.67 1096.64 1309.95C1148.86 1323.68 1185.61 1324.57 1233.1 1297.13C1284 1267.72 1308.48 1226.13 1330.94 1172.71C1379.84 1056.42 1390.27 923.197 1387.48 798.486C1385.05 689.789 1376.14 533.457 1288.29 452.895C1235.59 404.569 1168.89 421.625 1124.41 470.549C1056.73 545.003 1016.9 661.767 1013.5 761.108C1008.65 903.317 1079.21 1041.88 1160.63 1153.86C1191.19 1195.88 1241.89 1252.16 1286.78 1282.17C1310.76 1298.19 1363.68 1321.05 1395.68 1315.79C1434.56 1309.41 1464.52 1271.69 1480.78 1240.15C1505.36 1192.48 1524.76 1110.66 1530.2 1058.89C1534.91 1014.05 1534.37 944.426 1516.78 899.683C1508.91 879.69 1485.85 850.648 1459.05 854.578C1434.15 858.231 1410.04 893.502 1402.3 912.157C1384.44 955.179 1378.38 1019.28 1378.76 1063.74C1379.66 1169.69 1397.84 1299.97 1467.12 1385.49C1519.13 1449.69 1607.75 1481.47 1677.97 1422.99C1720.85 1387.27 1759.4 1314.95 1780.22 1266.86C1803.83 1212.32 1835 1111.05 1844.35 1051.45C1851.08 1008.58 1854.88 940.599 1834.39 897.83C1820.93 869.75 1783.06 842.523 1751.17 841.587C1640.65 838.344 1574.37 985.53 1567.12 1075.28C1558.15 1186.23 1635.2 1298.99 1756.22 1288.68C1808.52 1284.22 1864.07 1249.19 1901.39 1215.34C1978.65 1145.26 1937.57 1160.03 2004.26 1083.28" stroke="#274D5B" stroke-width="1.37883"/>
<path d="M1246.02 1084.1C1268.66 1009.03 1258.33 924.789 1233.25 852.069C1197.03 747.016 1138.25 642.683 1064.84 559.103C1028.28 517.479 998.656 491.257 951.856 462.087C913.885 438.42 879.623 418.825 832.98 423.048C779.563 427.883 743.24 456.235 704.927 491.501C660.988 531.946 629.453 572.11 604.766 626.382C562.24 719.867 597.909 808.163 642.106 893.534C704.911 1014.85 786.246 1131.19 903.542 1205.44C1011.09 1273.52 1142.99 1303.17 1268.14 1274.07C1389.97 1245.74 1472.12 1161.33 1513.9 1045.16C1577.68 867.861 1531.82 680.884 1468.59 510.356C1431.56 410.501 1395.27 329.397 1333.49 243.654C1295.62 191.09 1262.16 154.341 1201.13 132.417C1078.53 88.3762 947.483 166.42 872.404 259.921C768.377 389.474 754.277 558.549 754.812 718.062C755.252 848.964 759.339 995.888 832.358 1109.94C891.736 1202.68 995.959 1284.61 1104.15 1310.39C1156.67 1322.91 1193.44 1322.95 1240.27 1294.42C1290.48 1263.83 1313.98 1221.69 1335.2 1167.76C1381.39 1050.37 1388.73 916.94 1383.06 792.327C1378.11 683.716 1365.58 527.632 1275.89 449.127C1222.09 402.035 1155.79 420.632 1112.46 470.574C1046.52 546.576 1009.41 664.232 1008.32 763.625C1006.76 905.908 1080.51 1042.8 1164.5 1152.86C1196.02 1194.17 1248.02 1249.25 1293.6 1278.21C1317.93 1293.67 1371.37 1315.3 1403.25 1309.31C1441.96 1302.03 1471.04 1263.62 1486.57 1231.72C1510.03 1183.49 1527.53 1101.24 1531.77 1049.36C1535.45 1004.41 1533.3 934.824 1514.67 890.501C1506.34 870.696 1482.61 842.196 1455.91 846.746C1431.1 850.974 1407.81 886.795 1400.51 905.624C1383.65 949.048 1379.08 1013.27 1380.49 1057.71C1383.84 1163.61 1405.04 1293.43 1476.28 1377.33C1529.76 1440.31 1619.1 1470.03 1687.94 1409.93C1729.98 1373.23 1766.84 1300.03 1786.54 1251.48C1808.88 1196.41 1837.71 1094.44 1845.67 1034.63C1851.4 991.626 1853.63 923.573 1832.15 881.29C1818.04 853.529 1779.55 827.187 1747.65 826.99C1637.09 826.309 1574.23 974.991 1569.06 1064.89C1562.67 1176.02 1642.31 1286.95 1763.06 1273.84C1815.24 1268.18 1869.96 1231.87 1906.48 1197.16C1982.1 1125.31 1941.37 1141.03 2006.27 1062.75" stroke="#274D5B" stroke-width="1.37883"/>
<path d="M1247.88 1081.16C1268.77 1005.58 1256.49 921.603 1229.74 849.484C1191.09 745.299 1129.91 642.355 1054.59 560.499C1017.07 519.733 986.846 494.205 939.382 466.127C900.873 443.346 866.167 424.55 819.634 429.852C766.344 435.924 730.687 465.11 693.202 501.255C650.212 542.706 619.616 583.59 596.193 638.419C555.845 732.865 593.55 820.31 639.713 904.635C705.311 1024.46 789.321 1138.89 908.306 1210.4C1017.4 1275.97 1149.96 1302.56 1274.39 1270.56C1395.54 1239.42 1475.7 1153.13 1514.79 1036.02C1574.44 857.292 1524.26 671.427 1457.09 502.41C1417.77 403.44 1379.6 323.199 1315.86 238.91C1276.78 187.237 1242.47 151.273 1180.95 130.769C1057.37 89.581 928.16 170.64 855.268 265.856C754.27 397.784 744.092 567.141 748.323 726.599C751.795 857.455 759.285 1004.24 834.928 1116.57C896.438 1207.92 1002.53 1287.41 1111.29 1310.67C1164.09 1321.97 1200.84 1321.16 1247 1291.55C1296.5 1259.81 1319.01 1217.13 1338.98 1162.73C1382.43 1044.3 1386.68 910.735 1378.12 786.287C1370.66 677.82 1354.51 522.068 1263.03 445.662C1208.15 399.83 1142.31 419.957 1100.14 470.89C1035.98 548.4 1001.6 666.883 1002.82 766.275C1004.56 908.556 1081.46 1043.7 1167.98 1151.79C1200.45 1192.35 1253.7 1246.22 1299.94 1274.11C1324.63 1289.01 1378.56 1309.39 1410.28 1302.66C1448.82 1294.48 1477 1255.41 1491.78 1223.16C1514.13 1174.4 1529.71 1091.77 1532.75 1039.8C1535.38 994.785 1531.62 925.265 1511.97 881.386C1503.19 861.778 1478.8 833.836 1452.21 839.004C1427.51 843.806 1405.06 880.156 1398.19 899.149C1382.35 942.952 1379.26 1007.27 1381.7 1051.66C1387.5 1157.46 1411.7 1286.75 1484.87 1368.97C1539.8 1430.7 1629.8 1458.33 1697.23 1396.66C1738.41 1359 1773.57 1284.97 1792.13 1235.97C1813.19 1180.39 1839.65 1077.78 1846.22 1017.81C1850.96 974.681 1851.61 906.594 1829.15 864.82C1814.41 837.394 1775.31 811.951 1743.42 812.493C1632.87 814.374 1573.47 964.472 1570.39 1054.47C1566.58 1165.71 1648.76 1274.78 1769.18 1258.87C1821.21 1251.99 1875.08 1214.43 1910.79 1178.89C1984.72 1105.3 1944.37 1121.96 2007.43 1042.2" stroke="#274D5B" stroke-width="1.37883"/>
<path d="M1249.3 1078.18C1268.44 1002.14 1254.22 918.472 1225.8 846.993C1184.75 743.731 1121.2 642.233 1044 562.144C1005.55 522.258 974.741 497.437 926.639 470.466C887.613 448.583 852.48 430.597 806.083 436.976C752.948 444.281 717.977 474.285 681.339 511.288C639.321 553.725 609.681 595.307 587.534 650.664C549.385 746.02 589.106 832.568 637.211 915.8C705.568 1034.07 792.206 1146.52 912.816 1215.26C1023.4 1278.29 1156.54 1301.79 1280.2 1266.93C1400.59 1232.98 1478.74 1144.85 1515.1 1026.88C1570.59 846.811 1516.12 662.159 1445.05 494.744C1403.44 396.712 1363.43 317.376 1297.75 234.587C1257.48 183.833 1222.36 148.674 1160.37 129.601C1035.87 91.2876 908.573 175.319 837.907 272.198C739.994 406.431 733.742 575.978 741.667 735.295C748.17 866.035 759.059 1012.61 837.284 1123.16C900.895 1213.05 1008.8 1290.06 1118.07 1310.8C1171.12 1320.87 1207.84 1319.21 1253.3 1288.54C1302.05 1255.66 1323.57 1212.47 1342.27 1157.62C1382.97 1038.21 1384.12 904.591 1372.68 780.375C1362.7 672.109 1342.96 516.773 1249.72 442.508C1193.8 397.959 1128.44 419.607 1087.47 471.503C1025.12 550.479 993.493 669.727 997.01 769.064C1002.05 911.266 1082.06 1044.6 1171.06 1150.65C1204.46 1190.45 1258.95 1243.07 1305.82 1269.88C1330.85 1284.2 1385.24 1303.33 1416.8 1295.86C1455.13 1286.8 1482.4 1247.08 1496.43 1214.5C1517.64 1165.23 1531.31 1082.26 1533.14 1030.24C1534.73 985.173 1529.36 915.758 1508.69 872.346C1499.46 852.948 1474.43 825.578 1447.97 831.36C1423.38 836.733 1401.78 873.594 1395.36 892.741C1380.53 936.9 1378.94 1001.27 1382.4 1045.59C1390.66 1151.23 1417.85 1279.92 1492.9 1360.43C1549.24 1420.86 1639.86 1446.41 1705.84 1383.19C1746.14 1344.58 1779.57 1269.76 1797 1220.34C1816.77 1164.29 1840.83 1061.1 1846.02 1000.99C1849.75 957.762 1848.82 889.678 1825.41 848.436C1810.03 821.359 1770.36 796.828 1738.49 798.109C1628.01 802.551 1572.11 953.985 1571.11 1044.03C1569.87 1155.33 1654.57 1262.46 1774.58 1243.77C1826.44 1235.69 1879.42 1196.88 1914.3 1160.53C1986.51 1085.25 1946.55 1102.84 2007.75 1021.64" stroke="#274D5B" stroke-width="1.37883"/>
<path d="M1250.29 1075.19C1267.66 998.722 1251.5 915.406 1221.44 844.604C1178 742.321 1112.12 642.322 1033.08 564.044C993.719 525.059 962.343 500.959 913.63 475.11C874.107 454.137 838.567 436.97 792.33 444.422C739.378 452.956 705.112 483.763 669.341 521.605C628.318 565.004 599.649 607.261 578.791 663.117C542.861 759.331 584.577 844.935 634.597 927.03C705.677 1043.69 794.897 1154.1 917.068 1220.03C1029.08 1280.47 1162.73 1300.89 1285.55 1263.16C1405.12 1226.44 1481.2 1136.53 1514.82 1017.74C1566.13 836.433 1507.39 653.093 1432.47 487.37C1388.59 390.328 1346.75 311.941 1279.17 230.696C1237.74 180.888 1201.81 146.553 1139.4 128.921C1014.04 93.5024 888.73 180.461 820.327 278.951C725.55 415.417 723.229 585.063 734.843 744.154C744.374 874.708 758.656 1020.99 839.421 1129.7C905.098 1218.09 1014.76 1292.58 1124.48 1310.79C1177.75 1319.62 1214.42 1317.11 1259.16 1285.4C1307.13 1251.4 1327.65 1207.72 1345.07 1152.45C1382.99 1032.13 1381.05 898.518 1366.73 774.601C1354.25 666.596 1330.91 511.758 1235.98 439.673C1179.04 396.433 1114.2 419.589 1074.44 472.42C1013.94 552.819 985.082 672.769 990.901 771.997C999.23 914.045 1082.31 1045.48 1173.75 1149.45C1208.06 1188.46 1263.75 1239.8 1311.23 1265.52C1336.59 1279.26 1391.4 1297.12 1422.78 1288.93C1460.9 1278.98 1487.24 1238.64 1500.51 1205.74C1520.57 1156 1532.31 1072.73 1532.94 1020.68C1533.48 975.589 1526.5 906.317 1504.84 863.396C1495.16 844.216 1469.5 817.434 1443.18 823.828C1418.73 829.769 1397.99 867.121 1392.01 886.412C1378.21 930.902 1378.11 995.289 1382.6 1039.52C1393.3 1144.94 1423.46 1272.97 1500.36 1351.72C1558.09 1410.83 1649.27 1434.27 1713.77 1369.54C1753.17 1330 1784.85 1254.42 1801.13 1204.62C1819.59 1148.12 1841.26 1044.4 1845.06 984.188C1847.79 940.886 1845.28 872.843 1820.91 832.154C1804.92 805.44 1764.68 781.835 1732.85 783.855C1622.5 790.855 1570.13 943.544 1571.22 1033.58C1572.56 1144.89 1659.71 1250.03 1779.26 1228.56C1830.92 1219.28 1882.99 1179.26 1917.01 1142.1C1987.46 1065.17 1947.92 1083.68 2007.22 1001.08" stroke="#274D5B" stroke-width="1.37883"/>
<path d="M1250.83 1072.18C1266.43 995.334 1248.35 912.415 1216.65 842.329C1170.85 741.079 1102.67 642.634 1021.84 566.208C981.585 528.146 949.66 504.779 900.361 480.065C860.363 460.014 824.434 443.675 778.382 452.196C725.643 461.955 692.099 493.548 657.215 532.209C617.208 576.546 589.526 619.456 569.968 675.78C536.277 772.801 579.965 857.416 631.874 938.33C705.638 1053.31 797.392 1161.63 921.058 1224.7C1034.44 1282.54 1168.53 1299.85 1290.44 1259.29C1409.13 1219.8 1483.11 1128.15 1513.96 1008.62C1561.06 826.174 1498.09 644.244 1419.34 480.3C1373.23 384.301 1329.59 306.905 1260.14 227.247C1217.57 178.413 1180.85 144.92 1118.05 128.738C991.905 96.234 868.641 186.073 802.538 286.121C710.949 424.746 712.559 594.401 727.856 753.18C740.409 883.478 758.077 1029.39 841.339 1136.2C909.046 1223.05 1020.41 1294.98 1130.52 1310.63C1183.97 1318.23 1220.58 1314.87 1264.57 1282.13C1311.74 1247.03 1331.24 1202.89 1347.38 1147.23C1382.5 1026.06 1377.46 892.53 1360.28 768.978C1345.3 661.291 1318.38 507.036 1221.8 437.17C1163.87 395.26 1099.59 419.912 1061.07 473.65C1002.44 555.43 976.374 676.016 984.49 775.083C996.108 916.899 1082.21 1046.38 1176.03 1148.19C1211.24 1186.4 1268.11 1236.44 1316.17 1261.06C1341.84 1274.2 1397.05 1290.79 1428.23 1281.87C1466.11 1271.04 1491.51 1230.1 1504.01 1196.9C1522.91 1146.71 1532.72 1063.19 1532.15 1011.14C1531.64 966.048 1523.06 896.957 1500.41 854.549C1490.28 835.599 1464.01 809.418 1437.85 816.42C1413.54 822.926 1393.67 860.749 1388.14 880.173C1375.38 924.971 1376.77 989.343 1382.28 1033.46C1395.42 1138.6 1428.54 1265.9 1507.25 1342.84C1566.33 1400.6 1658.03 1421.92 1721.01 1355.71C1759.48 1315.28 1789.41 1238.98 1804.53 1188.81C1821.68 1131.91 1840.94 1027.71 1843.33 967.426C1845.06 924.072 1840.98 856.105 1815.67 815.992C1799.06 789.656 1758.29 766.989 1726.52 769.746C1616.36 779.301 1567.54 933.163 1570.71 1023.15C1574.63 1134.4 1664.2 1237.49 1783.22 1213.25C1834.65 1202.78 1885.77 1161.56 1918.93 1123.63C1987.57 1045.09 1948.47 1064.51 2005.84 980.56" stroke="#274D5B" stroke-width="1.37883"/>
<path d="M1250.93 1069.18C1264.74 991.989 1244.74 909.511 1211.43 840.178C1163.3 740.017 1092.86 643.178 1010.28 568.645C969.152 531.526 936.694 508.905 886.836 485.341C846.383 466.222 810.086 450.719 764.244 460.306C711.745 471.284 678.942 503.645 644.963 543.104C605.994 588.356 579.314 631.896 561.066 688.658C529.633 786.434 575.27 870.013 629.039 949.703C705.447 1062.94 799.687 1169.1 924.78 1229.3C1039.47 1284.49 1173.92 1298.69 1294.86 1255.32C1412.6 1213.09 1484.44 1119.75 1512.52 999.534C1555.37 816.047 1488.2 635.625 1405.68 473.551C1357.36 378.645 1311.93 302.281 1240.66 224.254C1196.97 176.42 1159.49 143.786 1096.33 129.064C969.462 99.4913 848.312 192.162 784.545 293.716C696.193 434.425 701.733 603.997 720.705 762.379C736.274 892.352 757.318 1037.82 843.033 1142.66C912.734 1227.92 1025.73 1297.25 1136.18 1310.35C1189.79 1316.71 1226.31 1312.5 1269.54 1278.75C1315.88 1242.57 1334.35 1197.98 1349.19 1141.97C1381.5 1020.02 1373.37 886.64 1353.32 763.519C1335.85 656.208 1305.36 502.619 1207.2 435.009C1148.31 394.452 1084.61 420.588 1047.35 475.204C990.636 558.32 967.368 679.477 977.778 778.33C992.679 919.839 1081.76 1047.29 1177.91 1146.9C1214 1184.29 1272.01 1232.99 1320.63 1256.49C1346.59 1269.03 1402.18 1284.34 1433.14 1274.7C1470.76 1262.99 1495.2 1221.48 1506.93 1188C1524.67 1137.38 1532.54 1053.66 1530.76 1001.63C1529.21 956.566 1519.03 887.692 1495.4 845.821C1484.84 827.11 1457.97 801.545 1431.98 809.152C1407.82 816.219 1388.84 854.492 1383.75 874.039C1372.03 919.12 1374.91 983.444 1381.45 1027.42C1397.02 1132.23 1433.08 1258.72 1513.55 1333.82C1573.95 1390.2 1666.12 1409.39 1727.56 1341.74C1765.08 1300.42 1793.23 1223.46 1807.18 1172.95C1823.01 1115.66 1839.85 1011.04 1840.85 950.722C1841.57 907.339 1835.91 839.485 1809.69 799.969C1792.47 774.025 1751.19 752.309 1719.48 755.801C1609.58 767.906 1564.33 922.858 1569.59 1012.75C1576.09 1123.87 1668.02 1224.86 1786.44 1197.88C1837.62 1186.22 1887.77 1143.82 1920.04 1105.13C1986.85 1025.02 1948.21 1045.34 2003.62 960.087" stroke="#274D5B" stroke-width="1.37883"/>
<path d="M1250.6 1066.18C1262.62 988.694 1240.71 906.701 1205.8 838.159C1155.37 739.14 1082.7 643.959 998.414 571.36C956.438 535.204 923.465 513.341 873.073 490.938C832.189 472.761 795.542 458.104 749.935 468.75C697.704 480.942 665.66 514.054 632.604 554.29C594.695 600.433 569.03 644.579 552.102 701.749C522.943 800.226 570.504 882.726 626.106 961.149C705.117 1072.59 801.791 1176.54 928.246 1233.82C1044.19 1286.33 1178.93 1297.42 1298.83 1251.25C1415.56 1206.31 1485.22 1111.33 1510.5 990.496C1549.1 806.065 1477.76 627.248 1391.51 467.129C1341 373.369 1293.82 298.078 1220.76 221.723C1175.97 174.914 1137.74 143.157 1074.25 129.903C946.737 103.277 827.767 198.73 766.371 301.734C681.302 444.453 690.77 613.851 713.407 771.751C731.983 901.328 756.392 1046.27 844.513 1149.1C916.17 1232.72 1030.74 1299.41 1141.46 1309.95C1195.21 1315.06 1231.63 1310.01 1274.05 1275.27C1319.54 1238.02 1336.98 1193.02 1350.52 1136.67C1379.99 1014.01 1368.77 880.857 1345.88 758.233C1325.93 651.355 1291.89 498.514 1192.18 433.196C1132.38 394.015 1069.3 421.62 1033.31 477.084C978.537 561.492 958.083 683.156 970.78 781.741C988.956 922.867 1080.96 1048.22 1179.4 1145.58C1216.34 1182.12 1275.47 1229.46 1324.62 1251.83C1350.87 1263.77 1406.79 1277.78 1437.52 1267.43C1474.86 1254.85 1498.33 1212.78 1509.29 1179.04C1525.84 1128.02 1531.77 1044.14 1528.78 992.171C1526.19 947.153 1514.42 878.533 1489.82 837.22C1478.84 818.759 1451.38 793.824 1425.57 802.03C1401.59 809.656 1383.49 848.358 1378.86 868.018C1368.19 913.359 1372.56 977.598 1380.11 1021.41C1398.11 1125.83 1437.1 1251.46 1519.28 1324.67C1580.97 1379.63 1673.56 1396.68 1733.41 1327.62C1769.96 1285.45 1796.33 1207.85 1809.1 1157.04C1823.6 1099.4 1838.01 994.419 1837.61 934.089C1837.33 890.702 1830.1 822.997 1802.97 784.099C1785.15 758.561 1743.38 737.807 1711.76 742.033C1602.17 756.681 1560.52 912.64 1567.86 1002.39C1576.94 1113.33 1671.18 1212.16 1788.95 1182.44C1839.84 1169.59 1889 1126.05 1920.36 1086.62C1985.29 1004.99 1947.14 1026.19 2000.56 939.68" stroke="#274D5B" stroke-width="1.37883"/>
<path d="M1249.82 1063.21C1260.04 985.462 1236.24 903.998 1199.75 836.283C1147.04 738.46 1072.18 644.988 986.236 574.361C943.434 539.187 909.963 518.094 859.066 496.865C817.772 479.64 780.795 465.836 735.447 477.536C683.512 490.935 652.244 524.781 620.129 565.771C583.299 612.78 558.664 657.51 543.066 715.056C516.196 814.183 565.656 895.559 623.06 972.672C704.632 1082.25 803.688 1183.93 931.436 1238.27C1048.56 1288.08 1183.53 1296.04 1302.33 1247.11C1417.99 1199.48 1485.42 1102.91 1507.9 981.519C1542.21 796.244 1466.75 619.128 1376.81 461.05C1324.15 368.485 1275.23 294.308 1200.42 219.666C1154.56 173.908 1115.6 143.045 1051.83 131.265C923.728 107.602 807.002 205.785 748.008 310.184C666.269 454.836 679.66 623.969 705.949 781.302C727.522 910.414 755.283 1054.75 845.763 1155.51C919.339 1237.45 1035.43 1301.47 1146.36 1309.44C1200.21 1313.31 1236.5 1307.41 1278.11 1271.69C1322.73 1233.4 1339.11 1188.01 1351.34 1131.36C1377.97 1008.05 1363.67 875.193 1337.94 753.133C1315.52 646.746 1277.94 494.734 1176.75 431.745C1116.05 393.96 1053.63 423.019 1018.94 479.302C966.136 564.957 948.506 687.062 963.484 785.326C984.925 925.993 1079.81 1049.18 1180.48 1144.23C1218.26 1179.9 1278.46 1225.87 1328.12 1247.09C1354.64 1258.41 1410.87 1271.13 1441.36 1260.07C1478.39 1246.63 1500.88 1204.03 1511.05 1170.04C1526.42 1118.65 1530.41 1034.66 1526.21 982.771C1522.58 937.824 1509.22 869.496 1483.68 828.764C1472.26 810.563 1444.24 786.27 1418.62 795.072C1394.82 803.252 1377.63 842.362 1373.46 862.124C1363.84 907.7 1369.7 971.821 1378.26 1015.45C1398.67 1119.42 1440.56 1244.11 1524.42 1315.4C1587.36 1368.92 1680.33 1383.82 1738.56 1313.39C1774.12 1270.38 1798.68 1192.2 1810.28 1141.1C1823.43 1083.14 1835.41 977.853 1833.61 917.548C1832.32 874.179 1823.53 806.66 1795.5 768.401C1777.1 743.283 1734.86 723.503 1703.35 728.46C1594.12 745.644 1556.1 902.525 1565.52 992.078C1577.16 1102.78 1673.67 1199.4 1790.72 1166.96C1841.3 1152.94 1889.44 1108.27 1919.88 1068.12C1982.9 985.005 1945.24 1007.09 1996.64 919.363" stroke="#274D5B" stroke-width="1.37883"/>
<path d="M1248.6 1060.26C1257.02 982.299 1231.34 901.409 1193.29 834.558C1138.32 737.982 1061.32 646.27 973.765 577.653C930.16 543.48 896.208 523.169 844.833 503.124C803.151 486.861 765.864 473.918 720.799 486.665C669.189 501.263 638.714 535.825 607.557 577.549C571.826 625.398 548.234 670.687 533.973 728.579C509.408 828.302 560.74 908.51 619.915 984.272C704.004 1091.93 805.39 1191.29 934.363 1242.65C1052.61 1289.74 1187.72 1294.57 1305.36 1242.9C1419.88 1192.6 1485.06 1094.49 1504.72 972.615C1534.73 786.595 1455.19 611.274 1361.61 455.323C1306.81 364.003 1256.19 290.979 1179.67 218.091C1132.76 173.407 1093.1 143.456 1029.07 133.156C900.459 112.468 786.038 213.329 729.48 319.067C651.114 465.574 668.42 634.351 698.348 791.033C722.907 919.61 754.005 1063.26 846.795 1161.9C922.249 1242.11 1039.79 1303.43 1150.88 1308.82C1204.81 1311.44 1240.95 1304.71 1281.72 1268.04C1325.44 1228.72 1340.77 1182.96 1351.68 1126.05C1375.44 1002.15 1358.06 869.66 1329.52 748.228C1304.63 642.39 1263.55 491.289 1160.93 430.661C1099.37 394.293 1037.64 424.79 1004.25 481.862C953.452 568.717 938.656 691.198 955.907 789.089C980.602 929.221 1078.32 1050.18 1181.16 1142.87C1219.76 1177.66 1281.01 1222.21 1331.15 1242.28C1357.92 1252.99 1414.43 1264.39 1444.65 1252.63C1481.36 1238.34 1502.86 1195.23 1512.24 1161.01C1526.42 1109.28 1528.46 1025.22 1523.06 973.442C1518.39 928.591 1503.45 860.591 1476.97 820.462C1465.13 802.53 1436.55 778.893 1411.15 788.287C1387.54 797.015 1371.26 836.514 1367.55 856.367C1358.99 902.154 1366.33 966.122 1375.9 1009.54C1398.72 1113.01 1443.48 1236.7 1528.97 1306.03C1593.14 1358.07 1686.42 1370.81 1743.01 1299.05C1777.57 1255.23 1800.31 1176.5 1810.72 1125.14C1822.53 1066.9 1832.06 961.361 1828.87 901.114C1826.57 857.787 1816.22 790.489 1787.31 752.89C1768.33 728.205 1725.64 709.409 1694.25 715.095C1585.46 734.805 1551.08 892.525 1562.57 981.836C1576.78 1092.24 1675.5 1186.6 1791.76 1151.45C1842 1136.26 1889.09 1090.49 1918.59 1049.65C1979.67 965.094 1942.54 988.047 1991.89 899.151" stroke="#274D5B" stroke-width="1.37883"/>
<path d="M1246.95 1057.36C1253.55 979.222 1226.01 898.949 1186.42 832.997C1129.23 737.721 1050.12 647.818 960.999 581.248C916.613 548.095 882.201 528.575 830.375 509.726C788.327 494.434 750.751 482.358 705.993 496.145C654.735 511.936 625.068 547.194 594.887 589.629C560.274 638.293 537.738 684.116 524.822 742.324C502.574 842.589 555.75 921.585 616.665 995.956C703.226 1101.64 806.887 1198.62 937.015 1246.98C1056.32 1291.32 1191.51 1293.01 1307.92 1238.63C1421.25 1185.69 1484.13 1086.1 1500.97 963.802C1526.65 777.136 1443.07 603.705 1345.9 449.964C1289.01 359.939 1236.71 288.107 1158.52 217.012C1110.59 173.427 1070.24 144.402 1005.99 135.589C876.934 117.886 764.881 221.372 710.788 328.392C635.838 476.675 657.049 645.006 690.599 800.952C718.131 928.926 752.549 1071.82 847.6 1168.28C924.893 1246.72 1043.82 1305.3 1155.01 1308.12C1208.98 1309.49 1244.96 1301.91 1284.87 1264.31C1327.66 1223.99 1341.93 1177.89 1351.52 1120.74C1372.4 996.327 1351.96 864.272 1320.61 743.534C1293.28 638.301 1248.71 488.193 1144.7 429.959C1082.32 395.027 1021.31 426.946 989.261 484.776C940.485 572.785 928.531 695.576 948.045 793.04C975.98 932.563 1076.47 1051.22 1181.43 1141.51C1220.83 1175.39 1283.1 1218.52 1333.68 1237.41C1360.69 1247.5 1417.46 1257.59 1447.4 1245.13C1483.77 1229.99 1504.26 1186.4 1512.85 1151.97C1525.82 1099.93 1525.91 1015.84 1519.32 964.203C1513.61 919.473 1497.09 851.837 1469.69 812.332C1457.44 794.68 1428.32 771.711 1403.15 781.691C1379.75 790.964 1364.39 830.829 1361.14 850.763C1353.64 896.736 1362.46 960.516 1373.04 1003.7C1398.24 1106.61 1445.86 1229.23 1532.93 1296.56C1598.29 1347.1 1691.84 1357.68 1746.75 1284.63C1780.29 1240.02 1801.19 1160.78 1810.41 1109.2C1820.87 1050.69 1827.95 944.966 1823.37 884.809C1820.07 841.547 1808.15 774.507 1778.38 737.588C1758.84 713.349 1715.73 695.547 1684.48 701.959C1576.17 724.185 1545.46 882.659 1559.01 971.679C1575.77 1081.72 1676.65 1173.77 1792.07 1135.94C1841.95 1119.59 1887.96 1072.74 1916.51 1031.23C1975.62 945.277 1939.02 969.085 1986.3 879.069" stroke="#274D5B" stroke-width="1.37883"/>
<path d="M1244.85 1054.5C1249.65 976.236 1220.25 896.623 1179.15 831.606C1119.76 737.68 1038.59 649.634 947.952 585.147C902.811 553.031 867.955 534.314 815.707 516.671C773.316 502.357 735.47 491.155 691.043 505.976C640.165 522.95 611.323 558.886 582.133 602.008C548.657 651.462 527.189 697.795 515.625 756.286C495.706 857.039 550.699 934.783 613.32 1007.72C702.307 1111.37 808.187 1205.93 939.401 1251.26C1059.7 1292.82 1194.9 1291.38 1310.01 1234.32C1422.08 1178.76 1482.65 1077.74 1496.64 955.087C1517.99 767.876 1430.42 596.429 1329.71 444.98C1270.75 356.297 1216.79 285.697 1136.98 216.432C1088.05 173.969 1047.04 145.887 982.608 138.565C853.174 123.857 743.549 229.912 691.95 338.156C620.456 488.136 645.562 655.93 682.716 811.057C713.206 938.359 750.926 1080.42 848.186 1174.65C927.276 1251.28 1047.53 1307.08 1158.75 1307.33C1212.74 1307.44 1248.53 1299.04 1287.56 1260.52C1329.41 1219.22 1342.6 1172.8 1350.87 1115.44C1368.86 990.582 1345.37 859.036 1311.22 739.058C1281.47 634.485 1233.43 485.45 1128.1 429.642C1064.92 396.165 1004.67 429.489 973.972 488.047C927.248 577.162 918.142 700.197 939.909 797.183C971.07 936.021 1074.29 1052.32 1181.31 1140.15C1221.48 1173.11 1284.73 1214.78 1335.74 1232.5C1362.98 1241.96 1419.96 1250.73 1449.6 1237.58C1485.61 1221.61 1505.09 1177.54 1512.88 1142.93C1524.64 1090.6 1522.78 1006.53 1515 955.063C1508.25 910.477 1490.17 843.242 1461.86 804.383C1449.21 787.019 1419.57 764.731 1394.63 775.292C1371.45 785.104 1357.02 825.315 1354.23 845.318C1347.8 891.453 1358.09 955.012 1369.67 997.938C1397.25 1100.24 1447.7 1221.72 1536.31 1287.02C1602.82 1336.03 1696.59 1344.43 1749.79 1270.14C1782.28 1224.76 1801.35 1145.06 1809.37 1093.27C1818.47 1034.54 1823.1 928.68 1817.12 868.646C1812.82 825.471 1799.36 758.726 1768.74 722.506C1748.64 698.727 1705.12 681.929 1674.04 689.063C1566.27 713.792 1539.24 872.935 1554.85 961.618C1574.16 1071.24 1677.14 1160.93 1791.65 1120.43C1841.14 1102.93 1886.06 1055.03 1913.63 1012.86C1970.73 925.57 1934.7 950.219 1979.88 859.132" stroke="#274D5B" stroke-width="1.37883"/>
<path d="M1242.33 1051.71C1245.31 973.354 1214.07 894.443 1171.47 830.396C1109.93 737.871 1026.74 651.73 934.63 589.36C888.756 558.299 853.476 540.395 800.833 523.967C758.121 510.639 720.026 500.316 675.955 516.163C625.483 534.311 597.482 570.906 569.299 614.693C536.978 664.909 516.589 711.727 506.384 770.47C488.804 871.658 545.584 948.107 609.879 1019.58C701.242 1121.13 809.285 1213.21 941.514 1255.49C1062.75 1294.25 1197.87 1289.68 1311.63 1229.97C1422.38 1171.83 1480.59 1069.44 1491.74 946.488C1508.75 758.832 1417.23 589.46 1313.04 440.385C1252.03 353.093 1196.46 283.761 1115.06 216.364C1065.16 175.047 1023.52 147.922 958.929 142.095C829.188 130.39 722.05 238.956 672.973 348.367C604.973 499.963 633.961 667.131 674.699 821.355C708.13 947.916 749.131 1089.06 848.549 1181.02C929.393 1255.79 1050.91 1308.8 1162.1 1306.46C1216.08 1305.33 1251.67 1296.1 1289.8 1256.68C1330.68 1214.43 1342.79 1167.71 1349.73 1110.18C1364.82 984.934 1338.28 853.968 1301.37 734.812C1269.2 630.958 1217.72 483.076 1111.13 429.723C1047.19 397.718 987.729 432.43 958.392 491.683C913.745 581.857 907.493 705.069 931.502 801.525C965.87 939.604 1071.75 1053.48 1180.78 1138.81C1221.7 1170.83 1285.9 1211.02 1337.31 1227.55C1364.76 1236.38 1421.93 1243.83 1451.26 1230C1486.89 1213.19 1505.35 1168.69 1512.33 1133.9C1522.87 1081.32 1519.07 997.315 1510.09 946.038C1502.31 901.621 1482.68 834.823 1453.48 796.63C1440.43 779.563 1410.28 757.969 1385.59 769.104C1362.65 779.451 1349.15 819.985 1346.82 840.048C1341.46 886.319 1353.23 949.622 1365.8 992.269C1395.74 1093.91 1448.99 1214.19 1539.09 1277.41C1606.72 1324.87 1700.66 1331.1 1752.13 1255.59C1783.56 1209.47 1800.77 1129.35 1807.59 1077.39C1815.32 1018.46 1817.5 912.523 1810.13 852.644C1804.83 809.581 1789.83 743.165 1758.38 707.665C1737.73 684.357 1693.84 668.572 1662.92 676.424C1555.76 703.644 1532.42 863.371 1550.09 951.668C1571.93 1060.82 1676.97 1148.09 1790.51 1104.95C1839.57 1086.31 1883.37 1037.38 1909.96 994.588C1965.02 905.993 1929.57 931.471 1972.63 839.361" stroke="#274D5B" stroke-width="1.37883"/>
<path d="M1239.36 1048.99C1240.53 970.583 1207.47 892.417 1163.4 829.374C1099.73 738.3 1014.57 654.109 921.037 593.891C874.456 563.901 838.771 546.819 785.761 531.615C742.752 519.28 704.428 509.843 660.736 526.707C610.698 546.019 583.553 583.253 556.392 627.682C525.243 678.633 505.944 725.911 497.103 784.875C481.872 886.443 540.408 961.555 606.342 1031.52C700.034 1130.93 810.181 1220.48 943.354 1259.68C1065.45 1295.62 1200.43 1287.92 1312.78 1225.59C1422.16 1164.9 1477.98 1061.19 1486.27 938.014C1498.93 750.014 1403.51 582.808 1295.89 436.188C1232.88 350.332 1175.72 282.307 1092.78 216.814C1041.94 176.664 999.672 150.512 934.967 146.183C804.99 137.487 700.396 248.506 653.867 359.025C589.398 512.156 622.251 678.607 666.552 831.846C702.906 957.598 747.167 1097.76 848.688 1187.38C931.243 1260.27 1053.95 1310.44 1165.06 1305.53C1219 1303.15 1254.37 1293.09 1291.57 1252.81C1331.46 1209.61 1342.49 1162.63 1348.09 1104.95C1360.28 979.39 1330.71 849.074 1291.05 730.806C1256.48 627.725 1201.59 481.076 1093.79 430.206C1029.13 399.692 970.487 435.772 942.53 495.689C899.985 586.873 896.589 710.198 922.826 806.071C960.385 943.316 1068.88 1054.71 1179.86 1137.48C1221.51 1168.55 1286.62 1207.25 1338.4 1222.58C1366.05 1230.77 1423.37 1236.9 1452.37 1222.38C1487.6 1204.76 1505.02 1159.84 1511.19 1124.9C1520.52 1072.09 1514.77 988.195 1504.61 937.139C1495.8 892.914 1474.63 826.589 1444.55 789.083C1431.11 772.323 1400.46 751.433 1376.04 763.137C1353.34 774.013 1340.79 814.849 1338.93 834.961C1334.64 881.343 1347.87 944.357 1361.42 986.701C1393.72 1087.62 1449.74 1206.63 1541.28 1267.75C1609.99 1313.63 1704.05 1317.68 1753.75 1241C1784.1 1194.16 1799.46 1113.66 1805.07 1061.56C1811.44 1002.47 1811.16 896.511 1802.41 836.818C1796.11 793.889 1779.57 727.839 1747.31 693.077C1726.13 670.254 1681.88 655.49 1651.15 664.057C1544.65 693.752 1525.02 853.976 1544.73 941.84C1569.09 1050.45 1676.12 1135.27 1788.63 1089.51C1837.25 1069.74 1879.9 1019.81 1905.5 976.411C1958.49 886.564 1923.64 912.856 1964.55 819.774" stroke="#274D5B" stroke-width="1.37883"/>
<path d="M1235.97 1046.35C1235.31 967.938 1200.46 890.559 1154.93 828.555C1089.17 738.981 1002.08 656.785 907.179 598.75C859.916 569.847 823.844 553.597 770.496 539.626C727.213 528.291 688.68 519.744 645.391 537.616C595.814 558.082 569.539 595.935 543.414 640.981C513.455 692.641 495.256 740.353 487.783 799.506C474.911 901.399 535.171 975.135 602.708 1043.55C698.678 1140.76 810.871 1227.74 944.917 1263.84C1067.82 1296.95 1202.58 1286.12 1313.45 1221.2C1421.4 1158 1474.8 1053.02 1480.24 929.684C1488.54 741.442 1389.26 576.492 1278.28 432.404C1213.3 348.032 1154.57 281.349 1070.14 217.795C1018.38 178.834 975.519 153.668 910.731 150.84C780.587 145.158 678.594 258.571 634.639 370.138C573.735 524.722 610.436 690.367 658.275 842.538C697.534 967.415 745.03 1106.51 848.601 1193.76C932.822 1264.71 1056.66 1312.03 1167.63 1304.54C1221.5 1300.91 1256.62 1290.04 1292.88 1248.9C1331.76 1204.8 1341.69 1157.57 1345.96 1099.78C1355.24 973.969 1322.66 844.373 1280.26 727.056C1243.31 624.803 1185.04 479.465 1076.09 431.107C1010.74 402.099 952.951 439.528 926.391 500.077C885.97 592.222 885.432 715.592 913.884 810.832C954.612 947.17 1065.66 1056.02 1178.52 1136.2C1220.88 1166.29 1286.88 1203.47 1339 1217.6C1366.83 1225.15 1424.28 1229.94 1452.94 1214.76C1487.75 1196.32 1504.12 1151.02 1509.48 1115.95C1517.58 1062.93 1509.89 979.191 1498.55 928.385C1488.72 884.376 1466.02 818.559 1435.08 781.76C1421.25 765.316 1390.13 745.142 1365.98 757.409C1343.54 768.807 1331.94 809.924 1330.54 830.073C1327.33 876.542 1342.02 939.233 1356.55 981.251C1391.17 1081.39 1449.94 1199.08 1542.86 1258.06C1612.62 1302.33 1706.75 1304.2 1754.66 1226.39C1783.92 1178.87 1797.41 1098.03 1801.81 1045.81C1806.81 986.593 1804.08 880.664 1793.94 821.191C1786.65 778.419 1768.59 712.77 1735.53 678.765C1713.82 656.439 1669.25 642.704 1638.73 651.98C1532.94 684.135 1517.02 844.772 1538.76 932.155C1565.63 1040.17 1674.6 1122.49 1786.02 1074.14C1834.17 1053.24 1875.66 1002.33 1900.24 958.357C1951.13 867.307 1916.9 894.4 1955.65 800.394" stroke="#274D5B" stroke-width="1.37883"/>
</svg>
