<svg width="1884" height="1297" viewBox="0 0 1884 1297" fill="none" xmlns="http://www.w3.org/2000/svg">
<g opacity="0.6">
<path d="M1749.95 772.456C1742.16 747.376 1736.41 722.444 1716.56 703.827C1682.85 672.212 1638.96 661.418 1595.64 648.517C1526.96 628.062 1459.72 607.911 1396.12 574.15C1360.5 555.24 1308.17 529.777 1295.99 487.454C1293.36 478.334 1288.8 449.475 1297.75 441.406C1301.87 437.688 1316.83 440.481 1321 440.94C1330.24 441.957 1344.79 442.945 1350.3 452.011C1358.28 465.136 1357.07 489.683 1349.9 502.811C1338.3 524.055 1297.91 522.046 1278.13 520.821C1246.47 518.86 1221.33 512.828 1195.26 494.836C1179.93 484.253 1168.02 473.665 1170.15 453.933C1172.94 428.081 1180.52 469.855 1179.57 477.641C1177.82 492.133 1170.04 499.372 1155.45 502.62C1116.73 511.238 1070.34 501.528 1031.65 497.183C979.128 491.283 926.701 473.492 873.777 473.082C854.245 472.931 838.629 478.136 823.517 490.195C816.433 495.849 802.021 505.956 800.672 516.042C799.535 524.535 805.636 533.033 810.23 539.469C822.956 557.303 838.025 573.394 851.783 590.419C873.7 617.539 890.991 647.118 885.354 683.108C880.017 717.185 849.278 737.618 816.673 741.558C785.859 745.282 753.723 740.839 724.292 731.385C711.743 727.353 711.851 726.859 702.671 721.937C699.476 720.224 701.191 721.17 704.197 724.723C728.112 752.992 748.658 777.498 745.445 816.056C742.816 847.599 729.261 880.752 692.159 880.439C654.915 880.125 617.771 865.629 580.366 870.449C550.371 874.315 552.281 904.092 549.05 928.237C547.921 936.677 546.095 944.142 552.298 951.019C560.486 960.095 572.544 965.53 583.061 971.324C601.939 981.725 621.253 991.301 611.718 1015.58C608.899 1022.76 602.466 1023.06 595.483 1022.65C571.045 1021.2 546.484 1014 523.736 1005.4C503.921 997.908 478.867 988.566 464.315 972.223C461.279 968.814 461.578 963.552 460.643 970.54C458.27 988.275 459.382 1020.26 434.5 1018.79C413.607 1017.55 392.485 1010.05 373.952 1000.76C361.4 994.461 342.516 984.816 336.791 970.757C336.004 968.823 336.538 956.961 335.565 964.236C333.753 977.78 331.944 992.396 324.61 1004.29C312.994 1023.12 289.18 1017.9 270.599 1015.83C204.048 1008.44 137.716 998.354 71.3517 989.475" stroke="#1B799B" stroke-width="1.46407" stroke-linecap="round"/>
<path d="M1745.88 481.318C1732.37 458.77 1720.88 435.887 1697.18 422.447C1656.94 399.623 1611.76 399.419 1566.63 397.033C1495.08 393.25 1425.01 389.424 1355.23 371.519C1316.16 361.491 1259.3 349.008 1237.43 310.731C1232.72 302.483 1221.45 275.506 1228.23 265.566C1231.35 260.987 1246.54 260.197 1250.7 259.666C1259.91 258.487 1274.27 256.039 1281.78 263.558C1292.64 274.443 1297.28 298.583 1293.43 313.021C1287.2 336.386 1247.5 343.9 1228.01 347.344C1196.79 352.859 1170.95 352.888 1141.37 341.512C1123.96 334.821 1109.89 327.321 1107.28 307.645C1103.86 281.867 1121.12 320.69 1122.05 328.477C1123.78 342.974 1117.95 351.831 1104.54 358.408C1068.98 375.857 1021.63 377.292 983.029 382.137C930.621 388.713 875.489 383.709 823.993 395.714C804.989 400.145 791.057 408.863 779.241 424.125C773.702 431.28 762.102 444.48 763.183 454.598C764.093 463.118 772.033 469.947 778.02 475.126C794.608 489.475 813.057 501.581 830.456 514.902C858.171 536.122 881.976 560.816 885.036 597.114C887.933 631.482 862.925 658.544 832.194 670.015C803.152 680.855 770.889 684.069 740.066 681.778C726.923 680.801 726.911 680.296 716.828 677.663C713.319 676.747 715.209 677.265 718.971 680.014C748.899 701.882 774.663 720.883 780.685 759.108C785.611 790.379 780.307 825.776 744.202 834.167C707.958 842.59 668.448 837.208 633.265 850.658C605.051 861.444 613.966 889.935 616.554 914.158C617.458 922.625 617.455 930.308 625.11 935.538C635.213 942.44 648.213 944.895 659.8 948.061C680.6 953.745 701.627 958.525 698.125 984.357C697.089 991.997 690.912 993.793 684.033 995.028C659.957 999.35 634.398 998.111 610.266 995.082C589.246 992.444 562.699 989.237 544.692 976.765C540.935 974.163 539.978 968.979 540.727 975.99C542.627 993.781 551.292 1024.61 526.778 1029.01C506.194 1032.7 483.904 1030.36 463.701 1025.67C450.018 1022.5 429.392 1017.55 420.499 1005.23C419.275 1003.53 416.982 991.878 417.762 999.176C419.213 1012.76 420.922 1027.39 416.619 1040.67C409.804 1061.69 385.438 1062.2 366.903 1064.55C300.52 1072.96 233.709 1078.7 167.153 1085.63" stroke="#1B799B" stroke-width="1.46407" stroke-linecap="round"/>
<path d="M1749.03 759.85C1740.95 734.859 1734.92 709.992 1714.86 691.6C1680.78 660.366 1636.78 650.067 1593.31 637.655C1524.41 617.976 1456.95 598.583 1392.96 565.54C1357.13 547.033 1304.51 522.16 1291.85 479.977C1289.12 470.887 1284.23 442.081 1293.09 433.911C1297.17 430.147 1312.15 432.771 1316.33 433.183C1325.58 434.096 1340.14 434.92 1345.75 443.924C1353.88 456.957 1352.95 481.517 1345.93 494.725C1334.58 516.099 1294.16 514.545 1274.38 513.544C1242.69 511.939 1217.49 506.191 1191.22 488.494C1175.76 478.084 1163.74 467.631 1165.65 447.876C1168.14 421.993 1176.19 463.68 1175.34 471.476C1173.74 485.988 1166.05 493.313 1151.49 496.726C1112.88 505.779 1066.38 496.593 1027.65 492.684C975.06 487.376 922.435 470.177 869.51 470.363C849.978 470.432 834.422 475.813 819.45 488.043C812.43 493.776 798.135 504.045 796.901 514.145C795.861 522.651 802.059 531.079 806.725 537.464C819.653 555.154 834.905 571.074 848.856 587.943C871.08 614.815 888.707 644.197 883.481 680.249C878.533 714.385 848.03 735.163 815.472 739.471C784.703 743.542 752.518 739.461 722.983 730.339C710.388 726.449 710.491 725.953 701.255 721.135C698.041 719.458 699.767 720.385 702.813 723.904C727.049 751.902 747.872 776.175 745.099 814.768C742.83 846.339 729.654 879.643 692.552 879.748C655.307 879.854 618.001 865.777 580.654 871.019C550.706 875.222 552.954 904.976 549.999 929.157C548.967 937.608 547.226 945.094 553.507 951.901C561.797 960.885 573.917 966.183 584.499 971.858C603.494 982.046 622.915 991.403 613.658 1015.79C610.921 1023 604.492 1023.37 597.505 1023.04C573.052 1021.87 548.412 1014.95 525.567 1006.6C505.668 999.333 480.51 990.274 465.773 974.096C462.698 970.72 462.936 965.456 462.081 972.454C459.911 990.215 461.388 1022.19 436.491 1021C415.585 1019.99 394.38 1012.73 375.742 1003.65C363.12 997.492 344.127 988.06 338.243 974.066C337.433 972.141 337.832 960.274 336.942 967.56C335.285 981.123 333.642 995.759 326.445 1007.73C315.045 1026.7 291.173 1021.74 272.569 1019.89C205.94 1013.25 139.498 1003.91 73.038 995.775" stroke="#1B799B" stroke-width="1.46407"/>
<path d="M1749.11 746.208C1740.75 721.309 1734.43 696.512 1714.16 678.347C1679.73 647.499 1635.61 637.696 1592.01 625.774C1522.89 606.872 1455.21 588.241 1390.86 555.92C1354.81 537.818 1301.92 513.54 1288.78 471.501C1285.94 462.442 1280.73 433.693 1289.49 425.423C1293.52 421.613 1308.54 424.069 1312.72 424.434C1321.98 425.242 1336.55 425.902 1342.26 434.842C1350.54 447.783 1349.89 472.352 1343.02 485.639C1331.91 507.14 1291.48 506.042 1271.69 505.263C1239.99 504.016 1214.72 498.551 1188.25 481.151C1172.68 470.916 1160.53 460.599 1162.21 440.823C1164.41 414.914 1172.94 456.508 1172.17 464.313C1170.75 478.842 1163.14 486.254 1148.62 489.831C1110.11 499.319 1063.51 490.657 1024.74 487.184C972.094 482.47 919.278 465.864 866.359 466.647C846.829 466.936 831.336 472.492 816.504 484.89C809.551 490.702 795.374 501.131 794.255 511.245C793.313 519.762 799.605 528.12 804.344 534.452C817.473 551.995 832.905 567.742 847.047 584.453C869.576 611.074 887.536 640.256 882.722 676.366C878.164 710.555 847.9 731.676 815.393 736.35C784.673 740.768 752.445 737.05 722.808 728.261C710.17 724.513 710.267 724.017 700.977 719.302C697.744 717.662 699.48 718.57 702.566 722.054C727.119 749.777 748.218 773.814 745.885 812.437C743.976 844.032 731.181 877.483 694.083 878.006C656.843 878.532 619.378 864.876 582.095 870.538C552.196 875.079 554.784 904.806 552.105 929.019C551.169 937.482 549.514 944.987 555.872 951.722C564.264 960.612 576.443 965.774 587.089 971.33C606.198 981.302 625.725 990.441 616.747 1014.93C614.092 1022.17 607.667 1022.62 600.677 1022.36C576.213 1021.47 551.496 1014.82 528.558 1006.74C508.578 999.691 483.318 990.916 468.398 974.905C465.284 971.564 465.463 966.297 464.688 973.305C462.72 991.089 464.561 1023.04 439.653 1022.13C418.738 1021.37 397.451 1014.35 378.711 1005.47C366.02 999.457 346.921 990.239 340.877 976.312C340.046 974.396 340.31 962.525 339.503 969.821C338 983.402 336.525 998.056 329.464 1010.11C318.281 1029.2 294.355 1024.51 275.732 1022.87C209.032 1016.98 142.489 1008.39 75.9415 1001.01" stroke="#1B799B" stroke-width="1.46407"/>
<path d="M1749.19 732.529C1740.55 707.726 1733.95 683.001 1713.47 665.065C1678.7 634.607 1634.47 625.302 1590.74 613.872C1521.4 595.75 1453.52 577.882 1388.8 546.288C1352.55 528.593 1299.38 504.912 1285.76 463.023C1282.83 453.997 1277.28 425.308 1285.95 416.94C1289.94 413.084 1304.98 415.371 1309.17 415.689C1318.44 416.392 1333.01 416.888 1338.83 425.763C1347.25 438.611 1346.88 463.186 1340.16 476.549C1329.3 498.174 1288.86 497.532 1269.06 496.976C1237.35 496.086 1212.02 490.907 1185.35 473.806C1169.67 463.747 1157.41 453.567 1158.86 433.774C1160.77 407.841 1169.76 449.337 1169.09 457.15C1167.83 471.694 1160.3 479.192 1145.83 482.932C1107.43 492.853 1060.74 484.717 1021.92 481.681C969.231 477.56 916.23 461.551 863.324 462.93C843.799 463.439 828.371 469.169 813.681 481.733C806.794 487.624 792.737 498.212 791.734 508.338C790.889 516.865 797.277 525.152 802.087 531.43C815.415 548.824 831.025 564.397 845.357 580.948C868.187 607.313 886.479 636.291 882.077 672.453C877.909 706.693 847.888 728.154 815.437 733.194C784.77 737.957 752.502 734.603 722.767 726.148C710.087 722.543 710.179 722.045 700.836 717.436C697.585 715.832 699.331 716.72 702.456 720.169C727.324 747.615 748.694 771.413 746.802 810.059C745.254 841.674 732.841 875.268 695.752 876.21C658.52 877.155 620.903 863.922 583.687 870.004C553.843 874.881 556.769 904.577 554.367 928.819C553.527 937.292 551.957 944.816 558.392 951.48C566.885 960.274 579.122 965.299 589.83 970.734C609.052 980.491 628.681 989.409 619.983 1014C617.411 1021.27 610.992 1021.79 603.999 1021.61C579.527 1020.99 554.736 1014.63 531.708 1006.8C511.649 999.978 486.291 991.489 471.189 975.646C468.038 972.341 468.157 967.072 467.461 974.088C465.697 991.894 467.902 1023.83 442.985 1023.2C422.063 1022.67 400.698 1015.88 381.858 1007.22C369.099 1001.35 349.897 992.349 343.695 978.491C342.842 976.585 342.97 964.711 342.246 972.015C340.899 985.613 339.591 1000.28 332.668 1012.42C321.704 1031.63 297.725 1027.21 279.085 1025.78C212.324 1020.64 145.688 1012.8 79.0614 1006.17" stroke="#1B799B" stroke-width="1.46407"/>
<path d="M1749.28 718.82C1740.35 694.115 1733.47 669.466 1712.79 651.761C1677.67 621.696 1633.34 612.89 1589.48 601.953C1519.94 584.614 1451.86 567.512 1386.79 536.649C1350.34 519.363 1296.91 496.282 1282.81 454.549C1279.77 445.556 1273.9 416.931 1282.47 408.466C1286.42 404.566 1301.49 406.683 1305.68 406.953C1314.96 407.553 1329.53 407.885 1335.45 416.693C1344.02 429.446 1343.93 454.024 1337.36 467.462C1326.75 489.208 1286.31 489.021 1266.5 488.689C1234.78 488.156 1209.39 483.263 1182.53 466.463C1166.73 456.581 1154.36 446.54 1155.59 426.731C1157.2 400.778 1166.67 442.17 1166.08 449.991C1164.98 464.549 1157.55 472.131 1143.11 476.033C1104.83 486.387 1058.05 478.778 1019.21 476.18C966.471 472.653 913.291 457.241 860.405 459.216C840.887 459.945 825.525 465.849 810.98 478.578C804.161 484.546 790.226 495.292 789.338 505.429C788.59 513.965 795.072 522.179 799.954 528.403C813.479 545.646 829.265 561.042 843.785 577.431C866.914 603.537 885.535 632.308 881.545 668.518C877.768 702.802 847.994 724.6 815.604 730.006C784.993 735.115 752.689 732.124 722.86 724.005C710.14 720.543 710.226 720.044 700.831 715.54C697.562 713.973 699.318 714.841 702.482 718.255C727.661 745.419 749.301 768.975 747.85 807.641C746.662 839.272 734.633 873.004 697.558 874.363C660.34 875.728 622.575 862.919 585.431 869.42C555.645 874.633 558.91 904.295 556.784 928.563C556.041 937.045 554.557 944.586 561.067 951.177C569.659 959.875 581.953 964.762 592.722 970.076C612.054 979.616 631.783 988.312 623.366 1013C620.877 1020.3 614.465 1020.89 607.47 1020.79C582.993 1020.45 558.131 1014.36 535.016 1006.79C514.88 1000.2 489.427 991.996 474.146 976.325C470.958 973.055 471.016 967.786 470.401 974.809C468.84 992.634 471.409 1024.54 446.487 1024.19C425.56 1023.9 404.119 1017.36 385.182 1008.9C372.357 1003.18 353.054 994.394 346.694 980.606C345.819 978.709 345.812 966.835 345.172 974.147C343.979 987.759 342.839 1002.44 336.055 1014.65C325.311 1033.99 301.284 1029.85 282.629 1028.62C215.814 1024.24 149.094 1017.15 82.3968 1011.27" stroke="#1B799B" stroke-width="1.46407"/>
<path d="M1748.37 705.072C1739.16 680.47 1732 655.899 1711.12 638.429C1675.66 608.761 1631.23 600.455 1587.25 590.013C1517.52 573.458 1449.25 557.124 1383.83 526.996C1347.19 510.122 1293.5 487.644 1278.92 446.072C1275.78 437.114 1269.59 408.557 1278.06 399.995C1281.96 396.051 1297.05 397.998 1301.24 398.222C1310.53 398.716 1325.1 398.884 1331.12 407.626C1339.84 420.28 1340.03 444.858 1333.62 458.37C1323.25 480.234 1282.81 480.503 1263 480.394C1231.28 480.219 1205.84 475.612 1178.79 459.116C1162.88 449.413 1150.39 439.511 1151.39 419.69C1152.7 393.72 1162.65 435.003 1162.15 442.83C1161.22 457.399 1153.87 465.064 1139.48 469.13C1101.32 479.914 1054.46 472.832 1015.58 470.672C962.813 467.739 909.461 452.928 856.601 455.499C837.093 456.448 821.8 462.524 807.401 475.417C800.651 481.461 786.839 492.364 786.067 502.51C785.417 511.054 791.992 519.195 796.944 525.363C810.665 542.453 826.625 557.67 841.331 573.894C864.756 599.739 883.703 628.298 880.127 664.551C876.741 698.876 847.218 721.009 814.891 726.779C784.341 732.232 752.006 729.606 722.086 721.823C709.328 718.505 709.408 718.005 699.963 713.608C696.676 712.077 698.442 712.926 701.645 716.304C727.131 743.182 749.038 766.493 748.028 805.174C747.201 836.816 735.557 870.682 698.5 872.459C661.301 874.243 623.393 861.861 586.326 868.78C556.601 874.328 560.204 903.952 558.355 928.242C557.709 936.732 556.311 944.289 562.896 950.806C571.587 959.408 583.935 964.155 594.764 969.348C614.203 978.669 634.03 987.143 625.895 1011.92C623.489 1019.25 617.084 1019.91 610.089 1019.89C585.61 1019.82 560.681 1014.02 537.481 1006.71C517.272 1000.35 491.727 992.431 476.268 976.933C473.043 973.699 473.041 968.429 472.506 975.459C471.148 993.3 474.081 1025.18 449.157 1025.11C428.228 1025.05 406.714 1018.75 387.683 1010.51C374.793 1004.93 355.391 996.365 348.875 982.65C347.979 980.763 347.836 968.889 347.279 976.208C346.242 989.833 345.269 1004.53 338.625 1016.81C328.102 1036.27 304.03 1032.4 285.362 1031.38C218.502 1027.75 151.706 1021.42 84.947 1016.29" stroke="#1B799B" stroke-width="1.46407"/>
<path d="M1748.46 691.288C1738.97 666.791 1731.53 642.302 1710.45 625.068C1674.66 595.801 1630.14 587.997 1586.04 578.051C1516.13 562.282 1447.68 546.718 1381.92 517.329C1345.09 500.869 1291.14 478.998 1276.1 437.592C1272.86 428.67 1266.34 400.184 1274.71 391.527C1278.57 387.539 1293.68 389.316 1297.87 389.492C1307.16 389.882 1321.74 389.886 1327.86 398.559C1336.71 411.115 1337.18 435.689 1330.93 449.272C1320.81 471.253 1280.38 471.977 1260.57 472.091C1228.85 472.274 1203.35 467.953 1176.12 451.763C1160.1 442.24 1147.5 432.48 1148.27 412.648C1149.29 386.665 1159.7 427.834 1159.29 435.665C1158.53 450.245 1151.27 457.992 1136.93 462.219C1098.89 473.434 1051.95 466.88 1013.06 465.158C960.257 462.82 906.74 448.61 853.914 451.777C834.418 452.946 819.195 459.194 804.945 472.248C798.264 478.368 784.577 489.426 783.921 499.58C783.368 508.131 790.035 516.198 795.057 522.31C808.972 539.244 825.105 554.281 839.994 570.338C863.713 595.917 882.984 624.261 879.822 660.552C876.827 694.914 847.559 717.378 815.3 723.512C784.815 729.31 752.452 727.047 722.446 719.602C709.65 716.428 709.725 715.927 700.23 711.636C696.926 710.143 698.701 710.972 701.943 714.314C727.734 740.904 749.905 763.966 749.336 802.656C748.87 834.306 737.613 868.301 700.579 870.495C663.403 872.698 625.356 860.744 588.371 868.081C558.712 873.964 562.652 903.545 561.08 927.855C560.531 936.352 559.219 943.924 565.878 950.367C574.666 958.87 587.067 963.478 597.955 968.548C617.499 977.65 637.421 985.9 629.57 1010.77C627.247 1018.13 620.85 1018.86 613.856 1018.92C589.377 1019.13 564.384 1013.6 541.102 1006.56C520.822 1000.42 495.189 992.791 479.555 977.468C476.293 974.271 476.231 969.001 475.776 976.037C474.622 993.892 477.918 1025.73 452.994 1025.94C432.067 1026.12 410.483 1020.07 391.358 1012.04C378.406 1006.61 358.908 998.261 352.236 984.62C351.318 982.744 351.04 970.872 350.567 978.197C349.685 991.833 348.879 1006.54 342.376 1018.9C332.076 1038.48 307.961 1034.87 289.283 1034.07C222.387 1031.19 155.524 1025.61 88.711 1021.23" stroke="#1B799B" stroke-width="1.46407"/>
<path d="M1748.55 677.473C1738.79 653.083 1731.07 628.68 1709.8 611.684C1673.67 582.823 1629.07 575.52 1584.86 566.072C1514.77 551.092 1446.14 536.3 1380.05 507.654C1343.04 491.609 1288.85 470.347 1273.33 429.113C1269.99 420.228 1263.15 391.817 1271.42 383.067C1275.23 379.036 1290.36 380.642 1294.56 380.771C1303.85 381.056 1318.43 380.895 1324.64 389.499C1333.64 401.955 1334.39 426.523 1328.29 440.175C1318.43 462.268 1278.01 463.448 1258.2 463.786C1226.48 464.325 1200.94 460.292 1173.52 444.41C1157.4 435.068 1144.68 425.45 1145.23 405.611C1145.95 379.618 1156.84 420.667 1156.51 428.503C1155.92 443.09 1148.74 450.919 1134.46 455.308C1096.55 466.95 1049.54 460.925 1010.63 459.641C957.803 457.899 904.128 444.293 851.342 448.055C831.861 449.443 816.711 455.863 802.61 469.076C795.999 475.271 782.44 486.483 781.899 496.644C781.444 505.201 788.203 513.192 793.294 519.247C807.401 536.023 823.704 550.877 838.776 566.766C862.784 592.076 882.377 620.202 879.629 656.527C877.026 690.92 848.016 713.712 815.83 720.21C785.413 726.35 753.026 724.453 722.937 717.347C710.107 714.316 710.176 713.815 700.632 709.631C697.311 708.175 699.096 708.984 702.375 712.289C728.468 738.587 750.901 761.399 750.772 800.092C750.667 831.746 739.799 865.866 702.793 868.477C665.645 871.099 627.464 859.575 590.565 867.327C560.975 873.544 565.253 903.079 563.958 927.406C563.506 935.908 562.281 943.495 569.012 949.862C577.897 958.266 590.35 962.734 601.294 967.681C620.941 976.562 640.955 984.587 633.388 1009.55C631.15 1016.93 624.762 1017.73 617.768 1017.87C593.294 1018.35 568.239 1013.11 544.879 1006.33C524.53 1000.42 498.812 993.081 483.004 977.935C479.706 974.774 479.584 969.505 479.21 976.546C478.259 994.413 481.918 1026.22 456.999 1026.71C436.074 1027.12 414.423 1021.31 395.209 1013.5C382.195 1008.21 362.603 1000.09 355.776 986.521C354.837 984.655 354.424 972.787 354.034 980.117C353.308 993.762 352.67 1008.48 346.308 1020.91C336.231 1040.6 312.078 1037.27 293.392 1036.68C226.468 1034.55 159.545 1029.72 92.6878 1026.1" stroke="#1B799B" stroke-width="1.46407"/>
<path d="M1748.65 663.618C1738.61 639.34 1730.61 615.025 1709.15 598.27C1672.69 569.817 1628.01 563.017 1583.7 554.068C1513.44 539.878 1444.65 525.861 1378.24 497.961C1341.04 482.335 1286.62 461.684 1270.63 420.628C1267.19 411.781 1260.02 383.449 1268.19 374.606C1271.96 370.532 1287.1 371.968 1291.3 372.049C1300.6 372.23 1315.17 371.905 1321.49 380.438C1330.63 392.791 1331.66 417.349 1325.71 431.07C1316.1 453.273 1275.69 454.908 1255.89 455.469C1224.18 456.366 1198.6 452.621 1171 437.048C1154.77 427.888 1141.95 418.415 1142.27 398.57C1142.7 372.57 1154.05 413.495 1153.81 421.334C1153.38 435.927 1146.3 443.836 1132.06 448.385C1094.29 460.454 1047.22 454.959 1008.29 454.114C955.452 452.967 901.626 439.967 848.886 444.323C829.422 445.931 814.346 452.521 800.397 465.893C793.857 472.162 780.427 483.526 780.002 493.692C779.644 502.253 786.494 510.168 791.654 516.165C805.951 532.782 822.423 547.451 837.674 563.169C861.969 588.207 881.882 616.11 879.548 652.464C877.338 686.885 848.589 710.003 816.48 716.863C786.135 723.346 753.729 721.813 723.561 715.046C710.697 712.161 710.76 711.659 701.17 707.583C697.832 706.165 699.626 706.953 702.943 710.221C729.333 736.223 752.025 758.781 752.338 797.474C752.593 829.126 742.115 863.367 705.141 866.396C668.026 869.436 629.717 858.342 592.909 866.51C563.392 873.06 568.005 902.545 566.988 926.885C566.633 935.392 565.494 942.992 572.298 949.283C581.278 957.586 593.781 961.913 604.781 966.737C624.528 975.396 644.632 983.195 637.35 1008.24C635.196 1015.64 628.817 1016.52 621.826 1016.74C597.359 1017.5 572.246 1012.54 548.81 1006.02C528.396 1000.34 502.596 993.29 486.616 978.323C483.282 975.2 483.1 969.933 482.806 976.977C482.059 994.854 486.08 1026.61 461.169 1027.39C440.251 1028.04 418.534 1022.47 399.232 1014.88C386.16 1009.74 366.477 1001.83 359.495 988.342C358.535 986.487 357.986 974.625 357.68 981.958C357.109 995.611 356.639 1010.33 350.42 1022.83C340.569 1042.64 316.378 1039.58 297.687 1039.2C230.744 1037.83 163.771 1033.75 96.8767 1030.88" stroke="#1B799B" stroke-width="1.46407"/>
<path d="M1747.75 649.729C1737.43 625.566 1729.16 601.343 1707.5 584.831C1670.73 556.79 1625.97 550.495 1581.56 542.045C1511.14 528.648 1442.2 515.406 1375.48 488.257C1338.1 473.05 1283.44 453.014 1266.99 412.14C1263.45 403.333 1255.96 375.083 1264.03 366.149C1267.75 362.032 1282.91 363.298 1287.11 363.332C1296.4 363.408 1310.97 362.918 1317.38 371.38C1326.67 383.63 1327.98 408.174 1322.19 421.961C1312.83 444.271 1272.45 446.362 1252.65 447.145C1220.95 448.4 1195.33 444.943 1167.56 429.683C1151.22 420.706 1138.29 411.377 1138.39 391.53C1138.52 365.528 1150.33 406.322 1150.19 414.163C1149.93 428.76 1142.93 436.749 1128.75 441.458C1091.12 453.951 1043.98 448.988 1005.05 448.581C952.203 448.029 898.232 435.637 845.546 440.587C826.102 442.414 811.102 449.173 797.306 462.701C790.838 469.044 777.538 480.558 777.23 490.729C776.969 499.294 783.909 507.131 789.137 513.069C803.622 529.524 820.26 544.007 835.69 559.552C860.269 584.315 880.498 611.992 878.579 648.37C876.761 682.813 848.278 706.254 816.249 713.475C785.98 720.3 753.559 719.133 723.316 712.706C710.42 709.966 710.478 709.463 700.841 705.495C697.488 704.115 699.291 704.883 702.645 708.113C729.33 733.817 752.277 756.117 753.031 794.804C753.648 826.452 743.561 860.809 706.624 864.254C669.545 867.712 631.112 857.051 594.4 865.633C564.96 872.515 569.909 901.947 569.17 926.296C568.911 934.807 567.86 942.42 574.735 948.633C583.809 956.835 596.36 961.021 607.415 965.72C627.258 974.157 647.451 981.728 640.454 1006.85C638.385 1014.28 632.017 1015.23 625.028 1015.52C600.572 1016.56 575.404 1011.88 551.895 1005.63C531.417 1000.18 505.539 993.423 489.39 978.637C486.021 975.552 485.779 970.287 485.565 977.334C485.022 995.219 489.405 1026.93 464.504 1027.98C443.594 1028.87 421.816 1023.55 402.429 1016.17C389.299 1011.18 369.527 1003.5 362.392 990.088C361.41 988.244 360.727 976.389 360.504 983.725C360.089 997.383 359.787 1012.11 353.711 1024.68C344.086 1044.6 319.862 1041.81 301.168 1041.64C234.213 1041.02 167.199 1037.7 100.277 1035.59" stroke="#1B799B" stroke-width="1.46407"/>
<path d="M1747.85 635.808C1737.25 611.762 1728.71 587.634 1706.86 571.366C1669.77 543.742 1624.94 537.951 1580.44 530.002C1509.88 517.4 1440.79 504.936 1373.76 478.54C1336.22 463.756 1281.33 444.337 1264.41 403.651C1260.77 394.884 1252.96 366.72 1260.93 357.695C1264.6 353.537 1279.77 354.632 1283.97 354.618C1293.27 354.589 1307.83 353.936 1314.34 362.325C1323.76 374.469 1325.35 398.998 1319.72 412.849C1310.61 435.263 1270.26 437.809 1250.47 438.815C1218.79 440.427 1193.13 437.259 1165.19 422.313C1148.75 413.521 1135.72 404.338 1135.59 384.491C1135.42 358.489 1147.7 399.147 1147.64 406.989C1147.55 421.588 1140.64 429.655 1126.51 434.524C1089.03 447.441 1041.84 443.009 1002.91 443.041C950.056 443.085 895.947 431.301 843.321 436.845C823.899 438.891 808.977 445.819 795.337 459.501C788.942 465.916 775.774 477.58 775.581 487.754C775.419 496.321 782.447 504.079 787.742 509.958C802.415 526.249 819.216 540.543 834.822 555.914C859.682 580.398 880.225 607.846 878.721 644.243C877.296 678.705 849.083 702.465 817.138 710.047C786.949 717.212 754.517 716.41 724.203 710.325C711.276 707.73 711.328 707.227 701.647 703.368C698.278 702.025 700.09 702.773 703.48 705.965C730.456 731.366 753.656 753.407 754.851 792.083C755.829 823.722 746.134 858.19 709.239 862.051C672.202 865.927 633.651 855.699 597.039 864.695C567.679 871.909 572.964 901.283 572.502 925.639C572.341 934.152 571.376 941.776 578.321 947.912C587.488 956.01 600.086 960.055 611.194 964.63C631.132 972.842 651.409 980.185 644.7 1005.39C642.716 1012.84 636.359 1013.86 629.374 1014.23C604.931 1015.54 579.712 1011.15 556.133 1005.16C535.595 999.944 509.641 993.479 493.324 978.875C489.92 975.829 489.618 970.567 489.484 977.616C489.145 995.505 493.89 1027.17 469.002 1028.5C448.105 1029.62 426.267 1024.54 406.797 1017.39C393.611 1012.55 373.753 1005.08 366.465 991.757C365.463 989.924 364.644 978.077 364.505 985.415C364.246 999.078 364.112 1013.8 358.179 1026.45C348.782 1046.47 324.528 1043.95 305.833 1043.99C238.876 1044.13 171.828 1041.56 104.887 1040.2" stroke="#1B799B" stroke-width="1.46407"/>
<path d="M1747.95 621.847C1737.08 597.922 1728.26 573.891 1706.23 557.871C1668.83 530.667 1623.93 525.382 1579.34 517.935C1508.64 506.128 1439.42 494.444 1372.09 468.804C1334.38 454.444 1279.28 435.645 1261.9 395.152C1258.15 386.427 1250.02 358.353 1257.89 349.239C1261.51 345.04 1276.7 345.963 1280.89 345.903C1290.19 345.769 1304.75 344.951 1311.35 353.266C1320.91 365.304 1322.78 389.813 1317.31 403.726C1308.46 426.242 1268.13 429.242 1248.36 430.471C1216.7 432.44 1191 429.562 1162.89 414.931C1146.35 406.325 1133.22 397.29 1132.86 377.446C1132.4 351.446 1145.14 391.964 1145.17 399.806C1145.24 414.406 1138.43 422.55 1124.36 427.578C1087.03 440.916 1039.79 437.016 1000.86 437.487C948.011 438.126 893.771 426.953 841.212 433.089C821.815 435.354 806.973 442.45 793.489 456.285C787.168 462.772 774.134 474.583 774.057 484.758C773.992 493.327 781.108 501.005 786.47 506.825C801.327 522.949 818.291 537.053 834.071 552.247C859.208 576.45 880.063 603.664 878.974 640.076C877.942 674.551 850.002 698.628 818.145 706.569C788.04 714.074 755.601 713.638 725.219 707.895C712.264 705.446 712.31 704.942 702.586 701.192C699.202 699.887 701.022 700.615 704.448 703.769C731.713 728.864 755.162 750.642 756.798 789.302C758.136 820.929 748.835 855.504 711.987 859.78C674.997 864.073 636.331 854.281 599.824 863.688C570.549 871.232 576.168 900.545 575.984 924.905C575.92 933.419 575.042 941.053 582.057 947.111C591.315 955.105 603.959 959.008 615.117 963.457C635.148 971.444 655.508 978.559 649.086 1003.83C647.187 1011.31 640.842 1012.4 633.862 1012.85C609.436 1014.44 584.168 1010.33 560.523 1004.61C539.926 999.621 513.9 993.449 497.418 979.03C493.98 976.022 493.618 970.764 493.564 977.814C493.429 995.706 498.534 1027.31 473.664 1028.93C452.78 1030.28 430.886 1025.45 411.336 1018.52C398.096 1013.82 378.153 1006.58 370.715 993.341C369.691 991.519 368.738 979.682 368.682 987.022C368.579 1000.69 368.613 1015.41 362.824 1028.12C353.656 1048.25 329.376 1046.01 310.682 1046.26C243.731 1047.15 176.659 1045.34 109.706 1044.73" stroke="#1B799B" stroke-width="1.46407"/>
<path d="M1747.05 607.855C1735.91 584.054 1726.82 560.124 1704.63 544.353C1666.94 517.572 1622.02 512.793 1577.37 505.849C1506.59 494.84 1437.27 483.936 1369.7 459.057C1331.85 445.123 1276.57 426.946 1258.74 386.651C1254.9 377.968 1246.45 349.988 1254.21 340.786C1257.79 336.546 1272.97 337.298 1277.16 337.191C1286.46 336.952 1300.99 335.971 1307.68 344.211C1317.37 356.14 1319.52 380.626 1314.21 394.6C1305.62 417.214 1265.36 420.669 1245.61 422.121C1214 424.446 1188.29 421.857 1160.03 407.544C1143.4 399.125 1130.17 390.239 1129.59 370.4C1128.83 344.407 1142.02 384.779 1142.15 392.62C1142.39 407.218 1135.67 415.438 1121.67 420.624C1084.51 434.383 1037.26 431.015 998.363 431.925C945.558 433.159 891.228 422.598 838.774 429.326C819.415 431.809 804.664 439.072 791.347 453.058C785.104 459.616 772.214 471.573 772.253 481.749C772.286 490.317 779.484 497.915 784.909 503.674C799.94 519.629 817.053 533.542 832.996 548.556C858.391 572.474 879.543 599.452 878.869 635.874C878.231 670.359 850.583 694.749 818.839 703.049C788.84 710.892 756.418 710.821 725.991 705.421C713.017 703.118 713.057 702.614 703.297 698.974C699.9 697.707 701.727 698.414 705.187 701.529C732.719 726.316 756.401 747.828 758.476 786.468C760.174 818.077 751.274 852.755 714.499 857.446C677.583 862.155 638.832 852.799 602.456 862.617C573.287 870.491 579.236 899.738 579.33 924.099C579.363 932.613 578.573 940.257 585.652 946.235C594.995 954.125 607.675 957.884 618.876 962.208C638.985 969.968 659.412 976.853 653.282 1002.2C651.47 1009.69 645.142 1010.86 638.172 1011.39C613.78 1013.25 588.482 1009.43 564.788 1003.97C544.148 999.217 518.07 993.338 501.435 979.106C497.964 976.137 497.542 970.883 497.569 977.933C497.638 995.826 503.1 1027.37 478.265 1029.27C457.411 1030.86 435.477 1026.27 415.861 1019.56C402.575 1015.01 382.564 1008 374.98 994.843C373.936 993.033 372.848 981.208 372.876 988.547C372.929 1002.21 373.131 1016.94 367.491 1029.71C358.558 1049.94 334.269 1047.97 315.591 1048.43C248.695 1050.08 181.647 1049.02 114.733 1049.17" stroke="#1B799B" stroke-width="1.46407"/>
<path d="M1747.14 593.825C1735.74 570.152 1726.38 546.325 1704.01 530.806C1666.02 504.451 1621.04 500.178 1576.32 493.738C1505.41 483.527 1435.98 473.406 1368.13 449.29C1330.12 435.783 1274.64 418.23 1256.35 378.139C1252.41 369.5 1243.64 341.617 1251.3 332.328C1254.82 328.048 1270.02 328.629 1274.21 328.474C1283.5 328.131 1298.02 326.986 1304.8 335.15C1314.63 346.969 1317.05 371.429 1311.91 385.463C1303.58 408.172 1263.36 412.08 1243.63 413.754C1212.04 416.436 1186.3 414.137 1157.88 400.143C1141.16 391.912 1127.83 383.175 1127.02 363.344C1125.97 337.362 1139.62 377.582 1139.83 385.422C1140.24 400.016 1133.62 408.311 1119.67 413.655C1082.67 427.831 1035.39 424.996 996.504 426.344C943.716 428.174 889.269 418.225 836.895 425.544C817.566 428.245 802.899 435.674 789.742 449.81C783.574 456.437 770.821 468.539 770.976 478.713C771.107 487.281 778.391 494.797 783.882 500.494C799.093 516.279 816.364 529.998 832.477 544.832C858.144 568.462 879.601 595.199 879.343 631.626C879.098 666.116 851.73 690.816 820.083 699.473C790.174 707.654 757.753 707.949 727.268 702.892C714.268 700.735 714.302 700.231 704.501 696.701C701.09 695.473 702.925 696.159 706.421 699.235C734.233 723.71 758.159 744.954 760.675 783.567C762.733 815.155 754.228 849.931 717.509 855.037C680.649 860.162 641.794 851.243 605.533 861.47C576.454 869.672 582.737 898.85 583.109 923.208C583.238 931.722 582.535 939.374 589.682 945.272C599.115 953.056 611.837 956.672 623.087 960.869C643.283 968.402 663.787 975.057 657.947 1000.47C656.22 1007.98 649.905 1009.22 642.942 1009.83C618.573 1011.96 593.233 1008.43 569.478 1003.24C548.785 998.718 522.642 993.133 505.845 979.09C502.341 976.16 501.859 970.911 501.967 977.961C502.24 995.851 508.061 1027.33 483.249 1029.51C462.414 1031.33 440.429 1027 420.738 1020.51C407.402 1016.11 387.312 1009.32 379.578 996.251C378.514 994.453 377.291 982.64 377.403 989.979C377.611 1003.64 377.981 1018.37 372.487 1031.2C363.786 1051.53 339.475 1049.83 320.804 1050.5C253.931 1052.91 186.875 1052.61 119.967 1053.51" stroke="#1B799B" stroke-width="1.46407"/>
<path d="M1747.24 579.758C1735.57 556.215 1725.94 532.496 1703.39 517.229C1665.1 491.305 1620.08 487.539 1575.29 481.603C1504.27 472.192 1434.72 462.854 1366.6 439.504C1328.44 426.426 1272.77 409.5 1254.02 369.618C1249.98 361.024 1240.9 333.241 1248.45 323.867C1251.92 319.548 1267.12 319.957 1271.31 319.755C1280.59 319.307 1295.1 317.999 1301.98 326.086C1311.94 337.793 1314.64 362.225 1309.66 376.315C1301.59 399.117 1261.41 403.477 1241.71 405.374C1210.15 408.411 1184.39 406.403 1155.81 392.731C1139 384.688 1125.57 376.102 1124.53 356.282C1123.18 330.313 1137.29 370.377 1137.59 378.213C1138.16 392.802 1131.64 401.171 1117.76 406.672C1080.92 421.264 1033.61 418.962 994.74 420.748C941.976 423.173 887.419 413.839 835.131 421.747C815.834 424.666 801.253 432.259 788.258 446.542C782.166 453.239 769.551 465.484 769.823 475.655C770.051 484.221 777.421 491.655 782.976 497.29C798.367 512.902 815.793 526.425 832.073 541.077C858.008 564.416 879.769 590.91 879.926 627.337C880.074 661.828 852.99 686.835 821.443 695.848C791.63 704.365 759.214 705.025 728.673 700.312C715.649 698.302 715.678 697.797 705.837 694.378C702.413 693.189 704.255 693.854 707.785 696.89C735.875 721.05 760.041 742.023 762.997 780.605C765.416 812.168 757.308 847.037 720.649 852.556C683.85 858.097 644.895 849.616 608.753 860.252C579.77 868.781 586.385 897.886 587.034 922.238C587.261 930.75 586.646 938.409 593.859 944.226C603.38 951.903 616.142 955.376 627.44 959.446C647.72 966.751 668.299 973.174 662.749 998.651C661.108 1006.19 654.807 1007.49 647.851 1008.18C623.508 1010.59 598.13 1007.34 574.317 1002.42C553.574 998.13 527.368 992.84 510.413 978.987C506.875 976.097 506.334 970.854 506.522 977.902C506.999 995.788 513.178 1027.2 488.393 1029.66C467.58 1031.72 445.547 1027.63 425.783 1021.36C412.397 1017.11 392.232 1010.55 384.349 997.57C383.264 995.784 381.907 983.986 382.103 991.323C382.467 1004.98 383.004 1019.7 377.657 1032.6C369.188 1053.02 344.859 1051.6 326.197 1052.48C259.356 1055.64 192.301 1056.09 125.407 1057.75" stroke="#1B799B" stroke-width="1.46407"/>
<path d="M1747.34 565.658C1735.4 542.248 1725.5 518.639 1702.78 503.628C1664.19 478.136 1619.13 474.878 1574.28 469.448C1503.16 460.838 1433.51 452.284 1365.12 429.704C1326.82 417.057 1270.95 400.759 1251.75 361.091C1247.62 352.543 1238.22 324.865 1245.66 315.406C1249.08 311.048 1264.29 311.286 1268.47 311.037C1277.75 310.484 1292.24 309.012 1299.21 317.021C1309.3 328.616 1312.29 353.015 1307.46 367.161C1299.65 390.052 1259.53 394.865 1239.85 396.984C1208.33 400.376 1182.54 398.658 1153.81 385.309C1136.91 377.457 1123.38 369.023 1122.12 349.215C1120.47 323.264 1135.04 363.166 1135.43 370.998C1136.17 385.579 1129.74 394.022 1115.92 399.678C1079.25 414.685 1031.91 412.916 993.07 415.14C940.337 418.159 885.677 409.441 833.483 417.938C814.22 421.074 799.726 428.831 786.895 443.26C780.879 450.024 768.405 462.411 768.792 472.579C769.118 481.141 776.573 488.491 782.191 494.063C797.759 509.501 815.338 522.827 831.785 537.294C857.984 560.339 880.046 586.586 880.618 623.009C881.16 657.496 854.362 682.806 822.92 692.174C793.206 701.027 760.8 702.052 730.206 697.684C717.16 695.821 717.183 695.315 707.304 692.008C703.866 690.857 705.716 691.501 709.281 694.498C737.645 718.339 762.048 739.038 765.444 777.585C768.222 809.118 760.512 844.076 723.919 850.008C687.185 855.963 648.136 847.922 612.117 858.964C583.233 867.819 590.18 896.848 591.106 921.191C591.43 929.7 590.902 937.365 598.181 943.101C607.789 950.67 620.59 953.999 631.933 957.941C652.296 965.017 672.946 971.207 667.687 996.745C666.132 1004.3 659.847 1005.67 652.899 1006.44C628.585 1009.12 603.171 1006.16 579.304 1001.51C558.513 997.454 532.249 992.46 515.136 978.799C511.566 975.949 510.965 970.713 511.233 977.758C511.914 995.638 518.451 1026.98 493.695 1029.71C472.907 1032.01 450.829 1028.17 430.994 1022.12C417.561 1018.03 397.322 1011.7 389.292 998.802C388.187 997.028 386.695 985.247 386.974 992.581C387.494 1006.24 388.199 1020.95 383 1033.9C374.764 1054.42 350.421 1053.27 331.769 1054.37C264.968 1058.28 197.923 1059.49 131.051 1061.9" stroke="#1B799B" stroke-width="1.46407"/>
<path d="M1746.44 551.524C1734.23 528.25 1724.06 504.755 1701.17 490.001C1662.3 464.946 1617.2 462.196 1572.29 457.272C1501.07 449.464 1431.33 441.696 1362.69 419.888C1324.25 407.674 1268.19 392.007 1248.55 352.558C1244.31 344.057 1234.6 316.487 1241.93 306.944C1245.31 302.548 1260.51 302.615 1264.69 302.319C1273.97 301.662 1288.44 300.026 1295.5 307.956C1305.72 319.436 1308.99 343.8 1304.32 357.999C1296.77 380.976 1256.71 386.242 1237.05 388.582C1205.57 392.33 1179.77 390.903 1150.88 377.878C1133.89 370.217 1120.27 361.936 1118.79 342.144C1116.84 316.213 1131.86 355.948 1132.34 363.775C1133.25 378.347 1126.91 386.861 1113.16 392.673C1076.67 408.092 1029.31 406.857 990.495 409.519C937.799 413.132 883.043 405.03 830.949 414.115C811.723 417.468 797.318 425.388 784.652 439.96C778.714 446.792 766.382 459.318 766.885 469.481C767.309 478.04 774.846 485.305 780.528 490.813C796.271 506.075 814.001 519.201 830.612 533.482C857.072 556.23 879.432 582.226 880.419 618.641C881.354 653.119 854.846 678.729 823.513 688.451C793.901 697.638 761.509 699.029 730.867 695.005C717.801 693.289 717.818 692.784 707.902 689.588C704.451 688.476 706.308 689.099 709.907 692.055C738.541 715.575 763.179 735.998 767.014 774.504C770.151 806.003 762.84 841.046 726.316 847.39C689.653 853.758 650.514 846.158 614.623 857.606C585.842 866.785 593.119 895.734 594.323 920.065C594.744 928.569 594.303 936.241 601.648 941.893C611.341 949.354 624.179 952.538 635.567 956.352C656.009 963.198 676.729 969.155 671.761 994.75C670.292 1002.32 664.023 1003.77 657.084 1004.61C632.802 1007.57 607.356 1004.89 583.437 1000.51C562.602 996.69 536.282 991.993 519.015 978.526C515.412 975.716 514.751 970.486 515.1 977.528C515.984 995.399 522.878 1026.67 498.155 1029.68C477.394 1032.21 455.274 1028.62 435.372 1022.79C421.893 1018.85 401.582 1012.75 393.405 999.945C392.281 998.184 390.654 986.42 391.017 993.751C391.693 1007.4 392.565 1022.1 387.514 1035.11C379.512 1055.72 355.158 1054.85 336.52 1056.15C269.767 1060.82 202.739 1062.78 135.899 1065.95" stroke="#1B799B" stroke-width="1.46407"/>
<path d="M1746.53 537.352C1734.06 514.217 1723.62 490.838 1700.57 476.343C1661.41 451.728 1616.29 449.487 1571.32 445.069C1500.02 438.064 1430.19 431.083 1361.31 410.05C1322.73 398.27 1266.5 383.236 1246.4 344.012C1242.07 335.559 1232.04 308.1 1239.26 298.476C1242.59 294.042 1257.8 293.938 1261.98 293.594C1271.24 292.832 1285.69 291.034 1292.85 298.884C1303.2 310.247 1306.74 334.573 1302.23 348.824C1294.95 371.884 1254.95 377.601 1235.31 380.163C1203.88 384.265 1178.07 383.129 1149.03 370.431C1131.96 362.962 1118.24 354.835 1116.53 335.061C1114.29 309.154 1129.76 348.716 1130.33 356.538C1131.4 371.099 1125.17 379.684 1111.48 385.65C1075.16 401.479 1027.8 400.778 989.014 403.877C936.362 408.084 881.517 400.6 829.529 410.272C810.343 413.841 796.029 421.923 783.53 436.637C777.67 443.535 765.482 456.199 766.1 466.356C766.622 474.909 774.242 482.089 779.986 487.532C795.902 502.615 813.78 515.541 830.553 529.633C857.271 552.082 879.926 577.824 881.328 614.225C882.656 648.69 856.442 674.598 825.221 684.672C795.716 694.192 763.341 695.948 732.655 692.27C719.57 690.701 719.582 690.196 709.629 687.112C706.166 686.039 708.031 686.641 711.663 689.556C740.563 712.752 765.433 732.895 769.706 771.355C773.202 802.817 766.291 837.94 729.842 844.695C693.253 851.476 654.03 844.318 618.272 856.169C589.597 865.672 597.203 894.537 598.685 918.853C599.202 927.352 598.849 935.027 606.258 940.597C616.035 947.948 628.909 950.987 640.34 954.672C660.858 961.288 681.645 967.011 676.969 992.66C675.587 1000.25 669.334 1001.76 662.406 1002.69C638.159 1005.92 612.684 1003.53 588.716 999.413C567.838 995.83 541.466 991.43 524.047 978.158C520.412 975.389 519.692 970.168 520.121 977.205C521.209 995.065 528.459 1026.25 503.771 1029.54C483.041 1032.3 460.88 1028.96 440.913 1023.37C427.39 1019.58 407.011 1013.7 398.689 1000.99C397.544 999.244 395.784 987.499 396.23 994.825C397.061 1008.46 398.102 1023.16 393.199 1036.22C385.432 1056.92 361.069 1056.33 342.447 1057.84C275.752 1063.25 208.75 1065.97 141.95 1069.89" stroke="#1B799B" stroke-width="1.46407"/>
<path d="M1746.62 523.148C1733.89 500.155 1723.19 476.895 1699.96 462.661C1660.53 438.489 1615.38 436.757 1570.37 432.846C1498.99 426.646 1429.09 420.452 1359.97 400.198C1321.26 388.854 1264.86 374.455 1244.32 335.459C1239.89 327.056 1229.55 299.712 1236.66 290.007C1239.94 285.536 1255.14 285.261 1259.32 284.87C1268.57 284.004 1283 282.043 1290.24 289.811C1300.73 301.057 1304.54 325.341 1300.2 339.642C1293.18 362.783 1253.24 368.95 1233.64 371.733C1202.26 376.189 1176.43 375.344 1147.26 362.974C1130.09 355.698 1116.29 347.727 1114.35 327.973C1111.81 302.093 1127.74 341.479 1128.4 349.293C1129.63 363.841 1123.5 372.496 1109.88 378.616C1073.74 394.853 1026.37 394.686 987.627 398.222C935.026 403.022 880.099 396.157 828.224 406.414C809.08 410.2 794.859 418.442 782.528 433.296C776.747 440.26 764.704 453.06 765.438 463.209C766.057 471.756 773.758 478.849 779.564 484.228C795.651 499.13 813.676 511.853 830.608 525.756C857.581 547.902 880.528 573.386 882.345 609.769C884.065 644.216 858.148 670.417 827.044 680.843C797.649 690.695 765.296 692.816 734.57 689.484C721.468 688.063 721.473 687.557 711.486 684.585C708.011 683.551 709.882 684.133 713.547 687.007C742.71 709.875 767.808 729.737 772.52 768.145C776.374 799.566 769.864 834.764 733.494 841.93C696.984 849.123 657.682 842.407 622.061 854.66C593.496 864.486 601.431 893.263 603.189 917.56C603.804 926.053 603.538 933.732 611.01 939.218C620.871 946.457 633.778 949.351 645.25 952.908C665.843 959.291 686.694 964.78 682.311 990.48C681.015 998.08 674.78 999.667 667.863 1000.67C643.654 1004.17 618.153 1002.07 594.139 998.228C573.222 994.88 546.801 990.777 529.231 977.703C525.566 974.975 524.786 969.762 525.295 976.794C526.586 994.64 534.192 1025.74 509.543 1029.31C488.845 1032.31 466.648 1029.22 446.618 1023.85C433.052 1020.21 412.608 1014.56 404.141 1001.95C402.976 1000.21 401.082 988.489 401.612 995.809C402.599 1009.44 403.806 1024.12 399.052 1037.24C391.523 1058.02 367.154 1057.7 348.55 1059.42C281.92 1065.59 214.953 1069.07 148.202 1073.74" stroke="#1B799B" stroke-width="1.46407"/>
<path d="M1746.71 509.904C1733.72 487.057 1722.75 463.92 1699.37 449.948C1659.66 426.223 1614.5 425 1569.44 421.597C1497.99 416.202 1428.02 410.796 1358.68 391.323C1319.84 380.416 1263.28 366.654 1242.3 327.893C1237.77 319.54 1227.12 292.315 1234.12 282.531C1237.35 278.023 1252.55 277.576 1256.72 277.138C1265.96 276.168 1280.37 274.044 1287.7 281.73C1298.31 292.858 1302.4 317.097 1298.23 331.445C1291.47 354.663 1251.6 361.28 1232.04 364.284C1200.7 369.094 1174.87 368.54 1145.55 356.5C1128.31 349.418 1114.41 341.602 1112.25 321.873C1109.42 296.023 1125.79 335.226 1126.54 343.033C1127.94 357.565 1121.9 366.288 1108.35 372.562C1072.41 389.205 1025.04 389.572 986.334 393.545C933.791 398.938 878.788 392.692 827.033 403.533C807.933 407.534 793.807 415.936 781.646 430.928C775.945 437.957 764.048 450.892 764.898 461.032C765.614 469.571 773.396 476.577 779.263 481.889C795.519 496.609 813.688 509.129 830.778 522.839C858.001 544.679 881.237 569.904 883.469 606.263C885.582 640.688 859.964 667.18 828.981 677.955C799.699 688.138 767.372 690.623 736.61 687.638C723.493 686.365 723.492 685.859 713.472 683C709.986 682.005 711.863 682.566 715.561 685.398C744.983 707.936 770.306 727.513 775.455 765.866C779.667 797.24 773.559 832.509 737.272 840.084C700.846 847.688 661.47 841.416 625.99 854.07C597.539 864.218 605.801 892.903 607.836 917.179C608.548 925.664 608.369 933.345 615.903 938.746C625.846 945.874 638.786 948.623 650.298 952.049C670.962 958.2 691.875 963.453 687.785 989.201C686.575 996.815 680.359 998.472 673.453 999.551C649.286 1003.33 623.762 1001.51 599.706 997.942C578.752 994.83 552.286 991.026 534.568 978.15C530.871 975.464 530.032 970.26 530.621 977.286C532.116 995.116 540.076 1026.13 515.469 1029.98C494.806 1033.21 472.575 1030.37 452.485 1025.22C438.879 1021.74 418.371 1016.32 409.761 1003.8C408.576 1002.08 406.549 990.38 407.162 997.694C408.304 1011.31 409.679 1025.97 405.075 1039.15C397.782 1060.02 373.411 1059.97 354.828 1061.9C288.272 1068.82 221.349 1073.05 154.654 1078.47" stroke="#1B799B" stroke-width="1.46407"/>
<path d="M1745.8 495.628C1732.54 472.929 1721.31 449.917 1697.77 436.21C1657.8 412.934 1612.62 412.22 1567.52 409.326C1496.02 404.737 1426 400.12 1356.43 381.43C1317.47 370.962 1260.76 357.838 1239.34 319.317C1234.72 311.016 1223.76 283.913 1230.64 274.05C1233.82 269.507 1249.01 268.888 1253.18 268.403C1262.41 267.329 1276.79 265.043 1284.21 272.646C1294.95 283.653 1299.31 307.844 1295.3 322.238C1288.81 345.531 1249.02 352.597 1229.49 355.821C1198.21 360.984 1172.37 360.721 1142.92 349.013C1125.6 342.126 1111.61 334.468 1109.23 314.763C1106.1 288.948 1122.92 327.963 1123.76 335.761C1125.32 350.276 1119.39 359.067 1105.91 365.493C1070.16 382.54 1022.79 383.441 984.135 387.85C931.656 393.835 876.585 388.21 824.957 399.634C805.903 403.85 791.873 412.41 779.884 427.538C774.263 434.63 762.514 447.699 763.48 457.828C764.293 466.359 772.154 473.276 778.082 478.523C794.505 493.058 812.815 505.372 830.06 518.888C857.531 540.42 881.053 565.38 883.699 601.711C886.204 636.111 860.89 662.889 830.031 674.013C800.868 684.525 768.57 687.375 737.776 684.736C724.645 683.611 724.639 683.106 714.586 680.36C711.089 679.404 712.972 679.944 716.702 682.734C746.379 704.939 771.924 724.229 777.51 762.52C782.08 793.845 776.373 829.18 740.175 837.164C703.838 845.178 664.392 839.35 629.058 852.404C600.724 862.871 609.313 891.461 611.625 915.712C612.433 924.188 612.342 931.871 619.937 937.187C629.961 944.202 642.931 946.804 654.481 950.101C675.215 956.018 696.186 961.035 692.39 986.827C691.267 994.454 685.07 996.181 678.177 997.338C654.054 1001.39 628.511 999.861 604.416 996.561C583.427 993.685 556.919 990.179 539.055 977.505C535.328 974.86 534.43 969.667 535.099 976.685C536.797 994.497 545.109 1025.42 520.548 1029.54C499.923 1033.01 477.661 1030.42 457.513 1025.5C443.868 1022.17 423.299 1016.99 414.547 1004.56C413.343 1002.86 411.183 991.177 411.879 998.484C413.176 1012.09 414.718 1026.73 410.264 1039.96C403.21 1060.91 378.84 1061.14 360.28 1063.28C293.806 1070.94 226.934 1075.93 160.305 1082.1" stroke="#1B799B" stroke-width="1.46407"/>
</g>
</svg>
