<svg width="1160" height="340" viewBox="0 0 1160 340" fill="none" xmlns="http://www.w3.org/2000/svg">
<g style="mix-blend-mode:hard-light">
<path d="M1100.52 399.926C1102.29 382.303 1105.29 365.31 1097.87 348.526C1085.27 320.024 1060.87 301.774 1037.38 282.364C1000.14 251.591 963.716 221.387 933.13 183.687C915.999 162.572 890.226 132.992 893.811 103.508C894.584 97.1546 899.354 78.0362 907.032 75.3798C910.569 74.156 919.115 79.8255 921.583 81.2082C927.053 84.2721 935.82 88.7126 936.853 95.7923C938.35 106.041 931.134 120.964 923.228 127.229C910.434 137.367 885.893 125.492 873.942 119.528C854.807 109.978 840.793 99.6179 829.35 81.5869C822.62 70.9809 818.019 61.274 824.537 49.5826C833.077 34.265 826.778 62.1961 824.141 66.7816C819.234 75.3178 812.501 77.766 802.588 75.9425C776.287 71.105 750.053 52.8698 727.184 39.991C696.138 22.5067 668.283 -2.3354 635.543 -16.5166C623.459 -21.7502 612.396 -22.6275 599.842 -19.1158C593.956 -17.4694 582.349 -14.9861 578.856 -9.07899C575.914 -4.10439 577.463 2.77732 578.619 7.98253C581.821 22.4046 586.937 36.3608 590.993 50.5521C597.454 73.1586 600.397 96.0742 587.421 116.938C575.135 136.693 550.676 141.291 529.401 135.158C509.295 129.362 490.519 118.146 474.743 104.532C468.015 98.7263 468.213 98.4481 463.811 92.976C462.279 91.0718 463.094 92.1109 464.024 95.1077C471.424 118.953 477.722 139.576 465.574 162.671C455.637 181.565 438.493 198.584 415.548 188.626C392.514 178.631 373.277 159.856 348.792 153.006C329.157 147.514 322.501 166.505 314.138 180.647C311.215 185.59 308.115 189.745 310.154 195.647C312.846 203.438 318.899 209.985 323.901 216.35C332.879 227.775 342.345 238.803 330.033 251.371C326.392 255.088 322.321 253.58 318.096 251.486C303.309 244.157 289.96 233.225 278.106 221.898C267.781 212.031 254.69 199.638 249.962 185.662C248.976 182.745 250.547 179.557 248.126 183.65C241.983 194.038 234.25 214.192 219.194 206.73C206.552 200.464 195.418 190.249 186.363 179.6C180.23 172.388 171.05 161.43 171.199 151.194C171.219 149.786 174.674 142.562 172.154 146.823C167.463 154.756 162.492 163.355 154.808 168.808C142.639 177.446 129.234 167.935 118.245 161.765C78.8849 139.665 40.3716 115.945 1.51934 92.9692" stroke="url(#paint0_linear_147_4203)" stroke-linecap="round"/>
<path d="M1175.14 217.735C1172.69 200.172 1171.58 182.933 1160.41 168.348C1141.44 143.579 1113.44 131.559 1086.05 118.197C1042.63 97.0137 1000.13 76.1906 961.531 46.7023C939.911 30.1863 907.901 7.46596 904.409 -22.0644C903.657 -28.4277 903.766 -48.1512 910.59 -52.5414C913.734 -54.5639 923.369 -51.0573 926.093 -50.2924C932.126 -48.5976 941.685 -46.3386 944.362 -39.6933C948.238 -30.0733 944.763 -13.8566 938.571 -5.90171C928.55 6.9714 901.922 1.18729 888.912 -1.8052C868.08 -6.59662 852.028 -13.3816 836.659 -28.2346C827.618 -36.9713 820.857 -45.334 824.419 -58.2423C829.086 -75.1543 829.577 -46.4965 828.102 -41.4149C825.357 -31.9553 819.401 -27.9901 809.347 -27.433C782.676 -25.9551 752.901 -37.5283 727.658 -44.6814C693.39 -54.3924 660.48 -72.0131 625.348 -78.1119C612.382 -80.3627 601.437 -78.6147 590.081 -72.2455C584.757 -69.2595 574.079 -64.1139 572.085 -57.5449C570.406 -52.0129 573.537 -45.6814 575.889 -40.8886C582.408 -27.6093 590.673 -15.2332 597.966 -2.37915C609.583 18.0971 617.858 39.7014 610.196 63.0531C602.942 85.1629 580.289 95.389 558.189 94.4244C537.303 93.5128 516.427 87.0159 497.895 77.4793C489.992 73.4127 490.118 73.0955 484.551 68.8064C482.614 67.3139 483.651 68.1332 485.263 70.8304C498.083 92.2917 509.073 110.875 502.743 136.204C497.565 156.924 484.949 177.514 460.323 173.222C435.603 168.913 412.492 155.169 387.106 154.263C366.75 153.535 364.779 173.579 360.006 189.306C358.337 194.802 356.312 199.574 359.687 204.837C364.141 211.784 371.565 216.731 377.924 221.748C389.34 230.753 401.136 239.257 392.157 254.381C389.502 258.854 385.194 258.343 380.598 257.3C364.512 253.646 348.971 246.149 334.787 237.915C322.432 230.743 306.796 221.763 298.901 209.276C297.254 206.671 298.025 203.199 296.644 207.751C293.138 219.302 290.397 240.73 274.019 237.01C260.267 233.887 247.044 226.566 235.737 218.335C228.08 212.759 216.578 204.256 214.302 194.262C213.989 192.887 215.634 185.045 214.196 189.784C211.518 198.605 208.726 208.141 202.558 215.254C192.789 226.521 177.529 220.419 165.403 216.999C121.974 204.752 78.9836 190.73 35.84 177.511" stroke="url(#paint1_linear_147_4203)" stroke-linecap="round"/>
<path d="M1103.97 391.464C1105.54 373.821 1108.34 356.794 1100.73 340.094C1087.81 311.735 1063.21 293.761 1039.5 274.617C1001.92 244.265 965.153 214.473 934.142 177.119C916.773 156.198 890.667 126.909 893.917 97.385C894.617 91.023 899.169 71.8509 906.816 69.1077C910.339 67.8439 918.948 73.4167 921.432 74.7716C926.936 77.7736 935.752 82.115 936.866 89.1829C938.479 99.4147 931.433 114.419 923.599 120.773C910.922 131.056 886.25 119.458 874.232 113.629C854.99 104.296 840.86 94.0944 829.214 76.1929C822.364 65.663 817.654 56.0082 824.038 44.2432C832.403 28.8291 826.422 56.8313 823.838 61.4466C819.028 70.0382 812.324 72.5624 802.391 70.851C776.038 66.3108 749.6 48.3724 726.588 35.7522C695.346 18.619 667.213 -5.9081 634.315 -19.7191C622.174 -24.8161 611.102 -25.5683 598.589 -21.9147C592.722 -20.2018 581.145 -17.5873 577.72 -11.6407C574.835 -6.63292 576.462 0.231231 577.677 5.42334C581.043 19.8091 586.316 33.7074 590.533 47.8527C597.251 70.386 600.454 93.2681 587.716 114.279C575.657 134.172 551.252 139.047 529.91 133.154C509.741 127.585 490.84 116.582 474.91 103.146C468.118 97.4167 468.312 97.1363 463.848 91.714C462.295 89.8272 463.122 90.857 464.086 93.8433C471.756 117.605 478.288 138.156 466.404 161.389C456.682 180.395 439.734 197.607 416.678 187.909C393.534 178.174 374.086 159.617 349.526 153.044C329.831 147.773 323.391 166.84 315.19 181.076C312.323 186.052 309.272 190.242 311.378 196.122C314.157 203.881 320.284 210.36 325.358 216.669C334.465 227.992 344.055 238.913 331.887 251.62C328.289 255.378 324.201 253.916 319.953 251.87C305.084 244.708 291.613 233.927 279.632 222.734C269.196 212.984 255.966 200.739 251.079 186.816C250.06 183.911 251.594 180.705 249.22 184.826C243.197 195.282 235.693 215.524 220.555 208.232C207.843 202.109 196.593 192.021 187.419 181.474C181.205 174.331 171.901 163.477 171.933 153.24C171.938 151.831 175.311 144.568 172.839 148.857C168.239 156.843 163.366 165.499 155.745 171.039C143.676 179.814 130.164 170.455 119.106 164.409C79.4998 142.754 40.7216 119.469 1.61286 96.933" stroke="url(#paint2_linear_147_4203)"/>
<path d="M1107.43 382.978C1108.8 365.318 1111.41 348.26 1103.61 331.646C1090.37 303.433 1065.57 285.737 1041.64 266.861C1003.72 236.935 966.619 207.558 935.188 170.555C917.583 149.83 891.147 120.837 894.061 91.2761C894.689 84.9063 899.022 65.6829 906.637 62.8532C910.145 61.5496 918.817 67.0251 921.316 68.3518C926.853 71.2916 935.718 75.5333 936.912 82.5886C938.641 92.8021 931.767 107.886 924.006 114.329C911.447 124.755 886.646 113.436 874.563 107.743C855.218 98.6273 840.974 88.5853 829.126 70.8156C822.157 60.3633 817.337 50.7618 823.587 38.9247C831.775 23.4162 826.113 51.4857 823.582 56.1302C818.87 64.7761 812.196 67.3761 802.244 65.777C775.844 61.5347 749.205 43.8953 726.052 31.5353C694.619 14.7554 666.211 -9.45344 633.16 -22.8924C620.962 -27.8521 609.883 -28.4792 597.413 -24.6842C591.566 -22.905 580.021 -20.1597 576.663 -14.1744C573.835 -9.13399 575.54 -2.28827 576.814 2.89006C580.343 17.2377 585.774 31.0762 590.151 45.1738C597.124 67.631 600.587 90.4767 588.09 111.631C576.257 131.66 551.912 136.811 530.505 131.16C510.275 125.819 491.251 115.03 475.171 101.774C468.314 96.1212 468.505 95.8386 463.98 90.4668C462.406 88.5975 463.244 89.618 464.242 92.5934C472.181 116.268 478.946 136.745 467.328 160.112C457.823 179.228 441.072 196.632 417.909 187.195C394.657 177.721 375.001 159.384 350.369 153.089C330.616 148.041 324.394 167.18 316.356 181.509C313.546 186.517 310.542 190.742 312.715 196.597C315.582 204.325 321.782 210.735 326.927 216.986C336.161 228.207 345.874 239.019 333.853 251.864C330.297 255.662 326.194 254.246 321.922 252.248C306.974 245.255 293.382 234.626 281.275 223.569C270.729 213.937 257.362 201.841 252.318 187.974C251.265 185.08 252.763 181.857 250.437 186.004C244.532 196.529 237.26 216.855 222.04 209.734C209.261 203.755 197.898 193.794 188.604 183.351C182.31 176.279 172.884 165.53 172.8 155.292C172.788 153.883 176.078 146.582 173.656 150.899C169.147 158.937 164.373 167.648 156.816 173.274C144.848 182.186 131.232 172.979 120.106 167.058C80.2584 145.851 41.2202 123.005 1.86 100.911" stroke="url(#paint3_linear_147_4203)"/>
<path d="M1110.91 374.473C1112.07 356.798 1114.49 339.71 1106.5 323.185C1092.94 295.122 1067.94 277.706 1043.81 259.101C1005.54 229.603 968.116 200.646 936.267 163.999C918.429 143.473 891.667 114.779 894.244 85.1856C894.8 78.8087 898.914 59.5365 906.496 56.6208C909.989 55.2776 918.721 60.6549 921.235 61.9534C926.805 64.8306 935.717 68.972 936.991 76.0137C938.836 86.2076 932.134 101.369 924.447 107.9C912.009 118.468 887.082 107.429 874.936 101.872C855.489 92.9759 841.133 83.0949 829.084 65.4593C821.997 55.0858 817.069 45.5389 823.183 33.6312C831.195 18.0303 825.852 46.1636 823.374 50.8366C818.761 59.5358 812.117 62.2112 802.149 60.7246C775.703 56.7808 748.867 39.4427 725.576 27.3445C693.957 10.92 665.276 -12.9675 632.077 -26.0328C619.824 -30.8546 608.739 -31.3564 596.314 -27.4204C590.488 -25.5751 578.975 -22.6993 575.686 -16.6761C572.916 -11.6038 574.698 -4.77744 576.031 0.386456C579.722 14.694 585.31 28.4711 589.847 42.5191C597.074 64.8973 600.796 87.7037 588.541 108.999C576.938 129.162 552.654 134.588 531.186 129.179C510.897 124.067 491.753 113.493 475.524 100.418C468.604 94.8434 468.792 94.5586 464.206 89.238C462.611 87.3866 463.461 88.3975 464.492 91.3616C472.699 114.947 479.696 135.347 468.345 158.845C459.059 178.068 442.508 195.661 419.24 186.486C395.884 177.276 376.021 159.161 351.32 153.144C331.513 148.319 325.509 167.528 317.634 181.948C314.882 186.988 311.927 191.247 314.165 197.078C317.121 204.773 323.392 211.113 328.607 217.306C337.969 228.422 347.803 239.124 335.929 252.105C332.417 255.943 328.298 254.574 324.004 252.624C308.979 245.8 295.267 235.325 283.036 224.404C272.382 214.891 258.879 202.947 253.678 189.137C252.593 186.255 254.054 183.015 251.774 187.188C245.99 197.78 238.95 218.188 223.651 211.24C210.805 205.405 199.33 195.572 189.919 185.235C183.545 178.233 173.998 167.591 173.798 157.354C173.77 155.946 176.977 148.607 174.604 152.952C170.187 161.041 165.512 169.805 158.021 175.517C146.155 184.564 132.436 175.511 121.244 169.716C81.1603 148.959 41.8672 126.555 2.26065 104.906" stroke="url(#paint4_linear_147_4203)"/>
<path d="M1114.39 365.949C1115.36 348.26 1117.58 331.145 1109.41 314.71C1095.53 286.801 1070.33 269.667 1045.99 251.335C1007.4 222.271 969.645 193.736 937.384 157.45C919.315 137.126 892.23 108.734 894.47 79.1121C894.953 72.729 898.848 53.4103 906.396 50.409C909.873 49.0263 918.666 54.3049 921.194 55.5749C926.796 58.3891 935.754 62.4298 937.108 69.4571C939.068 79.63 932.54 94.8672 924.928 101.485C912.611 112.193 887.561 101.436 875.354 96.0171C855.809 87.3404 841.341 77.6218 829.094 60.1225C821.89 49.8292 816.854 40.3381 822.832 28.3614C830.665 12.67 825.643 40.8635 823.219 45.5645C818.705 54.3157 812.092 57.0662 802.108 55.6923C775.621 52.0475 748.591 35.0129 725.165 23.178C693.363 7.11117 664.414 -16.452 631.07 -29.1419C618.764 -33.8251 607.675 -34.2016 595.296 -30.1252C589.492 -28.2141 578.013 -25.2082 574.793 -19.1479C572.081 -14.0443 573.941 -7.23808 575.331 -2.08928C579.185 12.1765 584.929 25.8903 589.625 39.8869C597.106 62.1832 601.087 84.9474 589.075 106.381C577.702 126.675 553.483 132.376 531.956 127.209C511.612 122.326 492.35 111.969 475.974 99.0781C468.991 93.5814 469.176 93.2945 464.53 88.0257C462.914 86.1923 463.775 87.1937 464.84 90.1461C473.315 113.638 480.543 133.959 469.46 157.586C460.393 176.913 444.044 194.693 420.675 185.781C397.217 176.835 377.15 158.945 352.385 153.207C332.525 148.606 326.74 167.883 319.03 182.392C316.335 187.463 313.429 191.755 315.734 197.561C318.776 205.223 325.119 211.492 330.404 217.625C339.89 228.636 349.845 239.227 338.12 252.341C334.652 256.22 330.518 254.897 326.203 252.995C311.101 246.341 297.272 236.021 284.919 225.239C274.158 215.847 260.52 204.055 255.163 190.304C254.045 187.434 255.469 184.178 253.238 188.377C247.575 199.033 240.767 219.521 225.391 212.746C212.48 207.056 200.895 197.353 191.368 187.122C184.915 180.193 175.248 169.659 174.931 159.424C174.888 158.016 178.01 150.641 175.687 155.013C171.363 163.151 166.788 171.969 159.363 177.765C147.601 186.946 133.781 178.049 122.524 172.38C82.2095 152.077 42.6665 130.117 2.81866 108.916" stroke="url(#paint5_linear_147_4203)"/>
<path d="M1117.89 357.401C1118.65 339.702 1120.68 322.562 1112.32 306.22C1098.13 278.467 1072.74 261.619 1048.19 243.562C1009.27 214.934 971.201 186.827 938.531 150.905C920.233 130.786 892.828 102.701 894.732 73.0532C895.142 66.6646 898.817 47.3021 906.33 44.2155C909.791 42.7934 918.642 47.9726 921.185 49.2141C926.818 51.9649 935.821 55.9043 937.254 62.9162C939.33 73.0669 932.976 88.3778 925.44 95.0812C913.246 105.929 888.078 95.4551 875.81 90.1741C856.169 81.7184 841.593 72.1635 829.148 54.8027C821.827 44.591 816.684 35.1568 822.526 23.1126C830.179 7.33281 825.478 35.5829 823.107 40.3113C818.694 49.1134 812.113 51.9387 802.115 50.6776C775.589 47.3323 748.369 30.6033 724.811 19.0334C692.83 3.32615 663.618 -19.9096 630.133 -32.2224C617.776 -36.7666 606.684 -37.0177 594.352 -32.8014C588.571 -30.8247 577.127 -27.689 573.976 -21.5923C571.322 -16.4581 573.259 -9.67301 574.709 -4.53997C578.724 9.68211 584.623 23.3309 589.478 37.2743C597.211 59.4859 601.45 82.2049 589.684 103.774C578.543 124.197 554.391 130.171 532.808 125.248C512.411 120.595 493.033 110.455 476.513 97.7498C469.469 92.3321 469.65 92.0431 464.945 86.8268C463.309 85.0118 464.181 86.0034 465.28 88.9437C474.02 112.34 481.478 132.579 470.665 156.331C461.819 175.761 445.674 193.725 422.207 185.077C398.649 176.396 378.382 158.733 353.554 153.276C333.644 148.899 328.079 168.241 320.535 182.837C317.898 187.939 315.041 192.264 317.412 198.043C320.54 205.671 326.954 211.868 332.308 217.942C341.918 228.845 351.993 239.323 340.418 252.57C336.995 256.488 332.846 255.212 328.51 253.359C313.334 246.875 299.39 236.712 286.915 226.069C276.049 216.799 262.279 205.162 256.766 191.471C255.615 188.614 257.002 185.341 254.819 189.566C249.278 200.286 242.704 220.851 227.253 214.249C214.279 208.706 202.585 199.134 192.942 189.01C186.412 182.154 176.626 171.729 176.193 161.498C176.134 160.091 179.172 152.681 176.899 157.079C172.667 165.266 168.193 174.135 160.834 180.015C149.179 189.329 135.259 180.588 123.94 175.047C83.3989 155.199 43.611 133.687 3.527 112.936" stroke="url(#paint6_linear_147_4203)"/>
<path d="M1121.4 348.834C1121.96 331.126 1123.79 313.963 1115.25 297.715C1100.74 270.124 1075.16 253.563 1050.41 235.783C1011.17 207.595 972.786 179.919 939.711 144.367C921.187 124.454 893.467 96.6791 895.033 67.0103C895.371 60.6172 898.825 41.2133 906.301 38.0417C909.746 36.5806 918.656 41.6597 921.212 42.8724C926.876 45.5595 935.922 49.3971 937.435 56.3927C939.626 66.5199 933.446 81.9025 925.988 88.691C913.919 99.6766 888.634 89.4873 876.308 84.345C856.573 76.1114 841.89 66.7213 829.249 49.5014C821.814 39.3724 816.564 29.9965 822.268 17.8864C829.741 2.02016 825.362 30.3231 823.045 35.0783C818.732 43.9303 812.184 46.8299 802.173 45.6819C775.612 42.6364 748.205 26.2153 724.519 14.9117C692.363 -0.433861 662.89 -23.3392 629.27 -35.2734C616.862 -39.6778 605.769 -39.8036 593.486 -35.4479C587.728 -33.4059 576.322 -30.1409 573.24 -24.0086C570.645 -18.8444 572.659 -12.0813 574.167 -6.96466C578.343 7.21192 584.397 20.7939 589.409 34.6823C597.394 56.8064 601.891 79.4773 590.371 101.18C579.464 121.728 555.383 127.975 533.746 123.296C513.299 118.873 493.808 108.953 477.146 96.4344C470.04 91.0963 470.218 90.8052 465.455 85.6422C463.798 83.8457 464.681 84.8274 465.813 87.7553C474.818 111.053 482.506 131.207 471.964 155.081C463.34 174.611 447.401 192.758 423.838 184.375C400.185 175.961 379.719 158.527 354.832 153.35C334.875 149.198 329.531 168.603 322.154 183.284C319.575 188.416 316.767 192.773 319.203 198.525C322.418 206.118 328.902 212.242 334.324 218.255C344.057 229.05 354.249 239.414 342.826 252.792C339.448 256.748 335.285 255.519 330.929 253.715C315.681 247.403 301.623 237.397 289.029 226.896C278.059 217.749 264.158 206.267 258.49 192.639C257.307 189.795 258.657 186.506 256.522 190.756C251.103 201.539 244.764 222.177 229.24 215.75C216.204 210.354 204.403 200.914 194.646 190.9C188.038 184.118 178.135 173.803 177.586 163.577C177.511 162.171 180.465 154.726 178.242 159.15C174.104 167.385 169.731 176.304 162.44 182.268C150.892 191.713 136.874 183.13 125.493 177.716C84.7318 158.327 44.7042 137.264 4.38923 116.967" stroke="url(#paint7_linear_147_4203)"/>
<path d="M1124.91 340.246C1125.27 322.532 1126.91 305.348 1118.18 289.197C1103.36 261.77 1077.6 245.498 1052.65 227.999C1013.1 200.254 974.4 173.012 940.926 137.834C922.177 118.131 894.145 90.6694 895.374 60.9831C895.639 54.5862 898.872 35.1434 906.312 31.8874C909.739 30.3873 918.705 35.3656 921.275 36.5494C926.969 39.1725 936.057 42.9078 937.65 49.8863C939.956 59.9887 933.952 75.441 926.572 82.3137C914.629 93.4356 889.231 83.5323 876.848 78.5294C857.022 70.5189 842.234 61.2948 829.399 44.2179C821.849 34.1731 816.493 24.8566 822.059 12.6821C829.351 -3.26847 825.294 25.0838 823.032 29.8651C818.82 38.7658 812.306 41.7394 802.282 40.7046C775.69 37.9594 748.1 21.8482 724.288 10.8125C691.962 -4.16953 662.232 -26.7415 628.48 -38.2956C616.024 -42.5597 604.93 -42.5601 592.699 -38.0656C586.965 -35.9585 575.597 -32.5646 572.585 -26.3975C570.049 -21.204 572.14 -14.4637 573.705 -9.36416C578.043 4.7651 584.25 18.2786 589.419 32.1102C597.655 54.1438 602.408 76.7637 591.137 98.596C580.465 119.267 556.457 125.787 534.77 121.352C514.275 117.161 494.674 107.461 477.871 95.1309C470.706 89.8731 470.881 89.5801 466.06 84.4709C464.382 82.6931 465.277 83.6649 466.442 86.5799C475.71 109.775 483.626 129.843 473.357 153.835C464.956 173.463 449.226 191.789 425.57 183.674C401.824 175.526 381.163 158.324 356.22 153.428C336.218 149.503 331.095 168.968 323.885 183.732C321.365 188.893 318.607 193.281 321.108 199.006C324.41 206.562 330.962 212.613 336.452 218.565C346.306 229.25 356.615 239.499 345.346 253.006C342.013 257 337.836 255.818 333.46 254.063C318.143 247.924 303.972 238.077 291.26 227.718C280.187 218.695 266.158 207.37 260.336 193.806C259.121 190.976 260.433 187.672 258.346 191.945C253.051 202.79 246.947 223.5 231.352 217.248C218.256 211.999 206.349 202.693 196.48 192.789C189.796 186.082 179.777 175.879 179.111 165.66C179.02 164.254 181.889 156.776 179.717 161.225C175.673 169.506 171.402 178.475 164.18 184.521C152.74 194.097 138.627 185.672 127.185 180.387C86.2085 161.459 45.9463 140.849 5.40547 121.008" stroke="url(#paint8_linear_147_4203)"/>
<path d="M1128.44 331.635C1128.6 313.917 1130.04 296.715 1121.13 280.663C1106 253.403 1080.06 237.423 1054.92 220.205C1015.05 192.908 976.049 166.104 942.179 131.304C923.208 111.814 894.867 84.6691 895.758 54.9692C895.95 48.5693 898.962 29.0901 906.364 25.75C909.774 24.2112 918.796 29.0881 921.379 30.2429C927.102 32.8016 936.231 36.4341 937.903 43.3945C940.324 53.4707 934.496 68.9908 927.195 75.947C915.38 87.2038 889.873 77.5876 877.435 72.7247C857.519 64.9384 842.628 55.8816 829.601 38.9499C821.938 28.9905 816.477 19.7346 821.903 7.49728C829.013 -8.53561 825.279 19.8623 823.071 24.6692C818.961 33.6174 812.481 36.6646 802.447 35.7431C775.828 33.2985 748.057 17.4993 724.123 6.73287C691.63 -7.88359 661.647 -30.1193 627.768 -41.2918C615.265 -45.4151 604.173 -45.29 591.994 -40.6573C586.284 -38.4854 574.956 -34.963 572.016 -28.7619C569.539 -23.5398 571.706 -16.8232 573.329 -11.7414C577.826 2.33875 584.186 15.7819 589.513 29.5551C597.997 51.4954 603.008 74.0614 591.986 96.021C581.55 116.813 557.619 123.603 535.885 119.414C515.344 115.455 495.635 105.976 478.694 93.8362C471.47 88.6595 471.642 88.3644 466.763 83.3099C465.065 81.551 465.971 82.5126 467.169 85.4145C476.7 108.505 484.843 128.483 474.848 152.591C466.671 172.313 451.151 190.818 427.406 182.969C403.57 175.091 382.716 158.122 357.72 153.508C337.676 149.809 332.775 169.332 325.734 184.178C323.273 189.367 320.565 193.786 323.131 199.483C326.518 207.002 333.138 212.979 338.695 218.868C348.67 229.441 359.094 239.574 347.979 253.208C344.692 257.24 340.503 256.105 336.107 254.4C320.722 248.434 306.441 238.747 293.613 228.532C282.439 219.634 268.283 208.468 262.307 194.97C261.06 192.153 262.334 188.835 260.296 193.131C255.125 204.036 249.257 224.814 233.593 218.74C220.439 213.638 208.428 204.467 198.447 194.675C191.687 188.043 181.554 177.954 180.772 167.742C180.665 166.337 183.448 158.827 181.327 163.3C177.378 171.627 173.209 180.644 166.057 186.772C154.727 196.477 140.52 188.212 129.02 183.056C87.8328 164.591 47.3412 144.437 6.57977 125.054" stroke="url(#paint9_linear_147_4203)"/>
<path d="M1131.98 323.004C1131.94 305.285 1133.18 288.067 1124.09 272.115C1108.65 245.027 1082.53 229.34 1057.2 212.407C1017.02 185.561 977.723 159.197 943.461 124.781C924.272 105.505 895.625 78.6808 896.179 48.971C896.298 42.569 899.088 23.0559 906.451 19.6321C909.843 18.0548 918.919 22.8297 921.515 23.9553C927.267 26.4492 936.436 29.9786 938.187 36.92C940.722 46.9688 935.071 62.5546 927.85 69.5933C916.164 80.9835 890.551 71.6558 878.059 66.9335C858.058 59.3725 843.066 50.484 829.847 33.6997C822.072 23.827 816.506 14.6329 821.793 2.33433C828.72 -13.7788 825.309 14.6611 823.156 19.4929C819.148 28.4875 812.704 31.6079 802.661 30.7999C776.016 28.6562 748.07 13.1711 724.016 2.67527C691.361 -11.5738 661.129 -33.4704 627.127 -44.2598C614.579 -48.2417 603.489 -47.9913 591.365 -43.2209C585.68 -40.9845 574.394 -37.334 571.524 -31.0998C569.107 -25.8497 571.35 -19.1576 573.03 -14.0942C577.687 -0.0650372 584.199 13.3062 589.681 27.019C598.414 48.8632 603.681 71.3724 592.91 93.4564C582.711 114.366 558.861 121.427 537.081 117.483C516.498 113.756 496.684 104.501 479.607 92.5523C472.325 87.4573 472.493 87.1604 467.558 82.161C465.84 80.4213 466.757 81.3727 467.987 84.261C477.78 107.243 486.149 127.129 476.429 151.35C468.477 171.165 453.169 189.845 429.338 182.265C405.416 174.656 384.371 157.923 359.326 153.592C339.242 150.119 334.564 169.697 327.692 184.622C325.291 189.839 322.633 194.289 325.264 199.957C328.735 207.437 335.423 213.339 341.046 219.166C351.14 229.626 361.678 239.641 350.719 253.4C347.479 257.47 343.277 256.382 338.862 254.727C323.411 248.934 309.022 239.409 296.079 229.339C284.805 220.567 270.524 209.562 264.395 196.131C263.117 193.329 264.353 189.996 262.364 194.316C257.317 205.278 251.687 226.123 235.955 220.225C222.745 215.273 210.631 206.237 200.54 196.558C193.706 190.002 183.459 180.028 182.561 169.825C182.438 168.421 185.136 160.88 183.065 165.377C179.211 173.749 175.146 182.813 168.064 189.021C156.846 198.855 142.546 190.75 130.989 185.724C89.5973 167.725 48.8815 148.028 7.90469 129.106" stroke="url(#paint10_linear_147_4203)"/>
<path d="M1135.53 314.353C1135.28 296.634 1136.33 279.402 1127.06 263.553C1111.32 236.64 1085.02 221.248 1059.49 204.602C1019.02 178.21 979.427 152.291 944.778 118.262C925.372 99.2032 896.424 72.7033 896.64 42.9875C896.686 36.5842 899.254 17.0397 906.577 13.5328C909.951 11.9171 919.08 16.5894 921.688 17.6856C927.467 20.1145 936.676 23.5402 938.506 30.4618C941.154 40.4818 935.681 56.1314 928.541 63.2516C916.986 74.7739 891.27 65.7358 878.726 61.1548C858.641 53.8199 843.55 45.1009 830.142 28.4662C822.256 18.6815 816.586 9.55037 821.733 -2.80791C828.475 -18.9992 825.388 9.47903 823.291 14.3351C819.385 23.375 812.978 26.5682 802.926 25.8737C776.261 24.0313 748.141 8.86215 723.972 -1.36168C691.159 -15.2415 660.681 -36.7962 626.561 -47.2012C613.968 -51.0412 602.883 -50.6654 590.814 -45.758C585.156 -43.4573 573.912 -39.6793 571.113 -33.4127C568.756 -28.1354 571.075 -21.4686 572.813 -16.4243C577.629 -2.44784 584.292 10.8497 589.93 24.5004C598.91 46.2457 604.432 68.6952 593.913 90.9008C583.953 111.926 560.186 119.256 538.364 115.559C517.741 112.064 497.824 103.033 480.614 91.2775C473.275 86.2649 473.439 85.966 468.447 81.0225C466.71 79.3023 467.638 80.2433 468.901 83.1177C478.954 105.989 487.547 125.78 478.104 150.111C470.379 170.015 455.285 188.868 431.37 181.557C407.364 174.219 386.132 157.724 361.041 153.676C340.92 150.43 336.464 170.061 329.764 185.064C327.422 190.308 324.815 194.788 327.51 200.426C331.066 207.867 337.82 213.693 343.508 219.457C353.72 229.803 364.37 239.698 353.57 253.581C350.376 257.687 346.162 256.647 341.729 255.042C326.214 249.424 311.719 240.062 298.663 230.138C287.29 221.494 272.886 210.65 266.605 197.288C265.295 194.501 266.493 191.154 264.554 195.496C259.632 206.515 254.239 227.424 238.442 221.704C225.177 216.901 212.962 208.002 202.762 198.437C195.855 191.959 185.495 182.1 184.482 171.908C184.343 170.505 186.954 162.933 184.935 167.454C181.177 175.869 177.215 184.979 170.204 191.268C159.1 201.228 144.71 193.284 133.097 188.39C91.5053 170.859 50.5706 151.622 9.38363 133.163" stroke="url(#paint11_linear_147_4203)"/>
<path d="M1139.08 305.679C1138.64 287.962 1139.49 270.719 1130.04 254.975C1113.99 228.24 1087.53 213.145 1061.81 196.788C1021.05 170.854 981.16 145.382 946.129 111.746C926.508 92.906 897.262 66.7335 897.141 37.0155C897.114 30.6118 899.46 11.0384 906.742 7.44864C910.097 5.79486 919.278 10.3639 921.899 11.4306C927.705 13.7942 936.952 17.1157 938.86 24.0166C941.622 34.0066 936.327 49.718 929.269 56.9188C917.846 68.5717 892.031 59.8243 879.436 55.3851C859.27 48.2773 844.081 39.729 830.486 23.246C822.49 13.5505 816.717 4.48355 821.722 -7.9328C828.28 -24.2002 825.517 4.31271 823.475 9.19248C819.673 18.2764 813.302 21.5421 803.244 20.9612C776.561 19.4202 748.273 4.56906 723.989 -5.38147C691.023 -18.8902 660.304 -40.1003 626.069 -50.1194C613.435 -53.8171 602.355 -53.316 590.344 -48.2722C584.712 -45.9076 573.513 -42.0025 570.786 -35.7043C568.489 -30.4004 570.883 -23.7599 572.678 -18.7352C577.652 -4.81334 584.466 8.40874 590.258 21.9956C599.484 43.6393 605.26 66.0262 594.995 88.3505C585.276 109.488 561.595 117.087 539.733 113.636C519.073 110.375 499.056 101.569 481.714 90.008C474.319 85.0784 474.48 84.7776 469.433 79.8906C467.676 78.19 468.614 79.1205 469.91 81.9806C480.221 104.738 489.039 124.432 479.873 148.87C472.375 168.861 457.498 187.884 433.503 180.844C409.416 173.777 387.999 157.522 362.865 153.758C342.71 150.739 338.478 170.421 331.948 185.499C329.666 190.769 327.111 195.279 329.869 200.886C333.51 208.287 340.329 214.037 346.082 219.736C356.41 229.966 367.172 239.742 356.53 253.747C353.383 257.889 349.158 256.896 344.707 255.341C329.13 249.899 314.53 240.7 301.364 230.924C289.894 222.409 275.368 211.728 268.936 198.437C267.594 195.664 268.754 192.304 266.865 196.668C262.069 207.743 256.914 228.712 241.054 223.171C227.737 218.518 215.421 209.757 205.114 200.308C198.134 193.908 187.663 184.166 186.535 173.985C186.379 172.584 188.905 164.983 186.937 169.526C183.275 177.984 179.417 187.139 172.479 193.506C161.489 203.592 147.01 195.811 135.343 191.048C93.5573 173.987 52.4089 155.214 11.0171 137.221" stroke="url(#paint12_linear_147_4203)"/>
<path d="M1142.65 296.984C1142 279.272 1142.66 262.019 1133.03 246.382C1116.68 219.829 1090.05 205.034 1064.15 188.967C1023.09 163.494 982.923 138.474 947.514 105.233C927.681 86.6155 898.142 60.7738 897.682 31.0574C897.583 24.6539 899.706 5.05421 906.947 1.38217C910.282 -0.309528 919.514 4.15568 922.147 5.19278C927.979 7.49071 937.262 10.7077 939.248 17.5869C942.124 27.5457 937.008 43.3168 930.033 50.5974C918.744 62.3792 892.832 53.9237 880.188 49.627C859.944 42.7472 844.66 34.3707 830.88 18.0414C822.774 8.43639 816.899 -0.565229 821.762 -13.0381C828.134 -29.3795 825.696 -0.835545 823.709 4.06727C820.011 13.1941 813.678 16.5318 803.614 16.0646C776.917 14.8252 748.463 0.293999 724.07 -9.38196C690.954 -22.518 659.998 -43.3806 625.653 -53.0127C612.978 -56.5675 601.906 -55.9411 589.953 -50.7616C584.349 -48.3333 573.195 -44.3017 570.54 -37.9727C568.304 -32.6428 570.773 -26.0295 572.625 -21.0251C577.757 -7.15959 584.72 5.98536 590.666 19.5067C600.137 41.0459 606.167 63.3673 596.157 85.8075C586.679 107.054 563.087 114.921 541.189 111.718C520.494 108.69 500.38 100.11 482.908 88.7456C475.458 83.8995 475.616 83.597 470.513 78.767C468.738 77.0863 469.686 78.0062 471.014 80.8517C481.583 103.493 490.624 123.086 481.737 147.627C474.467 167.703 459.807 186.895 435.735 180.126C411.571 173.331 389.972 157.318 364.798 153.838C344.611 151.048 340.603 170.777 334.246 185.929C332.024 191.225 329.52 195.764 332.342 201.34C336.066 208.699 342.95 214.372 348.767 220.006C359.21 230.119 370.082 239.773 359.601 253.898C356.501 258.076 352.265 257.131 347.797 255.626C332.16 250.36 317.458 241.327 304.181 231.7C292.616 223.314 277.971 212.797 271.389 199.579C270.015 196.822 271.137 193.448 269.297 197.833C264.628 208.963 259.712 229.99 243.791 224.628C230.422 220.126 218.009 211.504 207.596 202.171C200.543 195.85 189.963 186.227 188.719 176.059C188.548 174.66 190.986 167.03 189.071 171.595C185.505 180.095 181.752 189.293 174.887 195.739C164.013 205.948 149.447 198.332 137.728 193.7C95.7529 177.112 54.3961 158.804 12.8048 141.279" stroke="url(#paint13_linear_147_4203)"/>
<path d="M1146.23 288.266C1145.38 270.562 1145.84 253.301 1136.04 237.774C1119.39 211.405 1092.59 196.911 1066.51 181.137C1025.17 156.129 984.72 131.562 948.937 98.7225C928.895 80.3292 899.065 54.8217 898.268 25.1107C898.096 18.7084 899.996 -0.91516 907.194 -4.66902C910.51 -6.39841 919.792 -2.0376 922.436 -1.03026C928.293 1.20172 937.612 4.31373 939.676 11.1705C942.664 21.0966 937.729 36.9254 930.837 44.2848C919.684 56.1942 893.679 48.0317 880.988 43.8779C860.667 37.227 845.29 29.0233 831.326 12.85C823.111 3.33666 817.135 -5.59848 821.856 -18.1262C828.042 -34.5395 825.928 -5.96824 823.997 -1.04301C820.403 8.12556 814.109 11.5348 804.041 11.1814C777.333 10.2438 748.718 -3.96565 724.217 -13.3658C690.956 -26.1273 659.766 -46.6399 625.317 -55.8837C612.603 -59.2951 601.538 -58.5436 589.646 -53.2291C584.07 -50.7374 572.964 -46.5798 570.381 -40.2208C568.206 -34.8657 570.75 -28.2803 572.659 -23.2969C577.947 -9.48949 585.059 3.57665 591.157 17.0307C600.872 38.4627 607.155 60.7157 597.401 83.2689C588.166 104.623 564.667 112.756 542.735 109.8C522.009 107.007 501.799 98.654 484.2 87.4871C476.696 82.7254 476.85 82.4211 471.693 77.6488C469.899 75.9882 470.857 76.8973 472.218 79.7277C483.043 102.249 492.305 121.741 483.698 146.382C476.657 166.54 462.217 185.897 438.071 179.4C413.833 172.878 392.054 157.11 366.844 153.915C346.628 151.352 342.845 171.126 336.66 186.35C334.499 191.671 332.047 196.238 334.932 201.782C338.739 209.1 345.686 214.695 351.567 220.263C362.124 230.258 373.104 239.789 362.785 254.032C359.733 258.245 355.487 257.348 351.002 255.894C335.308 250.804 320.504 241.937 307.12 232.46C295.461 224.205 280.697 213.854 273.966 200.711C272.561 197.969 273.645 194.583 271.855 198.989C267.313 210.171 262.636 231.254 246.656 226.072C233.238 221.72 220.728 213.239 210.21 204.024C203.087 197.783 192.399 188.279 191.039 178.125C190.852 176.728 193.203 169.071 191.34 173.658C187.871 182.197 184.223 191.438 177.432 197.961C166.675 208.294 152.025 200.842 140.254 196.343C98.0961 180.229 56.5361 162.389 14.7506 145.334" stroke="url(#paint14_linear_147_4203)"/>
<path d="M1149.81 279.528C1148.77 261.834 1149.03 244.568 1139.05 229.152C1122.1 202.971 1095.14 188.78 1068.89 173.302C1027.27 148.76 986.542 124.652 950.39 92.2164C930.142 74.0498 900.026 48.8797 898.891 19.1779C898.646 12.7776 900.323 -6.86727 907.477 -10.7025C910.773 -12.4693 920.104 -8.21347 922.758 -7.23603C928.641 -5.07028 937.994 -2.06364 940.135 4.76973C943.236 14.662 938.481 30.5465 931.674 37.9837C920.657 50.0191 894.562 42.1506 881.826 38.1403C861.433 31.7192 845.964 23.6894 831.817 7.67404C823.496 -1.74636 817.418 -10.6139 821.997 -23.1949C827.995 -39.678 826.206 -11.083 824.332 -6.13601C820.842 3.07312 814.588 6.55348 804.517 6.31387C777.802 5.67823 749.028 -8.20766 724.424 -17.3308C691.021 -29.7162 659.602 -49.8761 625.052 -58.7303C612.301 -61.9981 601.246 -61.1215 589.416 -55.6725C583.869 -53.1179 572.811 -48.8347 570.301 -42.4466C568.187 -37.0669 570.805 -30.5103 572.771 -25.5486C578.216 -11.801 585.475 1.18463 591.725 14.5696C601.683 35.8916 608.218 58.0735 598.722 80.7368C589.73 102.195 566.326 110.594 544.363 107.886C523.608 105.327 503.305 97.2025 485.582 86.2346C478.024 81.5577 478.175 81.2517 472.965 76.5377C471.152 74.8974 472.121 75.7957 473.513 78.6107C484.593 101.009 494.075 120.396 485.749 145.135C478.938 165.372 464.72 184.892 440.504 178.668C416.194 172.421 394.239 156.899 368.995 153.988C348.752 151.654 345.194 171.471 339.184 186.765C337.083 192.11 334.684 196.705 337.631 202.216C341.521 209.49 348.531 215.007 354.474 220.509C365.143 230.385 376.23 239.791 366.074 254.151C363.071 258.398 358.815 257.549 354.315 256.146C338.564 251.234 323.661 242.534 310.171 233.209C298.42 225.085 283.54 214.901 276.66 201.834C275.225 199.108 276.269 195.71 274.53 200.136C270.115 211.369 265.679 232.505 249.642 227.503C236.176 223.304 223.571 214.964 212.95 205.868C205.756 199.707 194.962 190.325 193.487 180.186C193.284 178.791 195.548 171.107 193.737 175.715C190.366 184.294 186.823 193.576 180.107 200.176C169.469 210.63 154.736 203.344 142.915 198.978C100.579 183.341 58.8211 165.97 16.8468 149.388" stroke="url(#paint15_linear_147_4203)"/>
<path d="M1153.41 270.769C1152.16 253.087 1152.23 235.818 1142.07 220.514C1124.83 194.526 1097.71 180.64 1071.28 165.458C1029.39 141.387 988.394 117.739 951.878 85.713C931.426 67.7754 901.027 42.9459 899.555 13.2572C899.237 6.85972 900.69 -12.804 907.8 -16.72C911.076 -18.5242 920.453 -14.3738 923.119 -13.4264C929.025 -11.3271 938.411 -8.42624 940.63 -1.61713C943.843 8.24004 939.269 24.1781 932.547 31.6923C921.669 43.8521 895.488 36.2786 882.707 32.4123C862.243 26.2218 846.685 18.3669 832.358 2.51161C823.931 -6.81466 817.753 -15.6134 822.188 -28.2461C827.998 -44.7969 826.535 -16.1819 824.717 -11.2137C821.332 -1.96522 815.118 1.58582 805.046 1.46005C778.326 1.12641 749.398 -12.4341 724.693 -21.279C691.154 -33.2868 659.51 -53.0913 624.863 -61.5549C612.076 -64.6785 601.033 -63.677 589.266 -58.0943C583.749 -55.477 572.741 -51.0688 570.304 -44.6524C568.251 -39.2489 570.944 -32.722 572.965 -27.7824C578.566 -14.0966 585.972 -1.19306 592.374 12.1211C602.572 33.3304 609.359 55.4383 600.121 78.2088C591.375 99.7684 568.069 108.432 546.078 105.972C525.296 103.647 504.904 95.7529 487.058 84.9855C479.448 80.3941 479.595 80.0863 474.332 75.4313C472.5 73.8115 473.479 74.6988 474.904 77.4981C486.236 99.7714 495.938 119.051 487.895 143.883C481.314 164.197 467.32 183.878 443.036 177.928C418.658 171.955 396.529 156.681 371.255 154.056C350.988 151.952 347.656 171.808 341.82 187.17C339.78 192.539 337.433 197.161 340.443 202.639C344.415 209.869 351.487 215.306 357.492 220.741C368.272 230.496 379.465 239.777 369.473 254.252C366.518 258.533 362.254 257.732 357.738 256.379C341.933 251.645 326.933 243.114 313.338 233.941C301.496 225.951 286.503 215.935 279.475 202.946C278.009 200.236 279.015 196.826 277.326 201.272C273.039 212.555 268.844 233.74 252.752 228.92C239.24 224.873 226.542 216.676 215.818 207.7C208.556 201.62 197.656 192.36 196.066 182.238C195.847 180.846 198.023 173.136 196.265 177.764C192.992 186.381 189.555 195.703 182.915 202.379C172.397 212.953 157.583 205.833 145.714 201.601C103.205 186.443 61.2548 169.544 19.0971 153.437" stroke="url(#paint16_linear_147_4203)"/>
<path d="M1157.01 261.983C1155.56 244.315 1155.43 227.046 1145.1 211.857C1127.57 186.064 1100.29 172.485 1073.7 157.601C1031.53 134.005 990.275 110.82 953.4 79.2069C932.746 61.5007 902.069 37.015 900.259 7.34312C899.869 0.949311 901.098 -18.7307 908.163 -22.7271C911.418 -24.5682 920.841 -20.5239 923.517 -19.6066C929.447 -17.5741 938.865 -14.7794 941.161 -7.9954C944.485 1.82539 940.093 17.8151 933.457 25.4051C922.718 37.6878 896.455 30.4104 883.631 26.6886C863.1 20.7294 847.454 13.0505 832.949 -2.64275C824.416 -11.8737 818.14 -20.6025 822.43 -33.2852C828.052 -49.9016 826.913 -21.2703 825.152 -16.2816C821.873 -6.99489 815.7 -3.37364 805.628 -3.38555C778.908 -3.41714 749.829 -16.6505 725.027 -25.2161C691.355 -36.8447 659.49 -56.2913 624.75 -64.3632C611.93 -67.3422 600.899 -66.2159 589.197 -60.5002C583.711 -57.8206 572.754 -53.288 570.39 -46.844C568.399 -41.4174 571.166 -34.9209 573.243 -30.0043C578.998 -16.3818 586.55 -3.56215 593.103 9.67958C603.541 30.7734 610.578 52.8044 601.6 75.6791C593.1 97.3374 569.896 106.264 547.88 104.053C527.073 101.963 506.594 94.2995 488.628 83.7339C480.966 79.2285 481.11 78.9191 475.795 74.3236C473.945 72.7245 474.934 73.6008 476.39 76.3839C487.975 98.529 497.894 117.698 490.134 142.622C483.785 163.01 470.017 182.849 445.667 177.173C421.225 171.476 398.925 156.453 373.624 154.113C353.336 152.238 350.23 172.132 344.569 187.559C342.591 192.952 340.296 197.6 343.368 203.044C347.422 210.229 354.555 215.586 360.621 220.953C371.51 230.586 382.807 239.74 372.981 254.328C370.076 258.642 365.802 257.89 361.271 256.588C345.415 252.033 330.32 243.672 316.622 234.652C304.691 226.796 289.585 216.949 282.411 204.04C280.914 201.347 281.881 197.925 280.243 202.39C276.085 213.721 272.131 234.954 255.986 230.316C242.43 226.422 229.64 218.368 218.816 209.513C211.485 203.516 200.481 194.379 198.776 184.275C198.542 182.885 200.63 175.151 198.925 179.799C195.75 188.453 192.419 197.813 185.856 204.565C175.459 215.258 160.566 208.305 148.65 204.207C105.975 189.53 63.8374 173.106 21.5017 157.475" stroke="url(#paint17_linear_147_4203)"/>
<path d="M1160.62 253.179C1158.97 235.528 1158.64 218.26 1148.14 203.188C1130.31 177.593 1102.89 164.322 1076.13 149.74C1033.7 126.62 992.187 103.902 954.956 72.7056C934.103 55.2329 903.152 31.0942 901.005 1.44303C900.542 -4.94632 901.548 -24.6401 908.566 -28.7163C911.8 -30.5942 921.268 -26.6564 923.954 -25.7694C929.906 -23.804 939.354 -21.1157 941.727 -14.3577C945.163 -4.5746 940.953 11.4646 934.404 19.1296C923.806 31.5336 897.463 24.5532 884.599 20.9763C864.002 15.2493 848.271 7.74727 833.589 -7.78187C824.953 -16.9163 818.578 -25.5741 822.724 -38.3052C828.155 -54.985 827.343 -26.341 825.638 -21.3325C822.466 -12.0088 816.334 -8.31778 806.263 -8.21583C779.546 -7.94537 750.32 -20.85 725.424 -29.1351C691.624 -40.3829 659.541 -59.4692 624.714 -67.1484C611.861 -69.9824 600.845 -68.7314 589.209 -62.8835C583.754 -60.1419 572.85 -55.4855 570.56 -49.0148C568.63 -43.5657 571.471 -37.1006 573.604 -32.2075C579.513 -18.6502 587.21 -5.91593 593.912 7.25163C604.589 28.2273 611.876 50.1786 603.159 73.1546C594.906 94.9089 571.806 104.098 549.767 102.136C528.94 100.281 508.376 92.8488 490.291 82.4864C482.58 78.0677 482.72 77.7566 477.353 73.2213C475.485 71.6431 476.484 72.5082 477.972 75.2748C489.807 97.2888 499.943 116.346 492.467 141.357C486.351 161.817 472.809 181.811 448.398 176.411C423.894 170.99 401.426 156.219 376.102 154.165C355.794 152.519 352.915 172.448 347.43 187.939C345.513 193.354 343.272 198.028 346.405 203.437C350.541 210.577 357.733 215.853 363.86 221.151C374.858 230.661 386.257 239.688 376.598 254.387C373.742 258.734 369.46 258.029 364.915 256.779C349.009 252.403 333.821 244.212 320.023 235.348C308.003 227.626 292.788 217.951 285.467 205.123C283.94 202.446 284.868 199.014 283.281 203.497C279.252 214.876 275.54 236.153 259.344 231.697C245.745 227.956 232.866 220.047 221.942 211.315C214.544 205.401 203.437 196.388 201.618 186.303C201.367 184.916 203.368 177.158 201.716 181.826C198.639 190.516 195.416 199.914 188.929 206.739C178.656 217.549 163.685 210.765 151.725 206.802C108.887 192.607 66.5684 176.659 24.0602 161.507" stroke="url(#paint18_linear_147_4203)"/>
<path d="M1164.24 244.35C1162.39 226.717 1161.87 209.454 1151.2 194.5C1133.08 169.107 1105.51 156.147 1078.58 141.867C1035.9 119.226 994.131 96.9778 956.55 66.2028C935.502 48.966 904.279 25.1774 901.796 -4.44933C901.261 -10.8334 902.042 -30.5384 909.013 -34.6939C912.225 -36.6083 921.737 -32.7776 924.433 -31.921C930.406 -30.0228 939.884 -27.4414 942.334 -20.7103C945.88 -10.9661 941.853 5.12059 935.392 12.8596C924.937 25.3833 898.517 18.7007 885.614 15.2693C864.955 9.7751 849.14 2.45097 834.283 -12.9121C825.544 -21.9488 819.071 -30.5345 823.072 -43.3124C828.314 -60.0534 827.827 -31.4005 826.18 -26.3727C823.113 -17.0132 817.025 -13.2529 806.956 -13.0371C780.245 -12.4647 750.876 -25.0388 725.888 -33.0424C691.965 -43.9081 659.669 -62.6316 624.759 -69.917C611.875 -72.6057 600.875 -71.2302 589.307 -65.2508C583.883 -62.4475 573.034 -57.6679 570.817 -51.1714C568.95 -45.7005 571.863 -39.2675 574.052 -34.3986C580.115 -20.9082 587.955 -8.26103 594.806 4.83067C605.72 25.6855 613.255 47.5542 604.801 70.6286C596.796 92.476 573.803 101.926 551.745 100.213C530.899 98.594 510.253 91.3941 492.053 81.2362C484.292 76.9047 484.429 76.5921 479.011 72.1174C477.126 70.5604 478.134 71.4142 479.653 74.164C491.737 96.044 502.088 114.986 494.898 140.081C489.015 160.61 475.702 180.757 451.233 175.633C426.67 170.49 404.036 155.972 378.692 154.206C358.369 152.789 355.716 172.75 350.408 188.303C348.553 193.74 346.365 198.439 349.559 203.813C353.775 210.905 361.027 216.101 367.213 221.329C378.318 230.715 389.818 239.613 380.328 254.42C377.521 258.8 373.232 258.144 368.673 256.945C352.719 252.749 337.44 244.73 323.542 236.021C311.437 228.436 296.113 218.932 288.648 206.187C287.09 203.528 287.979 200.085 286.443 204.586C282.544 216.01 279.075 237.329 262.83 233.057C249.19 229.469 236.222 221.706 225.201 213.097C217.736 207.267 206.529 198.38 204.595 188.316C204.329 186.931 206.241 179.151 204.641 183.837C201.664 192.561 198.548 201.996 192.14 208.894C181.991 219.821 166.945 213.206 154.941 209.378C111.947 195.668 69.452 180.198 26.7767 165.527" stroke="url(#paint19_linear_147_4203)"/>
<path d="M1167.86 235.502C1165.81 217.891 1165.09 200.633 1154.26 185.801C1135.85 160.613 1108.14 147.964 1081.05 133.988C1038.12 111.831 996.101 90.0545 958.175 59.7045C936.933 42.7058 905.444 19.2702 902.624 -10.3281C902.017 -16.7061 902.574 -36.4198 909.497 -40.6541C912.687 -42.6048 922.241 -38.8816 924.946 -38.0555C930.94 -36.2249 940.446 -33.7506 942.972 -27.0472C946.629 -17.3432 942.786 -1.21111 936.413 6.60087C926.101 19.2427 899.609 12.8587 886.668 9.57323C865.949 4.31264 850.054 -2.83267 835.024 -18.0277C826.183 -26.9655 819.613 -35.478 823.468 -48.301C828.519 -65.1012 828.358 -36.4429 826.768 -31.3966C823.808 -22.0025 817.763 -18.1734 807.698 -17.8438C780.997 -16.9694 751.489 -29.2114 726.413 -36.9325C692.37 -47.4146 659.865 -65.7729 624.877 -72.6636C611.964 -75.2067 600.981 -73.7068 589.482 -67.5967C584.091 -64.7321 573.297 -59.8299 571.154 -53.3084C569.35 -47.8164 572.336 -41.4165 574.579 -36.5723C580.795 -23.1505 588.778 -10.5921 595.777 2.42205C606.927 23.1534 614.71 44.9367 606.519 68.1065C598.763 90.0442 575.88 99.7543 553.805 98.2905C532.943 96.9071 512.218 89.9407 493.905 79.9886C486.096 75.7448 486.229 75.4306 480.761 71.0173C478.858 69.4815 479.876 70.3239 481.426 73.0565C493.757 94.7998 504.323 113.625 497.418 138.801C491.769 159.397 478.687 179.694 454.163 174.846C429.544 169.98 406.748 155.719 381.387 154.239C361.05 153.052 358.624 173.043 353.494 188.656C351.701 194.113 349.567 198.837 352.822 204.175C357.118 211.22 364.428 216.333 370.672 221.492C381.882 230.752 393.482 239.519 384.162 254.434C381.405 258.845 377.109 258.238 372.537 257.09C356.537 253.075 341.169 245.229 327.174 236.678C314.984 229.229 299.554 219.899 291.944 207.238C290.357 204.596 291.206 201.143 289.722 205.662C285.953 217.13 282.726 238.488 266.435 234.399C252.756 230.966 239.702 223.35 228.583 214.865C221.054 209.119 209.746 200.359 207.698 190.317C207.416 188.935 209.24 181.133 207.694 185.838C204.816 194.596 201.808 204.065 195.479 211.036C185.455 222.077 170.336 215.633 158.29 211.94C115.145 198.716 72.4797 183.727 29.6428 169.538" stroke="url(#paint20_linear_147_4203)"/>
<path d="M1171.49 226.63C1169.24 209.042 1168.33 191.793 1157.33 177.083C1138.64 152.103 1110.78 139.767 1083.54 126.098C1040.36 104.426 998.101 83.125 959.834 53.204C938.402 36.4455 906.65 13.3661 903.494 -16.2001C902.814 -22.5712 903.147 -42.291 910.021 -46.6035C913.188 -48.5903 922.784 -44.9752 925.498 -44.1796C931.512 -42.4168 941.045 -40.05 943.647 -33.3752C947.414 -23.7126 943.754 -7.53719 937.471 0.346775C927.304 13.1051 900.743 7.02064 887.766 3.88144C866.99 -1.14489 851.015 -8.11046 835.814 -23.1354C826.873 -31.9733 820.207 -40.4114 823.916 -53.2779C828.775 -70.1351 828.94 -41.4752 827.407 -36.4109C824.555 -26.9834 818.554 -23.0861 808.494 -22.6427C781.806 -21.4664 752.162 -33.3748 727.002 -40.8124C692.844 -50.9096 660.134 -68.9002 625.072 -75.3954C612.132 -77.7925 601.166 -76.1685 589.739 -69.9284C584.381 -67.0029 573.644 -61.9787 571.576 -55.433C569.834 -49.9207 572.892 -43.5545 575.191 -38.7358C581.558 -25.3844 589.683 -12.9163 596.829 0.0186364C608.213 20.6237 616.243 42.319 608.316 65.5812C600.811 87.6064 578.041 97.5751 555.952 96.3608C535.077 95.2133 514.275 88.4812 495.851 78.7362C487.995 74.5807 488.124 74.265 482.606 69.9135C480.686 68.3993 481.714 69.2302 483.295 71.9453C495.871 93.549 506.65 112.255 500.032 137.509C494.618 158.168 481.768 178.613 457.191 174.043C432.521 169.455 409.566 155.451 384.191 154.258C363.842 153.301 361.644 173.319 356.692 188.99C354.961 194.468 352.881 199.216 356.196 204.517C360.572 211.513 367.939 216.543 374.242 221.631C385.555 230.765 397.254 239.401 388.104 254.421C385.398 258.863 381.095 258.305 376.511 257.209C360.467 253.374 345.011 245.702 330.921 237.309C318.647 229.998 303.113 220.842 295.361 208.267C293.744 205.644 294.554 202.181 293.121 206.717C289.483 218.227 286.499 239.622 270.164 235.717C256.447 232.438 243.308 224.97 232.095 216.611C224.5 210.95 213.095 202.318 210.933 192.299C210.635 190.921 212.37 183.098 210.878 187.82C208.1 196.61 205.199 206.114 198.951 213.156C189.053 224.311 173.863 218.037 161.776 214.481C118.487 201.744 75.6558 187.238 32.6628 173.533" stroke="url(#paint21_linear_147_4203)"/>
</g>
<defs>
<linearGradient id="paint0_linear_147_4203" x1="1071.98" y1="448.195" x2="123.237" y2="-112.856" gradientUnits="userSpaceOnUse">
<stop stop-color="#309EC6"/>
<stop offset="1" stop-color="#8CDDFB"/>
</linearGradient>
<linearGradient id="paint1_linear_147_4203" x1="1158.84" y1="271.412" x2="104.476" y2="-48.6162" gradientUnits="userSpaceOnUse">
<stop stop-color="#309EC6"/>
<stop offset="1" stop-color="#8CDDFB"/>
</linearGradient>
<linearGradient id="paint2_linear_147_4203" x1="1075.98" y1="440.055" x2="120.905" y2="-110.143" gradientUnits="userSpaceOnUse">
<stop stop-color="#309EC6"/>
<stop offset="1" stop-color="#8CDDFB"/>
</linearGradient>
<linearGradient id="paint3_linear_147_4203" x1="1080" y1="431.886" x2="118.714" y2="-107.388" gradientUnits="userSpaceOnUse">
<stop stop-color="#309EC6"/>
<stop offset="1" stop-color="#8CDDFB"/>
</linearGradient>
<linearGradient id="paint4_linear_147_4203" x1="1084.03" y1="423.691" x2="116.665" y2="-104.587" gradientUnits="userSpaceOnUse">
<stop stop-color="#309EC6"/>
<stop offset="1" stop-color="#8CDDFB"/>
</linearGradient>
<linearGradient id="paint5_linear_147_4203" x1="1088.08" y1="415.469" x2="114.761" y2="-101.743" gradientUnits="userSpaceOnUse">
<stop stop-color="#309EC6"/>
<stop offset="1" stop-color="#8CDDFB"/>
</linearGradient>
<linearGradient id="paint6_linear_147_4203" x1="1092.14" y1="407.219" x2="112.996" y2="-98.8609" gradientUnits="userSpaceOnUse">
<stop stop-color="#309EC6"/>
<stop offset="1" stop-color="#8CDDFB"/>
</linearGradient>
<linearGradient id="paint7_linear_147_4203" x1="1096.22" y1="398.942" x2="111.374" y2="-95.9391" gradientUnits="userSpaceOnUse">
<stop stop-color="#309EC6"/>
<stop offset="1" stop-color="#8CDDFB"/>
</linearGradient>
<linearGradient id="paint8_linear_147_4203" x1="1100.31" y1="390.638" x2="109.896" y2="-92.9796" gradientUnits="userSpaceOnUse">
<stop stop-color="#309EC6"/>
<stop offset="1" stop-color="#8CDDFB"/>
</linearGradient>
<linearGradient id="paint9_linear_147_4203" x1="1104.41" y1="382.305" x2="108.565" y2="-89.9862" gradientUnits="userSpaceOnUse">
<stop stop-color="#309EC6"/>
<stop offset="1" stop-color="#8CDDFB"/>
</linearGradient>
<linearGradient id="paint10_linear_147_4203" x1="1108.53" y1="373.946" x2="107.375" y2="-86.9575" gradientUnits="userSpaceOnUse">
<stop stop-color="#309EC6"/>
<stop offset="1" stop-color="#8CDDFB"/>
</linearGradient>
<linearGradient id="paint11_linear_147_4203" x1="1112.66" y1="365.56" x2="106.329" y2="-83.8958" gradientUnits="userSpaceOnUse">
<stop stop-color="#309EC6"/>
<stop offset="1" stop-color="#8CDDFB"/>
</linearGradient>
<linearGradient id="paint12_linear_147_4203" x1="1116.8" y1="357.143" x2="105.428" y2="-80.8059" gradientUnits="userSpaceOnUse">
<stop stop-color="#309EC6"/>
<stop offset="1" stop-color="#8CDDFB"/>
</linearGradient>
<linearGradient id="paint13_linear_147_4203" x1="1120.95" y1="348.7" x2="104.673" y2="-77.6864" gradientUnits="userSpaceOnUse">
<stop stop-color="#309EC6"/>
<stop offset="1" stop-color="#8CDDFB"/>
</linearGradient>
<linearGradient id="paint14_linear_147_4203" x1="1125.12" y1="340.227" x2="104.067" y2="-74.541" gradientUnits="userSpaceOnUse">
<stop stop-color="#309EC6"/>
<stop offset="1" stop-color="#8CDDFB"/>
</linearGradient>
<linearGradient id="paint15_linear_147_4203" x1="1129.3" y1="331.727" x2="103.604" y2="-71.3687" gradientUnits="userSpaceOnUse">
<stop stop-color="#309EC6"/>
<stop offset="1" stop-color="#8CDDFB"/>
</linearGradient>
<linearGradient id="paint16_linear_147_4203" x1="1133.49" y1="323.199" x2="103.286" y2="-68.1725" gradientUnits="userSpaceOnUse">
<stop stop-color="#309EC6"/>
<stop offset="1" stop-color="#8CDDFB"/>
</linearGradient>
<linearGradient id="paint17_linear_147_4203" x1="1137.69" y1="314.639" x2="103.116" y2="-64.9591" gradientUnits="userSpaceOnUse">
<stop stop-color="#309EC6"/>
<stop offset="1" stop-color="#8CDDFB"/>
</linearGradient>
<linearGradient id="paint18_linear_147_4203" x1="1141.9" y1="306.052" x2="103.092" y2="-61.7223" gradientUnits="userSpaceOnUse">
<stop stop-color="#309EC6"/>
<stop offset="1" stop-color="#8CDDFB"/>
</linearGradient>
<linearGradient id="paint19_linear_147_4203" x1="1146.12" y1="297.435" x2="103.219" y2="-58.4701" gradientUnits="userSpaceOnUse">
<stop stop-color="#309EC6"/>
<stop offset="1" stop-color="#8CDDFB"/>
</linearGradient>
<linearGradient id="paint20_linear_147_4203" x1="1150.35" y1="288.792" x2="103.489" y2="-55.1977" gradientUnits="userSpaceOnUse">
<stop stop-color="#309EC6"/>
<stop offset="1" stop-color="#8CDDFB"/>
</linearGradient>
<linearGradient id="paint21_linear_147_4203" x1="1154.59" y1="280.117" x2="103.907" y2="-51.9128" gradientUnits="userSpaceOnUse">
<stop stop-color="#309EC6"/>
<stop offset="1" stop-color="#8CDDFB"/>
</linearGradient>
</defs>
</svg>
