<svg width="360" height="568" viewBox="0 0 360 568" fill="none" xmlns="http://www.w3.org/2000/svg">
<g opacity="0.4">
<path d="M95.1376 -69.7354C155.677 -100.521 212.188 -131.087 258.661 -181.722C282.207 -207.376 325.58 -253.002 326.264 -291.497C326.341 -295.823 324.869 -295.723 320.866 -294.756C298.793 -289.423 274.078 -267.943 258.817 -253.814C188.571 -188.777 144.043 -111.648 140.177 -15.4585C137.212 58.2929 146.444 163.7 224.507 197.346C282.057 222.15 345.42 203.576 399.737 179.188C493.389 137.14 567.216 61.1234 608.289 -33.1768C644.859 -117.139 640.29 -229.875 553.148 -281.764C505.529 -310.12 448.103 -304.878 396.634 -291.201C352.612 -279.504 308.696 -261.335 276.59 -227.747C253.207 -203.284 239.487 -169.852 226.678 -139.238C200.738 -77.2391 171.593 -11.5538 161.569 55.3816C151.489 122.696 168.446 190.359 203.319 248.163C242.632 313.329 305.754 356.278 379.494 375.167C427.755 387.53 474.252 385.022 519.585 363.285C589.721 329.654 631.428 270.998 688.188 221.094" stroke="url(#paint0_linear_180_6775)" stroke-width="5" stroke-linecap="round"/>
<path d="M282.282 161.958C314.869 102.368 344.255 45.2354 354.027 -22.7954C358.977 -57.2626 369.017 -119.409 347.849 -151.568C345.47 -155.182 344.311 -154.268 341.554 -151.21C326.346 -134.348 318.074 -102.664 313.454 -82.3869C292.193 10.9524 298.985 99.7526 350.1 181.329C389.291 243.876 456.42 325.665 539.848 309.363C601.353 297.345 643.165 246.241 674.229 195.446C727.788 107.867 745.807 3.44324 726.468 -97.5791C709.25 -187.526 641.831 -277.998 540.61 -271.628C485.297 -268.147 440.858 -231.4 406.098 -191.053C376.367 -156.545 350.377 -116.755 342.84 -70.9056C337.351 -37.5125 344.902 -2.1729 351.614 30.3276C365.206 96.1451 378.234 166.815 407.751 227.721C437.435 288.973 489.632 335.247 551.05 363.27C620.289 394.861 696.637 394.674 768.165 368.633C814.978 351.59 851.94 323.269 877.085 279.734C915.987 212.379 917.296 140.418 935.97 67.1831" stroke="url(#paint1_linear_180_6775)" stroke-width="5" stroke-linecap="round"/>
<path d="M104.921 -58.8256C164.557 -91.3281 220.171 -123.496 265.18 -175.437C287.983 -201.753 330.035 -248.6 329.619 -287.098C329.572 -291.424 328.104 -291.283 324.13 -290.202C302.219 -284.241 278.127 -262.063 263.276 -247.504C194.917 -180.487 152.61 -102.118 151.493 -5.85723C150.636 67.9487 162.874 173.049 241.867 204.451C300.102 227.602 362.909 207.225 416.507 181.296C508.919 136.59 580.545 58.4957 618.908 -36.9392C653.064 -121.912 645.277 -234.471 556.689 -283.85C508.279 -310.834 451.026 -303.954 399.968 -288.813C356.299 -275.863 312.92 -256.447 281.786 -221.955C259.111 -196.834 246.352 -163.024 234.423 -132.057C210.264 -69.3425 183.007 -2.85154 174.9 64.3429C166.747 131.918 185.629 199.068 222.139 255.854C263.298 319.87 327.62 360.998 401.87 377.773C450.464 388.752 496.871 384.917 541.564 361.894C610.711 326.274 650.725 266.451 706.037 214.946" stroke="url(#paint2_linear_180_6775)" stroke-width="5"/>
<path d="M114.616 -47.9231C173.299 -82.1158 227.972 -115.859 271.478 -169.065C293.52 -196.021 334.217 -244.05 332.702 -282.521C332.532 -286.844 331.068 -286.66 327.127 -285.466C305.395 -278.882 281.946 -256.025 267.517 -241.048C201.1 -172.106 161.049 -92.5602 162.681 3.6934C163.933 77.4937 179.168 182.202 259.026 211.335C317.899 232.813 380.098 210.65 432.933 183.201C524.031 135.873 593.397 55.7648 629.018 -40.727C660.734 -126.64 649.735 -238.932 559.772 -285.76C510.611 -311.35 453.578 -302.837 402.974 -286.244C359.692 -272.052 316.885 -251.405 286.75 -216.038C264.801 -190.28 253.013 -156.119 241.973 -124.823C219.616 -61.4447 194.269 5.7977 188.084 73.1963C181.864 140.976 202.658 207.56 240.774 263.28C283.745 326.094 349.216 365.368 423.914 380.016C472.802 389.602 519.081 384.443 563.098 360.153C631.199 322.572 669.489 261.63 723.307 208.567" stroke="url(#paint3_linear_180_6775)" stroke-width="5"/>
<path d="M124.226 -37.0176C181.908 -72.8726 235.595 -108.164 277.564 -162.59C298.827 -190.165 338.135 -239.337 335.521 -277.749C335.228 -282.065 333.77 -281.84 329.864 -280.534C308.329 -273.331 285.543 -249.814 271.548 -234.431C207.127 -163.62 169.364 -82.9629 173.746 13.2049C177.105 86.9393 195.325 191.169 275.982 218.01C335.444 237.797 396.985 213.867 449.015 184.919C538.723 135.009 605.773 52.9523 638.623 -44.5175C667.872 -131.302 653.67 -243.233 562.406 -287.473C512.534 -311.648 455.768 -301.51 405.658 -283.478C362.8 -268.055 320.6 -246.194 291.487 -209.981C270.283 -183.606 259.476 -149.123 249.334 -117.524C228.796 -53.5329 205.381 14.4061 201.124 81.9538C196.842 149.884 219.529 215.847 259.222 270.454C303.969 332.016 370.535 369.404 445.621 381.912C494.763 390.098 540.875 383.619 584.18 358.082C651.18 318.571 687.714 256.56 739.994 201.981" stroke="url(#paint4_linear_180_6775)" stroke-width="5"/>
<path d="M133.743 -26.1106C190.377 -63.5985 243.034 -100.409 283.431 -156.012C303.898 -184.183 341.785 -234.457 338.076 -272.779C337.659 -277.085 336.208 -276.818 332.341 -275.401C311.021 -267.587 288.916 -243.428 275.366 -227.651C212.994 -155.029 177.55 -73.3264 184.677 22.677C190.141 96.2854 211.33 199.952 292.721 224.478C352.724 242.559 413.556 216.881 464.738 186.459C552.985 134.007 617.663 50.0679 647.716 -48.3005C674.474 -135.885 657.081 -247.365 564.591 -288.98C514.048 -311.72 457.595 -299.965 408.02 -280.509C365.62 -263.868 324.062 -240.811 295.995 -203.781C275.553 -176.811 265.735 -142.033 256.5 -110.158C237.799 -45.606 216.333 22.9741 214.007 90.6159C211.668 158.641 236.229 223.929 277.466 277.38C323.953 337.638 391.56 373.11 466.973 383.468C516.328 390.247 562.237 382.454 604.795 355.69C670.639 314.282 705.386 251.252 756.086 195.202" stroke="url(#paint5_linear_180_6775)" stroke-width="5"/>
<path d="M143.174 -15.2033C198.715 -54.2937 250.299 -92.5927 289.091 -149.327C308.745 -178.072 345.181 -229.407 340.378 -267.607C339.839 -271.9 338.396 -271.592 334.571 -270.065C313.483 -261.645 292.077 -236.865 278.983 -220.707C218.711 -146.333 185.615 -63.6512 195.481 32.1095C203.045 105.532 227.188 208.551 309.245 230.742C369.741 247.102 429.814 219.696 480.107 187.825C566.819 132.874 629.073 47.1216 656.304 -52.0651C680.549 -140.378 659.979 -251.316 566.338 -290.272C515.167 -311.559 459.072 -298.196 410.074 -277.332C368.165 -259.487 327.283 -235.253 300.285 -197.436C280.622 -169.893 271.802 -134.849 263.481 -102.723C246.631 -37.663 227.133 31.5022 226.74 99.1829C226.345 167.247 252.761 231.806 295.508 284.058C343.697 342.964 412.29 376.49 487.967 384.69C537.496 390.056 583.164 380.955 624.94 352.986C689.574 309.714 722.507 245.718 771.585 188.243" stroke="url(#paint6_linear_180_6775)" stroke-width="5"/>
<path d="M152.509 -4.28548C206.91 -44.9463 257.379 -84.7032 294.535 -142.523C313.36 -171.816 348.315 -224.172 342.423 -262.219C341.761 -266.495 340.328 -266.146 336.549 -264.51C315.709 -255.491 295.02 -230.11 282.393 -213.585C224.269 -137.519 193.549 -53.9258 206.146 41.5139C215.805 114.69 242.879 216.978 325.538 236.816C386.476 251.441 445.742 222.331 495.103 189.036C580.21 131.63 639.99 44.1349 664.377 -55.7891C686.09 -144.759 662.359 -255.063 567.643 -291.329C515.885 -311.146 460.195 -296.186 411.812 -273.931C370.431 -254.896 330.258 -229.504 304.351 -190.931C285.483 -162.838 277.667 -127.556 270.267 -95.2055C255.282 -29.6911 237.768 40.0028 239.308 107.667C240.857 175.714 269.107 239.493 313.328 290.503C363.181 348.008 432.703 379.561 508.584 385.596C558.246 389.545 603.635 379.143 644.595 349.993C707.967 304.892 739.058 239.982 786.475 181.128" stroke="url(#paint7_linear_180_6775)" stroke-width="5"/>
<path d="M161.767 6.6377C214.985 -35.5604 264.298 -76.7426 299.787 -135.6C317.767 -165.419 351.213 -218.752 344.236 -256.615C343.452 -260.871 342.03 -260.48 338.299 -258.737C317.725 -249.127 297.769 -223.165 285.619 -206.286C229.692 -128.592 201.373 -44.1546 216.691 50.8864C228.435 123.757 258.421 225.23 341.612 242.698C402.943 255.577 461.353 224.786 509.744 190.095C593.176 130.281 650.432 41.1142 671.955 -59.4656C691.117 -149.019 664.246 -258.601 568.533 -292.146C516.23 -310.477 460.99 -293.933 413.263 -270.304C372.442 -250.095 333.01 -223.566 308.216 -184.269C290.158 -155.648 283.353 -120.158 276.88 -87.6088C263.772 -21.6931 248.256 48.4726 251.729 116.065C255.221 184.041 285.281 246.986 330.941 296.712C382.415 352.77 452.811 382.325 528.833 386.189C578.588 388.719 623.661 377.024 663.772 346.716C725.83 299.824 755.054 234.051 800.77 173.867" stroke="url(#paint8_linear_180_6775)" stroke-width="5"/>
<path d="M170.929 17.5765C222.92 -26.1245 271.036 -68.6984 304.83 -128.545C321.951 -158.866 353.859 -213.133 345.805 -250.781C344.899 -255.012 343.488 -254.581 339.809 -252.733C319.518 -242.538 300.312 -216.017 288.649 -198.798C234.964 -119.538 209.068 -34.3264 227.094 60.2383C240.915 132.744 273.787 233.318 357.443 248.404C419.117 259.525 476.624 227.078 524.004 191.019C605.694 128.847 660.38 38.0809 679.02 -63.0725C695.617 -153.137 665.626 -261.906 568.995 -292.704C516.189 -309.533 461.444 -291.418 414.411 -266.436C374.185 -245.07 335.527 -217.424 311.865 -177.435C294.632 -148.311 288.843 -112.64 283.303 -79.9195C272.084 -13.6563 258.578 56.924 263.98 124.39C269.412 192.238 301.257 254.299 348.319 302.7C401.374 357.265 472.585 384.797 548.687 386.489C598.493 387.596 643.214 374.619 682.443 343.177C743.136 294.531 770.47 227.951 814.448 166.485" stroke="url(#paint9_linear_180_6775)" stroke-width="5"/>
<path d="M179.999 28.5296C230.721 -16.6386 277.601 -60.5696 309.672 -121.357C325.92 -152.155 356.265 -207.311 347.138 -244.714C346.112 -248.917 344.714 -248.446 341.089 -246.493C321.098 -235.723 302.657 -208.664 291.491 -191.119C240.092 -110.358 216.64 -24.4415 237.36 69.5697C253.246 141.651 288.978 241.246 373.031 253.935C434.997 263.29 491.554 229.214 537.884 191.816C617.765 127.336 669.836 35.0452 685.58 -66.5994C699.597 -157.101 666.512 -264.97 569.04 -292.994C515.775 -308.309 461.57 -288.637 415.27 -262.322C375.67 -239.815 337.818 -211.077 315.308 -170.428C298.913 -140.823 294.146 -105.002 289.543 -72.1365C280.22 -5.57985 268.736 65.3574 276.063 132.642C283.431 200.307 317.036 261.433 365.461 308.47C420.053 361.497 492.021 386.984 568.14 386.501C617.958 386.185 662.29 371.936 700.605 339.386C759.884 289.027 785.305 221.693 827.51 158.997" stroke="url(#paint10_linear_180_6775)" stroke-width="5"/>
<path d="M188.99 39.4955C238.4 -7.103 284.007 -52.3551 314.328 -114.034C329.69 -145.283 358.447 -201.283 348.256 -238.41C347.11 -242.583 345.726 -242.072 342.158 -240.016C322.483 -228.68 304.822 -201.105 294.162 -183.248C245.091 -101.052 224.102 -14.5005 247.499 78.8805C265.438 150.478 304 249.012 388.381 259.296C450.589 266.877 506.149 231.199 551.393 192.493C629.399 125.758 678.813 32.017 691.647 -70.0358C703.074 -160.901 666.921 -267.78 568.688 -293.01C515.007 -306.796 461.386 -285.584 415.857 -257.958C376.916 -234.329 339.9 -204.521 318.56 -163.246C303.018 -133.185 299.276 -97.2419 295.613 -64.2584C288.196 2.53734 278.742 73.7737 287.988 140.821C297.286 208.248 332.623 268.39 382.372 314.025C438.456 365.47 511.123 388.891 587.197 386.234C636.986 384.496 680.892 368.986 718.262 335.355C776.078 283.323 799.566 215.291 839.962 151.414" stroke="url(#paint11_linear_180_6775)" stroke-width="5"/>
<path d="M197.889 50.4847C245.949 2.49382 290.244 -44.0425 318.791 -106.562C333.254 -138.238 360.4 -195.036 349.152 -231.857C347.888 -235.995 346.519 -235.445 343.011 -233.288C323.668 -221.394 306.802 -193.326 296.656 -175.172C249.953 -91.6076 231.445 -4.49226 257.5 88.1823C277.477 159.238 318.837 256.63 403.477 264.5C465.876 270.301 520.395 233.051 564.514 193.068C640.583 124.132 687.299 29.0181 697.212 -73.3596C706.039 -164.514 666.848 -270.317 567.935 -292.73C513.882 -304.978 460.889 -282.243 416.167 -253.327C377.917 -228.595 341.768 -197.743 321.616 -155.875C306.939 -125.382 304.225 -89.3471 301.506 -56.2724C295.999 10.7079 288.584 82.1852 299.741 148.941C310.961 216.075 348.002 275.183 399.034 319.378C456.565 369.201 529.871 390.536 605.838 385.708C655.557 382.547 699.003 365.79 735.396 331.106C791.703 277.443 813.237 208.768 851.793 143.764" stroke="url(#paint12_linear_180_6775)" stroke-width="5"/>
<path d="M206.707 61.4955C253.375 12.1515 296.324 -35.6311 323.073 -98.9409C336.625 -131.016 362.138 -188.567 349.843 -225.052C348.461 -229.152 347.109 -228.563 343.664 -226.307C324.668 -213.865 308.611 -185.327 298.988 -166.89C254.69 -82.0259 238.678 5.58254 267.37 97.4751C289.368 167.932 333.493 264.103 418.323 269.551C480.863 273.568 534.296 234.775 577.255 193.549C651.323 122.468 695.303 26.0585 702.288 -76.5607C708.508 -167.93 666.311 -272.571 566.797 -292.149C512.417 -302.848 460.095 -278.609 416.218 -248.427C378.689 -222.613 343.436 -190.74 324.488 -148.314C310.688 -117.415 309.004 -81.3165 307.231 -48.1777C303.64 18.9326 298.27 90.5925 311.329 157.003C324.462 223.788 363.176 281.814 415.45 324.534C474.38 372.693 548.266 391.926 624.064 384.929C673.672 380.35 716.622 362.359 752.01 326.649C806.76 271.4 826.324 202.138 863.008 136.059" stroke="url(#paint13_linear_180_6775)" stroke-width="5"/>
<path d="M215.434 72.5266C260.675 21.8697 302.24 -27.1201 327.171 -91.1682C339.801 -123.618 363.66 -181.873 350.327 -217.992C348.829 -222.051 347.494 -221.424 344.115 -219.07C325.482 -206.091 310.247 -177.106 301.154 -158.402C259.299 -72.3068 245.796 15.7232 277.1 106.759C301.102 176.558 347.956 271.43 432.907 274.453C495.536 276.681 547.839 236.379 589.603 193.942C661.611 120.775 702.819 23.148 706.871 -79.6288C710.478 -171.138 665.309 -274.531 565.277 -291.259C510.613 -300.401 459.005 -274.676 416.007 -243.254C379.232 -216.379 344.903 -183.512 327.175 -140.562C314.263 -109.281 313.611 -73.1492 312.785 -39.9732C311.112 27.2123 307.791 98.9964 322.742 165.006C337.777 231.39 378.133 288.286 431.606 329.495C491.888 375.951 566.292 393.066 641.86 383.907C691.317 377.913 733.735 358.702 768.089 321.996C821.239 265.206 838.817 195.413 873.598 128.313" stroke="url(#paint14_linear_180_6775)" stroke-width="5"/>
<path d="M224.077 83.5883C267.852 31.6598 308.001 -18.4973 331.092 -83.2314C342.79 -116.028 364.975 -174.942 350.617 -210.665C349.003 -214.68 347.686 -214.014 344.376 -211.565C326.121 -198.059 311.72 -168.651 303.165 -149.695C263.786 -62.439 252.804 25.9408 286.695 116.045C312.681 185.131 362.226 278.625 447.229 279.22C509.896 279.659 561.026 237.879 601.561 194.267C671.45 119.072 709.853 20.3084 710.967 -82.5423C711.959 -174.118 663.855 -276.178 563.386 -290.042C508.483 -297.618 457.631 -270.43 415.548 -237.793C379.555 -209.878 346.18 -176.044 329.685 -132.605C317.672 -100.968 318.053 -64.8324 318.175 -31.6464C318.422 35.5595 317.152 107.409 333.982 172.965C350.908 238.892 392.872 294.613 447.5 334.277C509.084 378.993 583.948 393.975 659.223 382.662C708.489 375.257 750.34 354.843 783.632 317.17C835.138 258.885 850.715 188.619 883.565 120.552" stroke="url(#paint15_linear_180_6775)" stroke-width="5"/>
<path d="M232.639 94.6751C274.913 41.5174 313.613 -9.76603 334.845 -75.1332C345.602 -108.251 366.095 -167.774 350.722 -203.072C348.995 -207.039 347.697 -206.337 344.458 -203.794C326.597 -189.772 313.042 -159.964 305.032 -140.772C268.161 -52.4268 259.707 36.2306 296.159 125.33C324.107 193.645 376.302 285.686 461.288 283.853C523.942 282.502 573.858 239.278 613.131 194.526C680.843 117.366 716.409 17.5455 714.585 -85.295C712.96 -176.861 661.961 -277.506 561.137 -288.495C506.041 -294.499 455.985 -265.87 414.852 -232.044C379.672 -203.112 347.276 -168.339 332.029 -124.446C320.924 -92.479 322.337 -56.3692 323.407 -23.2003C325.573 43.9711 326.357 115.828 345.053 180.876C363.854 246.293 407.393 300.792 463.132 338.88C525.968 381.818 601.229 394.656 676.15 381.197C725.184 372.389 766.436 350.787 798.637 312.179C848.458 252.446 862.021 181.763 892.914 112.787" stroke="url(#paint16_linear_180_6775)" stroke-width="5"/>
<path d="M241.118 105.797C281.856 51.4538 319.076 -0.914185 338.432 -66.8611C348.239 -100.273 367.023 -160.357 350.648 -195.202C348.808 -199.118 347.531 -198.378 344.366 -195.744C326.913 -181.218 314.215 -151.035 306.756 -131.621C272.424 -42.2593 266.506 46.6035 305.488 134.625C335.376 202.114 390.179 292.627 475.077 288.367C537.667 285.227 586.328 240.595 624.306 194.739C689.787 115.677 722.488 14.881 717.727 -87.8655C713.487 -179.348 659.634 -278.495 558.537 -286.599C503.292 -291.028 454.075 -260.981 413.925 -225.993C379.585 -196.068 348.195 -160.384 334.208 -116.074C324.022 -83.8022 326.465 -47.7476 328.482 -14.6227C332.566 52.4594 335.402 124.264 355.948 188.752C376.61 253.605 421.688 306.838 478.492 343.319C542.529 384.445 618.126 395.128 692.632 379.534C741.394 369.329 782.012 346.557 813.098 307.045C861.192 245.914 872.731 174.873 901.641 105.042" stroke="url(#paint17_linear_180_6775)" stroke-width="5"/>
<path d="M249.51 116.949C288.68 61.4644 324.389 8.05469 341.853 -58.4182C350.702 -92.0961 367.762 -152.692 350.399 -187.055C348.447 -190.917 347.192 -190.142 344.103 -187.418C327.072 -172.399 315.241 -141.866 308.34 -122.247C276.575 -31.941 273.197 57.0545 314.677 143.927C346.481 210.535 403.847 299.445 488.589 292.762C551.064 287.835 598.43 241.832 635.083 194.91C698.279 114.009 728.087 12.3205 720.393 -90.248C713.542 -181.572 656.879 -279.14 555.592 -284.353C500.243 -287.202 451.904 -255.761 412.77 -219.641C379.298 -188.748 348.941 -152.181 336.226 -107.49C326.965 -74.9407 330.437 -38.9706 333.399 -5.91686C339.398 61.0212 344.283 132.716 366.663 196.59C389.169 260.827 435.749 312.751 493.572 347.594C558.758 386.874 634.629 395.393 708.659 377.678C757.11 366.083 797.061 342.161 827.005 301.778C873.334 239.298 882.839 167.956 909.742 97.3273" stroke="url(#paint18_linear_180_6775)" stroke-width="5"/>
<path d="M257.822 128.141C295.39 71.5603 329.559 17.1524 345.118 -49.7923C353.001 -83.7092 368.323 -144.768 349.985 -178.621C347.924 -182.425 346.692 -181.614 343.682 -178.804C327.087 -163.304 316.133 -132.446 309.795 -112.638C280.622 -21.4613 279.788 67.5944 323.732 153.247C357.426 218.919 417.308 306.154 501.825 297.053C564.133 290.344 610.166 243.006 645.464 195.057C706.323 112.384 733.214 9.88537 722.594 -92.4215C713.138 -183.513 653.71 -279.423 552.316 -281.741C496.908 -283.007 449.487 -250.199 411.4 -212.975C378.825 -181.138 349.524 -143.72 338.091 -98.6835C329.763 -65.8828 334.262 -30.0265 338.167 2.92913C346.075 69.6685 353.006 141.194 377.201 204.404C401.533 267.971 449.577 318.543 508.372 351.721C574.653 389.122 650.736 395.471 724.23 375.648C772.33 362.675 811.582 337.622 840.36 296.399C884.885 232.621 892.349 161.037 917.224 89.6687" stroke="url(#paint19_linear_180_6775)" stroke-width="5"/>
<path d="M266.052 139.372C301.989 81.7409 334.59 26.3792 348.231 -40.9826C355.141 -75.1108 368.714 -136.582 349.416 -169.898C347.248 -173.642 346.039 -172.796 343.111 -169.9C326.965 -153.933 316.897 -122.774 311.127 -102.794C284.57 -10.8209 286.28 78.2223 332.654 162.584C368.209 227.267 430.558 312.756 514.781 301.245C576.872 292.759 621.534 244.126 655.448 195.188C713.921 110.81 737.873 7.58538 724.335 -94.3764C712.281 -185.16 650.138 -279.334 548.719 -278.755C493.297 -278.438 446.832 -244.288 409.825 -205.992C378.172 -173.238 349.953 -134.998 339.81 -89.653C332.423 -56.6279 337.943 -20.9148 342.788 11.9159C352.6 78.4022 361.571 149.701 387.562 212.193C413.7 275.04 463.169 324.219 522.887 355.703C590.209 391.197 666.443 395.37 739.341 373.456C787.051 359.114 825.57 332.949 853.16 290.921C895.844 225.898 901.26 154.129 924.087 82.0802" stroke="url(#paint20_linear_180_6775)" stroke-width="5"/>
<path d="M274.208 150.643C308.484 92.0093 339.49 35.739 351.201 -31.9848C357.134 -66.2965 368.945 -128.131 348.704 -160.881C346.429 -164.562 345.245 -163.682 342.401 -160.704C326.718 -144.282 317.544 -112.848 312.347 -92.7109C288.428 -0.0171092 292.681 88.9408 341.445 171.944C378.833 235.585 443.599 319.258 527.458 305.346C589.282 295.09 632.536 245.201 665.039 195.314C721.077 109.3 742.072 5.43371 725.626 -96.0997C710.984 -186.502 646.177 -278.862 544.816 -275.386C489.426 -273.487 443.955 -238.024 408.057 -198.686C377.353 -165.041 350.237 -126.011 341.393 -80.3949C334.953 -47.1723 341.491 -11.6314 347.272 21.0475C358.978 87.2263 369.983 158.24 397.748 219.964C425.67 282.038 476.523 329.784 537.116 359.55C605.425 393.106 681.747 395.1 753.989 371.113C801.27 355.414 839.026 328.16 865.404 285.361C906.214 219.145 909.578 147.251 930.337 74.5792" stroke="url(#paint21_linear_180_6775)" stroke-width="5"/>
</g>
<defs>
<linearGradient id="paint0_linear_180_6775" x1="235.976" y1="-243.533" x2="604.664" y2="309.772" gradientUnits="userSpaceOnUse">
<stop stop-color="#602A18"/>
<stop offset="1" stop-color="#73321B"/>
</linearGradient>
<linearGradient id="paint1_linear_180_6775" x1="300.405" y1="-61.0058" x2="917.096" y2="187.532" gradientUnits="userSpaceOnUse">
<stop stop-color="#602A18"/>
<stop offset="1" stop-color="#73321B"/>
</linearGradient>
<linearGradient id="paint2_linear_180_6775" x1="240.738" y1="-236.575" x2="625.08" y2="305.974" gradientUnits="userSpaceOnUse">
<stop stop-color="#602A18"/>
<stop offset="1" stop-color="#73321B"/>
</linearGradient>
<linearGradient id="paint3_linear_180_6775" x1="245.3" y1="-229.48" x2="644.982" y2="301.87" gradientUnits="userSpaceOnUse">
<stop stop-color="#602A18"/>
<stop offset="1" stop-color="#73321B"/>
</linearGradient>
<linearGradient id="paint4_linear_180_6775" x1="249.67" y1="-222.233" x2="664.367" y2="297.483" gradientUnits="userSpaceOnUse">
<stop stop-color="#602A18"/>
<stop offset="1" stop-color="#73321B"/>
</linearGradient>
<linearGradient id="paint5_linear_180_6775" x1="253.846" y1="-214.834" x2="683.218" y2="292.826" gradientUnits="userSpaceOnUse">
<stop stop-color="#602A18"/>
<stop offset="1" stop-color="#73321B"/>
</linearGradient>
<linearGradient id="paint6_linear_180_6775" x1="257.838" y1="-207.28" x2="701.535" y2="287.908" gradientUnits="userSpaceOnUse">
<stop stop-color="#602A18"/>
<stop offset="1" stop-color="#73321B"/>
</linearGradient>
<linearGradient id="paint7_linear_180_6775" x1="261.639" y1="-199.559" x2="719.3" y2="282.753" gradientUnits="userSpaceOnUse">
<stop stop-color="#602A18"/>
<stop offset="1" stop-color="#73321B"/>
</linearGradient>
<linearGradient id="paint8_linear_180_6775" x1="265.275" y1="-191.673" x2="736.526" y2="277.369" gradientUnits="userSpaceOnUse">
<stop stop-color="#602A18"/>
<stop offset="1" stop-color="#73321B"/>
</linearGradient>
<linearGradient id="paint9_linear_180_6775" x1="268.731" y1="-183.61" x2="753.186" y2="271.781" gradientUnits="userSpaceOnUse">
<stop stop-color="#602A18"/>
<stop offset="1" stop-color="#73321B"/>
</linearGradient>
<linearGradient id="paint10_linear_180_6775" x1="272.014" y1="-175.368" x2="769.28" y2="265.999" gradientUnits="userSpaceOnUse">
<stop stop-color="#602A18"/>
<stop offset="1" stop-color="#73321B"/>
</linearGradient>
<linearGradient id="paint11_linear_180_6775" x1="275.143" y1="-166.948" x2="784.813" y2="260.036" gradientUnits="userSpaceOnUse">
<stop stop-color="#602A18"/>
<stop offset="1" stop-color="#73321B"/>
</linearGradient>
<linearGradient id="paint12_linear_180_6775" x1="278.111" y1="-158.335" x2="799.769" y2="253.916" gradientUnits="userSpaceOnUse">
<stop stop-color="#602A18"/>
<stop offset="1" stop-color="#73321B"/>
</linearGradient>
<linearGradient id="paint13_linear_180_6775" x1="280.931" y1="-149.53" x2="814.151" y2="247.652" gradientUnits="userSpaceOnUse">
<stop stop-color="#602A18"/>
<stop offset="1" stop-color="#73321B"/>
</linearGradient>
<linearGradient id="paint14_linear_180_6775" x1="283.6" y1="-140.533" x2="827.948" y2="241.257" gradientUnits="userSpaceOnUse">
<stop stop-color="#602A18"/>
<stop offset="1" stop-color="#73321B"/>
</linearGradient>
<linearGradient id="paint15_linear_180_6775" x1="286.129" y1="-131.332" x2="841.161" y2="234.754" gradientUnits="userSpaceOnUse">
<stop stop-color="#602A18"/>
<stop offset="1" stop-color="#73321B"/>
</linearGradient>
<linearGradient id="paint16_linear_180_6775" x1="288.527" y1="-121.93" x2="853.789" y2="228.153" gradientUnits="userSpaceOnUse">
<stop stop-color="#602A18"/>
<stop offset="1" stop-color="#73321B"/>
</linearGradient>
<linearGradient id="paint17_linear_180_6775" x1="290.796" y1="-112.316" x2="865.827" y2="221.478" gradientUnits="userSpaceOnUse">
<stop stop-color="#602A18"/>
<stop offset="1" stop-color="#73321B"/>
</linearGradient>
<linearGradient id="paint18_linear_180_6775" x1="292.939" y1="-102.493" x2="877.269" y2="214.739" gradientUnits="userSpaceOnUse">
<stop stop-color="#602A18"/>
<stop offset="1" stop-color="#73321B"/>
</linearGradient>
<linearGradient id="paint19_linear_180_6775" x1="294.964" y1="-92.4523" x2="888.117" y2="207.961" gradientUnits="userSpaceOnUse">
<stop stop-color="#602A18"/>
<stop offset="1" stop-color="#73321B"/>
</linearGradient>
<linearGradient id="paint20_linear_180_6775" x1="296.879" y1="-82.1926" x2="898.371" y2="201.155" gradientUnits="userSpaceOnUse">
<stop stop-color="#602A18"/>
<stop offset="1" stop-color="#73321B"/>
</linearGradient>
<linearGradient id="paint21_linear_180_6775" x1="298.693" y1="-71.7113" x2="908.033" y2="194.34" gradientUnits="userSpaceOnUse">
<stop stop-color="#602A18"/>
<stop offset="1" stop-color="#73321B"/>
</linearGradient>
</defs>
</svg>
