<svg width="120" height="50" viewBox="0 0 120 50" fill="none" xmlns="http://www.w3.org/2000/svg">
<rect width="1.79104" height="50" fill="#232323"/>
<rect x="2.6875" width="0.895522" height="50" fill="#232323"/>
<rect x="5.37109" width="2.68657" height="50" fill="#232323"/>
<rect x="9.85156" width="3.58209" height="50" fill="#232323"/>
<rect x="14.3281" width="0.895522" height="50" fill="#232323"/>
<rect x="16.1172" width="2.68657" height="50" fill="#232323"/>
<rect x="19.7031" width="1.79104" height="50" fill="#232323"/>
<rect x="23.2852" width="1.79104" height="50" fill="#232323"/>
<rect x="25.9688" width="1.79104" height="50" fill="#232323"/>
<rect x="29.5508" width="0.895522" height="50" fill="#232323"/>
<rect x="32.2383" width="1.79104" height="50" fill="#232323"/>
<rect x="35.8203" width="2.68657" height="50" fill="#232323"/>
<rect x="39.4023" width="2.23881" height="50" fill="#232323"/>
<rect x="43.8789" width="0.895522" height="50" fill="#232323"/>
<rect x="46.5664" width="0.895522" height="50" fill="#232323"/>
<rect x="49.2539" width="1.79104" height="50" fill="#232323"/>
<rect x="52.8359" width="0.895522" height="50" fill="#232323"/>
<rect x="55.5234" width="2.68657" height="50" fill="#232323"/>
<rect x="59.1016" width="2.68657" height="50" fill="#232323"/>
<rect x="62.6875" width="0.895522" height="50" fill="#232323"/>
<rect x="65.3711" width="1.79104" height="50" fill="#232323"/>
<rect x="68.9531" width="1.79104" height="50" fill="#232323"/>
<rect x="72.5391" width="2.68657" height="50" fill="#232323"/>
<rect x="77.0156" width="0.895522" height="50" fill="#232323"/>
<rect x="78.8047" width="1.79104" height="50" fill="#232323"/>
<rect x="81.4922" width="1.79104" height="50" fill="#232323"/>
<rect x="85.0742" width="1.79104" height="50" fill="#232323"/>
<rect x="88.6562" width="1.79104" height="50" fill="#232323"/>
<rect x="92.2383" width="1.79104" height="50" fill="#232323"/>
<rect x="95.8203" width="1.79104" height="50" fill="#232323"/>
<rect x="98.5078" width="0.895522" height="50" fill="#232323"/>
<rect x="101.195" width="0.895522" height="50" fill="#232323"/>
<rect x="102.984" width="1.79104" height="50" fill="#232323"/>
<rect x="108.359" width="1.79104" height="50" fill="#232323"/>
<rect x="112.836" width="2.68657" height="50" fill="#232323"/>
<rect x="116.418" width="0.895522" height="50" fill="#232323"/>
<rect x="118.207" width="1.79104" height="50" fill="#232323"/>
</svg>
