<svg width="50" height="120" viewBox="0 0 50 120" fill="none" xmlns="http://www.w3.org/2000/svg">
<rect y="120" width="1.79104" height="50" transform="rotate(-90 0 120)" fill="#232323"/>
<rect y="117.312" width="0.895522" height="50" transform="rotate(-90 0 117.312)" fill="#232323"/>
<rect y="114.627" width="2.68657" height="50" transform="rotate(-90 0 114.627)" fill="#232323"/>
<rect y="110.15" width="3.58209" height="50" transform="rotate(-90 0 110.15)" fill="#232323"/>
<rect y="105.672" width="0.895522" height="50" transform="rotate(-90 0 105.672)" fill="#232323"/>
<rect y="103.881" width="2.68657" height="50" transform="rotate(-90 0 103.881)" fill="#232323"/>
<rect y="100.299" width="1.79104" height="50" transform="rotate(-90 0 100.299)" fill="#232323"/>
<rect y="96.7168" width="1.79104" height="50" transform="rotate(-90 0 96.7168)" fill="#232323"/>
<rect y="94.0293" width="1.79104" height="50" transform="rotate(-90 0 94.0293)" fill="#232323"/>
<rect y="90.4473" width="0.895522" height="50" transform="rotate(-90 0 90.4473)" fill="#232323"/>
<rect y="87.7617" width="1.79104" height="50" transform="rotate(-90 0 87.7617)" fill="#232323"/>
<rect y="84.1797" width="2.68657" height="50" transform="rotate(-90 0 84.1797)" fill="#232323"/>
<rect y="80.5977" width="2.23881" height="50" transform="rotate(-90 0 80.5977)" fill="#232323"/>
<rect y="76.1191" width="0.895522" height="50" transform="rotate(-90 0 76.1191)" fill="#232323"/>
<rect y="73.4336" width="0.895522" height="50" transform="rotate(-90 0 73.4336)" fill="#232323"/>
<rect y="70.7461" width="1.79104" height="50" transform="rotate(-90 0 70.7461)" fill="#232323"/>
<rect y="67.1641" width="0.895522" height="50" transform="rotate(-90 0 67.1641)" fill="#232323"/>
<rect y="64.4785" width="2.68657" height="50" transform="rotate(-90 0 64.4785)" fill="#232323"/>
<rect y="60.8965" width="2.68657" height="50" transform="rotate(-90 0 60.8965)" fill="#232323"/>
<rect y="57.3145" width="0.895522" height="50" transform="rotate(-90 0 57.3145)" fill="#232323"/>
<rect y="54.627" width="1.79104" height="50" transform="rotate(-90 0 54.627)" fill="#232323"/>
<rect y="51.0449" width="1.79104" height="50" transform="rotate(-90 0 51.0449)" fill="#232323"/>
<rect y="47.4629" width="2.68657" height="50" transform="rotate(-90 0 47.4629)" fill="#232323"/>
<rect y="42.9844" width="0.895522" height="50" transform="rotate(-90 0 42.9844)" fill="#232323"/>
<rect y="41.1934" width="1.79104" height="50" transform="rotate(-90 0 41.1934)" fill="#232323"/>
<rect y="38.5078" width="1.79104" height="50" transform="rotate(-90 0 38.5078)" fill="#232323"/>
<rect y="34.9258" width="1.79104" height="50" transform="rotate(-90 0 34.9258)" fill="#232323"/>
<rect y="31.3438" width="1.79104" height="50" transform="rotate(-90 0 31.3438)" fill="#232323"/>
<rect y="27.7617" width="1.79104" height="50" transform="rotate(-90 0 27.7617)" fill="#232323"/>
<rect y="24.1797" width="1.79104" height="50" transform="rotate(-90 0 24.1797)" fill="#232323"/>
<rect y="21.4922" width="0.895522" height="50" transform="rotate(-90 0 21.4922)" fill="#232323"/>
<rect y="18.8066" width="0.895522" height="50" transform="rotate(-90 0 18.8066)" fill="#232323"/>
<rect y="17.0156" width="1.79104" height="50" transform="rotate(-90 0 17.0156)" fill="#232323"/>
<rect y="11.6406" width="1.79104" height="50" transform="rotate(-90 0 11.6406)" fill="#232323"/>
<rect y="7.16406" width="2.68657" height="50" transform="rotate(-90 0 7.16406)" fill="#232323"/>
<rect y="3.58203" width="0.895522" height="50" transform="rotate(-90 0 3.58203)" fill="#232323"/>
<rect y="1.79102" width="1.79104" height="50" transform="rotate(-90 0 1.79102)" fill="#232323"/>
</svg>
