<svg width="50" height="120" viewBox="0 0 50 120" fill="none" xmlns="http://www.w3.org/2000/svg">
<rect y="120" width="2" height="50" transform="rotate(-90 0 120)" fill="#232323"/>
<rect y="117" width="1" height="50" transform="rotate(-90 0 117)" fill="#232323"/>
<rect y="114" width="3" height="50" transform="rotate(-90 0 114)" fill="#232323"/>
<rect y="110" width="4" height="50" transform="rotate(-90 0 110)" fill="#232323"/>
<rect y="105" width="1" height="50" transform="rotate(-90 0 105)" fill="#232323"/>
<rect y="104" width="3" height="50" transform="rotate(-90 0 104)" fill="#232323"/>
<rect y="101" width="2" height="50" transform="rotate(-90 0 101)" fill="#232323"/>
<rect y="97" width="2" height="50" transform="rotate(-90 0 97)" fill="#232323"/>
<rect y="94" width="2" height="50" transform="rotate(-90 0 94)" fill="#232323"/>
<rect y="90" width="1" height="50" transform="rotate(-90 0 90)" fill="#232323"/>
<rect y="88" width="2" height="50" transform="rotate(-90 0 88)" fill="#232323"/>
<rect y="84" width="3" height="50" transform="rotate(-90 0 84)" fill="#232323"/>
<rect y="80" width="2" height="50" transform="rotate(-90 0 80)" fill="#232323"/>
<rect y="76" width="1" height="50" transform="rotate(-90 0 76)" fill="#232323"/>
<rect y="74" width="1" height="50" transform="rotate(-90 0 74)" fill="#232323"/>
<rect y="71" width="2" height="50" transform="rotate(-90 0 71)" fill="#232323"/>
<rect y="67" width="1" height="50" transform="rotate(-90 0 67)" fill="#232323"/>
<rect y="65" width="3" height="50" transform="rotate(-90 0 65)" fill="#232323"/>
<rect y="61" width="3" height="50" transform="rotate(-90 0 61)" fill="#232323"/>
<rect y="57" width="1" height="50" transform="rotate(-90 0 57)" fill="#232323"/>
<rect y="54" width="2" height="50" transform="rotate(-90 0 54)" fill="#232323"/>
<rect y="51" width="2" height="50" transform="rotate(-90 0 51)" fill="#232323"/>
<rect y="47" width="3" height="50" transform="rotate(-90 0 47)" fill="#232323"/>
<rect y="43" width="1" height="50" transform="rotate(-90 0 43)" fill="#232323"/>
<rect y="42" width="2" height="50" transform="rotate(-90 0 42)" fill="#232323"/>
<rect y="39" width="2" height="50" transform="rotate(-90 0 39)" fill="#232323"/>
<rect y="35" width="2" height="50" transform="rotate(-90 0 35)" fill="#232323"/>
<rect y="31" width="2" height="50" transform="rotate(-90 0 31)" fill="#232323"/>
<rect y="28" width="2" height="50" transform="rotate(-90 0 28)" fill="#232323"/>
<rect y="24" width="2" height="50" transform="rotate(-90 0 24)" fill="#232323"/>
<rect y="21" width="1" height="50" transform="rotate(-90 0 21)" fill="#232323"/>
<rect y="18" width="1" height="50" transform="rotate(-90 0 18)" fill="#232323"/>
<rect y="17" width="2" height="50" transform="rotate(-90 0 17)" fill="#232323"/>
<rect y="12" width="2" height="50" transform="rotate(-90 0 12)" fill="#232323"/>
<rect y="7" width="3" height="50" transform="rotate(-90 0 7)" fill="#232323"/>
<rect y="4" width="1" height="50" transform="rotate(-90 0 4)" fill="#232323"/>
<rect y="2" width="2" height="50" transform="rotate(-90 0 2)" fill="#232323"/>
</svg>
