<svg width="10" height="10" viewBox="0 0 10 10" fill="none" xmlns="http://www.w3.org/2000/svg">
<path d="M9.77546 8.68838L6.08462 4.98987L9.75545 1.31158C10.0548 1.01145 10.0548 0.524936 9.75545 0.224973C9.45593 -0.0749909 8.97057 -0.0749909 8.67105 0.224973L5.00022 3.90326L1.32955 0.224973C1.03003 -0.0749909 0.544662 -0.0749909 0.245143 0.224973C-0.054376 0.5251 -0.054376 1.01162 0.245143 1.31158L3.91581 4.98987L0.224639 8.68838C-0.0748798 8.98851 -0.0748798 9.47486 0.224639 9.77499C0.374399 9.92505 0.570579 10 0.766923 10C0.963268 10 1.15945 9.92505 1.30921 9.77499L5.00022 6.07648L8.69106 9.77499C8.84082 9.92505 9.037 10 9.23334 10C9.42969 10 9.62587 9.92505 9.77563 9.77499C10.0748 9.47502 10.0748 8.98851 9.77546 8.68838Z" fill="#FEFEFE"/>
</svg>
