<svg width="32" height="22" viewBox="0 0 32 22" fill="none" xmlns="http://www.w3.org/2000/svg">
<path d="M4.3839 17C4.40287 16.8398 4.87126 16.4156 4.99943 16.2953C5.1563 16.1481 5.21182 16.0697 5.4466 15.8247C5.60602 15.5078 5.86699 15.1893 5.94638 14.7893C5.96596 14.4391 6.05419 14.395 5.94638 13.9997C5.84042 13.7627 5.30542 13.1856 5.06782 13.095C4.83022 13.0044 4.62187 13.0009 4.3839 13.0009C4.02552 13.0009 3.65915 12.9538 3.2949 12.9538C3.02965 12.9538 2.59155 12.8759 2.35846 13.0218C1.9408 13.2832 1.51214 13.5963 1.31681 14.0729C1.12885 14.5314 0.928924 14.9029 1.02483 15.4273C1.10765 15.88 1.44814 16.0562 1.77714 16.3424C1.92676 16.4725 2.13262 16.567 2.3269 16.6222C2.65938 16.7166 2.8134 16.6715 3.06868 16.4836C3.47205 16.1866 3.69903 15.4273 3.74471 15.1893C3.80788 14.8602 3.98617 14.3922 4.08867 14.0229C4.18227 13.2786 3.69974 12.6564 3.54216 12.0125C3.40722 11.4611 3.02926 10.9355 2.9661 10.3705C2.92263 9.98168 2.69186 9.5608 2.86877 9.16515C3.09676 8.65526 3.3302 8.37839 3.91042 8.28401C4.45344 8.19569 5.01537 8.24715 5.56234 8.19773C5.8908 8.16805 6.2425 8.05689 6.56191 7.97548C7.20862 7.81065 7.81498 7.52573 8.46108 7.35058C8.91637 7.22715 9.35543 6.69026 9.35543 6.2132C9.35543 5.95015 9.39148 5.72581 9.145 5.55431C8.8821 5.37138 8.42571 5.23449 8.09545 5.285C7.58348 5.36329 7.03455 5.84891 6.82232 6.29426C6.62317 6.71217 6.45564 7.49413 6.95121 7.77677C7.6606 8.18135 8.53331 8.43733 9.35543 8.48273C10.1995 8.52934 11.0147 8.76511 11.8649 8.76511C12.6895 8.76511 13.4247 8.70817 14.2323 8.52979C14.563 8.45674 14.8774 8.19821 15.2003 8.08268C15.5099 7.97189 15.8602 7.81607 16.1262 7.62512C16.5943 7.28904 17.1714 6.93514 17.5256 6.48251C17.768 6.17268 17.8307 5.90814 17.8307 5.5177C17.8307 5.06291 17.0619 5 16.6944 5C16.4645 5 16.1783 5.34486 16.042 5.5177C15.8829 5.71946 15.5609 6.12529 15.5133 6.38577C15.4602 6.67606 15.2799 7.1702 15.487 7.44471C15.6802 7.70074 16.3111 7.72925 16.597 7.8003C16.9466 7.88717 17.3769 7.82383 17.736 7.82383C18.2628 7.82383 19.4777 7.77677 20 7.77677" stroke="#1B799B" stroke-linecap="round"/>
<path d="M18.4919 7.52437C18.5019 7.44581 20.1531 7.40774 20.3187 7.37323C20.5076 7.33386 20.6996 7.36791 20.8872 7.33415C21.1963 7.27851 21.5051 7.17426 21.7874 7.0397C22.2464 6.82093 22.6526 6.52172 22.9561 6.11728C23.3496 5.59291 23.863 5.15202 24.2748 4.64245C24.6553 4.17158 25.1871 3.82017 25.5751 3.34741C25.8457 3.01769 26.1648 2.74684 26.4306 2.41196C26.6915 2.08322 27.0303 1.79215 27.3281 1.49736C27.4791 1.3479 27.7288 1.01802 27.9677 1.00488C28.521 0.974451 29.0327 1.07566 29.3049 1.61461C29.6221 2.24272 29.7681 2.96283 29.7681 3.67313C29.7681 4.09659 29.8155 4.51569 29.8155 4.94211C29.8155 5.34967 29.7492 5.70233 29.6734 6.09644C29.5252 6.86654 29.1048 7.61859 29.1048 8.4051C29.1048 8.6925 29.0989 8.90474 29.3154 9.11906C29.5258 9.32735 29.7318 9.46443 30.0156 9.55161C30.3018 9.63955 30.7075 9.67374 30.8 9.35357C30.9255 8.91871 31 8.53586 31 8.08199C31 7.32222 30.4858 6.69267 29.6997 6.58891C29.3831 6.54713 29.043 6.54897 28.7942 6.75047C28.4253 7.04931 28.1505 7.37499 27.8625 7.75888C27.5038 8.23677 27.1151 8.60272 26.7405 9.11906C26.5592 9.45813 26.3512 9.77745 26.12 10.0936C25.8563 10.454 25.6675 10.9112 25.4593 11.3235C25.1179 11.9995 25.0302 12.6092 25.0302 13.3507C25.0302 13.7851 25.0776 14.2319 25.0776 14.6744C25.0776 14.935 25.1461 15.2529 25.1461 15.4483C25.2244 15.6257 25.1841 15.7897 25.2698 16.0372C25.6166 17.0399 26.6468 17.5589 27.5703 17.4182C27.6771 17.402 27.8422 17.3682 27.958 17.318C28.0739 17.2679 28.3042 17.2296 28.431 17.1326C28.6092 16.9963 28.7617 16.8386 28.9127 16.6704C29.205 16.3448 29.3417 15.6767 29.3417 15.2529C29.3417 14.8089 29.3669 14.4013 29.0575 14.0439C28.8289 13.7799 28.6849 13.4781 28.431 13.2361C28.2285 13.043 27.8639 12.9467 27.5966 12.9156C27.162 12.865 26.6821 12.7607 26.241 12.8348C25.7033 12.9252 25.2861 13.3878 24.9592 13.7833C24.6509 14.1563 24.3399 14.5105 23.9642 14.8177C23.4179 15.2645 22.7232 15.5377 22.1191 15.8965C21.7154 16.1362 21.1438 16.1885 20.6898 16.2717C20.1392 16.3727 19.5379 16.4828 18.9763 16.4828C18.3164 16.4828 17.7163 16.4458 17.0706 16.3317C16.4156 16.2159 15.8111 15.9553 15.1754 15.7897C14.4575 15.6027 13.7616 15.3422 13.0539 15.1226C12.4299 14.929 11.8057 14.7434 11.1771 14.5624C10.7555 14.441 10.2369 14.2784 9.79788 14.2784C8.8075 14.2784 7.33202 13.9835 7.12096 15.2894C7.00213 16.0246 6.88225 16.9274 7.22625 17.6085C7.82219 18.7884 9.26437 19.2876 10.5217 19.1458C11.0072 19.0911 11.3721 18.8694 11.7825 18.6169C12.0236 18.4685 12.1748 18.2172 12.4274 18.0775C13.0498 17.7332 13.9803 17.9074 14.6595 18.0097C15.6224 18.1548 16.5968 18.7627 16.5968 19.8363C16.5968 20.0826 16.6532 20.4055 16.5468 20.6337C16.325 21.1094 15.5757 20.9855 15.1491 20.9855C14.7053 20.9855 14.2775 20.8525 13.8593 20.7145C13.3355 20.5416 12.6714 20.4766 12.2616 20.0709C12.1234 19.934 11.9866 19.8135 11.8589 19.6722C11.7668 19.5703 11.759 19.4379 11.693 19.3204C11.6203 19.1909 11.5932 18.8609 11.4743 18.802" stroke="#1B799B" stroke-linecap="round"/>
</svg>
