<svg width="149" height="41" viewBox="0 0 149 41" fill="none" xmlns="http://www.w3.org/2000/svg">
<g clip-path="url(#clip0_147_4463)">
<path d="M1 0H6.59664V22.0547H19V27.027H1V0Z" fill="#1B799B"/>
<path d="M23.9545 18.0754C24.1024 21.4322 25.6552 23.0307 28.3913 23.0307C30.3879 23.0307 32.0147 21.6719 32.3105 20.4731H36.6734C35.2684 25.1087 32.3105 27.0269 28.2434 27.0269C22.5495 27.0269 19 22.7909 19 16.7966C19 10.9621 22.6974 6.48633 28.2434 6.48633C34.381 6.48633 37.3389 12.081 36.9692 18.0754H23.9545ZM32.0147 14.7185C31.571 12.0011 30.4618 10.5625 28.0955 10.5625C24.9897 10.5625 24.0284 13.2 23.9545 14.7185H32.0147Z" fill="#1B799B"/>
<path d="M40.0573 11.0347H37V7.43643H40.0573V5.91716C40.0573 2.47881 42.121 0 46.3248 0C47.242 0 48.1592 0.0799592 49 0.159921V4.158C48.3885 4.07804 47.7771 4.07804 47.0892 4.07804C45.7134 4.07804 45.1783 4.71773 45.1783 6.31697V7.51639H48.6943V11.1147H45.1783V27.027H40.0573V11.0347Z" fill="#1B799B"/>
<path d="M56.2548 6.77113H60V10.2787H56.2548V19.7102C56.2548 21.503 56.7134 21.8927 58.3949 21.8927C58.9299 21.8927 59.465 21.8927 60 21.7368V25.79C59.1592 25.9459 58.0127 25.9459 57.0191 25.9459C53.8854 25.9459 51.1338 25.2444 51.1338 21.425V10.2787H48V6.77113H51.1338V1.08105H56.2548V6.77113Z" fill="#1B799B"/>
<path d="M62 0H73.7986C78.5477 0 81.8127 1.68417 81.8127 6.73671C81.8127 9.38327 80.5512 11.2278 78.3993 12.3506C81.4417 13.313 83 15.7992 83 19.1675C83 24.6211 78.6961 27.027 74.1696 27.027H62V0ZM67.4912 10.907H73.0565C74.9859 10.907 76.3958 9.94466 76.3958 7.69909C76.3958 5.13273 74.5406 4.57133 72.6113 4.57133H67.4912V10.907ZM67.4912 22.3755H73.3534C75.5053 22.3755 77.4346 21.6537 77.4346 18.8467C77.4346 16.12 75.8021 14.9972 73.5018 14.9972H67.4912V22.3755Z" fill="#1B799B"/>
<path d="M84.605 13.0657C84.9076 8.01082 89.1429 6.48633 93.3025 6.48633C97.0084 6.48633 101.395 7.36893 101.395 12.0226V22.2127C101.395 23.9779 101.546 25.7431 102 26.5455H96.8571C96.7059 25.9036 96.5546 25.2617 96.479 24.6198C94.8908 26.385 92.5462 27.0269 90.2773 27.0269C86.7983 27.0269 84 25.1814 84 21.1696C84 16.7566 87.1765 15.7135 90.2773 15.2321C93.3781 14.7507 96.2521 14.8309 96.2521 12.6645C96.2521 10.3377 94.7395 10.0167 93 10.0167C91.1092 10.0167 89.8235 10.8191 89.6723 12.9855H84.605V13.0657ZM96.3277 16.9973C95.4958 17.7997 93.6807 17.7997 92.0924 18.1206C90.5042 18.4416 89.0672 19.0032 89.0672 21.0091C89.0672 23.015 90.5042 23.4965 92.1681 23.4965C96.1008 23.4965 96.2521 20.1265 96.2521 19.0032V16.9973H96.3277Z" fill="#1B799B"/>
<path d="M104 7.02902H108.751V9.66496H108.825C110.087 7.57172 112.24 6.48633 114.393 6.48633C119.664 6.48633 121 9.58744 121 14.3166V25.9458H116.026V15.247C116.026 12.1459 115.135 10.5953 112.834 10.5953C110.162 10.5953 108.974 12.1459 108.974 16.0222V25.9458H104V7.02902Z" fill="#1B799B"/>
<path d="M124.075 0H129.079V14.516L135.353 7.4585H141.253L134.382 14.6764L142 27.027H135.95L130.946 18.2853L129.004 20.2903V27.027H124V0H124.075Z" fill="#1B799B"/>
<path d="M143 20.541H149V25.9464H143V20.541Z" fill="#1B799B"/>
<path d="M100.604 34.4891C100.689 32.9071 102.205 32.4324 103.721 32.4324C105.069 32.4324 106.585 32.6697 106.585 34.1727V37.416C106.585 37.9697 106.67 38.5234 106.838 38.7607H104.985C104.901 38.6025 104.901 38.3652 104.816 38.1279C104.227 38.6816 103.384 38.9189 102.626 38.9189C101.362 38.9189 100.352 38.3652 100.352 37.0204C100.352 35.5966 101.447 35.2802 102.626 35.122C103.721 34.9637 104.732 34.9637 104.732 34.3309C104.732 33.619 104.227 33.4608 103.553 33.4608C102.879 33.4608 102.373 33.6981 102.373 34.41H100.604V34.4891ZM104.816 35.7548C104.479 35.9921 103.89 35.9921 103.3 36.1503C102.71 36.2294 102.205 36.4667 102.205 37.0995C102.205 37.7324 102.71 37.8906 103.3 37.8906C104.732 37.8906 104.732 36.8622 104.732 36.4667V35.7548H104.816Z" fill="#1B799B"/>
<path d="M108.003 32.5948H109.699V33.811C110.038 33.0002 110.97 32.4326 111.818 32.4326C111.988 32.4326 112.073 32.4326 112.242 32.5137V34.1353C112.073 34.1353 111.818 34.0542 111.564 34.0542C110.207 34.0542 109.783 34.9461 109.783 36.0813V38.9191H107.918V32.5948H108.003Z" fill="#1B799B"/>
<path d="M115.21 32.2857H116.567V33.4613H115.21V36.736C115.21 37.3238 115.379 37.4917 115.973 37.4917C116.143 37.4917 116.312 37.4917 116.567 37.4077V38.8352C116.227 38.9192 115.888 38.9192 115.464 38.9192C114.362 38.9192 113.344 38.6673 113.344 37.3238V33.4613H112.242V32.2857H113.344V30.2705H115.21V32.2857Z" fill="#1B799B"/>
<path d="M123.057 38.3042C123.057 39.3357 122.651 41.0813 119.732 41.0813C118.516 41.0813 116.976 40.5258 116.895 39.0976H118.597C118.76 39.7324 119.327 39.9704 119.895 39.9704C120.868 39.9704 121.273 39.3357 121.273 38.4629V37.6694C120.868 38.3042 120.138 38.6216 119.327 38.6216C117.381 38.6216 116.57 37.1933 116.57 35.5271C116.57 33.9402 117.543 32.4326 119.327 32.4326C120.138 32.4326 120.787 32.6707 121.192 33.4641V32.6707H122.814V38.3042H123.057ZM121.354 35.5271C121.354 34.4956 121.03 33.6228 119.895 33.6228C118.922 33.6228 118.516 34.4956 118.516 35.3684C118.516 36.2412 118.841 37.2727 119.895 37.2727C120.868 37.2727 121.354 36.3999 121.354 35.5271Z" fill="#1B799B"/>
<path d="M124.133 32.5948H125.863V33.811C126.208 33.0002 127.16 32.4326 128.025 32.4326C128.198 32.4326 128.284 32.4326 128.457 32.5137V34.1353C128.284 34.1353 128.025 34.0542 127.765 34.0542C126.381 34.0542 125.949 34.9461 125.949 36.0813V38.9191H124.133V32.5948Z" fill="#1B799B"/>
<path d="M131.704 32.4326C133.682 32.4326 134.947 33.6983 134.947 35.6759C134.947 37.6534 133.682 38.9191 131.704 38.9191C129.727 38.9191 128.461 37.6534 128.461 35.6759C128.461 33.6983 129.727 32.4326 131.704 32.4326ZM131.704 37.6534C132.891 37.6534 133.207 36.6251 133.207 35.6759C133.207 34.6475 132.891 33.6983 131.704 33.6983C130.518 33.6983 130.201 34.7266 130.201 35.6759C130.201 36.7042 130.518 37.6534 131.704 37.6534Z" fill="#1B799B"/>
<path d="M142.341 38.7569H140.611V37.865C140.179 38.5948 139.314 38.9191 138.535 38.9191C136.546 38.9191 136.027 37.865 136.027 36.3245V32.4326H137.93V36.0002C137.93 37.0542 138.276 37.5407 139.141 37.5407C140.179 37.5407 140.611 36.9732 140.611 35.7569V32.4326H142.514V38.7569H142.341Z" fill="#1B799B"/>
<path d="M142.512 32.5928H144.154V33.3936C144.564 32.7529 145.303 32.4326 146.042 32.4326C148.095 32.4326 148.998 34.0342 148.998 35.796C148.998 37.4777 148.013 39.0793 146.207 39.0793C145.468 39.0793 144.729 38.7589 144.236 38.1183V41.0813H142.512V32.5928ZM147.274 35.7159C147.274 34.7549 146.863 33.7139 145.714 33.7139C144.564 33.7139 144.154 34.7549 144.154 35.7159C144.154 36.6769 144.564 37.7179 145.714 37.7179C146.946 37.7179 147.274 36.7569 147.274 35.7159Z" fill="#1B799B"/>
</g>
<defs>
<clipPath id="clip0_147_4463">
<rect width="149" height="41" fill="white"/>
</clipPath>
</defs>
</svg>
