<svg width="97" height="52" viewBox="0 0 97 52" fill="none" xmlns="http://www.w3.org/2000/svg">
<path d="M11 0.564103V4.41026C11 4.71795 10.75 4.97436 10.45 4.97436H5.05V15.3846H10.2C10.5 15.3846 10.75 15.641 10.75 15.9487V19.7949C10.75 20.1026 10.5 20.359 10.2 20.359H5.05V35.4359C5.05 35.7436 4.8 36 4.5 36H0.55C0.25 36 0 35.7436 0 35.4359V0.564103C0 0.25641 0.25 0 0.55 0H10.45C10.75 0 11 0.25641 11 0.564103Z" fill="#6F8890"/>
<path d="M25.9511 0.564103V4.41026C25.9511 4.71795 25.7067 4.97436 25.4133 4.97436H19.8889V15.1795H25.1689C25.4622 15.1795 25.7067 15.4359 25.7067 15.7436V19.5897C25.7067 19.8974 25.4622 20.1538 25.1689 20.1538H19.8889V31.0256H25.4622C25.7556 31.0256 26 31.2821 26 31.5897V35.4359C26 35.7436 25.7556 36 25.4622 36H15.5378C15.2444 36 15 35.7436 15 35.4359V0.564103C15 0.25641 15.2444 0 15.5378 0H25.4622C25.7067 0 25.9511 0.25641 25.9511 0.564103Z" fill="#6F8890"/>
<path d="M35.7642 0.5633V31.0327H40.4811C40.7642 31.0327 41 31.2888 41 31.596V35.4367C41 35.744 40.7642 36 40.4811 36H31.5189C31.2359 36 31 35.744 31 35.4367V0.5633C31 0.256046 31.2359 0 31.5189 0H35.2453C35.5283 0 35.7642 0.256046 35.7642 0.5633Z" fill="#6F8890"/>
<path d="M53.8 37H51.1C47 37 45 34.7779 45 30.2304V6.76955C45 2.27374 47.05 0 51.15 0H53.85C57.95 0 60 2.22207 60 6.76955V30.2304C59.95 34.7779 57.9 37 53.8 37ZM53 4.90922H51.95C50.65 4.90922 50 5.581 50 7.02793V29.9721C50 31.419 50.6 32.0908 51.95 32.0908H53C54.25 32.0908 54.9 31.419 54.9 29.9721V7.02793C54.9 5.581 54.25 4.90922 53 4.90922Z" fill="#6F8890"/>
<path d="M75.0396 0H78.4555C78.7525 0 79 0.256046 79 0.5633V35.4367C79 35.744 78.7525 36 78.4555 36H74C73.7525 36 73.5049 35.7952 73.4554 35.5391L68.4554 11.6757L68.5049 35.3855C68.5049 35.6927 68.2574 35.9488 67.9604 35.9488H64.5446C64.2475 35.9488 64 35.6927 64 35.3855V0.5633C64 0.256046 64.2475 0 64.5446 0H69.396C69.6436 0 69.8911 0.204837 69.9406 0.460883L74.4951 22.3784L74.4455 0.5633C74.495 0.256046 74.7426 0 75.0396 0Z" fill="#6F8890"/>
<path d="M97 24.3054V30.2399C97 34.7294 95.0138 37 91.0415 37H88.91C84.9377 37 83 34.781 83 30.2915V23.1185C83 22.8089 83.2422 22.5509 83.5329 22.5509H87.2145C87.5052 22.5509 87.7474 22.8089 87.7474 23.1185V30.0335C87.7474 31.4268 88.3287 32.0976 89.6367 32.0976H90.2664C91.526 32.0976 92.1557 31.4268 92.1557 30.0335V25.0795C92.1557 23.583 91.7197 22.9121 90.7993 22.1381L85.8581 18.0098C83.6782 16.2552 83.0484 14.5523 83.0484 11.7141V6.76011C83.0484 2.27057 85.0346 0 89.0069 0H91.0415C94.9654 0 96.9516 2.21897 96.9516 6.70851V12.7462C96.9516 13.0558 96.7093 13.3138 96.4187 13.3138H92.6401C92.3495 13.3138 92.1073 13.0558 92.1073 12.7462V6.91492C92.1073 5.52162 91.526 4.85077 90.2664 4.85077H89.6851C88.474 4.85077 87.8443 5.52162 87.8443 6.91492V10.94C87.8443 12.4365 88.2803 13.159 89.2007 13.8814L94.1419 17.9582C96.3218 19.7643 97 21.3124 97 24.3054Z" fill="#6F8890"/>
<path d="M88.0265 50.6034L88.3805 50.9483C88.4513 51.0172 88.5221 51.0172 88.5929 50.9483L88.9469 50.6034C89.0177 50.5345 89.0177 50.4655 88.9469 50.3966L88.5929 50.0517C88.5221 49.9828 88.4513 49.9828 88.3805 50.0517L88.0265 50.3966C87.9912 50.4655 87.9912 50.5345 88.0265 50.6034Z" fill="#6F8890"/>
<path d="M10.336 52H8.31447C8.13477 52 8 51.8448 8 51.6379V46.3621C8 46.1552 8.13477 46 8.31447 46H10.1114C11.0548 46 11.7287 46.6724 11.7287 47.5C11.7287 48.069 11.549 48.5345 11.1447 48.6897C11.4591 48.8448 11.9982 49.3621 11.9982 50.1379C12.0431 51.3793 11.2345 52 10.336 52ZM9.93172 47.3448H9.57233C9.52741 47.3448 9.52741 47.3966 9.52741 47.3966V48.2759C9.52741 48.3276 9.57233 48.3276 9.57233 48.3276H9.93172C10.1563 48.3276 10.381 48.1207 10.381 47.8103C10.381 47.5517 10.1563 47.3448 9.93172 47.3448ZM9.93172 49.3621H9.57233C9.52741 49.3621 9.52741 49.4138 9.52741 49.4138V50.4483C9.52741 50.5 9.57233 50.5 9.57233 50.5H10.0665C10.2911 50.5 10.4259 50.3448 10.5157 50.0862C10.6056 49.7759 10.2911 49.3621 9.93172 49.3621Z" fill="#6F8890"/>
<path d="M19.3018 52C19.1394 52 19.0311 51.9492 18.977 51.7966L17.7321 49.7627V51.5932C17.7321 51.7966 17.5697 51.9492 17.3532 51.9492H16.433C16.2165 51.9492 16 51.7458 16 51.5424V46.4068C16 46.2034 16.2165 46 16.433 46H18.4899C19.7889 46 20.7632 46.9661 20.6008 48.1864C20.4926 48.8983 20.0595 49.2034 19.5183 49.4576C19.4641 49.4576 19.4641 49.5085 19.5183 49.5085L20.9797 51.6441C21.0338 51.7458 20.9797 51.8983 20.8173 51.8983H19.3018V52ZM18.0568 47.4237H17.7321V48.5932H18.0568C18.544 48.5932 18.8687 48.4407 18.8687 48.0339C18.8687 47.6271 18.544 47.4237 18.0568 47.4237Z" fill="#6F8890"/>
<path d="M28.6667 52H25.3889C25.1667 52 25 51.8448 25 51.6379V46.3621C25 46.1552 25.1667 46 25.3889 46H28.6111C28.7222 46 28.8889 46.1034 28.8889 46.2069L29 47.1897C29 47.3448 28.8889 47.4483 28.7222 47.4483H26.7778V48.2241H28.5C28.6111 48.2241 28.7222 48.3276 28.7222 48.431V49.4138C28.7222 49.5172 28.6111 49.6207 28.5 49.6207H26.7778V50.4483H28.7222C28.8333 50.4483 28.9444 50.5517 28.9444 50.6552L28.8333 51.7414C28.8889 51.9483 28.7778 52 28.6667 52Z" fill="#6F8890"/>
<path d="M38.0587 52H37.042C36.8895 52 36.7371 51.8966 36.6862 51.6897L36.0254 48.7931L35.3646 51.6897C35.3138 51.8448 35.1613 52 35.0088 52H33.9922C33.8397 52 33.6872 51.8966 33.6363 51.7414L32.0097 46.4655C31.9589 46.2069 32.1114 46 32.3656 46H33.2805C33.433 46 33.5855 46.1034 33.6363 46.2586L34.5513 49.4138L35.3646 46.2586C35.4154 46.1034 35.5679 46 35.7204 46H36.2796C36.4321 46 36.5846 46.1034 36.6354 46.2586L37.4487 49.4138L38.3637 46.2586C38.4145 46.1034 38.567 46 38.7195 46H39.6344C39.8886 46 40.0411 46.2586 39.9903 46.4655L38.3637 51.7414C38.3637 51.8966 38.2112 52 38.0587 52Z" fill="#6F8890"/>
<path d="M44 51.5862V46.4138C44 46.2069 44.25 46 44.5 46H45.5C45.75 46 46 46.2069 46 46.4138V51.5862C46 51.7931 45.75 52 45.5 52H44.5C44.25 52 44 51.8448 44 51.5862Z" fill="#6F8890"/>
<path d="M53.7245 52C53.5714 52 53.4694 51.9483 53.3673 51.7931L51.6327 49.1552V51.5862C51.6327 51.7931 51.4286 52 51.2245 52H50.4082C50.2041 52 50 51.7931 50 51.5862V46.4138C50 46.2069 50.2041 46 50.4082 46H51.2755C51.4286 46 51.5306 46.0517 51.6327 46.2069L53.3673 48.8448V46.4138C53.3673 46.2069 53.5714 46 53.7755 46H54.5918C54.7959 46 55 46.2069 55 46.4138V51.5862C55 51.7931 54.7959 52 54.5918 52H53.7245Z" fill="#6F8890"/>
<path d="M61.9744 52C60.3333 52 59 50.7317 59 49.0244C59 47.2683 60.3333 46 62.1282 46C63.1538 46 63.6667 46.2439 64.1795 46.7317C64.3333 46.8293 64.3333 47.0732 64.2308 47.1707L63.6667 47.7561C63.5641 47.9024 63.3077 47.9024 63.2051 47.8049C62.8462 47.5122 62.5385 47.4146 62.1282 47.4146C61.3077 47.4146 60.641 48.0488 60.641 48.9756C60.641 49.8537 61.2051 50.5366 62.1282 50.5366C62.641 50.5366 62.8974 50.3902 63.2051 50.1463C63.2564 50.0976 63.3077 50 63.3077 49.9024V49.561H62.5897C62.3846 49.561 62.1795 49.3659 62.2308 49.1707L62.282 48.5854C62.282 48.439 62.4359 48.2927 62.641 48.2927H64.641C64.8462 48.2927 65 48.439 65 48.6341V50.2439C65 50.2927 65 50.3902 64.9487 50.439C64.2308 51.3659 63.5128 52 61.9744 52Z" fill="#6F8890"/>
<path d="M75.4692 51.9624C73.3479 52.3046 71.564 50.2519 72.0944 48.1504C72.4319 46.8797 73.5407 46 74.9389 46C75.5657 46 76.2406 46.1466 76.771 46.5865C76.8674 46.6353 76.8674 46.782 76.8192 46.8308L76.2889 47.7594C76.2406 47.8572 76.0478 47.906 75.9514 47.8083C75.6621 47.515 75.3246 47.3684 74.9871 47.3684C74.2157 47.3684 73.589 48.0038 73.589 48.9323C73.589 49.8609 74.2157 50.4963 74.9871 50.4963C75.3728 50.4963 75.7103 50.3497 75.9996 50.0075C76.096 49.9098 76.2407 49.9098 76.3371 50.0075L76.9638 50.8872C77.0121 50.985 77.0121 51.0827 76.9638 51.1316C76.5781 51.6203 76.0478 51.8647 75.4692 51.9624Z" fill="#6F8890"/>
<path d="M84 52C82.2295 52 81 50.6721 81 49C81 47.3279 82.2787 46 84 46C85.7213 46 87 47.3279 87 49C87 50.6229 85.7213 52 84 52ZM84 47.3771C83.2131 47.3771 82.5738 48.0164 82.5738 48.9508C82.5738 49.8852 83.2131 50.5246 84 50.5246C84.7869 50.5246 85.4262 49.8852 85.4262 48.9508C85.4262 48.0164 84.7869 47.3771 84 47.3771Z" fill="#6F8890"/>
</svg>
