<svg width="160" height="57" viewBox="0 0 160 57" fill="none" xmlns="http://www.w3.org/2000/svg">
<path d="M51.8919 17L21.0811 49.7586H20.2703L0 28.2931V57H27C41.9189 57 54 44.1552 54 28.2931C54 24.2414 53.2703 20.4483 51.8919 17Z" fill="#6F8890"/>
<path d="M21.1419 36L47 9.12676C42.0398 3.5493 34.9654 0 27.0779 0H0.0813149H0V28.1409H12.7664L20.2474 35.9155H21.1419V36Z" fill="#6F8890"/>
<path d="M126.57 20.51V36.49L126.814 36.745H129.5L129.744 36.49V25.61H129.988L136.093 36.405L136.581 36.66H139.756L140 36.405V20.51L139.756 20.255H137.07L136.826 20.51V31.305H136.581L130.395 20.51L129.907 20.255H126.733L126.57 20.51ZM124.453 36.405V27.99L124.209 27.735H117.209L116.965 27.99V30.37L117.209 30.625H121.035L121.279 30.88C121.279 32.75 120.14 34.195 117.698 34.195C114.767 34.195 113.221 31.815 113.221 28.585C113.221 25.27 114.767 22.975 117.698 22.975C120.14 22.975 120.872 24.165 121.279 25.1L121.523 25.355H124.209L124.453 25.1C123.965 22.72 122.174 20.17 117.698 20.17C112.977 20.17 110.047 23.655 110.047 28.585C110.047 33.515 112.977 37 117.453 37C119.895 37 121.035 35.81 121.523 35.385H121.767L122.012 36.575L122.256 36.83H124.291L124.453 36.405ZM108.093 36.405V20.51L107.849 20.255H105.163L105 20.51V36.49L105.244 36.745H107.93L108.093 36.405ZM102.965 31.985C102.965 28.67 100.523 27.31 97.3488 26.8C94.1744 26.29 93.2791 25.865 93.2791 24.42C93.2791 23.485 93.9302 22.805 95.9651 22.805C98.407 22.805 99.1395 23.485 99.1395 24.93L99.3837 25.185H102.07L102.314 24.93C102.314 22.125 100.523 20 96.2093 20C91.9767 20 90.1046 22.125 90.1046 24.42C90.1046 27.735 92.5465 28.84 95.7209 29.35C98.8953 29.86 99.7907 30.285 99.7907 31.9C99.7907 33.345 98.6512 34.025 96.6163 34.025C93.9302 34.025 93.0349 33.09 93.0349 31.475L92.7907 31.22H90.1046L89.8605 31.475C89.8605 34.535 91.8953 36.915 96.3721 36.915C101.174 36.915 102.965 34.535 102.965 31.985ZM88.3953 36.405V34.11L88.1512 33.855H80.7442L80.5 33.6V29.86L80.7442 29.605H87.7442L87.9884 29.35V26.97L87.7442 26.715H80.7442L80.5 26.46V23.145L80.7442 22.89H88.1512L88.3953 22.635V20.51L88.1512 20.255H77.5698L77.407 20.51V36.49L77.6512 36.745H88.2326L88.3953 36.405ZM72.686 28.415C72.686 32.155 71.5465 33.855 68.4535 33.855H66.4186L66.1744 33.6V23.315L66.4186 23.06H68.4535C71.5465 23.06 72.686 24.675 72.686 28.415ZM75.8605 28.415C75.8605 23.23 73.8256 20.17 68.2093 20.17H63.2442L63 20.51V36.49L63.2442 36.745H68.2093C73.8256 36.66 75.8605 33.6 75.8605 28.415Z" fill="#6F8890"/>
<path d="M121.826 8.45729C121.826 12.2161 120.686 13.9246 117.593 13.9246H115.558L115.314 13.6683V3.24623L115.558 2.98995H117.593C120.686 2.98995 121.826 4.69849 121.826 8.45729ZM125 8.45729C125 3.24623 122.965 0.170855 117.349 0.170855H112.384L112.14 0.427136V16.4874L112.384 16.7437H117.349C122.965 16.6583 125 13.5829 125 8.45729ZM110.267 8.45729C110.267 3.50251 107.337 0 102.616 0C97.8953 0 94.9651 3.50251 94.9651 8.45729C94.9651 13.4121 97.8953 16.9146 102.616 16.9146C107.337 16.9146 110.267 13.4121 110.267 8.45729ZM107.093 8.45729C107.093 11.7889 105.547 14.0955 102.616 14.0955C99.686 14.0955 98.1395 11.7035 98.1395 8.45729C98.1395 5.12563 99.686 2.8191 102.616 2.8191C105.547 2.73367 107.093 5.12563 107.093 8.45729ZM93.4186 8.45729C93.4186 3.50251 90.4884 0 85.7674 0C81.0465 0 78.1163 3.50251 78.1163 8.45729C78.1163 13.4121 81.0465 16.9146 85.7674 16.9146C90.4884 16.9146 93.4186 13.4121 93.4186 8.45729ZM90.2442 8.45729C90.2442 11.7889 88.6977 14.0955 85.7674 14.0955C82.8372 14.0955 81.2907 11.7035 81.2907 8.45729C81.2907 5.12563 82.8372 2.8191 85.7674 2.8191C88.6977 2.73367 90.2442 5.12563 90.2442 8.45729ZM76.3256 16.4874V7.94472L76.0814 7.68844H69.0814L68.9186 7.94472V10.3367L69.1628 10.593H72.9884L73.2326 10.8492C73.2326 12.7286 72.093 14.1809 69.6512 14.1809C66.7209 14.1809 65.1744 11.7889 65.1744 8.54272C65.1744 5.21106 66.7209 2.90452 69.6512 2.90452C72.093 2.90452 72.8256 4.1005 73.2326 5.0402L73.4767 5.29648H76.1628L76.407 5.0402C75.9186 2.64824 74.1279 0.0854258 69.6512 0.0854258C64.9302 0.0854258 62 3.58794 62 8.54272C62 13.4975 64.9302 17 69.407 17C71.8488 17 72.9884 15.804 73.4767 15.3769H73.7209L73.9651 16.5729L74.2093 16.8291H76.2442L76.3256 16.4874Z" fill="#6F8890"/>
<path d="M152 52.1045C152 48.7564 149.579 47.3829 146.432 46.8678C143.286 46.3527 142.398 45.9235 142.398 44.4641C142.398 43.5197 143.044 42.833 145.061 42.833C147.481 42.833 148.208 43.5197 148.208 44.9791L148.45 45.2367H151.112L151.354 44.9791C151.354 42.1462 149.579 40 145.383 40C141.188 40 139.413 42.1462 139.413 44.4641C139.413 47.8121 141.833 48.9281 144.98 49.4432C148.127 49.9583 149.014 50.3875 149.014 52.0186C149.014 53.478 147.885 54.1648 145.868 54.1648C143.205 54.1648 142.317 53.2205 142.317 51.5894L142.075 51.3318H139.413L139.17 51.5894C139.17 54.6799 141.188 56.9978 145.626 56.9978C150.144 57.0836 152 54.6799 152 52.1045ZM134.41 48.4989C134.41 52.2762 133.28 53.9073 130.214 53.9073H128.197L127.955 53.6497V43.348L128.197 43.0905H130.214C133.28 43.0905 134.41 44.7216 134.41 48.4989ZM137.476 48.4989C137.476 43.2622 135.459 40.1717 129.891 40.1717H124.969L124.727 40.4292V56.4827L124.969 56.7402H129.891C135.539 56.8261 137.476 53.7356 137.476 48.4989ZM119.966 45.2367C119.966 46.8678 119.079 47.3829 117.707 47.3829H113.511L113.269 47.1253V43.348L113.511 43.0905H117.707C119.079 43.0905 119.966 43.5197 119.966 45.2367ZM123.113 45.2367C123.113 41.8886 120.854 40.2575 117.788 40.2575H110.445L110.203 40.5151V56.5685L110.445 56.8261H113.108L113.35 56.5685V50.3875L113.592 50.13H115.851L116.335 50.3875L120.773 56.5685L121.257 56.8261H122.629L122.871 56.5685V54.1648L119.966 50.13V49.8724C121.5 49.4432 123.113 47.8121 123.113 45.2367ZM103.99 50.2158L103.748 50.4734H99.9556L99.7135 50.2158L101.731 44.5499H101.973L103.99 50.2158ZM108.589 56.5685V54.1648L103.506 40.4292L103.264 40.1717H100.359L100.117 40.4292L95.0335 54.1648V56.5685L95.2756 56.8261H97.2928L97.5349 56.5685L98.6645 53.478L99.1487 53.2205H104.716L105.2 53.478L106.33 56.5685L106.572 56.8261H108.589V56.5685ZM84.3019 40.2575L84.0598 40.5151L81.155 51.4177H80.913L78.6537 40.5151L78.4923 40.2575H76.233L76.0716 40.5151V42.9188L79.3799 56.6544L79.6219 56.9119H82.5267L82.7688 56.6544L85.6736 45.3225H85.9157L88.8205 56.6544L89.0626 56.9119H91.9674L92.2094 56.6544L95.5177 42.9188V40.5151L95.2756 40.2575H93.0163L92.7742 40.5151L90.515 51.4177H90.2729L87.3681 40.5151L87.126 40.2575H84.3019ZM71.8758 50.2158L71.6337 50.4734H67.8413L67.5993 50.2158L69.6165 44.5499H69.8586L71.8758 50.2158ZM76.5558 56.5685V54.1648L71.4723 40.4292L71.2303 40.2575H68.3255L68.0834 40.5151L63 54.2507V56.6544L63.2421 56.9119H65.2593L65.5014 56.6544L66.631 53.5639L67.1151 53.3063H72.6827L73.1668 53.5639L74.2965 56.6544L74.5385 56.9119H76.5558V56.5685Z" fill="#6F8890"/>
<path d="M157.538 41.0641H156.385L156.308 41.1538V42.3205L156.385 42.4103H157.538C157.923 42.4103 158.154 42.141 158.154 41.6923C158.077 41.3333 157.923 41.0641 157.538 41.0641ZM158.538 43.9359V44.2949L158.462 44.3846H158.385L158.231 44.2949L157.385 42.9487L157.231 42.859H156.385L156.308 42.9487V44.2949L156.231 44.3846H155.923L155.846 44.2949V40.7051L155.923 40.6154H157.615C158.231 40.6154 158.692 40.9744 158.692 41.782C158.692 42.3205 158.385 42.7692 157.923 42.859V42.9487L158.538 43.9359ZM157 45.5513C158.385 45.5513 159.538 44.2051 159.538 42.5897C159.538 40.9744 158.385 39.6282 157 39.6282C155.615 39.6282 154.462 40.9744 154.462 42.5897C154.462 44.2051 155.615 45.5513 157 45.5513ZM157 39C158.692 39 160 40.5256 160 42.5C160 44.4744 158.692 46 157 46C155.308 46 154 44.4744 154 42.5C154 40.6154 155.385 39 157 39Z" fill="#6F8890"/>
</svg>
