<svg width="44" height="34" viewBox="0 0 44 34" fill="none" xmlns="http://www.w3.org/2000/svg">
<path d="M22.1417 0H22.3864C24.647 0.0092601 36.1016 0.100009 39.19 1.01367C41.09 1.58101 42.5722 3.21727 43.0816 5.30943C43.3591 6.45892 43.5544 7.98035 43.6866 9.55056L43.7141 9.86509L43.7744 10.6519L43.7966 10.9664C43.9753 13.7315 43.9972 16.3209 44 16.8867V17.1136C43.9972 17.7004 43.9725 20.4654 43.7744 23.3453L43.7525 23.663L43.7278 23.9775C43.5903 25.7079 43.3866 27.4263 43.0813 28.6909C42.5722 30.7827 41.09 32.419 39.19 32.9866C35.9997 33.9302 23.8742 33.9969 22.1939 34H21.8033C20.9536 34 17.4386 33.9818 13.7536 33.8426L13.2861 33.8244L13.0468 33.8123L12.5765 33.7913L12.1062 33.77C9.05339 33.6219 6.14653 33.383 4.80717 32.9836C2.90798 32.4165 1.42579 30.7818 0.915638 28.6909C0.610332 27.4293 0.406888 25.7079 0.269388 23.9775L0.2475 23.6599L0.225612 23.3453C0.0889541 21.2955 0.01375 19.2413 0 17.1861V16.8139C0.00561224 16.1635 0.0275 13.9158 0.175944 11.4353L0.195306 11.1235L0.203444 10.9664L0.225612 10.6516L0.285944 9.86509L0.313444 9.55056C0.445612 7.98035 0.640638 6.45583 0.918444 5.30912C1.42776 3.21727 2.90995 1.58101 4.80997 1.01336C6.14934 0.620118 9.0562 0.378121 12.109 0.226872L12.5765 0.205883L13.0496 0.187671L13.2861 0.178411L13.7565 0.157421C16.3737 0.0648203 18.9921 0.0132726 21.6108 0.00308648L22.1417 0ZM17.6011 9.71076V24.2862L29.0335 17.0015L17.6011 9.71076Z" fill="#FF3433"/>
</svg>
